<?xml version="1.0" encoding="UTF-8" standalone="no"?>
<!DOCTYPE svg PUBLIC "-//W3C//DTD SVG 1.1//EN"
 "http://www.w3.org/Graphics/SVG/1.1/DTD/svg11.dtd">
<!-- Generated by graphviz version 2.43.0 (0)
 -->
<!-- Pages: 1 -->
<svg width="351pt" height="1052pt"
 viewBox="0.00 0.00 351.00 1052.00" xmlns="http://www.w3.org/2000/svg" xmlns:xlink="http://www.w3.org/1999/xlink">
<g id="graph0" class="graph" transform="scale(1 1) rotate(0) translate(4 1048)">
<polygon fill="white" stroke="transparent" points="-4,4 -4,-1048 347,-1048 347,4 -4,4"/>
<!-- ROOT -->
<g id="node1" class="node">
<title>ROOT</title>
<polygon fill="#0000ff" fill-opacity="0.250980" stroke="black" points="299,-1044 0,-1044 0,-990 299,-990 299,-1044"/>
<text text-anchor="middle" x="149.5" y="-1013.3" font-family="Times,serif" font-size="14.00">job_DBdirect_Mis006_RRMD_Extr_POC</text>
</g>
<!-- V0 -->
<g id="node2" class="node">
<title>V0</title>
<polygon fill="#0000ff" fill-opacity="0.250980" stroke="black" points="192.5,-954 106.5,-954 106.5,-900 192.5,-900 192.5,-954"/>
<text text-anchor="middle" x="149.5" y="-923.3" font-family="Times,serif" font-size="14.00">Job_VIEW</text>
</g>
<!-- ROOT&#45;&gt;V0 -->
<g id="edge1" class="edge">
<title>ROOT&#45;&gt;V0</title>
<path fill="none" stroke="black" d="M149.5,-989.6C149.5,-981.61 149.5,-972.69 149.5,-964.18"/>
<polygon fill="black" stroke="black" points="153,-964.08 149.5,-954.08 146,-964.08 153,-964.08"/>
</g>
<!-- V0A58 -->
<g id="node3" class="node">
<title>V0A58</title>
<polygon fill="#0000ff" fill-opacity="0.250980" stroke="black" points="115,-864 52,-864 52,-810 115,-810 115,-864"/>
<text text-anchor="middle" x="83.5" y="-833.3" font-family="Times,serif" font-size="14.00">V0A58</text>
</g>
<!-- V0&#45;&gt;V0A58 -->
<g id="edge2" class="edge">
<title>V0&#45;&gt;V0A58</title>
<path fill="none" stroke="black" d="M129.7,-899.6C123.24,-890.99 115.98,-881.31 109.16,-872.22"/>
<polygon fill="black" stroke="black" points="111.86,-869.98 103.06,-864.08 106.26,-874.18 111.86,-869.98"/>
</g>
<!-- V2S0 -->
<g id="node4" class="node">
<title>V2S0</title>
<polygon fill="#0000ff" fill-opacity="0.250980" stroke="black" points="297.5,-864 133.5,-864 133.5,-810 297.5,-810 297.5,-864"/>
<text text-anchor="middle" x="215.5" y="-833.3" font-family="Times,serif" font-size="14.00">NETZ_SRC_TBL_NM</text>
</g>
<!-- V0&#45;&gt;V2S0 -->
<g id="edge3" class="edge">
<title>V0&#45;&gt;V2S0</title>
<path fill="none" stroke="black" d="M169.3,-899.6C175.76,-890.99 183.02,-881.31 189.84,-872.22"/>
<polygon fill="black" stroke="black" points="192.74,-874.18 195.94,-864.08 187.14,-869.98 192.74,-874.18"/>
</g>
<!-- V2S0P1 -->
<g id="node13" class="node">
<title>V2S0P1</title>
<polygon fill="#0000ff" fill-opacity="0.250980" stroke="black" points="343,-774 88,-774 88,-720 343,-720 343,-774"/>
<text text-anchor="middle" x="215.5" y="-743.3" font-family="Times,serif" font-size="14.00">NETZ_SRC_TBL_NM_lnk_Source_</text>
</g>
<!-- V2S0&#45;&gt;V2S0P1 -->
<g id="edge11" class="edge">
<title>V2S0&#45;&gt;V2S0P1</title>
<path fill="none" stroke="black" d="M215.5,-809.6C215.5,-801.61 215.5,-792.69 215.5,-784.18"/>
<polygon fill="black" stroke="black" points="219,-784.08 215.5,-774.08 212,-784.08 219,-784.08"/>
</g>
<!-- V0S52 -->
<g id="node5" class="node">
<title>V0S52</title>
<polygon fill="#0000ff" fill-opacity="0.250980" stroke="black" points="281,-324 150,-324 150,-270 281,-270 281,-324"/>
<text text-anchor="middle" x="215.5" y="-293.3" font-family="Times,serif" font-size="14.00">Transformer_52</text>
</g>
<!-- V0S52P2 -->
<g id="node6" class="node">
<title>V0S52P2</title>
<polygon fill="#0000ff" fill-opacity="0.250980" stroke="black" points="339.5,-234 91.5,-234 91.5,-180 339.5,-180 339.5,-234"/>
<text text-anchor="middle" x="215.5" y="-203.3" font-family="Times,serif" font-size="14.00">Transformer_52_Lnk_RRMD_Tgt</text>
</g>
<!-- V0S52&#45;&gt;V0S52P2 -->
<g id="edge4" class="edge">
<title>V0S52&#45;&gt;V0S52P2</title>
<path fill="none" stroke="black" d="M215.5,-269.6C215.5,-261.61 215.5,-252.69 215.5,-244.18"/>
<polygon fill="black" stroke="black" points="219,-244.08 215.5,-234.08 212,-244.08 219,-244.08"/>
</g>
<!-- V0S55P1 -->
<g id="node7" class="node">
<title>V0S55P1</title>
<polygon fill="#0000ff" fill-opacity="0.250980" stroke="black" points="342,-144 89,-144 89,-90 342,-90 342,-144"/>
<text text-anchor="middle" x="215.5" y="-113.3" font-family="Times,serif" font-size="14.00">TGT_RRMD_Lnk_RRMD_Tgt_Part</text>
</g>
<!-- V0S52P2&#45;&gt;V0S55P1 -->
<g id="edge5" class="edge">
<title>V0S52P2&#45;&gt;V0S55P1</title>
<path fill="none" stroke="black" d="M215.5,-179.6C215.5,-171.61 215.5,-162.69 215.5,-154.18"/>
<polygon fill="black" stroke="black" points="219,-154.08 215.5,-144.08 212,-154.08 219,-154.08"/>
</g>
<!-- V0S55 -->
<g id="node9" class="node">
<title>V0S55</title>
<polygon fill="#0000ff" fill-opacity="0.250980" stroke="black" points="265,-54 166,-54 166,0 265,0 265,-54"/>
<text text-anchor="middle" x="215.5" y="-23.3" font-family="Times,serif" font-size="14.00">TGT_RRMD</text>
</g>
<!-- V0S55P1&#45;&gt;V0S55 -->
<g id="edge7" class="edge">
<title>V0S55P1&#45;&gt;V0S55</title>
<path fill="none" stroke="black" d="M215.5,-89.6C215.5,-81.61 215.5,-72.69 215.5,-64.18"/>
<polygon fill="black" stroke="black" points="219,-64.08 215.5,-54.08 212,-64.08 219,-64.08"/>
</g>
<!-- V0S52P3 -->
<g id="node8" class="node">
<title>V0S52P3</title>
<polygon fill="#0000ff" fill-opacity="0.250980" stroke="black" points="341.5,-414 89.5,-414 89.5,-360 341.5,-360 341.5,-414"/>
<text text-anchor="middle" x="215.5" y="-383.3" font-family="Times,serif" font-size="14.00">Transformer_52_lnk_Source_Part</text>
</g>
<!-- V0S52P3&#45;&gt;V0S52 -->
<g id="edge6" class="edge">
<title>V0S52P3&#45;&gt;V0S52</title>
<path fill="none" stroke="black" d="M215.5,-359.6C215.5,-351.61 215.5,-342.69 215.5,-334.18"/>
<polygon fill="black" stroke="black" points="219,-334.08 215.5,-324.08 212,-334.08 219,-334.08"/>
</g>
<!-- V0S56 -->
<g id="node10" class="node">
<title>V0S56</title>
<polygon fill="#0000ff" fill-opacity="0.250980" stroke="black" points="251.5,-594 179.5,-594 179.5,-540 251.5,-540 251.5,-594"/>
<text text-anchor="middle" x="215.5" y="-563.3" font-family="Times,serif" font-size="14.00">Sort_56</text>
</g>
<!-- V0S56P2 -->
<g id="node11" class="node">
<title>V0S56P2</title>
<polygon fill="#0000ff" fill-opacity="0.250980" stroke="black" points="294,-504 137,-504 137,-450 294,-450 294,-504"/>
<text text-anchor="middle" x="215.5" y="-473.3" font-family="Times,serif" font-size="14.00">Sort_56_lnk_Source</text>
</g>
<!-- V0S56&#45;&gt;V0S56P2 -->
<g id="edge8" class="edge">
<title>V0S56&#45;&gt;V0S56P2</title>
<path fill="none" stroke="black" d="M215.5,-539.6C215.5,-531.61 215.5,-522.69 215.5,-514.18"/>
<polygon fill="black" stroke="black" points="219,-514.08 215.5,-504.08 212,-514.08 219,-514.08"/>
</g>
<!-- V0S56P2&#45;&gt;V0S52P3 -->
<g id="edge10" class="edge">
<title>V0S56P2&#45;&gt;V0S52P3</title>
<path fill="none" stroke="black" d="M215.5,-449.6C215.5,-441.61 215.5,-432.69 215.5,-424.18"/>
<polygon fill="black" stroke="black" points="219,-424.08 215.5,-414.08 212,-424.08 219,-424.08"/>
</g>
<!-- V0S56P1 -->
<g id="node12" class="node">
<title>V0S56P1</title>
<polygon fill="#0000ff" fill-opacity="0.250980" stroke="black" points="315.5,-684 115.5,-684 115.5,-630 315.5,-630 315.5,-684"/>
<text text-anchor="middle" x="215.5" y="-653.3" font-family="Times,serif" font-size="14.00">Sort_56_lnk_Source__Part</text>
</g>
<!-- V0S56P1&#45;&gt;V0S56 -->
<g id="edge9" class="edge">
<title>V0S56P1&#45;&gt;V0S56</title>
<path fill="none" stroke="black" d="M215.5,-629.6C215.5,-621.61 215.5,-612.69 215.5,-604.18"/>
<polygon fill="black" stroke="black" points="219,-604.08 215.5,-594.08 212,-604.08 219,-604.08"/>
</g>
<!-- V2S0P1&#45;&gt;V0S56P1 -->
<g id="edge12" class="edge">
<title>V2S0P1&#45;&gt;V0S56P1</title>
<path fill="none" stroke="black" d="M215.5,-719.6C215.5,-711.61 215.5,-702.69 215.5,-694.18"/>
<polygon fill="black" stroke="black" points="219,-694.08 215.5,-684.08 212,-694.08 219,-694.08"/>
</g>
</g>
</svg>
