<?xml version="1.0" encoding="UTF-8" standalone="no"?>
<!DOCTYPE svg PUBLIC "-//W3C//DTD SVG 1.1//EN"
 "http://www.w3.org/Graphics/SVG/1.1/DTD/svg11.dtd">
<!-- Generated by graphviz version 2.43.0 (0)
 -->
<!-- Pages: 1 -->
<svg width="404pt" height="820pt"
 viewBox="0.00 0.00 404.00 820.00" xmlns="http://www.w3.org/2000/svg" xmlns:xlink="http://www.w3.org/1999/xlink">
<g id="graph0" class="graph" transform="scale(1 1) rotate(0) translate(4 816)">
<polygon fill="white" stroke="transparent" points="-4,4 -4,-816 400,-816 400,4 -4,4"/>
<!-- ROOT -->
<g id="node1" class="node">
<title>ROOT</title>
<polygon fill="#0000ff" fill-opacity="0.250980" stroke="black" points="299,-812 0,-812 0,-758 299,-758 299,-812"/>
<text text-anchor="middle" x="149.5" y="-781.3" font-family="Times,serif" font-size="14.00">job_DBdirect_Mis006_RRMD_Extr_POC</text>
</g>
<!-- V0 -->
<g id="node2" class="node">
<title>V0</title>
<polygon fill="#0000ff" fill-opacity="0.250980" stroke="black" points="192.5,-721 106.5,-721 106.5,-667 192.5,-667 192.5,-721"/>
<text text-anchor="middle" x="149.5" y="-690.3" font-family="Times,serif" font-size="14.00">Job_VIEW</text>
</g>
<!-- ROOT&#45;&gt;V0 -->
<g id="edge1" class="edge">
<title>ROOT&#45;&gt;V0</title>
<path fill="none" stroke="black" d="M149.5,-757.78C149.5,-749.45 149.5,-740.09 149.5,-731.18"/>
<polygon fill="black" stroke="black" points="153,-731.03 149.5,-721.03 146,-731.03 153,-731.03"/>
</g>
<!-- V0A58 -->
<g id="node3" class="node">
<title>V0A58</title>
<polygon fill="#0000ff" fill-opacity="0.250980" stroke="black" points="169,-630 106,-630 106,-576 169,-576 169,-630"/>
<text text-anchor="middle" x="137.5" y="-599.3" font-family="Times,serif" font-size="14.00">V0A58</text>
</g>
<!-- V0&#45;&gt;V0A58 -->
<g id="edge2" class="edge">
<title>V0&#45;&gt;V0A58</title>
<path fill="none" stroke="black" d="M145.96,-666.78C144.84,-658.45 143.58,-649.09 142.38,-640.18"/>
<polygon fill="black" stroke="black" points="145.82,-639.48 141.01,-630.03 138.88,-640.41 145.82,-639.48"/>
</g>
<!-- V2S0 -->
<g id="node4" class="node">
<title>V2S0</title>
<polygon fill="#00ff00" fill-opacity="0.250980" stroke="black" points="351.5,-630 187.5,-630 187.5,-576 351.5,-576 351.5,-630"/>
<text text-anchor="middle" x="269.5" y="-599.3" font-family="Times,serif" font-size="14.00">NETZ_SRC_TBL_NM</text>
</g>
<!-- V0&#45;&gt;V2S0 -->
<g id="edge3" class="edge">
<title>V0&#45;&gt;V2S0</title>
<path fill="none" stroke="black" d="M184.85,-666.78C197.79,-657.18 212.58,-646.21 226.14,-636.16"/>
<polygon fill="black" stroke="black" points="228.45,-638.8 234.4,-630.03 224.28,-633.18 228.45,-638.8"/>
</g>
<!-- V0S56P1 -->
<g id="node10" class="node">
<title>V0S56P1</title>
<polygon fill="#00ff00" fill-opacity="0.250980" stroke="black" points="369.5,-529 169.5,-529 169.5,-475 369.5,-475 369.5,-529"/>
<text text-anchor="middle" x="269.5" y="-498.3" font-family="Times,serif" font-size="14.00">Sort_56_lnk_Source__Part</text>
</g>
<!-- V2S0&#45;&gt;V0S56P1 -->
<g id="edge9" class="edge">
<title>V2S0&#45;&gt;V0S56P1</title>
<path fill="none" stroke="black" d="M269.5,-575.99C269.5,-564.82 269.5,-551.58 269.5,-539.46"/>
<polygon fill="black" stroke="black" points="273,-539.18 269.5,-529.18 266,-539.18 273,-539.18"/>
<text text-anchor="middle" x="300.5" y="-550" font-family="Times,serif" font-size="10.00">lnk_Source_</text>
</g>
<!-- V0S52 -->
<g id="node5" class="node">
<title>V0S52</title>
<polygon fill="#00ff00" fill-opacity="0.250980" stroke="black" points="335,-246 204,-246 204,-192 335,-192 335,-246"/>
<text text-anchor="middle" x="269.5" y="-215.3" font-family="Times,serif" font-size="14.00">Transformer_52</text>
</g>
<!-- V0S55P1 -->
<g id="node6" class="node">
<title>V0S55P1</title>
<polygon fill="#00ff00" fill-opacity="0.250980" stroke="black" points="396,-145 143,-145 143,-91 396,-91 396,-145"/>
<text text-anchor="middle" x="269.5" y="-114.3" font-family="Times,serif" font-size="14.00">TGT_RRMD_Lnk_RRMD_Tgt_Part</text>
</g>
<!-- V0S52&#45;&gt;V0S55P1 -->
<g id="edge4" class="edge">
<title>V0S52&#45;&gt;V0S55P1</title>
<path fill="none" stroke="black" d="M269.5,-191.99C269.5,-180.82 269.5,-167.58 269.5,-155.46"/>
<polygon fill="black" stroke="black" points="273,-155.18 269.5,-145.18 266,-155.18 273,-155.18"/>
<text text-anchor="middle" x="310.5" y="-166" font-family="Times,serif" font-size="10.00">Lnk_RRMD_Tgt</text>
</g>
<!-- V0S55 -->
<g id="node8" class="node">
<title>V0S55</title>
<polygon fill="#00ff00" fill-opacity="0.250980" stroke="black" points="319,-54 220,-54 220,0 319,0 319,-54"/>
<text text-anchor="middle" x="269.5" y="-23.3" font-family="Times,serif" font-size="14.00">TGT_RRMD</text>
</g>
<!-- V0S55P1&#45;&gt;V0S55 -->
<g id="edge6" class="edge">
<title>V0S55P1&#45;&gt;V0S55</title>
<path fill="none" stroke="black" d="M269.5,-90.78C269.5,-82.45 269.5,-73.09 269.5,-64.18"/>
<polygon fill="black" stroke="black" points="273,-64.03 269.5,-54.03 266,-64.03 273,-64.03"/>
</g>
<!-- V0S52P3 -->
<g id="node7" class="node">
<title>V0S52P3</title>
<polygon fill="#00ff00" fill-opacity="0.250980" stroke="black" points="395.5,-337 143.5,-337 143.5,-283 395.5,-283 395.5,-337"/>
<text text-anchor="middle" x="269.5" y="-306.3" font-family="Times,serif" font-size="14.00">Transformer_52_lnk_Source_Part</text>
</g>
<!-- V0S52P3&#45;&gt;V0S52 -->
<g id="edge5" class="edge">
<title>V0S52P3&#45;&gt;V0S52</title>
<path fill="none" stroke="black" d="M269.5,-282.78C269.5,-274.45 269.5,-265.09 269.5,-256.18"/>
<polygon fill="black" stroke="black" points="273,-256.03 269.5,-246.03 266,-256.03 273,-256.03"/>
</g>
<!-- V0S56 -->
<g id="node9" class="node">
<title>V0S56</title>
<polygon fill="#00ff00" fill-opacity="0.250980" stroke="black" points="305.5,-438 233.5,-438 233.5,-384 305.5,-384 305.5,-438"/>
<text text-anchor="middle" x="269.5" y="-407.3" font-family="Times,serif" font-size="14.00">Sort_56</text>
</g>
<!-- V0S56&#45;&gt;V0S52P3 -->
<g id="edge7" class="edge">
<title>V0S56&#45;&gt;V0S52P3</title>
<path fill="none" stroke="black" d="M269.5,-383.99C269.5,-372.82 269.5,-359.58 269.5,-347.46"/>
<polygon fill="black" stroke="black" points="273,-347.18 269.5,-337.18 266,-347.18 273,-347.18"/>
<text text-anchor="middle" x="298" y="-358" font-family="Times,serif" font-size="10.00">lnk_Source</text>
</g>
<!-- V0S56P1&#45;&gt;V0S56 -->
<g id="edge8" class="edge">
<title>V0S56P1&#45;&gt;V0S56</title>
<path fill="none" stroke="black" d="M269.5,-474.78C269.5,-466.45 269.5,-457.09 269.5,-448.18"/>
<polygon fill="black" stroke="black" points="273,-448.03 269.5,-438.03 266,-448.03 273,-448.03"/>
</g>
</g>
</svg>
