<?xml version="1.0" encoding="UTF-8" standalone="no"?>
<!DOCTYPE svg PUBLIC "-//W3C//DTD SVG 1.1//EN"
 "http://www.w3.org/Graphics/SVG/1.1/DTD/svg11.dtd">
<!-- Generated by graphviz version 2.43.0 (0)
 -->
<!-- Pages: 1 -->
<svg width="333pt" height="1592pt"
 viewBox="0.00 0.00 333.00 1592.00" xmlns="http://www.w3.org/2000/svg" xmlns:xlink="http://www.w3.org/1999/xlink">
<g id="graph0" class="graph" transform="scale(1 1) rotate(0) translate(4 1588)">
<polygon fill="white" stroke="transparent" points="-4,4 -4,-1588 329,-1588 329,4 -4,4"/>
<!-- ROOT -->
<g id="node1" class="node">
<title>ROOT</title>
<polygon fill="#0000ff" fill-opacity="0.250980" stroke="black" points="301.5,-1584 23.5,-1584 23.5,-1530 301.5,-1530 301.5,-1584"/>
<text text-anchor="middle" x="162.5" y="-1553.3" font-family="Times,serif" font-size="14.00">job_DBdirect_Mis006_BLDVNN_Extr</text>
</g>
<!-- V0 -->
<g id="node2" class="node">
<title>V0</title>
<polygon fill="#0000ff" fill-opacity="0.250980" stroke="black" points="205.5,-1494 119.5,-1494 119.5,-1440 205.5,-1440 205.5,-1494"/>
<text text-anchor="middle" x="162.5" y="-1463.3" font-family="Times,serif" font-size="14.00">Job_VIEW</text>
</g>
<!-- ROOT&#45;&gt;V0 -->
<g id="edge1" class="edge">
<title>ROOT&#45;&gt;V0</title>
<path fill="none" stroke="black" d="M162.5,-1529.6C162.5,-1521.61 162.5,-1512.69 162.5,-1504.18"/>
<polygon fill="black" stroke="black" points="166,-1504.08 162.5,-1494.08 159,-1504.08 166,-1504.08"/>
</g>
<!-- V19S4 -->
<g id="node3" class="node">
<title>V19S4</title>
<polygon fill="#0000ff" fill-opacity="0.250980" stroke="black" points="238,-1404 87,-1404 87,-1350 238,-1350 238,-1404"/>
<text text-anchor="middle" x="162.5" y="-1373.3" font-family="Times,serif" font-size="14.00">BORM_X_BLDVNN</text>
</g>
<!-- V0&#45;&gt;V19S4 -->
<g id="edge2" class="edge">
<title>V0&#45;&gt;V19S4</title>
<path fill="none" stroke="black" d="M162.5,-1439.6C162.5,-1431.61 162.5,-1422.69 162.5,-1414.18"/>
<polygon fill="black" stroke="black" points="166,-1414.08 162.5,-1404.08 159,-1414.08 166,-1414.08"/>
</g>
<!-- V19S4P1 -->
<g id="node15" class="node">
<title>V19S4P1</title>
<polygon fill="#0000ff" fill-opacity="0.250980" stroke="black" points="280.5,-1314 44.5,-1314 44.5,-1260 280.5,-1260 280.5,-1314"/>
<text text-anchor="middle" x="162.5" y="-1283.3" font-family="Times,serif" font-size="14.00">BORM_X_BLDVNN_lnk_Source</text>
</g>
<!-- V19S4&#45;&gt;V19S4P1 -->
<g id="edge13" class="edge">
<title>V19S4&#45;&gt;V19S4P1</title>
<path fill="none" stroke="black" d="M162.5,-1349.6C162.5,-1341.61 162.5,-1332.69 162.5,-1324.18"/>
<polygon fill="black" stroke="black" points="166,-1324.08 162.5,-1314.08 159,-1324.08 166,-1324.08"/>
</g>
<!-- V19S0 -->
<g id="node4" class="node">
<title>V19S0</title>
<polygon fill="#0000ff" fill-opacity="0.250980" stroke="black" points="232.5,-324 92.5,-324 92.5,-270 232.5,-270 232.5,-324"/>
<text text-anchor="middle" x="162.5" y="-293.3" font-family="Times,serif" font-size="14.00">Transformer_241</text>
</g>
<!-- V19S0P2 -->
<g id="node5" class="node">
<title>V19S0P2</title>
<polygon fill="#0000ff" fill-opacity="0.250980" stroke="black" points="275,-234 50,-234 50,-180 275,-180 275,-234"/>
<text text-anchor="middle" x="162.5" y="-203.3" font-family="Times,serif" font-size="14.00">Transformer_241_DSLink238</text>
</g>
<!-- V19S0&#45;&gt;V19S0P2 -->
<g id="edge3" class="edge">
<title>V19S0&#45;&gt;V19S0P2</title>
<path fill="none" stroke="black" d="M162.5,-269.6C162.5,-261.61 162.5,-252.69 162.5,-244.18"/>
<polygon fill="black" stroke="black" points="166,-244.08 162.5,-234.08 159,-244.08 166,-244.08"/>
</g>
<!-- V19S1P1 -->
<g id="node7" class="node">
<title>V19S1P1</title>
<polygon fill="#0000ff" fill-opacity="0.250980" stroke="black" points="282,-144 43,-144 43,-90 282,-90 282,-144"/>
<text text-anchor="middle" x="162.5" y="-113.3" font-family="Times,serif" font-size="14.00">TGT_BLDVNN_DSLink238_Part</text>
</g>
<!-- V19S0P2&#45;&gt;V19S1P1 -->
<g id="edge5" class="edge">
<title>V19S0P2&#45;&gt;V19S1P1</title>
<path fill="none" stroke="black" d="M162.5,-179.6C162.5,-171.61 162.5,-162.69 162.5,-154.18"/>
<polygon fill="black" stroke="black" points="166,-154.08 162.5,-144.08 159,-154.08 166,-154.08"/>
</g>
<!-- V19S0P1 -->
<g id="node6" class="node">
<title>V19S0P1</title>
<polygon fill="#0000ff" fill-opacity="0.250980" stroke="black" points="293.5,-414 31.5,-414 31.5,-360 293.5,-360 293.5,-414"/>
<text text-anchor="middle" x="162.5" y="-383.3" font-family="Times,serif" font-size="14.00">Transformer_241_DSLink151_Part</text>
</g>
<!-- V19S0P1&#45;&gt;V19S0 -->
<g id="edge4" class="edge">
<title>V19S0P1&#45;&gt;V19S0</title>
<path fill="none" stroke="black" d="M162.5,-359.6C162.5,-351.61 162.5,-342.69 162.5,-334.18"/>
<polygon fill="black" stroke="black" points="166,-334.08 162.5,-324.08 159,-334.08 166,-334.08"/>
</g>
<!-- V19S1 -->
<g id="node8" class="node">
<title>V19S1</title>
<polygon fill="#0000ff" fill-opacity="0.250980" stroke="black" points="221,-54 104,-54 104,0 221,0 221,-54"/>
<text text-anchor="middle" x="162.5" y="-23.3" font-family="Times,serif" font-size="14.00">TGT_BLDVNN</text>
</g>
<!-- V19S1P1&#45;&gt;V19S1 -->
<g id="edge6" class="edge">
<title>V19S1P1&#45;&gt;V19S1</title>
<path fill="none" stroke="black" d="M162.5,-89.6C162.5,-81.61 162.5,-72.69 162.5,-64.18"/>
<polygon fill="black" stroke="black" points="166,-64.08 162.5,-54.08 159,-64.08 166,-64.08"/>
</g>
<!-- V19S2 -->
<g id="node9" class="node">
<title>V19S2</title>
<polygon fill="#0000ff" fill-opacity="0.250980" stroke="black" points="205.5,-864 119.5,-864 119.5,-810 205.5,-810 205.5,-864"/>
<text text-anchor="middle" x="162.5" y="-833.3" font-family="Times,serif" font-size="14.00">Copy_227</text>
</g>
<!-- V19S2P2 -->
<g id="node10" class="node">
<title>V19S2P2</title>
<polygon fill="#0000ff" fill-opacity="0.250980" stroke="black" points="248.5,-774 76.5,-774 76.5,-720 248.5,-720 248.5,-774"/>
<text text-anchor="middle" x="162.5" y="-743.3" font-family="Times,serif" font-size="14.00">Copy_227_DSLink148</text>
</g>
<!-- V19S2&#45;&gt;V19S2P2 -->
<g id="edge7" class="edge">
<title>V19S2&#45;&gt;V19S2P2</title>
<path fill="none" stroke="black" d="M162.5,-809.6C162.5,-801.61 162.5,-792.69 162.5,-784.18"/>
<polygon fill="black" stroke="black" points="166,-784.08 162.5,-774.08 159,-784.08 166,-784.08"/>
</g>
<!-- V19S3P1 -->
<g id="node12" class="node">
<title>V19S3P1</title>
<polygon fill="#0000ff" fill-opacity="0.250980" stroke="black" points="325,-684 0,-684 0,-630 325,-630 325,-684"/>
<text text-anchor="middle" x="162.5" y="-653.3" font-family="Times,serif" font-size="14.00">Copy_of_Transformer_149_DSLink148_Part</text>
</g>
<!-- V19S2P2&#45;&gt;V19S3P1 -->
<g id="edge9" class="edge">
<title>V19S2P2&#45;&gt;V19S3P1</title>
<path fill="none" stroke="black" d="M162.5,-719.6C162.5,-711.61 162.5,-702.69 162.5,-694.18"/>
<polygon fill="black" stroke="black" points="166,-694.08 162.5,-684.08 159,-694.08 166,-694.08"/>
</g>
<!-- V19S2P1 -->
<g id="node11" class="node">
<title>V19S2P1</title>
<polygon fill="#0000ff" fill-opacity="0.250980" stroke="black" points="271.5,-954 53.5,-954 53.5,-900 271.5,-900 271.5,-954"/>
<text text-anchor="middle" x="162.5" y="-923.3" font-family="Times,serif" font-size="14.00">Copy_227_DSLink148X_Part</text>
</g>
<!-- V19S2P1&#45;&gt;V19S2 -->
<g id="edge8" class="edge">
<title>V19S2P1&#45;&gt;V19S2</title>
<path fill="none" stroke="black" d="M162.5,-899.6C162.5,-891.61 162.5,-882.69 162.5,-874.18"/>
<polygon fill="black" stroke="black" points="166,-874.08 162.5,-864.08 159,-874.08 166,-874.08"/>
</g>
<!-- V19S3 -->
<g id="node13" class="node">
<title>V19S3</title>
<polygon fill="#0000ff" fill-opacity="0.250980" stroke="black" points="264,-594 61,-594 61,-540 264,-540 264,-594"/>
<text text-anchor="middle" x="162.5" y="-563.3" font-family="Times,serif" font-size="14.00">Copy_of_Transformer_149</text>
</g>
<!-- V19S3P1&#45;&gt;V19S3 -->
<g id="edge11" class="edge">
<title>V19S3P1&#45;&gt;V19S3</title>
<path fill="none" stroke="black" d="M162.5,-629.6C162.5,-621.61 162.5,-612.69 162.5,-604.18"/>
<polygon fill="black" stroke="black" points="166,-604.08 162.5,-594.08 159,-604.08 166,-604.08"/>
</g>
<!-- V19S3P2 -->
<g id="node14" class="node">
<title>V19S3P2</title>
<polygon fill="#0000ff" fill-opacity="0.250980" stroke="black" points="306.5,-504 18.5,-504 18.5,-450 306.5,-450 306.5,-504"/>
<text text-anchor="middle" x="162.5" y="-473.3" font-family="Times,serif" font-size="14.00">Copy_of_Transformer_149_DSLink151</text>
</g>
<!-- V19S3&#45;&gt;V19S3P2 -->
<g id="edge10" class="edge">
<title>V19S3&#45;&gt;V19S3P2</title>
<path fill="none" stroke="black" d="M162.5,-539.6C162.5,-531.61 162.5,-522.69 162.5,-514.18"/>
<polygon fill="black" stroke="black" points="166,-514.08 162.5,-504.08 159,-514.08 166,-514.08"/>
</g>
<!-- V19S3P2&#45;&gt;V19S0P1 -->
<g id="edge12" class="edge">
<title>V19S3P2&#45;&gt;V19S0P1</title>
<path fill="none" stroke="black" d="M162.5,-449.6C162.5,-441.61 162.5,-432.69 162.5,-424.18"/>
<polygon fill="black" stroke="black" points="166,-424.08 162.5,-414.08 159,-424.08 166,-424.08"/>
</g>
<!-- V19S5P1 -->
<g id="node16" class="node">
<title>V19S5P1</title>
<polygon fill="#0000ff" fill-opacity="0.250980" stroke="black" points="264,-1224 61,-1224 61,-1170 264,-1170 264,-1224"/>
<text text-anchor="middle" x="162.5" y="-1193.3" font-family="Times,serif" font-size="14.00">Sort_142_lnk_Source_Part</text>
</g>
<!-- V19S4P1&#45;&gt;V19S5P1 -->
<g id="edge14" class="edge">
<title>V19S4P1&#45;&gt;V19S5P1</title>
<path fill="none" stroke="black" d="M162.5,-1259.6C162.5,-1251.61 162.5,-1242.69 162.5,-1234.18"/>
<polygon fill="black" stroke="black" points="166,-1234.08 162.5,-1224.08 159,-1234.08 166,-1234.08"/>
</g>
<!-- V19S5 -->
<g id="node17" class="node">
<title>V19S5</title>
<polygon fill="#0000ff" fill-opacity="0.250980" stroke="black" points="203,-1134 122,-1134 122,-1080 203,-1080 203,-1134"/>
<text text-anchor="middle" x="162.5" y="-1103.3" font-family="Times,serif" font-size="14.00">Sort_142</text>
</g>
<!-- V19S5P1&#45;&gt;V19S5 -->
<g id="edge16" class="edge">
<title>V19S5P1&#45;&gt;V19S5</title>
<path fill="none" stroke="black" d="M162.5,-1169.6C162.5,-1161.61 162.5,-1152.69 162.5,-1144.18"/>
<polygon fill="black" stroke="black" points="166,-1144.08 162.5,-1134.08 159,-1144.08 166,-1144.08"/>
</g>
<!-- V19S5P2 -->
<g id="node18" class="node">
<title>V19S5P2</title>
<polygon fill="#0000ff" fill-opacity="0.250980" stroke="black" points="250.5,-1044 74.5,-1044 74.5,-990 250.5,-990 250.5,-1044"/>
<text text-anchor="middle" x="162.5" y="-1013.3" font-family="Times,serif" font-size="14.00">Sort_142_DSLink148X</text>
</g>
<!-- V19S5&#45;&gt;V19S5P2 -->
<g id="edge15" class="edge">
<title>V19S5&#45;&gt;V19S5P2</title>
<path fill="none" stroke="black" d="M162.5,-1079.6C162.5,-1071.61 162.5,-1062.69 162.5,-1054.18"/>
<polygon fill="black" stroke="black" points="166,-1054.08 162.5,-1044.08 159,-1054.08 166,-1054.08"/>
</g>
<!-- V19S5P2&#45;&gt;V19S2P1 -->
<g id="edge17" class="edge">
<title>V19S5P2&#45;&gt;V19S2P1</title>
<path fill="none" stroke="black" d="M162.5,-989.6C162.5,-981.61 162.5,-972.69 162.5,-964.18"/>
<polygon fill="black" stroke="black" points="166,-964.08 162.5,-954.08 159,-964.08 166,-964.08"/>
</g>
</g>
</svg>
