<?xml version="1.0" encoding="UTF-8" standalone="no"?>
<!DOCTYPE svg PUBLIC "-//W3C//DTD SVG 1.1//EN"
 "http://www.w3.org/Graphics/SVG/1.1/DTD/svg11.dtd">
<!-- Generated by graphviz version 2.43.0 (0)
 -->
<!-- Pages: 1 -->
<svg width="3083pt" height="1052pt"
 viewBox="0.00 0.00 3082.50 1052.00" xmlns="http://www.w3.org/2000/svg" xmlns:xlink="http://www.w3.org/1999/xlink">
<g id="graph0" class="graph" transform="scale(1 1) rotate(0) translate(4 1048)">
<polygon fill="white" stroke="transparent" points="-4,4 -4,-1048 3078.5,-1048 3078.5,4 -4,4"/>
<!-- ROOT -->
<g id="node1" class="node">
<title>ROOT</title>
<polygon fill="#0000ff" fill-opacity="0.250980" stroke="black" points="1747.5,-1044 1484.5,-1044 1484.5,-990 1747.5,-990 1747.5,-1044"/>
<text text-anchor="middle" x="1616" y="-1013.3" font-family="Times,serif" font-size="14.00">job_DBdirect_MIS006_DS_Ld_POC</text>
</g>
<!-- V0 -->
<g id="node2" class="node">
<title>V0</title>
<polygon fill="#0000ff" fill-opacity="0.250980" stroke="black" points="1659,-954 1573,-954 1573,-900 1659,-900 1659,-954"/>
<text text-anchor="middle" x="1616" y="-923.3" font-family="Times,serif" font-size="14.00">Job_VIEW</text>
</g>
<!-- ROOT&#45;&gt;V0 -->
<g id="edge1" class="edge">
<title>ROOT&#45;&gt;V0</title>
<path fill="none" stroke="black" d="M1616,-989.6C1616,-981.61 1616,-972.69 1616,-964.18"/>
<polygon fill="black" stroke="black" points="1619.5,-964.08 1616,-954.08 1612.5,-964.08 1619.5,-964.08"/>
</g>
<!-- V100S0 -->
<g id="node3" class="node">
<title>V100S0</title>
<polygon fill="#0000ff" fill-opacity="0.250980" stroke="black" points="353,-864 207,-864 207,-810 353,-810 353,-864"/>
<text text-anchor="middle" x="280" y="-833.3" font-family="Times,serif" font-size="14.00">TGT_BDEH_LONP</text>
</g>
<!-- V0&#45;&gt;V100S0 -->
<g id="edge2" class="edge">
<title>V0&#45;&gt;V100S0</title>
<path fill="none" stroke="black" d="M1572.81,-925.88C1416.6,-925.01 866.6,-918.03 417,-864 399.62,-861.91 381.13,-858.93 363.54,-855.72"/>
<polygon fill="black" stroke="black" points="363.77,-852.21 353.3,-853.81 362.49,-859.09 363.77,-852.21"/>
</g>
<!-- V39S0 -->
<g id="node4" class="node">
<title>V39S0</title>
<polygon fill="#0000ff" fill-opacity="0.250980" stroke="black" points="599.5,-864 426.5,-864 426.5,-810 599.5,-810 599.5,-864"/>
<text text-anchor="middle" x="513" y="-833.3" font-family="Times,serif" font-size="14.00">DS_TGT_CHPM_COLT</text>
</g>
<!-- V0&#45;&gt;V39S0 -->
<g id="edge3" class="edge">
<title>V0&#45;&gt;V39S0</title>
<path fill="none" stroke="black" d="M1572.82,-923.08C1449.91,-914.69 1087.56,-889.5 787,-864 728.07,-859 662.07,-852.76 609.62,-847.64"/>
<polygon fill="black" stroke="black" points="609.94,-844.16 599.65,-846.67 609.26,-851.12 609.94,-844.16"/>
</g>
<!-- V40S0 -->
<g id="node5" class="node">
<title>V40S0</title>
<polygon fill="#0000ff" fill-opacity="0.250980" stroke="black" points="909.5,-864 796.5,-864 796.5,-810 909.5,-810 909.5,-864"/>
<text text-anchor="middle" x="853" y="-833.3" font-family="Times,serif" font-size="14.00">TGT_CUSVAA</text>
</g>
<!-- V0&#45;&gt;V40S0 -->
<g id="edge4" class="edge">
<title>V0&#45;&gt;V40S0</title>
<path fill="none" stroke="black" d="M1572.65,-921.88C1476.13,-912.61 1236.23,-888.92 1036,-864 997.45,-859.2 954.44,-853.13 919.81,-848.06"/>
<polygon fill="black" stroke="black" points="920.21,-844.58 909.81,-846.59 919.19,-851.51 920.21,-844.58"/>
</g>
<!-- V41S0 -->
<g id="node6" class="node">
<title>V41S0</title>
<polygon fill="#0000ff" fill-opacity="0.250980" stroke="black" points="1144.5,-864 1045.5,-864 1045.5,-810 1144.5,-810 1144.5,-864"/>
<text text-anchor="middle" x="1095" y="-833.3" font-family="Times,serif" font-size="14.00">TGT_RRMD</text>
</g>
<!-- V0&#45;&gt;V41S0 -->
<g id="edge5" class="edge">
<title>V0&#45;&gt;V41S0</title>
<path fill="none" stroke="black" d="M1572.92,-918.72C1479.98,-903.03 1260.51,-865.96 1154.44,-848.04"/>
<polygon fill="black" stroke="black" points="1154.98,-844.58 1144.54,-846.37 1153.81,-851.48 1154.98,-844.58"/>
</g>
<!-- V42S0 -->
<g id="node7" class="node">
<title>V42S0</title>
<polygon fill="#0000ff" fill-opacity="0.250980" stroke="black" points="1391.5,-864 1274.5,-864 1274.5,-810 1391.5,-810 1391.5,-864"/>
<text text-anchor="middle" x="1333" y="-833.3" font-family="Times,serif" font-size="14.00">TGT_BLDVNN</text>
</g>
<!-- V0&#45;&gt;V42S0 -->
<g id="edge6" class="edge">
<title>V0&#45;&gt;V42S0</title>
<path fill="none" stroke="black" d="M1572.71,-912.54C1527.09,-898.35 1454.58,-875.81 1401.25,-859.22"/>
<polygon fill="black" stroke="black" points="1402.11,-855.83 1391.52,-856.2 1400.03,-862.51 1402.11,-855.83"/>
</g>
<!-- V43S0 -->
<g id="node8" class="node">
<title>V43S0</title>
<polygon fill="#0000ff" fill-opacity="0.250980" stroke="black" points="1607,-864 1485,-864 1485,-810 1607,-810 1607,-864"/>
<text text-anchor="middle" x="1546" y="-833.3" font-family="Times,serif" font-size="14.00">TGT_BLDVWW</text>
</g>
<!-- V0&#45;&gt;V43S0 -->
<g id="edge7" class="edge">
<title>V0&#45;&gt;V43S0</title>
<path fill="none" stroke="black" d="M1595,-899.6C1588.08,-890.9 1580.3,-881.11 1573,-871.94"/>
<polygon fill="black" stroke="black" points="1575.71,-869.73 1566.75,-864.08 1570.23,-874.09 1575.71,-869.73"/>
</g>
<!-- V44S0 -->
<g id="node9" class="node">
<title>V44S0</title>
<polygon fill="#0000ff" fill-opacity="0.250980" stroke="black" points="1747,-864 1625,-864 1625,-810 1747,-810 1747,-864"/>
<text text-anchor="middle" x="1686" y="-833.3" font-family="Times,serif" font-size="14.00">TGT_Direct_All</text>
</g>
<!-- V0&#45;&gt;V44S0 -->
<g id="edge8" class="edge">
<title>V0&#45;&gt;V44S0</title>
<path fill="none" stroke="black" d="M1637,-899.6C1643.92,-890.9 1651.7,-881.11 1659,-871.94"/>
<polygon fill="black" stroke="black" points="1661.77,-874.09 1665.25,-864.08 1656.29,-869.73 1661.77,-874.09"/>
</g>
<!-- V45S0 -->
<g id="node10" class="node">
<title>V45S0</title>
<polygon fill="#0000ff" fill-opacity="0.250980" stroke="black" points="1936.5,-864 1765.5,-864 1765.5,-810 1936.5,-810 1936.5,-864"/>
<text text-anchor="middle" x="1851" y="-833.3" font-family="Times,serif" font-size="14.00">DS_TGT_RELM_RELX</text>
</g>
<!-- V0&#45;&gt;V45S0 -->
<g id="edge9" class="edge">
<title>V0&#45;&gt;V45S0</title>
<path fill="none" stroke="black" d="M1659.1,-909.86C1690.62,-898.06 1734.26,-881.71 1771.97,-867.59"/>
<polygon fill="black" stroke="black" points="1773.28,-870.84 1781.42,-864.06 1770.82,-864.29 1773.28,-870.84"/>
</g>
<!-- V82S0 -->
<g id="node11" class="node">
<title>V82S0</title>
<polygon fill="#0000ff" fill-opacity="0.250980" stroke="black" points="2081.5,-864 1954.5,-864 1954.5,-810 2081.5,-810 2081.5,-864"/>
<text text-anchor="middle" x="2018" y="-833.3" font-family="Times,serif" font-size="14.00">DS_TGT_BORM</text>
</g>
<!-- V0&#45;&gt;V82S0 -->
<g id="edge10" class="edge">
<title>V0&#45;&gt;V82S0</title>
<path fill="none" stroke="black" d="M1659.07,-920.08C1720.53,-911.14 1836.93,-892.46 1944.75,-863.89"/>
<polygon fill="black" stroke="black" points="1945.73,-867.25 1954.48,-861.28 1943.92,-860.49 1945.73,-867.25"/>
</g>
<!-- V83S0 -->
<g id="node12" class="node">
<title>V83S0</title>
<polygon fill="#0000ff" fill-opacity="0.250980" stroke="black" points="2240,-864 2100,-864 2100,-810 2240,-810 2240,-864"/>
<text text-anchor="middle" x="2170" y="-833.3" font-family="Times,serif" font-size="14.00">TGT_BASM_BOIS</text>
</g>
<!-- V0&#45;&gt;V83S0 -->
<g id="edge11" class="edge">
<title>V0&#45;&gt;V83S0</title>
<path fill="none" stroke="black" d="M1659.28,-923.02C1743.2,-916.65 1933.56,-899.34 2090,-864 2090.1,-863.98 2090.2,-863.95 2090.31,-863.93"/>
<polygon fill="black" stroke="black" points="2091.08,-867.34 2099.96,-861.57 2089.42,-860.54 2091.08,-867.34"/>
</g>
<!-- V88S0 -->
<g id="node13" class="node">
<title>V88S0</title>
<polygon fill="#0000ff" fill-opacity="0.250980" stroke="black" points="2371.5,-864 2258.5,-864 2258.5,-810 2371.5,-810 2371.5,-864"/>
<text text-anchor="middle" x="2315" y="-833.3" font-family="Times,serif" font-size="14.00">DS_TGT_PITA</text>
</g>
<!-- V0&#45;&gt;V88S0 -->
<g id="edge12" class="edge">
<title>V0&#45;&gt;V88S0</title>
<path fill="none" stroke="black" d="M1659.28,-925.87C1761.22,-924.68 2024.04,-916.56 2248.46,-863.82"/>
<polygon fill="black" stroke="black" points="2249.53,-867.16 2258.44,-861.43 2247.9,-860.35 2249.53,-867.16"/>
</g>
<!-- V94A0 -->
<g id="node14" class="node">
<title>V94A0</title>
<polygon fill="#0000ff" fill-opacity="0.250980" stroke="black" points="2452.5,-864 2389.5,-864 2389.5,-810 2452.5,-810 2452.5,-864"/>
<text text-anchor="middle" x="2421" y="-833.3" font-family="Times,serif" font-size="14.00">V94A0</text>
</g>
<!-- V0&#45;&gt;V94A0 -->
<g id="edge13" class="edge">
<title>V0&#45;&gt;V94A0</title>
<path fill="none" stroke="black" d="M1659.05,-925.21C1796.72,-922.28 2225.68,-909.86 2379.33,-863.35"/>
<polygon fill="black" stroke="black" points="2380.59,-866.62 2389.05,-860.24 2378.46,-859.96 2380.59,-866.62"/>
</g>
<!-- V100S0P2 -->
<g id="node31" class="node">
<title>V100S0P2</title>
<polygon fill="#0000ff" fill-opacity="0.250980" stroke="black" points="281,-774 25,-774 25,-720 281,-720 281,-774"/>
<text text-anchor="middle" x="153" y="-743.3" font-family="Times,serif" font-size="14.00">TGT_BDEH_LONP_lnk_BDEH_Tgt</text>
</g>
<!-- V100S0&#45;&gt;V100S0P2 -->
<g id="edge28" class="edge">
<title>V100S0&#45;&gt;V100S0P2</title>
<path fill="none" stroke="black" d="M242.24,-809.84C228.8,-800.52 213.5,-789.92 199.42,-780.16"/>
<polygon fill="black" stroke="black" points="201.05,-777.03 190.83,-774.22 197.06,-782.79 201.05,-777.03"/>
</g>
<!-- V39S0P2 -->
<g id="node32" class="node">
<title>V39S0P2</title>
<polygon fill="#0000ff" fill-opacity="0.250980" stroke="black" points="594.5,-774 309.5,-774 309.5,-720 594.5,-720 594.5,-774"/>
<text text-anchor="middle" x="452" y="-743.3" font-family="Times,serif" font-size="14.00">DS_TGT_CHPM_COLT_lnk_CHPM_Tgt</text>
</g>
<!-- V39S0&#45;&gt;V39S0P2 -->
<g id="edge30" class="edge">
<title>V39S0&#45;&gt;V39S0P2</title>
<path fill="none" stroke="black" d="M494.7,-809.6C488.79,-801.08 482.16,-791.51 475.91,-782.5"/>
<polygon fill="black" stroke="black" points="478.65,-780.31 470.08,-774.08 472.9,-784.29 478.65,-780.31"/>
</g>
<!-- V40S0P3 -->
<g id="node33" class="node">
<title>V40S0P3</title>
<polygon fill="#0000ff" fill-opacity="0.250980" stroke="black" points="854,-774 618,-774 618,-720 854,-720 854,-774"/>
<text text-anchor="middle" x="736" y="-743.3" font-family="Times,serif" font-size="14.00">TGT_CUSVAA_Lnk_Cusvaa_Tgt</text>
</g>
<!-- V40S0&#45;&gt;V40S0P3 -->
<g id="edge32" class="edge">
<title>V40S0&#45;&gt;V40S0P3</title>
<path fill="none" stroke="black" d="M818.21,-809.84C805.95,-800.61 792,-790.12 779.13,-780.44"/>
<polygon fill="black" stroke="black" points="780.95,-777.43 770.86,-774.22 776.74,-783.02 780.95,-777.43"/>
</g>
<!-- V41S0P2 -->
<g id="node34" class="node">
<title>V41S0P2</title>
<polygon fill="#0000ff" fill-opacity="0.250980" stroke="black" points="1091,-774 875,-774 875,-720 1091,-720 1091,-774"/>
<text text-anchor="middle" x="983" y="-743.3" font-family="Times,serif" font-size="14.00">TGT_RRMD_Lnk_RRMD_Tgt</text>
</g>
<!-- V41S0&#45;&gt;V41S0P2 -->
<g id="edge34" class="edge">
<title>V41S0&#45;&gt;V41S0P2</title>
<path fill="none" stroke="black" d="M1061.7,-809.84C1049.96,-800.61 1036.61,-790.12 1024.29,-780.44"/>
<polygon fill="black" stroke="black" points="1026.39,-777.64 1016.37,-774.22 1022.07,-783.15 1026.39,-777.64"/>
</g>
<!-- V42S0P2 -->
<g id="node35" class="node">
<title>V42S0P2</title>
<polygon fill="#0000ff" fill-opacity="0.250980" stroke="black" points="1385,-774 1133,-774 1133,-720 1385,-720 1385,-774"/>
<text text-anchor="middle" x="1259" y="-743.3" font-family="Times,serif" font-size="14.00">TGT_BLDVNN_Lnk_BLDVNN_Tgt</text>
</g>
<!-- V42S0&#45;&gt;V42S0P2 -->
<g id="edge36" class="edge">
<title>V42S0&#45;&gt;V42S0P2</title>
<path fill="none" stroke="black" d="M1310.8,-809.6C1303.49,-800.9 1295.26,-791.11 1287.54,-781.94"/>
<polygon fill="black" stroke="black" points="1290.05,-779.48 1280.93,-774.08 1284.69,-783.99 1290.05,-779.48"/>
</g>
<!-- V43S0P2 -->
<g id="node36" class="node">
<title>V43S0P2</title>
<polygon fill="#0000ff" fill-opacity="0.250980" stroke="black" points="1676.5,-774 1415.5,-774 1415.5,-720 1676.5,-720 1676.5,-774"/>
<text text-anchor="middle" x="1546" y="-743.3" font-family="Times,serif" font-size="14.00">TGT_BLDVWW_Lnk_BLDVWW_Tgt</text>
</g>
<!-- V43S0&#45;&gt;V43S0P2 -->
<g id="edge38" class="edge">
<title>V43S0&#45;&gt;V43S0P2</title>
<path fill="none" stroke="black" d="M1546,-809.6C1546,-801.61 1546,-792.69 1546,-784.18"/>
<polygon fill="black" stroke="black" points="1549.5,-784.08 1546,-774.08 1542.5,-784.08 1549.5,-784.08"/>
</g>
<!-- V44S0P3 -->
<g id="node37" class="node">
<title>V44S0P3</title>
<polygon fill="#0000ff" fill-opacity="0.250980" stroke="black" points="1973,-774 1701,-774 1701,-720 1973,-720 1973,-774"/>
<text text-anchor="middle" x="1837" y="-743.3" font-family="Times,serif" font-size="14.00">TGT_Direct_All_Lnk_ALL_Direct_Tgt</text>
</g>
<!-- V44S0&#45;&gt;V44S0P3 -->
<g id="edge40" class="edge">
<title>V44S0&#45;&gt;V44S0P3</title>
<path fill="none" stroke="black" d="M1730.9,-809.84C1747.4,-800.21 1766.26,-789.22 1783.46,-779.2"/>
<polygon fill="black" stroke="black" points="1785.4,-782.12 1792.28,-774.06 1781.87,-776.08 1785.4,-782.12"/>
</g>
<!-- V45S0P2 -->
<g id="node38" class="node">
<title>V45S0P2</title>
<polygon fill="#0000ff" fill-opacity="0.250980" stroke="black" points="2275.5,-774 1994.5,-774 1994.5,-720 2275.5,-720 2275.5,-774"/>
<text text-anchor="middle" x="2135" y="-743.3" font-family="Times,serif" font-size="14.00">DS_TGT_RELM_RELX_lnk_RELM_Tgt</text>
</g>
<!-- V45S0&#45;&gt;V45S0P2 -->
<g id="edge42" class="edge">
<title>V45S0&#45;&gt;V45S0P2</title>
<path fill="none" stroke="black" d="M1935.06,-809.95C1968.25,-799.67 2006.55,-787.8 2040.69,-777.22"/>
<polygon fill="black" stroke="black" points="2042.15,-780.43 2050.67,-774.13 2040.08,-773.75 2042.15,-780.43"/>
</g>
<!-- V82S0P2 -->
<g id="node41" class="node">
<title>V82S0P2</title>
<polygon fill="#0000ff" fill-opacity="0.250980" stroke="black" points="2534.5,-774 2295.5,-774 2295.5,-720 2534.5,-720 2534.5,-774"/>
<text text-anchor="middle" x="2415" y="-743.3" font-family="Times,serif" font-size="14.00">DS_TGT_BORM_lnk_BORM_Tgt</text>
</g>
<!-- V82S0&#45;&gt;V82S0P2 -->
<g id="edge45" class="edge">
<title>V82S0&#45;&gt;V82S0P2</title>
<path fill="none" stroke="black" d="M2081.51,-812.71C2084.71,-811.75 2087.88,-810.84 2091,-810 2175.25,-787.29 2198.32,-790.49 2284,-774 2284.47,-773.91 2284.94,-773.82 2285.41,-773.73"/>
<polygon fill="black" stroke="black" points="2286.27,-777.13 2295.43,-771.79 2284.94,-770.25 2286.27,-777.13"/>
</g>
<!-- V83S0P2 -->
<g id="node42" class="node">
<title>V83S0P2</title>
<polygon fill="#0000ff" fill-opacity="0.250980" stroke="black" points="2801.5,-774 2558.5,-774 2558.5,-720 2801.5,-720 2801.5,-774"/>
<text text-anchor="middle" x="2680" y="-743.3" font-family="Times,serif" font-size="14.00">TGT_BASM_BOIS_lnk_BOIS_Tgt</text>
</g>
<!-- V83S0&#45;&gt;V83S0P2 -->
<g id="edge47" class="edge">
<title>V83S0&#45;&gt;V83S0P2</title>
<path fill="none" stroke="black" d="M2240.01,-812.17C2243.04,-811.39 2246.04,-810.66 2249,-810 2377.47,-781.29 2412.93,-794.28 2543,-774 2544.73,-773.73 2546.47,-773.46 2548.21,-773.18"/>
<polygon fill="black" stroke="black" points="2549.01,-776.59 2558.31,-771.52 2547.88,-769.68 2549.01,-776.59"/>
</g>
<!-- V88S0P2 -->
<g id="node43" class="node">
<title>V88S0P2</title>
<polygon fill="#0000ff" fill-opacity="0.250980" stroke="black" points="3047.5,-774 2830.5,-774 2830.5,-720 3047.5,-720 3047.5,-774"/>
<text text-anchor="middle" x="2939" y="-743.3" font-family="Times,serif" font-size="14.00">DS_TGT_PITA_Lnk_PITA_Tgt</text>
</g>
<!-- V88S0&#45;&gt;V88S0P2 -->
<g id="edge49" class="edge">
<title>V88S0&#45;&gt;V88S0P2</title>
<path fill="none" stroke="black" d="M2371.76,-812.19C2374.52,-811.38 2377.28,-810.64 2380,-810 2566.64,-765.9 2620.13,-800.99 2810,-774 2813.44,-773.51 2816.93,-772.99 2820.44,-772.44"/>
<polygon fill="black" stroke="black" points="2821.11,-775.88 2830.41,-770.82 2819.98,-768.97 2821.11,-775.88"/>
</g>
<!-- V0S185 -->
<g id="node15" class="node">
<title>V0S185</title>
<polygon fill="#0000ff" fill-opacity="0.250980" stroke="black" points="1812.5,-54 1639.5,-54 1639.5,0 1812.5,0 1812.5,-54"/>
<text text-anchor="middle" x="1726" y="-23.3" font-family="Times,serif" font-size="14.00">DS_TGT_STG_MIS006</text>
</g>
<!-- V0S185P1 -->
<g id="node16" class="node">
<title>V0S185P1</title>
<polygon fill="#0000ff" fill-opacity="0.250980" stroke="black" points="1898,-144 1554,-144 1554,-90 1898,-90 1898,-144"/>
<text text-anchor="middle" x="1726" y="-113.3" font-family="Times,serif" font-size="14.00">DS_TGT_STG_MIS006_ln_tgt_ds_MIS006_Part</text>
</g>
<!-- V0S185P1&#45;&gt;V0S185 -->
<g id="edge14" class="edge">
<title>V0S185P1&#45;&gt;V0S185</title>
<path fill="none" stroke="black" d="M1726,-89.6C1726,-81.61 1726,-72.69 1726,-64.18"/>
<polygon fill="black" stroke="black" points="1729.5,-64.08 1726,-54.08 1722.5,-64.08 1729.5,-64.08"/>
</g>
<!-- V0S38 -->
<g id="node17" class="node">
<title>V0S38</title>
<polygon fill="#0000ff" fill-opacity="0.250980" stroke="black" points="1599.5,-594 1492.5,-594 1492.5,-540 1599.5,-540 1599.5,-594"/>
<text text-anchor="middle" x="1546" y="-563.3" font-family="Times,serif" font-size="14.00">Join_MIS006</text>
</g>
<!-- V0S38P30 -->
<g id="node18" class="node">
<title>V0S38P30</title>
<polygon fill="#0000ff" fill-opacity="0.250980" stroke="black" points="1605,-504 1487,-504 1487,-450 1605,-450 1605,-504"/>
<text text-anchor="middle" x="1546" y="-473.3" font-family="Times,serif" font-size="14.00">Join_MIS006_i</text>
</g>
<!-- V0S38&#45;&gt;V0S38P30 -->
<g id="edge15" class="edge">
<title>V0S38&#45;&gt;V0S38P30</title>
<path fill="none" stroke="black" d="M1546,-539.6C1546,-531.61 1546,-522.69 1546,-514.18"/>
<polygon fill="black" stroke="black" points="1549.5,-514.08 1546,-504.08 1542.5,-514.08 1549.5,-514.08"/>
</g>
<!-- V96S0P7 -->
<g id="node26" class="node">
<title>V96S0P7</title>
<polygon fill="#0000ff" fill-opacity="0.250980" stroke="black" points="1624,-414 1468,-414 1468,-360 1624,-360 1624,-414"/>
<text text-anchor="middle" x="1546" y="-383.3" font-family="Times,serif" font-size="14.00">Xfm_MIS006_i_Part</text>
</g>
<!-- V0S38P30&#45;&gt;V96S0P7 -->
<g id="edge23" class="edge">
<title>V0S38P30&#45;&gt;V96S0P7</title>
<path fill="none" stroke="black" d="M1546,-449.6C1546,-441.61 1546,-432.69 1546,-424.18"/>
<polygon fill="black" stroke="black" points="1549.5,-424.08 1546,-414.08 1542.5,-424.08 1549.5,-424.08"/>
</g>
<!-- V0S38P17 -->
<g id="node19" class="node">
<title>V0S38P17</title>
<polygon fill="#0000ff" fill-opacity="0.250980" stroke="black" points="1386,-684 1108,-684 1108,-630 1386,-630 1386,-684"/>
<text text-anchor="middle" x="1247" y="-653.3" font-family="Times,serif" font-size="14.00">Join_MIS006_Lnk_BLDVNN_Tgt_Part</text>
</g>
<!-- V0S38P17&#45;&gt;V0S38 -->
<g id="edge16" class="edge">
<title>V0S38P17&#45;&gt;V0S38</title>
<path fill="none" stroke="black" d="M1335.5,-629.95C1382.78,-616.04 1439.9,-599.23 1482.7,-586.63"/>
<polygon fill="black" stroke="black" points="1483.83,-589.95 1492.43,-583.77 1481.85,-583.23 1483.83,-589.95"/>
</g>
<!-- V0S38P21 -->
<g id="node20" class="node">
<title>V0S38P21</title>
<polygon fill="#0000ff" fill-opacity="0.250980" stroke="black" points="2271,-684 2017,-684 2017,-630 2271,-630 2271,-684"/>
<text text-anchor="middle" x="2144" y="-653.3" font-family="Times,serif" font-size="14.00">Join_MIS006_lnk_RELM_Tgt_Part</text>
</g>
<!-- V0S38P21&#45;&gt;V0S38 -->
<g id="edge17" class="edge">
<title>V0S38P21&#45;&gt;V0S38</title>
<path fill="none" stroke="black" d="M2016.79,-631.62C2013.49,-631.06 2010.23,-630.52 2007,-630 1865.57,-607.09 1698.76,-586.16 1609.68,-575.46"/>
<polygon fill="black" stroke="black" points="1610.07,-571.99 1599.73,-574.27 1609.24,-578.94 1610.07,-571.99"/>
</g>
<!-- V0S38P22 -->
<g id="node21" class="node">
<title>V0S38P22</title>
<polygon fill="#0000ff" fill-opacity="0.250980" stroke="black" points="528,-684 272,-684 272,-630 528,-630 528,-684"/>
<text text-anchor="middle" x="400" y="-653.3" font-family="Times,serif" font-size="14.00">Join_MIS006_lnk_CHPM_Tgt_Part</text>
</g>
<!-- V0S38P22&#45;&gt;V0S38 -->
<g id="edge18" class="edge">
<title>V0S38P22&#45;&gt;V0S38</title>
<path fill="none" stroke="black" d="M528.27,-631.15C531.2,-630.74 534.12,-630.36 537,-630 892.51,-585.52 1322.65,-572.56 1482.33,-569.13"/>
<polygon fill="black" stroke="black" points="1482.53,-572.62 1492.45,-568.91 1482.38,-565.62 1482.53,-572.62"/>
</g>
<!-- V0S38P23 -->
<g id="node22" class="node">
<title>V0S38P23</title>
<polygon fill="#0000ff" fill-opacity="0.250980" stroke="black" points="1687.5,-684 1404.5,-684 1404.5,-630 1687.5,-630 1687.5,-684"/>
<text text-anchor="middle" x="1546" y="-653.3" font-family="Times,serif" font-size="14.00">Join_MIS006_Lnk_BLDVWW_Tgt_Part</text>
</g>
<!-- V0S38P23&#45;&gt;V0S38 -->
<g id="edge19" class="edge">
<title>V0S38P23&#45;&gt;V0S38</title>
<path fill="none" stroke="black" d="M1546,-629.6C1546,-621.61 1546,-612.69 1546,-604.18"/>
<polygon fill="black" stroke="black" points="1549.5,-604.08 1546,-594.08 1542.5,-604.08 1549.5,-604.08"/>
</g>
<!-- V0S38P25 -->
<g id="node23" class="node">
<title>V0S38P25</title>
<polygon fill="#0000ff" fill-opacity="0.250980" stroke="black" points="1090,-684 830,-684 830,-630 1090,-630 1090,-684"/>
<text text-anchor="middle" x="960" y="-653.3" font-family="Times,serif" font-size="14.00">Join_MIS006_Lnk_RRMD_Tgt_Part</text>
</g>
<!-- V0S38P25&#45;&gt;V0S38 -->
<g id="edge20" class="edge">
<title>V0S38P25&#45;&gt;V0S38</title>
<path fill="none" stroke="black" d="M1090.19,-631.46C1093.15,-630.96 1096.09,-630.47 1099,-630 1235.12,-607.84 1395.39,-586.84 1482.24,-575.88"/>
<polygon fill="black" stroke="black" points="1482.72,-579.35 1492.21,-574.63 1481.85,-572.41 1482.72,-579.35"/>
</g>
<!-- V0S38P28 -->
<g id="node24" class="node">
<title>V0S38P28</title>
<polygon fill="#0000ff" fill-opacity="0.250980" stroke="black" points="812,-684 546,-684 546,-630 812,-630 812,-684"/>
<text text-anchor="middle" x="679" y="-653.3" font-family="Times,serif" font-size="14.00">Join_MIS006_Lnk_Cusvaa_Tgt_Part</text>
</g>
<!-- V0S38P28&#45;&gt;V0S38 -->
<g id="edge21" class="edge">
<title>V0S38P28&#45;&gt;V0S38</title>
<path fill="none" stroke="black" d="M812.35,-631.2C815.26,-630.78 818.14,-630.38 821,-630 1063.96,-597.44 1355.14,-578.62 1481.85,-571.42"/>
<polygon fill="black" stroke="black" points="1482.36,-574.89 1492.15,-570.84 1481.96,-567.9 1482.36,-574.89"/>
</g>
<!-- V0S38P29 -->
<g id="node25" class="node">
<title>V0S38P29</title>
<polygon fill="#0000ff" fill-opacity="0.250980" stroke="black" points="1998.5,-684 1705.5,-684 1705.5,-630 1998.5,-630 1998.5,-684"/>
<text text-anchor="middle" x="1852" y="-653.3" font-family="Times,serif" font-size="14.00">Join_MIS006_Lnk_ALL_Direct_Tgt_Part</text>
</g>
<!-- V0S38P29&#45;&gt;V0S38 -->
<g id="edge22" class="edge">
<title>V0S38P29&#45;&gt;V0S38</title>
<path fill="none" stroke="black" d="M1761.43,-629.95C1712.61,-615.91 1653.54,-598.93 1609.62,-586.3"/>
<polygon fill="black" stroke="black" points="1610.5,-582.91 1599.92,-583.51 1608.56,-589.63 1610.5,-582.91"/>
</g>
<!-- V96S0 -->
<g id="node44" class="node">
<title>V96S0</title>
<polygon fill="#0000ff" fill-opacity="0.250980" stroke="black" points="1600,-324 1492,-324 1492,-270 1600,-270 1600,-324"/>
<text text-anchor="middle" x="1546" y="-293.3" font-family="Times,serif" font-size="14.00">Xfm_MIS006</text>
</g>
<!-- V96S0P7&#45;&gt;V96S0 -->
<g id="edge54" class="edge">
<title>V96S0P7&#45;&gt;V96S0</title>
<path fill="none" stroke="black" d="M1546,-359.6C1546,-351.61 1546,-342.69 1546,-334.18"/>
<polygon fill="black" stroke="black" points="1549.5,-334.08 1546,-324.08 1542.5,-334.08 1549.5,-334.08"/>
</g>
<!-- V0S38P31 -->
<g id="node27" class="node">
<title>V0S38P31</title>
<polygon fill="#0000ff" fill-opacity="0.250980" stroke="black" points="2545,-684 2289,-684 2289,-630 2545,-630 2545,-684"/>
<text text-anchor="middle" x="2417" y="-653.3" font-family="Times,serif" font-size="14.00">Join_MIS006_lnk_BORM_Tgt_Part</text>
</g>
<!-- V0S38P31&#45;&gt;V0S38 -->
<g id="edge24" class="edge">
<title>V0S38P31&#45;&gt;V0S38</title>
<path fill="none" stroke="black" d="M2288.72,-631.24C2285.79,-630.81 2282.88,-630.39 2280,-630 2033.27,-596.26 1737.21,-577.98 1609.62,-571.16"/>
<polygon fill="black" stroke="black" points="1609.8,-567.66 1599.62,-570.63 1609.43,-574.65 1609.8,-567.66"/>
</g>
<!-- V0S38P32 -->
<g id="node28" class="node">
<title>V0S38P32</title>
<polygon fill="#0000ff" fill-opacity="0.250980" stroke="black" points="2809,-684 2563,-684 2563,-630 2809,-630 2809,-684"/>
<text text-anchor="middle" x="2686" y="-653.3" font-family="Times,serif" font-size="14.00">Join_MIS006_lnk_BOIS_Tgt_Part</text>
</g>
<!-- V0S38P32&#45;&gt;V0S38 -->
<g id="edge25" class="edge">
<title>V0S38P32&#45;&gt;V0S38</title>
<path fill="none" stroke="black" d="M2562.77,-631.19C2559.82,-630.77 2556.9,-630.37 2554,-630 2199,-584.33 1769.19,-572.07 1609.63,-568.98"/>
<polygon fill="black" stroke="black" points="1609.58,-565.48 1599.51,-568.79 1609.44,-572.48 1609.58,-565.48"/>
</g>
<!-- V0S38P33 -->
<g id="node29" class="node">
<title>V0S38P33</title>
<polygon fill="#0000ff" fill-opacity="0.250980" stroke="black" points="3074.5,-684 2827.5,-684 2827.5,-630 3074.5,-630 3074.5,-684"/>
<text text-anchor="middle" x="2951" y="-653.3" font-family="Times,serif" font-size="14.00">Join_MIS006_Lnk_PITA_Tgt_Part</text>
</g>
<!-- V0S38P33&#45;&gt;V0S38 -->
<g id="edge26" class="edge">
<title>V0S38P33&#45;&gt;V0S38</title>
<path fill="none" stroke="black" d="M2827.2,-631.19C2824.11,-630.77 2821.04,-630.37 2818,-630 2357.02,-574 1796.26,-568.16 1609.73,-567.86"/>
<polygon fill="black" stroke="black" points="1609.56,-564.36 1599.55,-567.85 1609.55,-571.36 1609.56,-564.36"/>
</g>
<!-- V0S38P40 -->
<g id="node30" class="node">
<title>V0S38P40</title>
<polygon fill="#0000ff" fill-opacity="0.250980" stroke="black" points="254,-684 0,-684 0,-630 254,-630 254,-684"/>
<text text-anchor="middle" x="127" y="-653.3" font-family="Times,serif" font-size="14.00">Join_MIS006_lnk_BDEH_Tgt_Part</text>
</g>
<!-- V0S38P40&#45;&gt;V0S38 -->
<g id="edge27" class="edge">
<title>V0S38P40&#45;&gt;V0S38</title>
<path fill="none" stroke="black" d="M254.33,-631.1C257.24,-630.71 260.14,-630.34 263,-630 728.35,-574.55 1294.28,-568.36 1482.06,-567.92"/>
<polygon fill="black" stroke="black" points="1482.31,-571.42 1492.3,-567.9 1482.3,-564.42 1482.31,-571.42"/>
</g>
<!-- V100S0P2&#45;&gt;V0S38P40 -->
<g id="edge29" class="edge">
<title>V100S0P2&#45;&gt;V0S38P40</title>
<path fill="none" stroke="black" d="M145.2,-719.6C142.81,-711.52 140.15,-702.49 137.61,-693.9"/>
<polygon fill="black" stroke="black" points="140.9,-692.68 134.71,-684.08 134.18,-694.66 140.9,-692.68"/>
</g>
<!-- V39S0P2&#45;&gt;V0S38P22 -->
<g id="edge31" class="edge">
<title>V39S0P2&#45;&gt;V0S38P22</title>
<path fill="none" stroke="black" d="M436.4,-719.6C431.42,-711.17 425.83,-701.71 420.55,-692.78"/>
<polygon fill="black" stroke="black" points="423.51,-690.91 415.41,-684.08 417.49,-694.47 423.51,-690.91"/>
</g>
<!-- V40S0P3&#45;&gt;V0S38P28 -->
<g id="edge33" class="edge">
<title>V40S0P3&#45;&gt;V0S38P28</title>
<path fill="none" stroke="black" d="M718.9,-719.6C713.38,-711.08 707.18,-701.51 701.35,-692.5"/>
<polygon fill="black" stroke="black" points="704.27,-690.57 695.89,-684.08 698.39,-694.38 704.27,-690.57"/>
</g>
<!-- V41S0P2&#45;&gt;V0S38P25 -->
<g id="edge35" class="edge">
<title>V41S0P2&#45;&gt;V0S38P25</title>
<path fill="none" stroke="black" d="M976.1,-719.6C973.99,-711.52 971.63,-702.49 969.38,-693.9"/>
<polygon fill="black" stroke="black" points="972.73,-692.87 966.82,-684.08 965.96,-694.64 972.73,-692.87"/>
</g>
<!-- V42S0P2&#45;&gt;V0S38P17 -->
<g id="edge37" class="edge">
<title>V42S0P2&#45;&gt;V0S38P17</title>
<path fill="none" stroke="black" d="M1255.4,-719.6C1254.31,-711.61 1253.09,-702.69 1251.93,-694.18"/>
<polygon fill="black" stroke="black" points="1255.38,-693.52 1250.56,-684.08 1248.44,-694.46 1255.38,-693.52"/>
</g>
<!-- V43S0P2&#45;&gt;V0S38P23 -->
<g id="edge39" class="edge">
<title>V43S0P2&#45;&gt;V0S38P23</title>
<path fill="none" stroke="black" d="M1546,-719.6C1546,-711.61 1546,-702.69 1546,-694.18"/>
<polygon fill="black" stroke="black" points="1549.5,-694.08 1546,-684.08 1542.5,-694.08 1549.5,-694.08"/>
</g>
<!-- V44S0P3&#45;&gt;V0S38P29 -->
<g id="edge41" class="edge">
<title>V44S0P3&#45;&gt;V0S38P29</title>
<path fill="none" stroke="black" d="M1841.5,-719.6C1842.86,-711.61 1844.38,-702.69 1845.83,-694.18"/>
<polygon fill="black" stroke="black" points="1849.32,-694.53 1847.55,-684.08 1842.42,-693.35 1849.32,-694.53"/>
</g>
<!-- V45S0P2&#45;&gt;V0S38P21 -->
<g id="edge43" class="edge">
<title>V45S0P2&#45;&gt;V0S38P21</title>
<path fill="none" stroke="black" d="M2137.7,-719.6C2138.52,-711.61 2139.43,-702.69 2140.3,-694.18"/>
<polygon fill="black" stroke="black" points="2143.8,-694.39 2141.33,-684.08 2136.83,-693.67 2143.8,-694.39"/>
</g>
<!-- V73S2 -->
<g id="node39" class="node">
<title>V73S2</title>
<polygon fill="#0000ff" fill-opacity="0.250980" stroke="black" points="1453.5,-54 1282.5,-54 1282.5,0 1453.5,0 1453.5,-54"/>
<text text-anchor="middle" x="1368" y="-23.3" font-family="Times,serif" font-size="14.00">TGT_MIS200_FIELDS</text>
</g>
<!-- V73S2P2 -->
<g id="node40" class="node">
<title>V73S2P2</title>
<polygon fill="#0000ff" fill-opacity="0.250980" stroke="black" points="1536,-144 1200,-144 1200,-90 1536,-90 1536,-144"/>
<text text-anchor="middle" x="1368" y="-113.3" font-family="Times,serif" font-size="14.00">TGT_MIS200_FIELDS_ln_MIS200_fields_Part</text>
</g>
<!-- V73S2P2&#45;&gt;V73S2 -->
<g id="edge44" class="edge">
<title>V73S2P2&#45;&gt;V73S2</title>
<path fill="none" stroke="black" d="M1368,-89.6C1368,-81.61 1368,-72.69 1368,-64.18"/>
<polygon fill="black" stroke="black" points="1371.5,-64.08 1368,-54.08 1364.5,-64.08 1371.5,-64.08"/>
</g>
<!-- V82S0P2&#45;&gt;V0S38P31 -->
<g id="edge46" class="edge">
<title>V82S0P2&#45;&gt;V0S38P31</title>
<path fill="none" stroke="black" d="M2415.6,-719.6C2415.78,-711.61 2415.98,-702.69 2416.18,-694.18"/>
<polygon fill="black" stroke="black" points="2419.68,-694.16 2416.41,-684.08 2412.68,-694 2419.68,-694.16"/>
</g>
<!-- V83S0P2&#45;&gt;V0S38P32 -->
<g id="edge48" class="edge">
<title>V83S0P2&#45;&gt;V0S38P32</title>
<path fill="none" stroke="black" d="M2681.8,-719.6C2682.34,-711.61 2682.95,-702.69 2683.53,-694.18"/>
<polygon fill="black" stroke="black" points="2687.03,-694.3 2684.22,-684.08 2680.05,-693.82 2687.03,-694.3"/>
</g>
<!-- V88S0P2&#45;&gt;V0S38P33 -->
<g id="edge50" class="edge">
<title>V88S0P2&#45;&gt;V0S38P33</title>
<path fill="none" stroke="black" d="M2942.6,-719.6C2943.69,-711.61 2944.91,-702.69 2946.07,-694.18"/>
<polygon fill="black" stroke="black" points="2949.56,-694.46 2947.44,-684.08 2942.62,-693.52 2949.56,-694.46"/>
</g>
<!-- V96S0P2 -->
<g id="node45" class="node">
<title>V96S0P2</title>
<polygon fill="#0000ff" fill-opacity="0.250980" stroke="black" points="1536,-234 1300,-234 1300,-180 1536,-180 1536,-234"/>
<text text-anchor="middle" x="1418" y="-203.3" font-family="Times,serif" font-size="14.00">Xfm_MIS006_ln_MIS200_fields</text>
</g>
<!-- V96S0&#45;&gt;V96S0P2 -->
<g id="edge51" class="edge">
<title>V96S0&#45;&gt;V96S0P2</title>
<path fill="none" stroke="black" d="M1507.94,-269.84C1494.27,-260.43 1478.69,-249.72 1464.38,-239.89"/>
<polygon fill="black" stroke="black" points="1466.36,-237 1456.13,-234.22 1462.39,-242.77 1466.36,-237"/>
</g>
<!-- V96S0P8 -->
<g id="node46" class="node">
<title>V96S0P8</title>
<polygon fill="#0000ff" fill-opacity="0.250980" stroke="black" points="1821,-234 1579,-234 1579,-180 1821,-180 1821,-234"/>
<text text-anchor="middle" x="1700" y="-203.3" font-family="Times,serif" font-size="14.00">Xfm_MIS006_ln_tgt_ds_MIS006</text>
</g>
<!-- V96S0&#45;&gt;V96S0P8 -->
<g id="edge52" class="edge">
<title>V96S0&#45;&gt;V96S0P8</title>
<path fill="none" stroke="black" d="M1591.79,-269.84C1608.62,-260.21 1627.86,-249.22 1645.39,-239.2"/>
<polygon fill="black" stroke="black" points="1647.44,-242.06 1654.39,-234.06 1643.97,-235.99 1647.44,-242.06"/>
</g>
<!-- V96S0P2&#45;&gt;V73S2P2 -->
<g id="edge53" class="edge">
<title>V96S0P2&#45;&gt;V73S2P2</title>
<path fill="none" stroke="black" d="M1403,-179.6C1398.21,-171.17 1392.83,-161.71 1387.76,-152.78"/>
<polygon fill="black" stroke="black" points="1390.8,-151.05 1382.82,-144.08 1384.72,-154.5 1390.8,-151.05"/>
</g>
<!-- V96S0P8&#45;&gt;V0S185P1 -->
<g id="edge55" class="edge">
<title>V96S0P8&#45;&gt;V0S185P1</title>
<path fill="none" stroke="black" d="M1707.8,-179.6C1710.19,-171.52 1712.85,-162.49 1715.39,-153.9"/>
<polygon fill="black" stroke="black" points="1718.82,-154.66 1718.29,-144.08 1712.1,-152.68 1718.82,-154.66"/>
</g>
</g>
</svg>
