<?xml version="1.0" encoding="UTF-8" standalone="no"?>
<!DOCTYPE svg PUBLIC "-//W3C//DTD SVG 1.1//EN"
 "http://www.w3.org/Graphics/SVG/1.1/DTD/svg11.dtd">
<!-- Generated by graphviz version 2.43.0 (0)
 -->
<!-- Pages: 1 -->
<svg width="3083pt" height="820pt"
 viewBox="0.00 0.00 3082.50 820.00" xmlns="http://www.w3.org/2000/svg" xmlns:xlink="http://www.w3.org/1999/xlink">
<g id="graph0" class="graph" transform="scale(1 1) rotate(0) translate(4 816)">
<polygon fill="white" stroke="transparent" points="-4,4 -4,-816 3078.5,-816 3078.5,4 -4,4"/>
<!-- ROOT -->
<g id="node1" class="node">
<title>ROOT</title>
<polygon fill="#0000ff" fill-opacity="0.250980" stroke="black" points="1764.5,-812 1501.5,-812 1501.5,-758 1764.5,-758 1764.5,-812"/>
<text text-anchor="middle" x="1633" y="-781.3" font-family="Times,serif" font-size="14.00">job_DBdirect_MIS006_DS_Ld_POC</text>
</g>
<!-- V0 -->
<g id="node2" class="node">
<title>V0</title>
<polygon fill="#0000ff" fill-opacity="0.250980" stroke="black" points="1676,-721 1590,-721 1590,-667 1676,-667 1676,-721"/>
<text text-anchor="middle" x="1633" y="-690.3" font-family="Times,serif" font-size="14.00">Job_VIEW</text>
</g>
<!-- ROOT&#45;&gt;V0 -->
<g id="edge1" class="edge">
<title>ROOT&#45;&gt;V0</title>
<path fill="none" stroke="black" d="M1633,-757.78C1633,-749.45 1633,-740.09 1633,-731.18"/>
<polygon fill="black" stroke="black" points="1636.5,-731.03 1633,-721.03 1629.5,-731.03 1636.5,-731.03"/>
</g>
<!-- V100S0 -->
<g id="node3" class="node">
<title>V100S0</title>
<polygon fill="#0000ff" fill-opacity="0.250980" stroke="black" points="317,-630 171,-630 171,-576 317,-576 317,-630"/>
<text text-anchor="middle" x="244" y="-599.3" font-family="Times,serif" font-size="14.00">TGT_BDEH_LONP</text>
</g>
<!-- V0&#45;&gt;V100S0 -->
<g id="edge2" class="edge">
<title>V0&#45;&gt;V100S0</title>
<path fill="none" stroke="black" d="M1589.78,-691.99C1394.98,-687.27 597.3,-666.06 350,-630 342.57,-628.92 334.9,-627.55 327.24,-626"/>
<polygon fill="black" stroke="black" points="327.71,-622.52 317.2,-623.88 326.26,-629.37 327.71,-622.52"/>
</g>
<!-- V39S0 -->
<g id="node4" class="node">
<title>V39S0</title>
<polygon fill="#0000ff" fill-opacity="0.250980" stroke="black" points="532.5,-630 359.5,-630 359.5,-576 532.5,-576 532.5,-630"/>
<text text-anchor="middle" x="446" y="-599.3" font-family="Times,serif" font-size="14.00">DS_TGT_CHPM_COLT</text>
</g>
<!-- V0&#45;&gt;V39S0 -->
<g id="edge3" class="edge">
<title>V0&#45;&gt;V39S0</title>
<path fill="none" stroke="black" d="M1589.7,-689.75C1418.6,-676.92 787.09,-629.57 543.1,-611.28"/>
<polygon fill="black" stroke="black" points="543.06,-607.77 532.83,-610.51 542.54,-614.75 543.06,-607.77"/>
</g>
<!-- V40S0 -->
<g id="node5" class="node">
<title>V40S0</title>
<polygon fill="#0000ff" fill-opacity="0.250980" stroke="black" points="942.5,-630 829.5,-630 829.5,-576 942.5,-576 942.5,-630"/>
<text text-anchor="middle" x="886" y="-599.3" font-family="Times,serif" font-size="14.00">TGT_CUSVAA</text>
</g>
<!-- V0&#45;&gt;V40S0 -->
<g id="edge4" class="edge">
<title>V0&#45;&gt;V40S0</title>
<path fill="none" stroke="black" d="M1589.67,-688.34C1496.52,-678.25 1270.3,-653.42 1081,-630 1038.4,-624.73 990.63,-618.37 953.03,-613.26"/>
<polygon fill="black" stroke="black" points="953.09,-609.73 942.71,-611.85 952.14,-616.67 953.09,-609.73"/>
</g>
<!-- V41S0 -->
<g id="node6" class="node">
<title>V41S0</title>
<polygon fill="#0000ff" fill-opacity="0.250980" stroke="black" points="1189.5,-630 1090.5,-630 1090.5,-576 1189.5,-576 1189.5,-630"/>
<text text-anchor="middle" x="1140" y="-599.3" font-family="Times,serif" font-size="14.00">TGT_RRMD</text>
</g>
<!-- V0&#45;&gt;V41S0 -->
<g id="edge5" class="edge">
<title>V0&#45;&gt;V41S0</title>
<path fill="none" stroke="black" d="M1589.68,-685.18C1501.32,-669.23 1300.14,-632.91 1199.56,-614.75"/>
<polygon fill="black" stroke="black" points="1200.03,-611.28 1189.56,-612.95 1198.78,-618.17 1200.03,-611.28"/>
</g>
<!-- V42S0 -->
<g id="node7" class="node">
<title>V42S0</title>
<polygon fill="#0000ff" fill-opacity="0.250980" stroke="black" points="1425.5,-630 1308.5,-630 1308.5,-576 1425.5,-576 1425.5,-630"/>
<text text-anchor="middle" x="1367" y="-599.3" font-family="Times,serif" font-size="14.00">TGT_BLDVNN</text>
</g>
<!-- V0&#45;&gt;V42S0 -->
<g id="edge6" class="edge">
<title>V0&#45;&gt;V42S0</title>
<path fill="none" stroke="black" d="M1589.97,-678.6C1548.2,-664.63 1484.15,-643.2 1435.39,-626.88"/>
<polygon fill="black" stroke="black" points="1436.45,-623.55 1425.86,-623.69 1434.23,-630.18 1436.45,-623.55"/>
</g>
<!-- V43S0 -->
<g id="node8" class="node">
<title>V43S0</title>
<polygon fill="#0000ff" fill-opacity="0.250980" stroke="black" points="1607,-630 1485,-630 1485,-576 1607,-576 1607,-630"/>
<text text-anchor="middle" x="1546" y="-599.3" font-family="Times,serif" font-size="14.00">TGT_BLDVWW</text>
</g>
<!-- V0&#45;&gt;V43S0 -->
<g id="edge7" class="edge">
<title>V0&#45;&gt;V43S0</title>
<path fill="none" stroke="black" d="M1607.37,-666.78C1598.34,-657.54 1588.07,-647.04 1578.55,-637.3"/>
<polygon fill="black" stroke="black" points="1580.94,-634.74 1571.45,-630.03 1575.94,-639.63 1580.94,-634.74"/>
</g>
<!-- V44S0 -->
<g id="node9" class="node">
<title>V44S0</title>
<polygon fill="#0000ff" fill-opacity="0.250980" stroke="black" points="1747,-630 1625,-630 1625,-576 1747,-576 1747,-630"/>
<text text-anchor="middle" x="1686" y="-599.3" font-family="Times,serif" font-size="14.00">TGT_Direct_All</text>
</g>
<!-- V0&#45;&gt;V44S0 -->
<g id="edge8" class="edge">
<title>V0&#45;&gt;V44S0</title>
<path fill="none" stroke="black" d="M1648.62,-666.78C1653.84,-658 1659.76,-648.07 1665.31,-638.74"/>
<polygon fill="black" stroke="black" points="1668.39,-640.42 1670.5,-630.03 1662.37,-636.84 1668.39,-640.42"/>
</g>
<!-- V45S0 -->
<g id="node10" class="node">
<title>V45S0</title>
<polygon fill="#0000ff" fill-opacity="0.250980" stroke="black" points="1936.5,-630 1765.5,-630 1765.5,-576 1936.5,-576 1936.5,-630"/>
<text text-anchor="middle" x="1851" y="-599.3" font-family="Times,serif" font-size="14.00">DS_TGT_RELM_RELX</text>
</g>
<!-- V0&#45;&gt;V45S0 -->
<g id="edge9" class="edge">
<title>V0&#45;&gt;V45S0</title>
<path fill="none" stroke="black" d="M1676.07,-675.42C1704.99,-663.61 1743.84,-647.75 1777.57,-633.98"/>
<polygon fill="black" stroke="black" points="1779,-637.17 1786.94,-630.15 1776.36,-630.69 1779,-637.17"/>
</g>
<!-- V82S0 -->
<g id="node11" class="node">
<title>V82S0</title>
<polygon fill="#0000ff" fill-opacity="0.250980" stroke="black" points="2081.5,-630 1954.5,-630 1954.5,-576 2081.5,-576 2081.5,-630"/>
<text text-anchor="middle" x="2018" y="-599.3" font-family="Times,serif" font-size="14.00">DS_TGT_BORM</text>
</g>
<!-- V0&#45;&gt;V82S0 -->
<g id="edge10" class="edge">
<title>V0&#45;&gt;V82S0</title>
<path fill="none" stroke="black" d="M1676.1,-686.3C1734.83,-676.74 1843.3,-657.52 1944.68,-629.93"/>
<polygon fill="black" stroke="black" points="1945.76,-633.26 1954.47,-627.23 1943.9,-626.51 1945.76,-633.26"/>
</g>
<!-- V83S0 -->
<g id="node12" class="node">
<title>V83S0</title>
<polygon fill="#0000ff" fill-opacity="0.250980" stroke="black" points="2240,-630 2100,-630 2100,-576 2240,-576 2240,-630"/>
<text text-anchor="middle" x="2170" y="-599.3" font-family="Times,serif" font-size="14.00">TGT_BASM_BOIS</text>
</g>
<!-- V0&#45;&gt;V83S0 -->
<g id="edge11" class="edge">
<title>V0&#45;&gt;V83S0</title>
<path fill="none" stroke="black" d="M1676.3,-689.61C1758,-682.64 1940.12,-664.4 2090,-630 2090.1,-629.98 2090.2,-629.95 2090.31,-629.93"/>
<polygon fill="black" stroke="black" points="2091.09,-633.34 2099.96,-627.54 2089.41,-626.55 2091.09,-633.34"/>
</g>
<!-- V88S0 -->
<g id="node13" class="node">
<title>V88S0</title>
<polygon fill="#0000ff" fill-opacity="0.250980" stroke="black" points="2371.5,-630 2258.5,-630 2258.5,-576 2371.5,-576 2371.5,-630"/>
<text text-anchor="middle" x="2315" y="-599.3" font-family="Times,serif" font-size="14.00">DS_TGT_PITA</text>
</g>
<!-- V0&#45;&gt;V88S0 -->
<g id="edge12" class="edge">
<title>V0&#45;&gt;V88S0</title>
<path fill="none" stroke="black" d="M1676.25,-692.61C1776.21,-690.86 2030.66,-681.48 2248.42,-629.83"/>
<polygon fill="black" stroke="black" points="2249.54,-633.16 2258.44,-627.42 2247.9,-626.36 2249.54,-633.16"/>
</g>
<!-- V94A0 -->
<g id="node14" class="node">
<title>V94A0</title>
<polygon fill="#0000ff" fill-opacity="0.250980" stroke="black" points="2452.5,-630 2389.5,-630 2389.5,-576 2452.5,-576 2452.5,-630"/>
<text text-anchor="middle" x="2421" y="-599.3" font-family="Times,serif" font-size="14.00">V94A0</text>
</g>
<!-- V0&#45;&gt;V94A0 -->
<g id="edge13" class="edge">
<title>V0&#45;&gt;V94A0</title>
<path fill="none" stroke="black" d="M1676.03,-689.7C1768.01,-682.62 1990.57,-665.26 2177,-649 2264.19,-641.39 2292.33,-658.09 2379.55,-629.42"/>
<polygon fill="black" stroke="black" points="2380.69,-632.73 2389.04,-626.2 2378.44,-626.1 2380.69,-632.73"/>
</g>
<!-- V0S38P40 -->
<g id="node29" class="node">
<title>V0S38P40</title>
<polygon fill="#0000ff" fill-opacity="0.250980" stroke="black" points="254,-529 0,-529 0,-475 254,-475 254,-529"/>
<text text-anchor="middle" x="127" y="-498.3" font-family="Times,serif" font-size="14.00">Join_MIS006_lnk_BDEH_Tgt_Part</text>
</g>
<!-- V100S0&#45;&gt;V0S38P40 -->
<g id="edge27" class="edge">
<title>V100S0&#45;&gt;V0S38P40</title>
<path fill="none" stroke="black" d="M213.26,-575.99C198.73,-563.7 181.23,-548.88 165.8,-535.83"/>
<polygon fill="black" stroke="black" points="167.84,-532.97 157.94,-529.18 163.31,-538.31 167.84,-532.97"/>
<text text-anchor="middle" x="228" y="-550" font-family="Times,serif" font-size="10.00">lnk_BDEH_Tgt</text>
</g>
<!-- V0S38P22 -->
<g id="node21" class="node">
<title>V0S38P22</title>
<polygon fill="#0000ff" fill-opacity="0.250980" stroke="black" points="528,-529 272,-529 272,-475 528,-475 528,-529"/>
<text text-anchor="middle" x="400" y="-498.3" font-family="Times,serif" font-size="14.00">Join_MIS006_lnk_CHPM_Tgt_Part</text>
</g>
<!-- V39S0&#45;&gt;V0S38P22 -->
<g id="edge28" class="edge">
<title>V39S0&#45;&gt;V0S38P22</title>
<path fill="none" stroke="black" d="M433.91,-575.99C428.57,-564.48 422.2,-550.78 416.43,-538.36"/>
<polygon fill="black" stroke="black" points="419.55,-536.78 412.16,-529.18 413.2,-539.72 419.55,-536.78"/>
<text text-anchor="middle" x="464" y="-550" font-family="Times,serif" font-size="10.00">lnk_CHPM_Tgt</text>
</g>
<!-- V0S38P28 -->
<g id="node24" class="node">
<title>V0S38P28</title>
<polygon fill="#0000ff" fill-opacity="0.250980" stroke="black" points="812,-529 546,-529 546,-475 812,-475 812,-529"/>
<text text-anchor="middle" x="679" y="-498.3" font-family="Times,serif" font-size="14.00">Join_MIS006_Lnk_Cusvaa_Tgt_Part</text>
</g>
<!-- V40S0&#45;&gt;V0S38P28 -->
<g id="edge29" class="edge">
<title>V40S0&#45;&gt;V0S38P28</title>
<path fill="none" stroke="black" d="M831.61,-575.99C804.27,-562.91 770.97,-546.98 742.46,-533.35"/>
<polygon fill="black" stroke="black" points="743.91,-530.17 733.38,-529.01 740.89,-536.48 743.91,-530.17"/>
<text text-anchor="middle" x="831.5" y="-550" font-family="Times,serif" font-size="10.00">Lnk_Cusvaa_Tgt</text>
</g>
<!-- V0S38P25 -->
<g id="node23" class="node">
<title>V0S38P25</title>
<polygon fill="#0000ff" fill-opacity="0.250980" stroke="black" points="1090,-529 830,-529 830,-475 1090,-475 1090,-529"/>
<text text-anchor="middle" x="960" y="-498.3" font-family="Times,serif" font-size="14.00">Join_MIS006_Lnk_RRMD_Tgt_Part</text>
</g>
<!-- V41S0&#45;&gt;V0S38P25 -->
<g id="edge30" class="edge">
<title>V41S0&#45;&gt;V0S38P25</title>
<path fill="none" stroke="black" d="M1092.71,-575.99C1069.24,-563.08 1040.72,-547.4 1016.15,-533.88"/>
<polygon fill="black" stroke="black" points="1017.74,-530.76 1007.29,-529.01 1014.36,-536.9 1017.74,-530.76"/>
<text text-anchor="middle" x="1097" y="-550" font-family="Times,serif" font-size="10.00">Lnk_RRMD_Tgt</text>
</g>
<!-- V0S38P17 -->
<g id="node19" class="node">
<title>V0S38P17</title>
<polygon fill="#0000ff" fill-opacity="0.250980" stroke="black" points="1386,-529 1108,-529 1108,-475 1386,-475 1386,-529"/>
<text text-anchor="middle" x="1247" y="-498.3" font-family="Times,serif" font-size="14.00">Join_MIS006_Lnk_BLDVNN_Tgt_Part</text>
</g>
<!-- V42S0&#45;&gt;V0S38P17 -->
<g id="edge31" class="edge">
<title>V42S0&#45;&gt;V0S38P17</title>
<path fill="none" stroke="black" d="M1335.47,-575.99C1320.57,-563.7 1302.62,-548.88 1286.79,-535.83"/>
<polygon fill="black" stroke="black" points="1288.68,-532.85 1278.73,-529.18 1284.22,-538.24 1288.68,-532.85"/>
<text text-anchor="middle" x="1358.5" y="-550" font-family="Times,serif" font-size="10.00">Lnk_BLDVNN_Tgt</text>
</g>
<!-- V0S38P23 -->
<g id="node22" class="node">
<title>V0S38P23</title>
<polygon fill="#0000ff" fill-opacity="0.250980" stroke="black" points="1687.5,-529 1404.5,-529 1404.5,-475 1687.5,-475 1687.5,-529"/>
<text text-anchor="middle" x="1546" y="-498.3" font-family="Times,serif" font-size="14.00">Join_MIS006_Lnk_BLDVWW_Tgt_Part</text>
</g>
<!-- V43S0&#45;&gt;V0S38P23 -->
<g id="edge32" class="edge">
<title>V43S0&#45;&gt;V0S38P23</title>
<path fill="none" stroke="black" d="M1546,-575.99C1546,-564.82 1546,-551.58 1546,-539.46"/>
<polygon fill="black" stroke="black" points="1549.5,-539.18 1546,-529.18 1542.5,-539.18 1549.5,-539.18"/>
<text text-anchor="middle" x="1595" y="-550" font-family="Times,serif" font-size="10.00">Lnk_BLDVWW_Tgt</text>
</g>
<!-- V0S38P29 -->
<g id="node25" class="node">
<title>V0S38P29</title>
<polygon fill="#0000ff" fill-opacity="0.250980" stroke="black" points="1998.5,-529 1705.5,-529 1705.5,-475 1998.5,-475 1998.5,-529"/>
<text text-anchor="middle" x="1852" y="-498.3" font-family="Times,serif" font-size="14.00">Join_MIS006_Lnk_ALL_Direct_Tgt_Part</text>
</g>
<!-- V44S0&#45;&gt;V0S38P29 -->
<g id="edge33" class="edge">
<title>V44S0&#45;&gt;V0S38P29</title>
<path fill="none" stroke="black" d="M1717.21,-575.83C1729.51,-566.15 1744.01,-555.48 1758,-547 1765.69,-542.33 1773.96,-537.82 1782.29,-533.56"/>
<polygon fill="black" stroke="black" points="1783.94,-536.65 1791.32,-529.06 1780.81,-530.39 1783.94,-536.65"/>
<text text-anchor="middle" x="1810.5" y="-550" font-family="Times,serif" font-size="10.00">Lnk_ALL_Direct_Tgt</text>
</g>
<!-- V0S38P21 -->
<g id="node20" class="node">
<title>V0S38P21</title>
<polygon fill="#0000ff" fill-opacity="0.250980" stroke="black" points="2271,-529 2017,-529 2017,-475 2271,-475 2271,-529"/>
<text text-anchor="middle" x="2144" y="-498.3" font-family="Times,serif" font-size="14.00">Join_MIS006_lnk_RELM_Tgt_Part</text>
</g>
<!-- V45S0&#45;&gt;V0S38P21 -->
<g id="edge34" class="edge">
<title>V45S0&#45;&gt;V0S38P21</title>
<path fill="none" stroke="black" d="M1889.41,-575.86C1905.92,-565.61 1925.81,-554.52 1945,-547 1957.67,-542.03 1980.69,-536.08 2006.7,-530.18"/>
<polygon fill="black" stroke="black" points="2007.81,-533.52 2016.8,-527.92 2006.28,-526.69 2007.81,-533.52"/>
<text text-anchor="middle" x="1983" y="-550" font-family="Times,serif" font-size="10.00">lnk_RELM_Tgt</text>
</g>
<!-- V0S38P31 -->
<g id="node26" class="node">
<title>V0S38P31</title>
<polygon fill="#0000ff" fill-opacity="0.250980" stroke="black" points="2545,-529 2289,-529 2289,-475 2545,-475 2545,-529"/>
<text text-anchor="middle" x="2417" y="-498.3" font-family="Times,serif" font-size="14.00">Join_MIS006_lnk_BORM_Tgt_Part</text>
</g>
<!-- V82S0&#45;&gt;V0S38P31 -->
<g id="edge36" class="edge">
<title>V82S0&#45;&gt;V0S38P31</title>
<path fill="none" stroke="black" d="M2047.4,-575.79C2061.2,-565 2078.45,-553.52 2096,-547 2170.09,-519.46 2196.64,-539.05 2278.7,-529.04"/>
<polygon fill="black" stroke="black" points="2279.26,-532.5 2288.71,-527.71 2278.34,-525.56 2279.26,-532.5"/>
<text text-anchor="middle" x="2135" y="-550" font-family="Times,serif" font-size="10.00">lnk_BORM_Tgt</text>
</g>
<!-- V0S38P32 -->
<g id="node27" class="node">
<title>V0S38P32</title>
<polygon fill="#0000ff" fill-opacity="0.250980" stroke="black" points="2809,-529 2563,-529 2563,-475 2809,-475 2809,-529"/>
<text text-anchor="middle" x="2686" y="-498.3" font-family="Times,serif" font-size="14.00">Join_MIS006_lnk_BOIS_Tgt_Part</text>
</g>
<!-- V83S0&#45;&gt;V0S38P32 -->
<g id="edge37" class="edge">
<title>V83S0&#45;&gt;V0S38P32</title>
<path fill="none" stroke="black" d="M2240.04,-578.28C2243.06,-577.47 2246.05,-576.71 2249,-576 2379.25,-544.76 2417.14,-552.32 2552.78,-529.17"/>
<polygon fill="black" stroke="black" points="2553.46,-532.61 2562.72,-527.45 2552.27,-525.71 2553.46,-532.61"/>
<text text-anchor="middle" x="2456" y="-550" font-family="Times,serif" font-size="10.00">lnk_BOIS_Tgt</text>
</g>
<!-- V0S38P33 -->
<g id="node28" class="node">
<title>V0S38P33</title>
<polygon fill="#0000ff" fill-opacity="0.250980" stroke="black" points="3074.5,-529 2827.5,-529 2827.5,-475 3074.5,-475 3074.5,-529"/>
<text text-anchor="middle" x="2951" y="-498.3" font-family="Times,serif" font-size="14.00">Join_MIS006_Lnk_PITA_Tgt_Part</text>
</g>
<!-- V88S0&#45;&gt;V0S38P33 -->
<g id="edge38" class="edge">
<title>V88S0&#45;&gt;V0S38P33</title>
<path fill="none" stroke="black" d="M2371.78,-578.27C2374.54,-577.44 2377.29,-576.67 2380,-576 2472.12,-553.09 2706.44,-544.17 2817.17,-529.01"/>
<polygon fill="black" stroke="black" points="2817.77,-532.46 2827.17,-527.57 2816.77,-525.53 2817.77,-532.46"/>
<text text-anchor="middle" x="2654" y="-550" font-family="Times,serif" font-size="10.00">Lnk_PITA_Tgt</text>
</g>
<!-- V0S185 -->
<g id="node15" class="node">
<title>V0S185</title>
<polygon fill="#0000ff" fill-opacity="0.250980" stroke="black" points="1453.5,-54 1280.5,-54 1280.5,0 1453.5,0 1453.5,-54"/>
<text text-anchor="middle" x="1367" y="-23.3" font-family="Times,serif" font-size="14.00">DS_TGT_STG_MIS006</text>
</g>
<!-- V0S185P1 -->
<g id="node16" class="node">
<title>V0S185P1</title>
<polygon fill="#0000ff" fill-opacity="0.250980" stroke="black" points="1539,-145 1195,-145 1195,-91 1539,-91 1539,-145"/>
<text text-anchor="middle" x="1367" y="-114.3" font-family="Times,serif" font-size="14.00">DS_TGT_STG_MIS006_ln_tgt_ds_MIS006_Part</text>
</g>
<!-- V0S185P1&#45;&gt;V0S185 -->
<g id="edge14" class="edge">
<title>V0S185P1&#45;&gt;V0S185</title>
<path fill="none" stroke="black" d="M1367,-90.78C1367,-82.45 1367,-73.09 1367,-64.18"/>
<polygon fill="black" stroke="black" points="1370.5,-64.03 1367,-54.03 1363.5,-64.03 1370.5,-64.03"/>
</g>
<!-- V0S38 -->
<g id="node17" class="node">
<title>V0S38</title>
<polygon fill="#0000ff" fill-opacity="0.250980" stroke="black" points="1599.5,-438 1492.5,-438 1492.5,-384 1599.5,-384 1599.5,-438"/>
<text text-anchor="middle" x="1546" y="-407.3" font-family="Times,serif" font-size="14.00">Join_MIS006</text>
</g>
<!-- V96S0P7 -->
<g id="node18" class="node">
<title>V96S0P7</title>
<polygon fill="#0000ff" fill-opacity="0.250980" stroke="black" points="1624,-337 1468,-337 1468,-283 1624,-283 1624,-337"/>
<text text-anchor="middle" x="1546" y="-306.3" font-family="Times,serif" font-size="14.00">Xfm_MIS006_i_Part</text>
</g>
<!-- V0S38&#45;&gt;V96S0P7 -->
<g id="edge15" class="edge">
<title>V0S38&#45;&gt;V96S0P7</title>
<path fill="none" stroke="black" d="M1546,-383.99C1546,-372.82 1546,-359.58 1546,-347.46"/>
<polygon fill="black" stroke="black" points="1549.5,-347.18 1546,-337.18 1542.5,-347.18 1549.5,-347.18"/>
<text text-anchor="middle" x="1548" y="-358" font-family="Times,serif" font-size="10.00">i</text>
</g>
<!-- V96S0 -->
<g id="node32" class="node">
<title>V96S0</title>
<polygon fill="#0000ff" fill-opacity="0.250980" stroke="black" points="1600,-246 1492,-246 1492,-192 1600,-192 1600,-246"/>
<text text-anchor="middle" x="1546" y="-215.3" font-family="Times,serif" font-size="14.00">Xfm_MIS006</text>
</g>
<!-- V96S0P7&#45;&gt;V96S0 -->
<g id="edge41" class="edge">
<title>V96S0P7&#45;&gt;V96S0</title>
<path fill="none" stroke="black" d="M1546,-282.78C1546,-274.45 1546,-265.09 1546,-256.18"/>
<polygon fill="black" stroke="black" points="1549.5,-256.03 1546,-246.03 1542.5,-256.03 1549.5,-256.03"/>
</g>
<!-- V0S38P17&#45;&gt;V0S38 -->
<g id="edge16" class="edge">
<title>V0S38P17&#45;&gt;V0S38</title>
<path fill="none" stroke="black" d="M1334.69,-474.9C1382.01,-460.81 1439.36,-443.74 1482.36,-430.94"/>
<polygon fill="black" stroke="black" points="1483.55,-434.24 1492.14,-428.03 1481.56,-427.53 1483.55,-434.24"/>
</g>
<!-- V0S38P21&#45;&gt;V0S38 -->
<g id="edge17" class="edge">
<title>V0S38P21&#45;&gt;V0S38</title>
<path fill="none" stroke="black" d="M2016.79,-476.63C2013.49,-476.07 2010.23,-475.53 2007,-475 1865.56,-451.93 1698.75,-430.58 1609.67,-419.64"/>
<polygon fill="black" stroke="black" points="1610.07,-416.17 1599.72,-418.43 1609.22,-423.12 1610.07,-416.17"/>
</g>
<!-- V0S38P22&#45;&gt;V0S38 -->
<g id="edge18" class="edge">
<title>V0S38P22&#45;&gt;V0S38</title>
<path fill="none" stroke="black" d="M528.27,-476.15C531.2,-475.75 534.12,-475.36 537,-475 892.51,-430.35 1322.65,-416.85 1482.33,-413.21"/>
<polygon fill="black" stroke="black" points="1482.53,-416.71 1492.45,-412.99 1482.38,-409.71 1482.53,-416.71"/>
</g>
<!-- V0S38P23&#45;&gt;V0S38 -->
<g id="edge19" class="edge">
<title>V0S38P23&#45;&gt;V0S38</title>
<path fill="none" stroke="black" d="M1546,-474.78C1546,-466.45 1546,-457.09 1546,-448.18"/>
<polygon fill="black" stroke="black" points="1549.5,-448.03 1546,-438.03 1542.5,-448.03 1549.5,-448.03"/>
</g>
<!-- V0S38P25&#45;&gt;V0S38 -->
<g id="edge20" class="edge">
<title>V0S38P25&#45;&gt;V0S38</title>
<path fill="none" stroke="black" d="M1090.19,-476.46C1093.15,-475.97 1096.09,-475.48 1099,-475 1235.14,-452.69 1395.41,-431.27 1482.25,-420.07"/>
<polygon fill="black" stroke="black" points="1482.74,-423.54 1492.21,-418.79 1481.85,-416.59 1482.74,-423.54"/>
</g>
<!-- V0S38P28&#45;&gt;V0S38 -->
<g id="edge21" class="edge">
<title>V0S38P28&#45;&gt;V0S38</title>
<path fill="none" stroke="black" d="M812.35,-476.21C815.26,-475.79 818.14,-475.38 821,-475 1063.97,-442.27 1355.15,-422.96 1481.86,-415.53"/>
<polygon fill="black" stroke="black" points="1482.37,-419.01 1492.15,-414.93 1481.96,-412.02 1482.37,-419.01"/>
</g>
<!-- V0S38P29&#45;&gt;V0S38 -->
<g id="edge22" class="edge">
<title>V0S38P29&#45;&gt;V0S38</title>
<path fill="none" stroke="black" d="M1762.26,-474.9C1713.24,-460.64 1653.7,-443.32 1609.51,-430.47"/>
<polygon fill="black" stroke="black" points="1610.34,-427.07 1599.76,-427.64 1608.39,-433.79 1610.34,-427.07"/>
</g>
<!-- V0S38P31&#45;&gt;V0S38 -->
<g id="edge23" class="edge">
<title>V0S38P31&#45;&gt;V0S38</title>
<path fill="none" stroke="black" d="M2288.72,-476.24C2285.79,-475.81 2282.88,-475.4 2280,-475 2033.27,-441.09 1737.2,-422.32 1609.61,-415.27"/>
<polygon fill="black" stroke="black" points="1609.8,-411.78 1599.62,-414.73 1609.42,-418.77 1609.8,-411.78"/>
</g>
<!-- V0S38P32&#45;&gt;V0S38 -->
<g id="edge24" class="edge">
<title>V0S38P32&#45;&gt;V0S38</title>
<path fill="none" stroke="black" d="M2562.77,-476.2C2559.82,-475.77 2556.9,-475.37 2554,-475 2199,-429.15 1769.19,-416.36 1609.63,-413.06"/>
<polygon fill="black" stroke="black" points="1609.58,-409.56 1599.51,-412.86 1609.44,-416.56 1609.58,-409.56"/>
</g>
<!-- V0S38P33&#45;&gt;V0S38 -->
<g id="edge25" class="edge">
<title>V0S38P33&#45;&gt;V0S38</title>
<path fill="none" stroke="black" d="M2827.2,-476.19C2824.11,-475.77 2821.04,-475.37 2818,-475 2357.03,-418.82 1796.26,-412.42 1609.73,-411.93"/>
<polygon fill="black" stroke="black" points="1609.56,-408.43 1599.55,-411.91 1609.54,-415.43 1609.56,-408.43"/>
</g>
<!-- V0S38P40&#45;&gt;V0S38 -->
<g id="edge26" class="edge">
<title>V0S38P40&#45;&gt;V0S38</title>
<path fill="none" stroke="black" d="M254.33,-476.1C257.24,-475.71 260.14,-475.34 263,-475 728.35,-419.37 1294.28,-412.62 1482.06,-411.99"/>
<polygon fill="black" stroke="black" points="1482.31,-415.48 1492.3,-411.96 1482.29,-408.48 1482.31,-415.48"/>
</g>
<!-- V73S2 -->
<g id="node30" class="node">
<title>V73S2</title>
<polygon fill="#0000ff" fill-opacity="0.250980" stroke="black" points="1810.5,-54 1639.5,-54 1639.5,0 1810.5,0 1810.5,-54"/>
<text text-anchor="middle" x="1725" y="-23.3" font-family="Times,serif" font-size="14.00">TGT_MIS200_FIELDS</text>
</g>
<!-- V73S2P2 -->
<g id="node31" class="node">
<title>V73S2P2</title>
<polygon fill="#0000ff" fill-opacity="0.250980" stroke="black" points="1893,-145 1557,-145 1557,-91 1893,-91 1893,-145"/>
<text text-anchor="middle" x="1725" y="-114.3" font-family="Times,serif" font-size="14.00">TGT_MIS200_FIELDS_ln_MIS200_fields_Part</text>
</g>
<!-- V73S2P2&#45;&gt;V73S2 -->
<g id="edge35" class="edge">
<title>V73S2P2&#45;&gt;V73S2</title>
<path fill="none" stroke="black" d="M1725,-90.78C1725,-82.45 1725,-73.09 1725,-64.18"/>
<polygon fill="black" stroke="black" points="1728.5,-64.03 1725,-54.03 1721.5,-64.03 1728.5,-64.03"/>
</g>
<!-- V96S0&#45;&gt;V0S185P1 -->
<g id="edge39" class="edge">
<title>V96S0&#45;&gt;V0S185P1</title>
<path fill="none" stroke="black" d="M1498.97,-191.99C1475.63,-179.08 1447.27,-163.4 1422.84,-149.88"/>
<polygon fill="black" stroke="black" points="1424.47,-146.79 1414.03,-145.01 1421.08,-152.91 1424.47,-146.79"/>
<text text-anchor="middle" x="1507.5" y="-166" font-family="Times,serif" font-size="10.00">ln_tgt_ds_MIS006</text>
</g>
<!-- V96S0&#45;&gt;V73S2P2 -->
<g id="edge40" class="edge">
<title>V96S0&#45;&gt;V73S2P2</title>
<path fill="none" stroke="black" d="M1593.03,-191.99C1616.37,-179.08 1644.73,-163.4 1669.16,-149.88"/>
<polygon fill="black" stroke="black" points="1670.92,-152.91 1677.97,-145.01 1667.53,-146.79 1670.92,-152.91"/>
<text text-anchor="middle" x="1685" y="-166" font-family="Times,serif" font-size="10.00">ln_MIS200_fields</text>
</g>
</g>
</svg>
