<?xml version="1.0" encoding="UTF-8" standalone="no"?>
<!DOCTYPE svg PUBLIC "-//W3C//DTD SVG 1.1//EN"
 "http://www.w3.org/Graphics/SVG/1.1/DTD/svg11.dtd">
<!-- Generated by graphviz version 2.43.0 (0)
 -->
<!-- Pages: 1 -->
<svg width="1144pt" height="1322pt"
 viewBox="0.00 0.00 1143.50 1322.00" xmlns="http://www.w3.org/2000/svg" xmlns:xlink="http://www.w3.org/1999/xlink">
<g id="graph0" class="graph" transform="scale(1 1) rotate(0) translate(4 1318)">
<polygon fill="white" stroke="transparent" points="-4,4 -4,-1318 1139.5,-1318 1139.5,4 -4,4"/>
<!-- ROOT -->
<g id="node1" class="node">
<title>ROOT</title>
<polygon fill="#0000ff" fill-opacity="0.250980" stroke="black" points="827.5,-1314 525.5,-1314 525.5,-1260 827.5,-1260 827.5,-1314"/>
<text text-anchor="middle" x="676.5" y="-1283.3" font-family="Times,serif" font-size="14.00">job_DBdirect_MIS006_CHPM_Extr_POC</text>
</g>
<!-- V0 -->
<g id="node2" class="node">
<title>V0</title>
<polygon fill="#0000ff" fill-opacity="0.250980" stroke="black" points="719.5,-1224 633.5,-1224 633.5,-1170 719.5,-1170 719.5,-1224"/>
<text text-anchor="middle" x="676.5" y="-1193.3" font-family="Times,serif" font-size="14.00">Job_VIEW</text>
</g>
<!-- ROOT&#45;&gt;V0 -->
<g id="edge1" class="edge">
<title>ROOT&#45;&gt;V0</title>
<path fill="none" stroke="black" d="M676.5,-1259.6C676.5,-1251.61 676.5,-1242.69 676.5,-1234.18"/>
<polygon fill="black" stroke="black" points="680,-1234.08 676.5,-1224.08 673,-1234.08 680,-1234.08"/>
</g>
<!-- V0A13 -->
<g id="node3" class="node">
<title>V0A13</title>
<polygon fill="#0000ff" fill-opacity="0.250980" stroke="black" points="63,-1134 0,-1134 0,-1080 63,-1080 63,-1134"/>
<text text-anchor="middle" x="31.5" y="-1103.3" font-family="Times,serif" font-size="14.00">V0A13</text>
</g>
<!-- V0&#45;&gt;V0A13 -->
<g id="edge2" class="edge">
<title>V0&#45;&gt;V0A13</title>
<path fill="none" stroke="black" d="M633.33,-1194.21C516.24,-1188.95 193.84,-1171.7 72.84,-1133.66"/>
<polygon fill="black" stroke="black" points="73.71,-1130.26 63.12,-1130.4 71.49,-1136.9 73.71,-1130.26"/>
</g>
<!-- V0A26 -->
<g id="node4" class="node">
<title>V0A26</title>
<polygon fill="#0000ff" fill-opacity="0.250980" stroke="black" points="144,-1134 81,-1134 81,-1080 144,-1080 144,-1134"/>
<text text-anchor="middle" x="112.5" y="-1103.3" font-family="Times,serif" font-size="14.00">V0A26</text>
</g>
<!-- V0&#45;&gt;V0A26 -->
<g id="edge3" class="edge">
<title>V0&#45;&gt;V0A26</title>
<path fill="none" stroke="black" d="M633.31,-1193.43C527.79,-1186.75 258.45,-1167.25 153.75,-1133.65"/>
<polygon fill="black" stroke="black" points="154.73,-1130.29 144.14,-1130.36 152.46,-1136.91 154.73,-1130.29"/>
</g>
<!-- V0S3 -->
<g id="node5" class="node">
<title>V0S3</title>
<polygon fill="#0000ff" fill-opacity="0.250980" stroke="black" points="359,-1134 162,-1134 162,-1080 359,-1080 359,-1134"/>
<text text-anchor="middle" x="260.5" y="-1103.3" font-family="Times,serif" font-size="14.00">NETZ_SRC_BORM_BOAF</text>
</g>
<!-- V0&#45;&gt;V0S3 -->
<g id="edge4" class="edge">
<title>V0&#45;&gt;V0S3</title>
<path fill="none" stroke="black" d="M633.29,-1187.83C575.53,-1176.8 469.74,-1156.18 369.09,-1134.1"/>
<polygon fill="black" stroke="black" points="369.57,-1130.62 359.05,-1131.89 368.07,-1137.46 369.57,-1130.62"/>
</g>
<!-- V1S0 -->
<g id="node6" class="node">
<title>V1S0</title>
<polygon fill="#0000ff" fill-opacity="0.250980" stroke="black" points="577.5,-1134 377.5,-1134 377.5,-1080 577.5,-1080 577.5,-1134"/>
<text text-anchor="middle" x="477.5" y="-1103.3" font-family="Times,serif" font-size="14.00">NETZ_SRC_COLM_CHPM</text>
</g>
<!-- V0&#45;&gt;V1S0 -->
<g id="edge5" class="edge">
<title>V0&#45;&gt;V1S0</title>
<path fill="none" stroke="black" d="M633.32,-1176.91C607.74,-1165.59 574.75,-1151.01 545.72,-1138.17"/>
<polygon fill="black" stroke="black" points="547.01,-1134.91 536.45,-1134.07 544.18,-1141.31 547.01,-1134.91"/>
</g>
<!-- V3S0 -->
<g id="node7" class="node">
<title>V3S0</title>
<polygon fill="#0000ff" fill-opacity="0.250980" stroke="black" points="757,-1134 596,-1134 596,-1080 757,-1080 757,-1134"/>
<text text-anchor="middle" x="676.5" y="-1103.3" font-family="Times,serif" font-size="14.00">NETZ_SRC_BLDVAA</text>
</g>
<!-- V0&#45;&gt;V3S0 -->
<g id="edge6" class="edge">
<title>V0&#45;&gt;V3S0</title>
<path fill="none" stroke="black" d="M676.5,-1169.6C676.5,-1161.61 676.5,-1152.69 676.5,-1144.18"/>
<polygon fill="black" stroke="black" points="680,-1144.08 676.5,-1134.08 673,-1144.08 680,-1144.08"/>
</g>
<!-- V4A0 -->
<g id="node8" class="node">
<title>V4A0</title>
<polygon fill="#0000ff" fill-opacity="0.250980" stroke="black" points="829.5,-1134 775.5,-1134 775.5,-1080 829.5,-1080 829.5,-1134"/>
<text text-anchor="middle" x="802.5" y="-1103.3" font-family="Times,serif" font-size="14.00">V4A0</text>
</g>
<!-- V0&#45;&gt;V4A0 -->
<g id="edge7" class="edge">
<title>V0&#45;&gt;V4A0</title>
<path fill="none" stroke="black" d="M714.73,-1169.94C730.78,-1158.93 749.6,-1145.92 766.5,-1134 766.68,-1133.87 766.86,-1133.74 767.04,-1133.62"/>
<polygon fill="black" stroke="black" points="769.3,-1136.31 775.42,-1127.66 765.24,-1130.6 769.3,-1136.31"/>
</g>
<!-- V5A0 -->
<g id="node9" class="node">
<title>V5A0</title>
<polygon fill="#0000ff" fill-opacity="0.250980" stroke="black" points="901.5,-1134 847.5,-1134 847.5,-1080 901.5,-1080 901.5,-1134"/>
<text text-anchor="middle" x="874.5" y="-1103.3" font-family="Times,serif" font-size="14.00">V5A0</text>
</g>
<!-- V0&#45;&gt;V5A0 -->
<g id="edge8" class="edge">
<title>V0&#45;&gt;V5A0</title>
<path fill="none" stroke="black" d="M719.79,-1182.85C753.22,-1171.9 800.09,-1154.76 838.5,-1134 838.59,-1133.95 838.69,-1133.9 838.78,-1133.85"/>
<polygon fill="black" stroke="black" points="840.69,-1136.79 847.46,-1128.64 837.09,-1130.78 840.69,-1136.79"/>
</g>
<!-- V88A0 -->
<g id="node10" class="node">
<title>V88A0</title>
<polygon fill="#0000ff" fill-opacity="0.250980" stroke="black" points="983,-1134 920,-1134 920,-1080 983,-1080 983,-1134"/>
<text text-anchor="middle" x="951.5" y="-1103.3" font-family="Times,serif" font-size="14.00">V88A0</text>
</g>
<!-- V0&#45;&gt;V88A0 -->
<g id="edge9" class="edge">
<title>V0&#45;&gt;V88A0</title>
<path fill="none" stroke="black" d="M719.66,-1188.68C767.64,-1179.61 846.77,-1161.86 910.5,-1134 910.6,-1133.96 910.69,-1133.92 910.79,-1133.87"/>
<polygon fill="black" stroke="black" points="912.38,-1136.99 919.79,-1129.41 909.27,-1130.72 912.38,-1136.99"/>
</g>
<!-- V88S1 -->
<g id="node11" class="node">
<title>V88S1</title>
<polygon fill="#0000ff" fill-opacity="0.250980" stroke="black" points="1135.5,-1134 1001.5,-1134 1001.5,-1080 1135.5,-1080 1135.5,-1134"/>
<text text-anchor="middle" x="1068.5" y="-1103.3" font-family="Times,serif" font-size="14.00">NETZ_SRC_Zect</text>
</g>
<!-- V0&#45;&gt;V88S1 -->
<g id="edge10" class="edge">
<title>V0&#45;&gt;V88S1</title>
<path fill="none" stroke="black" d="M719.6,-1189.45C778.91,-1180.02 889.08,-1161.02 991.24,-1134.21"/>
<polygon fill="black" stroke="black" points="992.34,-1137.54 1001.1,-1131.59 990.54,-1130.77 992.34,-1137.54"/>
</g>
<!-- V0S3P1 -->
<g id="node22" class="node">
<title>V0S3P1</title>
<polygon fill="#0000ff" fill-opacity="0.250980" stroke="black" points="369,-1044 88,-1044 88,-990 369,-990 369,-1044"/>
<text text-anchor="middle" x="228.5" y="-1013.3" font-family="Times,serif" font-size="14.00">NETZ_SRC_BORM_BOAF_lnk_Source</text>
</g>
<!-- V0S3&#45;&gt;V0S3P1 -->
<g id="edge20" class="edge">
<title>V0S3&#45;&gt;V0S3P1</title>
<path fill="none" stroke="black" d="M250.9,-1079.6C247.93,-1071.43 244.61,-1062.3 241.45,-1053.62"/>
<polygon fill="black" stroke="black" points="244.69,-1052.28 237.98,-1044.08 238.11,-1054.68 244.69,-1052.28"/>
</g>
<!-- V1S0P1 -->
<g id="node24" class="node">
<title>V1S0P1</title>
<polygon fill="#0000ff" fill-opacity="0.250980" stroke="black" points="631.5,-1044 387.5,-1044 387.5,-990 631.5,-990 631.5,-1044"/>
<text text-anchor="middle" x="509.5" y="-1013.3" font-family="Times,serif" font-size="14.00">NETZ_SRC_COLM_CHPM_Colm</text>
</g>
<!-- V1S0&#45;&gt;V1S0P1 -->
<g id="edge22" class="edge">
<title>V1S0&#45;&gt;V1S0P1</title>
<path fill="none" stroke="black" d="M487.1,-1079.6C490.07,-1071.43 493.39,-1062.3 496.55,-1053.62"/>
<polygon fill="black" stroke="black" points="499.89,-1054.68 500.02,-1044.08 493.31,-1052.28 499.89,-1054.68"/>
</g>
<!-- V3S0P1 -->
<g id="node26" class="node">
<title>V3S0P1</title>
<polygon fill="#0000ff" fill-opacity="0.250980" stroke="black" points="847,-1044 650,-1044 650,-990 847,-990 847,-1044"/>
<text text-anchor="middle" x="748.5" y="-1013.3" font-family="Times,serif" font-size="14.00">NETZ_SRC_BLDVAA_Colt</text>
</g>
<!-- V3S0&#45;&gt;V3S0P1 -->
<g id="edge25" class="edge">
<title>V3S0&#45;&gt;V3S0P1</title>
<path fill="none" stroke="black" d="M698.1,-1079.6C705.21,-1070.9 713.22,-1061.11 720.73,-1051.94"/>
<polygon fill="black" stroke="black" points="723.54,-1054.04 727.16,-1044.08 718.12,-1049.6 723.54,-1054.04"/>
</g>
<!-- V88S1P1 -->
<g id="node29" class="node">
<title>V88S1P1</title>
<polygon fill="#0000ff" fill-opacity="0.250980" stroke="black" points="1079.5,-1044 907.5,-1044 907.5,-990 1079.5,-990 1079.5,-1044"/>
<text text-anchor="middle" x="993.5" y="-1013.3" font-family="Times,serif" font-size="14.00">NETZ_SRC_Zect_Zect</text>
</g>
<!-- V88S1&#45;&gt;V88S1P1 -->
<g id="edge30" class="edge">
<title>V88S1&#45;&gt;V88S1P1</title>
<path fill="none" stroke="black" d="M1046,-1079.6C1038.59,-1070.9 1030.25,-1061.11 1022.43,-1051.94"/>
<polygon fill="black" stroke="black" points="1024.88,-1049.42 1015.73,-1044.08 1019.55,-1053.96 1024.88,-1049.42"/>
</g>
<!-- V0S18 -->
<g id="node12" class="node">
<title>V0S18</title>
<polygon fill="#0000ff" fill-opacity="0.250980" stroke="black" points="677.5,-594 609.5,-594 609.5,-540 677.5,-540 677.5,-594"/>
<text text-anchor="middle" x="643.5" y="-563.3" font-family="Times,serif" font-size="14.00">Join_18</text>
</g>
<!-- V0S18P4 -->
<g id="node13" class="node">
<title>V0S18P4</title>
<polygon fill="#0000ff" fill-opacity="0.250980" stroke="black" points="716,-504 571,-504 571,-450 716,-450 716,-504"/>
<text text-anchor="middle" x="643.5" y="-473.3" font-family="Times,serif" font-size="14.00">Join_18_DSLink22</text>
</g>
<!-- V0S18&#45;&gt;V0S18P4 -->
<g id="edge11" class="edge">
<title>V0S18&#45;&gt;V0S18P4</title>
<path fill="none" stroke="black" d="M643.5,-539.6C643.5,-531.61 643.5,-522.69 643.5,-514.18"/>
<polygon fill="black" stroke="black" points="647,-514.08 643.5,-504.08 640,-514.08 647,-514.08"/>
</g>
<!-- V0S24P1 -->
<g id="node15" class="node">
<title>V0S24P1</title>
<polygon fill="#0000ff" fill-opacity="0.250980" stroke="black" points="765.5,-414 521.5,-414 521.5,-360 765.5,-360 765.5,-414"/>
<text text-anchor="middle" x="643.5" y="-383.3" font-family="Times,serif" font-size="14.00">Transformer_24_DSLink22_Part</text>
</g>
<!-- V0S18P4&#45;&gt;V0S24P1 -->
<g id="edge13" class="edge">
<title>V0S18P4&#45;&gt;V0S24P1</title>
<path fill="none" stroke="black" d="M643.5,-449.6C643.5,-441.61 643.5,-432.69 643.5,-424.18"/>
<polygon fill="black" stroke="black" points="647,-424.08 643.5,-414.08 640,-424.08 647,-424.08"/>
</g>
<!-- V0S18P3 -->
<g id="node14" class="node">
<title>V0S18P3</title>
<polygon fill="#0000ff" fill-opacity="0.250980" stroke="black" points="672,-864 523,-864 523,-810 672,-810 672,-864"/>
<text text-anchor="middle" x="597.5" y="-833.3" font-family="Times,serif" font-size="14.00">Join_18_Colm_Part</text>
</g>
<!-- V0S18P3&#45;&gt;V0S18 -->
<g id="edge12" class="edge">
<title>V0S18P3&#45;&gt;V0S18</title>
<path fill="none" stroke="black" d="M601.99,-809.82C610.26,-761.68 627.87,-659.07 637.28,-604.26"/>
<polygon fill="black" stroke="black" points="640.75,-604.74 638.99,-594.29 633.85,-603.55 640.75,-604.74"/>
</g>
<!-- V0S24 -->
<g id="node19" class="node">
<title>V0S24</title>
<polygon fill="#0000ff" fill-opacity="0.250980" stroke="black" points="709,-324 578,-324 578,-270 709,-270 709,-324"/>
<text text-anchor="middle" x="643.5" y="-293.3" font-family="Times,serif" font-size="14.00">Transformer_24</text>
</g>
<!-- V0S24P1&#45;&gt;V0S24 -->
<g id="edge18" class="edge">
<title>V0S24P1&#45;&gt;V0S24</title>
<path fill="none" stroke="black" d="M643.5,-359.6C643.5,-351.61 643.5,-342.69 643.5,-334.18"/>
<polygon fill="black" stroke="black" points="647,-334.08 643.5,-324.08 640,-334.08 647,-334.08"/>
</g>
<!-- V0S18P5 -->
<g id="node16" class="node">
<title>V0S18P5</title>
<polygon fill="#0000ff" fill-opacity="0.250980" stroke="black" points="791,-774 650,-774 650,-720 791,-720 791,-774"/>
<text text-anchor="middle" x="720.5" y="-743.3" font-family="Times,serif" font-size="14.00">Join_18_Colt_Part</text>
</g>
<!-- V0S18P5&#45;&gt;V0S18 -->
<g id="edge14" class="edge">
<title>V0S18P5&#45;&gt;V0S18</title>
<path fill="none" stroke="black" d="M709.14,-719.74C695.79,-688.89 673.6,-637.57 658.76,-603.27"/>
<polygon fill="black" stroke="black" points="661.97,-601.87 654.78,-594.08 655.54,-604.65 661.97,-601.87"/>
</g>
<!-- V0S18P7 -->
<g id="node17" class="node">
<title>V0S18P7</title>
<polygon fill="#0000ff" fill-opacity="0.250980" stroke="black" points="555,-684 342,-684 342,-630 555,-630 555,-684"/>
<text text-anchor="middle" x="448.5" y="-653.3" font-family="Times,serif" font-size="14.00">Join_18_Remove_Dupe_Part</text>
</g>
<!-- V0S18P7&#45;&gt;V0S18 -->
<g id="edge15" class="edge">
<title>V0S18P7&#45;&gt;V0S18</title>
<path fill="none" stroke="black" d="M506.21,-629.95C536.25,-616.4 572.37,-600.1 600.02,-587.62"/>
<polygon fill="black" stroke="black" points="601.75,-590.68 609.42,-583.38 598.87,-584.3 601.75,-590.68"/>
</g>
<!-- V0S18P8 -->
<g id="node18" class="node">
<title>V0S18P8</title>
<polygon fill="#0000ff" fill-opacity="0.250980" stroke="black" points="922,-684 779,-684 779,-630 922,-630 922,-684"/>
<text text-anchor="middle" x="850.5" y="-653.3" font-family="Times,serif" font-size="14.00">Join_18_Zect_Part</text>
</g>
<!-- V0S18P8&#45;&gt;V0S18 -->
<g id="edge16" class="edge">
<title>V0S18P8&#45;&gt;V0S18</title>
<path fill="none" stroke="black" d="M789.23,-629.95C756.32,-615.96 716.52,-599.04 686.83,-586.42"/>
<polygon fill="black" stroke="black" points="688.15,-583.18 677.57,-582.49 685.41,-589.62 688.15,-583.18"/>
</g>
<!-- V0S24P2 -->
<g id="node20" class="node">
<title>V0S24P2</title>
<polygon fill="#0000ff" fill-opacity="0.250980" stroke="black" points="765,-234 522,-234 522,-180 765,-180 765,-234"/>
<text text-anchor="middle" x="643.5" y="-203.3" font-family="Times,serif" font-size="14.00">Transformer_24_lnk_CHPM_Tgt</text>
</g>
<!-- V0S24&#45;&gt;V0S24P2 -->
<g id="edge17" class="edge">
<title>V0S24&#45;&gt;V0S24P2</title>
<path fill="none" stroke="black" d="M643.5,-269.6C643.5,-261.61 643.5,-252.69 643.5,-244.18"/>
<polygon fill="black" stroke="black" points="647,-244.08 643.5,-234.08 640,-244.08 647,-244.08"/>
</g>
<!-- V2S0P1 -->
<g id="node21" class="node">
<title>V2S0P1</title>
<polygon fill="#0000ff" fill-opacity="0.250980" stroke="black" points="804.5,-144 482.5,-144 482.5,-90 804.5,-90 804.5,-144"/>
<text text-anchor="middle" x="643.5" y="-113.3" font-family="Times,serif" font-size="14.00">DS_TGT_CHPM_COLT_lnk_CHPM_Tgt_Part</text>
</g>
<!-- V0S24P2&#45;&gt;V2S0P1 -->
<g id="edge19" class="edge">
<title>V0S24P2&#45;&gt;V2S0P1</title>
<path fill="none" stroke="black" d="M643.5,-179.6C643.5,-171.61 643.5,-162.69 643.5,-154.18"/>
<polygon fill="black" stroke="black" points="647,-154.08 643.5,-144.08 640,-154.08 647,-154.08"/>
</g>
<!-- V2S0 -->
<g id="node25" class="node">
<title>V2S0</title>
<polygon fill="#0000ff" fill-opacity="0.250980" stroke="black" points="730,-54 557,-54 557,0 730,0 730,-54"/>
<text text-anchor="middle" x="643.5" y="-23.3" font-family="Times,serif" font-size="14.00">DS_TGT_CHPM_COLT</text>
</g>
<!-- V2S0P1&#45;&gt;V2S0 -->
<g id="edge24" class="edge">
<title>V2S0P1&#45;&gt;V2S0</title>
<path fill="none" stroke="black" d="M643.5,-89.6C643.5,-81.61 643.5,-72.69 643.5,-64.18"/>
<polygon fill="black" stroke="black" points="647,-64.08 643.5,-54.08 640,-64.08 647,-64.08"/>
</g>
<!-- V6S0P3 -->
<g id="node23" class="node">
<title>V6S0P3</title>
<polygon fill="#0000ff" fill-opacity="0.250980" stroke="black" points="412,-954 173,-954 173,-900 412,-900 412,-954"/>
<text text-anchor="middle" x="292.5" y="-923.3" font-family="Times,serif" font-size="14.00">Transformer_J_lnk_Source_Part</text>
</g>
<!-- V0S3P1&#45;&gt;V6S0P3 -->
<g id="edge21" class="edge">
<title>V0S3P1&#45;&gt;V6S0P3</title>
<path fill="none" stroke="black" d="M247.7,-989.6C253.96,-980.99 261,-971.31 267.61,-962.22"/>
<polygon fill="black" stroke="black" points="270.48,-964.23 273.53,-954.08 264.82,-960.11 270.48,-964.23"/>
</g>
<!-- V6S0 -->
<g id="node27" class="node">
<title>V6S0</title>
<polygon fill="#0000ff" fill-opacity="0.250980" stroke="black" points="438.5,-864 320.5,-864 320.5,-810 438.5,-810 438.5,-864"/>
<text text-anchor="middle" x="379.5" y="-833.3" font-family="Times,serif" font-size="14.00">Transformer_J</text>
</g>
<!-- V6S0P3&#45;&gt;V6S0 -->
<g id="edge28" class="edge">
<title>V6S0P3&#45;&gt;V6S0</title>
<path fill="none" stroke="black" d="M318.6,-899.6C327.37,-890.73 337.27,-880.72 346.49,-871.39"/>
<polygon fill="black" stroke="black" points="349.17,-873.65 353.72,-864.08 344.2,-868.73 349.17,-873.65"/>
</g>
<!-- V1S0P1&#45;&gt;V0S18P3 -->
<g id="edge23" class="edge">
<title>V1S0P1&#45;&gt;V0S18P3</title>
<path fill="none" stroke="black" d="M522.48,-989.74C537.74,-958.89 563.1,-907.57 580.06,-873.27"/>
<polygon fill="black" stroke="black" points="583.31,-874.6 584.61,-864.08 577.04,-871.5 583.31,-874.6"/>
</g>
<!-- V3S0P1&#45;&gt;V0S18P5 -->
<g id="edge26" class="edge">
<title>V3S0P1&#45;&gt;V0S18P5</title>
<path fill="none" stroke="black" d="M745.76,-989.82C740.74,-941.68 730.01,-839.07 724.29,-784.26"/>
<polygon fill="black" stroke="black" points="727.77,-783.87 723.25,-774.29 720.81,-784.6 727.77,-783.87"/>
</g>
<!-- V6S0P4 -->
<g id="node28" class="node">
<title>V6S0P4</title>
<polygon fill="#0000ff" fill-opacity="0.250980" stroke="black" points="539.5,-774 313.5,-774 313.5,-720 539.5,-720 539.5,-774"/>
<text text-anchor="middle" x="426.5" y="-743.3" font-family="Times,serif" font-size="14.00">Transformer_J_Remove_Dupe</text>
</g>
<!-- V6S0&#45;&gt;V6S0P4 -->
<g id="edge27" class="edge">
<title>V6S0&#45;&gt;V6S0P4</title>
<path fill="none" stroke="black" d="M393.6,-809.6C398.06,-801.26 403.05,-791.9 407.78,-783.06"/>
<polygon fill="black" stroke="black" points="410.95,-784.55 412.57,-774.08 404.77,-781.25 410.95,-784.55"/>
</g>
<!-- V6S0P4&#45;&gt;V0S18P7 -->
<g id="edge29" class="edge">
<title>V6S0P4&#45;&gt;V0S18P7</title>
<path fill="none" stroke="black" d="M433.1,-719.6C435.12,-711.52 437.38,-702.49 439.53,-693.9"/>
<polygon fill="black" stroke="black" points="442.95,-694.63 441.98,-684.08 436.16,-692.93 442.95,-694.63"/>
</g>
<!-- V88S1P1&#45;&gt;V0S18P8 -->
<g id="edge31" class="edge">
<title>V88S1P1&#45;&gt;V0S18P8</title>
<path fill="none" stroke="black" d="M983.1,-989.97C957.93,-926.96 893.7,-766.15 864.88,-693.99"/>
<polygon fill="black" stroke="black" points="868.01,-692.41 861.05,-684.42 861.51,-695.01 868.01,-692.41"/>
</g>
</g>
</svg>
