<?xml version="1.0" encoding="UTF-8" standalone="no"?>
<!DOCTYPE svg PUBLIC "-//W3C//DTD SVG 1.1//EN"
 "http://www.w3.org/Graphics/SVG/1.1/DTD/svg11.dtd">
<!-- Generated by graphviz version 2.43.0 (0)
 -->
<!-- Pages: 1 -->
<svg width="1144pt" height="1108pt"
 viewBox="0.00 0.00 1143.50 1108.00" xmlns="http://www.w3.org/2000/svg" xmlns:xlink="http://www.w3.org/1999/xlink">
<g id="graph0" class="graph" transform="scale(1 1) rotate(0) translate(4 1104)">
<polygon fill="white" stroke="transparent" points="-4,4 -4,-1104 1139.5,-1104 1139.5,4 -4,4"/>
<!-- ROOT -->
<g id="node1" class="node">
<title>ROOT</title>
<polygon fill="#0000ff" fill-opacity="0.250980" stroke="black" points="827.5,-1100 525.5,-1100 525.5,-1046 827.5,-1046 827.5,-1100"/>
<text text-anchor="middle" x="676.5" y="-1069.3" font-family="Times,serif" font-size="14.00">job_DBdirect_MIS006_CHPM_Extr_POC</text>
</g>
<!-- V0 -->
<g id="node2" class="node">
<title>V0</title>
<polygon fill="#0000ff" fill-opacity="0.250980" stroke="black" points="719.5,-1009 633.5,-1009 633.5,-955 719.5,-955 719.5,-1009"/>
<text text-anchor="middle" x="676.5" y="-978.3" font-family="Times,serif" font-size="14.00">Job_VIEW</text>
</g>
<!-- ROOT&#45;&gt;V0 -->
<g id="edge1" class="edge">
<title>ROOT&#45;&gt;V0</title>
<path fill="none" stroke="black" d="M676.5,-1045.78C676.5,-1037.45 676.5,-1028.09 676.5,-1019.18"/>
<polygon fill="black" stroke="black" points="680,-1019.03 676.5,-1009.03 673,-1019.03 680,-1019.03"/>
</g>
<!-- V0A13 -->
<g id="node3" class="node">
<title>V0A13</title>
<polygon fill="#0000ff" fill-opacity="0.250980" stroke="black" points="63,-918 0,-918 0,-864 63,-864 63,-918"/>
<text text-anchor="middle" x="31.5" y="-887.3" font-family="Times,serif" font-size="14.00">V0A13</text>
</g>
<!-- V0&#45;&gt;V0A13 -->
<g id="edge2" class="edge">
<title>V0&#45;&gt;V0A13</title>
<path fill="none" stroke="black" d="M633.22,-977.08C553.23,-969.75 376.88,-953.26 228.5,-937 161.77,-929.69 139.56,-940.9 72.86,-917.83"/>
<polygon fill="black" stroke="black" points="73.73,-914.43 63.14,-914.35 71.37,-921.02 73.73,-914.43"/>
</g>
<!-- V0A26 -->
<g id="node4" class="node">
<title>V0A26</title>
<polygon fill="#0000ff" fill-opacity="0.250980" stroke="black" points="144,-918 81,-918 81,-864 144,-864 144,-918"/>
<text text-anchor="middle" x="112.5" y="-887.3" font-family="Times,serif" font-size="14.00">V0A26</text>
</g>
<!-- V0&#45;&gt;V0A26 -->
<g id="edge3" class="edge">
<title>V0&#45;&gt;V0A26</title>
<path fill="none" stroke="black" d="M633.31,-978.33C527.79,-971.43 258.44,-951.38 153.75,-917.66"/>
<polygon fill="black" stroke="black" points="154.73,-914.29 144.14,-914.35 152.46,-920.91 154.73,-914.29"/>
</g>
<!-- V0S3 -->
<g id="node5" class="node">
<title>V0S3</title>
<polygon fill="#0000ff" fill-opacity="0.250980" stroke="black" points="359,-918 162,-918 162,-864 359,-864 359,-918"/>
<text text-anchor="middle" x="260.5" y="-887.3" font-family="Times,serif" font-size="14.00">NETZ_SRC_BORM_BOAF</text>
</g>
<!-- V0&#45;&gt;V0S3 -->
<g id="edge4" class="edge">
<title>V0&#45;&gt;V0S3</title>
<path fill="none" stroke="black" d="M633.3,-972.65C575.55,-961.38 469.76,-940.37 369.09,-918.1"/>
<polygon fill="black" stroke="black" points="369.58,-914.62 359.06,-915.87 368.06,-921.46 369.58,-914.62"/>
</g>
<!-- V1S0 -->
<g id="node6" class="node">
<title>V1S0</title>
<polygon fill="#0000ff" fill-opacity="0.250980" stroke="black" points="577.5,-918 377.5,-918 377.5,-864 577.5,-864 577.5,-918"/>
<text text-anchor="middle" x="477.5" y="-887.3" font-family="Times,serif" font-size="14.00">NETZ_SRC_COLM_CHPM</text>
</g>
<!-- V0&#45;&gt;V1S0 -->
<g id="edge5" class="edge">
<title>V0&#45;&gt;V1S0</title>
<path fill="none" stroke="black" d="M633.32,-961.69C607.53,-950.16 574.22,-935.26 545.02,-922.2"/>
<polygon fill="black" stroke="black" points="546.26,-918.92 535.7,-918.03 543.4,-925.31 546.26,-918.92"/>
</g>
<!-- V3S0 -->
<g id="node7" class="node">
<title>V3S0</title>
<polygon fill="#0000ff" fill-opacity="0.250980" stroke="black" points="757,-918 596,-918 596,-864 757,-864 757,-918"/>
<text text-anchor="middle" x="676.5" y="-887.3" font-family="Times,serif" font-size="14.00">NETZ_SRC_BLDVAA</text>
</g>
<!-- V0&#45;&gt;V3S0 -->
<g id="edge6" class="edge">
<title>V0&#45;&gt;V3S0</title>
<path fill="none" stroke="black" d="M676.5,-954.78C676.5,-946.45 676.5,-937.09 676.5,-928.18"/>
<polygon fill="black" stroke="black" points="680,-928.03 676.5,-918.03 673,-928.03 680,-928.03"/>
</g>
<!-- V4A0 -->
<g id="node8" class="node">
<title>V4A0</title>
<polygon fill="#0000ff" fill-opacity="0.250980" stroke="black" points="829.5,-918 775.5,-918 775.5,-864 829.5,-864 829.5,-918"/>
<text text-anchor="middle" x="802.5" y="-887.3" font-family="Times,serif" font-size="14.00">V4A0</text>
</g>
<!-- V0&#45;&gt;V4A0 -->
<g id="edge7" class="edge">
<title>V0&#45;&gt;V4A0</title>
<path fill="none" stroke="black" d="M713.62,-954.78C730.44,-942.9 750.23,-928.92 766.86,-917.17"/>
<polygon fill="black" stroke="black" points="769.09,-919.89 775.24,-911.26 765.05,-914.17 769.09,-919.89"/>
</g>
<!-- V5A0 -->
<g id="node9" class="node">
<title>V5A0</title>
<polygon fill="#0000ff" fill-opacity="0.250980" stroke="black" points="901.5,-918 847.5,-918 847.5,-864 901.5,-864 901.5,-918"/>
<text text-anchor="middle" x="874.5" y="-887.3" font-family="Times,serif" font-size="14.00">V5A0</text>
</g>
<!-- V0&#45;&gt;V5A0 -->
<g id="edge8" class="edge">
<title>V0&#45;&gt;V5A0</title>
<path fill="none" stroke="black" d="M719.78,-967.53C753.19,-956.34 800.06,-938.91 838.5,-918 838.59,-917.95 838.69,-917.9 838.78,-917.85"/>
<polygon fill="black" stroke="black" points="840.69,-920.78 847.46,-912.62 837.08,-914.78 840.69,-920.78"/>
</g>
<!-- V88A0 -->
<g id="node10" class="node">
<title>V88A0</title>
<polygon fill="#0000ff" fill-opacity="0.250980" stroke="black" points="983,-918 920,-918 920,-864 983,-864 983,-918"/>
<text text-anchor="middle" x="951.5" y="-887.3" font-family="Times,serif" font-size="14.00">V88A0</text>
</g>
<!-- V0&#45;&gt;V88A0 -->
<g id="edge9" class="edge">
<title>V0&#45;&gt;V88A0</title>
<path fill="none" stroke="black" d="M719.66,-973.45C767.63,-964.14 846.76,-946.01 910.5,-918 910.6,-917.96 910.69,-917.92 910.79,-917.87"/>
<polygon fill="black" stroke="black" points="912.39,-920.99 919.78,-913.4 909.27,-914.72 912.39,-920.99"/>
</g>
<!-- V88S1 -->
<g id="node11" class="node">
<title>V88S1</title>
<polygon fill="#0000ff" fill-opacity="0.250980" stroke="black" points="1135.5,-918 1001.5,-918 1001.5,-864 1135.5,-864 1135.5,-918"/>
<text text-anchor="middle" x="1068.5" y="-887.3" font-family="Times,serif" font-size="14.00">NETZ_SRC_Zect</text>
</g>
<!-- V0&#45;&gt;V88S1 -->
<g id="edge10" class="edge">
<title>V0&#45;&gt;V88S1</title>
<path fill="none" stroke="black" d="M719.6,-974.28C778.9,-964.61 889.06,-945.21 991.24,-918.21"/>
<polygon fill="black" stroke="black" points="992.34,-921.54 1001.1,-915.58 990.53,-914.78 992.34,-921.54"/>
</g>
<!-- V6S0P3 -->
<g id="node20" class="node">
<title>V6S0P3</title>
<polygon fill="#0000ff" fill-opacity="0.250980" stroke="black" points="388,-817 149,-817 149,-763 388,-763 388,-817"/>
<text text-anchor="middle" x="268.5" y="-786.3" font-family="Times,serif" font-size="14.00">Transformer_J_lnk_Source_Part</text>
</g>
<!-- V0S3&#45;&gt;V6S0P3 -->
<g id="edge18" class="edge">
<title>V0S3&#45;&gt;V6S0P3</title>
<path fill="none" stroke="black" d="M262.6,-863.99C263.5,-852.82 264.57,-839.58 265.55,-827.46"/>
<polygon fill="black" stroke="black" points="269.07,-827.43 266.38,-817.18 262.09,-826.87 269.07,-827.43"/>
<text text-anchor="middle" x="294" y="-838" font-family="Times,serif" font-size="10.00">lnk_Source</text>
</g>
<!-- V0S18P3 -->
<g id="node14" class="node">
<title>V0S18P3</title>
<polygon fill="#0000ff" fill-opacity="0.250980" stroke="black" points="560,-745 411,-745 411,-691 560,-691 560,-745"/>
<text text-anchor="middle" x="485.5" y="-714.3" font-family="Times,serif" font-size="14.00">Join_18_Colm_Part</text>
</g>
<!-- V1S0&#45;&gt;V0S18P3 -->
<g id="edge19" class="edge">
<title>V1S0&#45;&gt;V0S18P3</title>
<path fill="none" stroke="black" d="M478.73,-863.66C480.09,-834.58 482.29,-787.59 483.81,-755.09"/>
<polygon fill="black" stroke="black" points="487.31,-755.25 484.28,-745.09 480.32,-754.92 487.31,-755.25"/>
<text text-anchor="middle" x="494" y="-838" font-family="Times,serif" font-size="10.00">Colm</text>
</g>
<!-- V0S18P5 -->
<g id="node15" class="node">
<title>V0S18P5</title>
<polygon fill="#0000ff" fill-opacity="0.250980" stroke="black" points="696,-601 555,-601 555,-547 696,-547 696,-601"/>
<text text-anchor="middle" x="625.5" y="-570.3" font-family="Times,serif" font-size="14.00">Join_18_Colt_Part</text>
</g>
<!-- V3S0&#45;&gt;V0S18P5 -->
<g id="edge21" class="edge">
<title>V3S0&#45;&gt;V0S18P5</title>
<path fill="none" stroke="black" d="M672.28,-863.95C663.2,-807.82 641.75,-675.35 631.35,-611.14"/>
<polygon fill="black" stroke="black" points="634.78,-610.39 629.72,-601.08 627.87,-611.51 634.78,-610.39"/>
<text text-anchor="middle" x="675" y="-787.5" font-family="Times,serif" font-size="10.00">Colt</text>
</g>
<!-- V0S18P8 -->
<g id="node17" class="node">
<title>V0S18P8</title>
<polygon fill="#0000ff" fill-opacity="0.250980" stroke="black" points="1017,-745 874,-745 874,-691 1017,-691 1017,-745"/>
<text text-anchor="middle" x="945.5" y="-714.3" font-family="Times,serif" font-size="14.00">Join_18_Zect_Part</text>
</g>
<!-- V88S1&#45;&gt;V0S18P8 -->
<g id="edge24" class="edge">
<title>V88S1&#45;&gt;V0S18P8</title>
<path fill="none" stroke="black" d="M1049.55,-863.66C1028.27,-834.07 993.66,-785.95 970.26,-753.42"/>
<polygon fill="black" stroke="black" points="972.95,-751.17 964.27,-745.09 967.27,-755.26 972.95,-751.17"/>
<text text-anchor="middle" x="1045.5" y="-838" font-family="Times,serif" font-size="10.00">Zect</text>
</g>
<!-- V0S18 -->
<g id="node12" class="node">
<title>V0S18</title>
<polygon fill="#0000ff" fill-opacity="0.250980" stroke="black" points="572.5,-438 504.5,-438 504.5,-384 572.5,-384 572.5,-438"/>
<text text-anchor="middle" x="538.5" y="-407.3" font-family="Times,serif" font-size="14.00">Join_18</text>
</g>
<!-- V0S24P1 -->
<g id="node13" class="node">
<title>V0S24P1</title>
<polygon fill="#0000ff" fill-opacity="0.250980" stroke="black" points="660.5,-337 416.5,-337 416.5,-283 660.5,-283 660.5,-337"/>
<text text-anchor="middle" x="538.5" y="-306.3" font-family="Times,serif" font-size="14.00">Transformer_24_DSLink22_Part</text>
</g>
<!-- V0S18&#45;&gt;V0S24P1 -->
<g id="edge11" class="edge">
<title>V0S18&#45;&gt;V0S24P1</title>
<path fill="none" stroke="black" d="M538.5,-383.99C538.5,-372.82 538.5,-359.58 538.5,-347.46"/>
<polygon fill="black" stroke="black" points="542,-347.18 538.5,-337.18 535,-347.18 542,-347.18"/>
<text text-anchor="middle" x="563.5" y="-358" font-family="Times,serif" font-size="10.00">DSLink22</text>
</g>
<!-- V0S24 -->
<g id="node18" class="node">
<title>V0S24</title>
<polygon fill="#0000ff" fill-opacity="0.250980" stroke="black" points="604,-246 473,-246 473,-192 604,-192 604,-246"/>
<text text-anchor="middle" x="538.5" y="-215.3" font-family="Times,serif" font-size="14.00">Transformer_24</text>
</g>
<!-- V0S24P1&#45;&gt;V0S24 -->
<g id="edge17" class="edge">
<title>V0S24P1&#45;&gt;V0S24</title>
<path fill="none" stroke="black" d="M538.5,-282.78C538.5,-274.45 538.5,-265.09 538.5,-256.18"/>
<polygon fill="black" stroke="black" points="542,-256.03 538.5,-246.03 535,-256.03 542,-256.03"/>
</g>
<!-- V0S18P3&#45;&gt;V0S18 -->
<g id="edge12" class="edge">
<title>V0S18P3&#45;&gt;V0S18</title>
<path fill="none" stroke="black" d="M490.02,-691C499.46,-636.66 521.3,-510.97 532.15,-448.54"/>
<polygon fill="black" stroke="black" points="535.65,-448.82 533.92,-438.37 528.76,-447.62 535.65,-448.82"/>
</g>
<!-- V0S18P5&#45;&gt;V0S18 -->
<g id="edge13" class="edge">
<title>V0S18P5&#45;&gt;V0S18</title>
<path fill="none" stroke="black" d="M611.33,-546.77C596.67,-519.64 573.69,-477.11 557.47,-447.1"/>
<polygon fill="black" stroke="black" points="560.5,-445.35 552.67,-438.21 554.34,-448.68 560.5,-445.35"/>
</g>
<!-- V0S18P7 -->
<g id="node16" class="node">
<title>V0S18P7</title>
<polygon fill="#0000ff" fill-opacity="0.250980" stroke="black" points="467,-529 254,-529 254,-475 467,-475 467,-529"/>
<text text-anchor="middle" x="360.5" y="-498.3" font-family="Times,serif" font-size="14.00">Join_18_Remove_Dupe_Part</text>
</g>
<!-- V0S18P7&#45;&gt;V0S18 -->
<g id="edge14" class="edge">
<title>V0S18P7&#45;&gt;V0S18</title>
<path fill="none" stroke="black" d="M412.94,-474.78C439.13,-461.68 470.43,-446.03 495.23,-433.64"/>
<polygon fill="black" stroke="black" points="497.01,-436.66 504.39,-429.05 493.88,-430.4 497.01,-436.66"/>
</g>
<!-- V0S18P8&#45;&gt;V0S18 -->
<g id="edge15" class="edge">
<title>V0S18P8&#45;&gt;V0S18</title>
<path fill="none" stroke="black" d="M910.8,-691C836.42,-635.26 661.86,-504.44 581,-443.85"/>
<polygon fill="black" stroke="black" points="582.64,-440.7 572.54,-437.51 578.44,-446.31 582.64,-440.7"/>
</g>
<!-- V2S0P1 -->
<g id="node19" class="node">
<title>V2S0P1</title>
<polygon fill="#0000ff" fill-opacity="0.250980" stroke="black" points="699.5,-145 377.5,-145 377.5,-91 699.5,-91 699.5,-145"/>
<text text-anchor="middle" x="538.5" y="-114.3" font-family="Times,serif" font-size="14.00">DS_TGT_CHPM_COLT_lnk_CHPM_Tgt_Part</text>
</g>
<!-- V0S24&#45;&gt;V2S0P1 -->
<g id="edge16" class="edge">
<title>V0S24&#45;&gt;V2S0P1</title>
<path fill="none" stroke="black" d="M538.5,-191.99C538.5,-180.82 538.5,-167.58 538.5,-155.46"/>
<polygon fill="black" stroke="black" points="542,-155.18 538.5,-145.18 535,-155.18 542,-155.18"/>
<text text-anchor="middle" x="577.5" y="-166" font-family="Times,serif" font-size="10.00">lnk_CHPM_Tgt</text>
</g>
<!-- V2S0 -->
<g id="node21" class="node">
<title>V2S0</title>
<polygon fill="#0000ff" fill-opacity="0.250980" stroke="black" points="625,-54 452,-54 452,0 625,0 625,-54"/>
<text text-anchor="middle" x="538.5" y="-23.3" font-family="Times,serif" font-size="14.00">DS_TGT_CHPM_COLT</text>
</g>
<!-- V2S0P1&#45;&gt;V2S0 -->
<g id="edge20" class="edge">
<title>V2S0P1&#45;&gt;V2S0</title>
<path fill="none" stroke="black" d="M538.5,-90.78C538.5,-82.45 538.5,-73.09 538.5,-64.18"/>
<polygon fill="black" stroke="black" points="542,-64.03 538.5,-54.03 535,-64.03 542,-64.03"/>
</g>
<!-- V6S0 -->
<g id="node22" class="node">
<title>V6S0</title>
<polygon fill="#0000ff" fill-opacity="0.250980" stroke="black" points="357.5,-673 239.5,-673 239.5,-619 357.5,-619 357.5,-673"/>
<text text-anchor="middle" x="298.5" y="-642.3" font-family="Times,serif" font-size="14.00">Transformer_J</text>
</g>
<!-- V6S0P3&#45;&gt;V6S0 -->
<g id="edge23" class="edge">
<title>V6S0P3&#45;&gt;V6S0</title>
<path fill="none" stroke="black" d="M274,-762.96C278.73,-740.58 285.6,-708.08 290.86,-683.17"/>
<polygon fill="black" stroke="black" points="294.29,-683.87 292.93,-673.36 287.44,-682.42 294.29,-683.87"/>
</g>
<!-- V6S0&#45;&gt;V0S18P7 -->
<g id="edge22" class="edge">
<title>V6S0&#45;&gt;V0S18P7</title>
<path fill="none" stroke="black" d="M309.87,-618.96C319.69,-596.48 333.96,-563.79 344.85,-538.84"/>
<polygon fill="black" stroke="black" points="348.2,-539.93 348.99,-529.36 341.78,-537.12 348.2,-539.93"/>
<text text-anchor="middle" x="378" y="-571.5" font-family="Times,serif" font-size="10.00">Remove_Dupe</text>
</g>
</g>
</svg>
