<?xml version="1.0" encoding="UTF-8" standalone="no"?>
<!DOCTYPE svg PUBLIC "-//W3C//DTD SVG 1.1//EN"
 "http://www.w3.org/Graphics/SVG/1.1/DTD/svg11.dtd">
<!-- Generated by graphviz version 2.43.0 (0)
 -->
<!-- Pages: 1 -->
<svg width="516pt" height="782pt"
 viewBox="0.00 0.00 515.50 782.00" xmlns="http://www.w3.org/2000/svg" xmlns:xlink="http://www.w3.org/1999/xlink">
<g id="graph0" class="graph" transform="scale(1 1) rotate(0) translate(4 778)">
<polygon fill="white" stroke="transparent" points="-4,4 -4,-778 511.5,-778 511.5,4 -4,4"/>
<!-- ROOT -->
<g id="node1" class="node">
<title>ROOT</title>
<polygon fill="#0000ff" fill-opacity="0.250980" stroke="black" points="352.5,-774 117.5,-774 117.5,-720 352.5,-720 352.5,-774"/>
<text text-anchor="middle" x="235" y="-743.3" font-family="Times,serif" font-size="14.00">job_DBdirect_MIS006_Ld_POC</text>
</g>
<!-- V0 -->
<g id="node2" class="node">
<title>V0</title>
<polygon fill="#0000ff" fill-opacity="0.250980" stroke="black" points="278,-684 192,-684 192,-630 278,-630 278,-684"/>
<text text-anchor="middle" x="235" y="-653.3" font-family="Times,serif" font-size="14.00">Job_VIEW</text>
</g>
<!-- ROOT&#45;&gt;V0 -->
<g id="edge1" class="edge">
<title>ROOT&#45;&gt;V0</title>
<path fill="none" stroke="black" d="M235,-719.6C235,-711.61 235,-702.69 235,-694.18"/>
<polygon fill="black" stroke="black" points="238.5,-694.08 235,-684.08 231.5,-694.08 238.5,-694.08"/>
</g>
<!-- V0A0 -->
<g id="node3" class="node">
<title>V0A0</title>
<polygon fill="#0000ff" fill-opacity="0.250980" stroke="black" points="205,-594 151,-594 151,-540 205,-540 205,-594"/>
<text text-anchor="middle" x="178" y="-563.3" font-family="Times,serif" font-size="14.00">V0A0</text>
</g>
<!-- V0&#45;&gt;V0A0 -->
<g id="edge2" class="edge">
<title>V0&#45;&gt;V0A0</title>
<path fill="none" stroke="black" d="M217.9,-629.6C212.38,-621.08 206.18,-611.51 200.35,-602.5"/>
<polygon fill="black" stroke="black" points="203.27,-600.57 194.89,-594.08 197.39,-604.38 203.27,-600.57"/>
</g>
<!-- V97S0 -->
<g id="node4" class="node">
<title>V97S0</title>
<polygon fill="#0000ff" fill-opacity="0.250980" stroke="black" points="360.5,-594 223.5,-594 223.5,-540 360.5,-540 360.5,-594"/>
<text text-anchor="middle" x="292" y="-563.3" font-family="Times,serif" font-size="14.00">DS_TGT_MIS006</text>
</g>
<!-- V0&#45;&gt;V97S0 -->
<g id="edge3" class="edge">
<title>V0&#45;&gt;V97S0</title>
<path fill="none" stroke="black" d="M252.1,-629.6C257.62,-621.08 263.82,-611.51 269.65,-602.5"/>
<polygon fill="black" stroke="black" points="272.61,-604.38 275.11,-594.08 266.73,-600.57 272.61,-604.38"/>
</g>
<!-- V97S0P2 -->
<g id="node12" class="node">
<title>V97S0P2</title>
<polygon fill="#0000ff" fill-opacity="0.250980" stroke="black" points="414,-504 170,-504 170,-450 414,-450 414,-504"/>
<text text-anchor="middle" x="292" y="-473.3" font-family="Times,serif" font-size="14.00">DS_TGT_MIS006_trx_LoadTable</text>
</g>
<!-- V97S0&#45;&gt;V97S0P2 -->
<g id="edge10" class="edge">
<title>V97S0&#45;&gt;V97S0P2</title>
<path fill="none" stroke="black" d="M292,-539.6C292,-531.61 292,-522.69 292,-514.18"/>
<polygon fill="black" stroke="black" points="295.5,-514.08 292,-504.08 288.5,-514.08 295.5,-514.08"/>
</g>
<!-- V0S1 -->
<g id="node5" class="node">
<title>V0S1</title>
<polygon fill="#0000ff" fill-opacity="0.250980" stroke="black" points="342.5,-324 241.5,-324 241.5,-270 342.5,-270 342.5,-324"/>
<text text-anchor="middle" x="292" y="-293.3" font-family="Times,serif" font-size="14.00">trx_MIS006</text>
</g>
<!-- V0S1P2 -->
<g id="node6" class="node">
<title>V0S1P2</title>
<polygon fill="#0000ff" fill-opacity="0.250980" stroke="black" points="296,-234 84,-234 84,-180 296,-180 296,-234"/>
<text text-anchor="middle" x="190" y="-203.3" font-family="Times,serif" font-size="14.00">trx_MIS006_ln_tgt_MIS006</text>
</g>
<!-- V0S1&#45;&gt;V0S1P2 -->
<g id="edge4" class="edge">
<title>V0S1&#45;&gt;V0S1P2</title>
<path fill="none" stroke="black" d="M261.67,-269.84C251.18,-260.78 239.29,-250.52 228.24,-241"/>
<polygon fill="black" stroke="black" points="230.24,-238.1 220.39,-234.22 225.67,-243.4 230.24,-238.1"/>
</g>
<!-- V0S1P6 -->
<g id="node7" class="node">
<title>V0S1P6</title>
<polygon fill="#0000ff" fill-opacity="0.250980" stroke="black" points="489.5,-234 328.5,-234 328.5,-180 489.5,-180 489.5,-234"/>
<text text-anchor="middle" x="409" y="-203.3" font-family="Times,serif" font-size="14.00">trx_MIS006_pk_Dup</text>
</g>
<!-- V0S1&#45;&gt;V0S1P6 -->
<g id="edge5" class="edge">
<title>V0S1&#45;&gt;V0S1P6</title>
<path fill="none" stroke="black" d="M326.79,-269.84C339.05,-260.61 353,-250.12 365.87,-240.44"/>
<polygon fill="black" stroke="black" points="368.26,-243.02 374.14,-234.22 364.05,-237.43 368.26,-243.02"/>
</g>
<!-- V98S1P2 -->
<g id="node9" class="node">
<title>V98S1P2</title>
<polygon fill="#0000ff" fill-opacity="0.250980" stroke="black" points="322,-144 0,-144 0,-90 322,-90 322,-144"/>
<text text-anchor="middle" x="161" y="-113.3" font-family="Times,serif" font-size="14.00">NZ_TGT_STG_MIS006_ln_tgt_MIS006_Part</text>
</g>
<!-- V0S1P2&#45;&gt;V98S1P2 -->
<g id="edge7" class="edge">
<title>V0S1P2&#45;&gt;V98S1P2</title>
<path fill="none" stroke="black" d="M181.3,-179.6C178.61,-171.43 175.6,-162.3 172.74,-153.62"/>
<polygon fill="black" stroke="black" points="176.05,-152.48 169.59,-144.08 169.4,-154.67 176.05,-152.48"/>
</g>
<!-- V0S8P1 -->
<g id="node10" class="node">
<title>V0S8P1</title>
<polygon fill="#0000ff" fill-opacity="0.250980" stroke="black" points="507.5,-144 340.5,-144 340.5,-90 507.5,-90 507.5,-144"/>
<text text-anchor="middle" x="424" y="-113.3" font-family="Times,serif" font-size="14.00">pk_Dup_pk_Dup_Part</text>
</g>
<!-- V0S1P6&#45;&gt;V0S8P1 -->
<g id="edge8" class="edge">
<title>V0S1P6&#45;&gt;V0S8P1</title>
<path fill="none" stroke="black" d="M413.5,-179.6C414.86,-171.61 416.38,-162.69 417.83,-154.18"/>
<polygon fill="black" stroke="black" points="421.32,-154.53 419.55,-144.08 414.42,-153.35 421.32,-154.53"/>
</g>
<!-- V0S1P1 -->
<g id="node8" class="node">
<title>V0S1P1</title>
<polygon fill="#0000ff" fill-opacity="0.250980" stroke="black" points="414.5,-414 169.5,-414 169.5,-360 414.5,-360 414.5,-414"/>
<text text-anchor="middle" x="292" y="-383.3" font-family="Times,serif" font-size="14.00">trx_MIS006_trx_LoadTable_Part</text>
</g>
<!-- V0S1P1&#45;&gt;V0S1 -->
<g id="edge6" class="edge">
<title>V0S1P1&#45;&gt;V0S1</title>
<path fill="none" stroke="black" d="M292,-359.6C292,-351.61 292,-342.69 292,-334.18"/>
<polygon fill="black" stroke="black" points="295.5,-334.08 292,-324.08 288.5,-334.08 295.5,-334.08"/>
</g>
<!-- V98S1 -->
<g id="node13" class="node">
<title>V98S1</title>
<polygon fill="#0000ff" fill-opacity="0.250980" stroke="black" points="248,-54 74,-54 74,0 248,0 248,-54"/>
<text text-anchor="middle" x="161" y="-23.3" font-family="Times,serif" font-size="14.00">NZ_TGT_STG_MIS006</text>
</g>
<!-- V98S1P2&#45;&gt;V98S1 -->
<g id="edge12" class="edge">
<title>V98S1P2&#45;&gt;V98S1</title>
<path fill="none" stroke="black" d="M161,-89.6C161,-81.61 161,-72.69 161,-64.18"/>
<polygon fill="black" stroke="black" points="164.5,-64.08 161,-54.08 157.5,-64.08 164.5,-64.08"/>
</g>
<!-- V0S8 -->
<g id="node11" class="node">
<title>V0S8</title>
<polygon fill="#0000ff" fill-opacity="0.250980" stroke="black" points="459,-54 389,-54 389,0 459,0 459,-54"/>
<text text-anchor="middle" x="424" y="-23.3" font-family="Times,serif" font-size="14.00">pk_Dup</text>
</g>
<!-- V0S8P1&#45;&gt;V0S8 -->
<g id="edge9" class="edge">
<title>V0S8P1&#45;&gt;V0S8</title>
<path fill="none" stroke="black" d="M424,-89.6C424,-81.61 424,-72.69 424,-64.18"/>
<polygon fill="black" stroke="black" points="427.5,-64.08 424,-54.08 420.5,-64.08 427.5,-64.08"/>
</g>
<!-- V97S0P2&#45;&gt;V0S1P1 -->
<g id="edge11" class="edge">
<title>V97S0P2&#45;&gt;V0S1P1</title>
<path fill="none" stroke="black" d="M292,-449.6C292,-441.61 292,-432.69 292,-424.18"/>
<polygon fill="black" stroke="black" points="295.5,-424.08 292,-414.08 288.5,-424.08 295.5,-424.08"/>
</g>
</g>
</svg>
