<?xml version="1.0" encoding="UTF-8" standalone="no"?>
<!DOCTYPE svg PUBLIC "-//W3C//DTD SVG 1.1//EN"
 "http://www.w3.org/Graphics/SVG/1.1/DTD/svg11.dtd">
<!-- Generated by graphviz version 2.43.0 (0)
 -->
<!-- Pages: 1 -->
<svg width="521pt" height="628pt"
 viewBox="0.00 0.00 520.50 628.00" xmlns="http://www.w3.org/2000/svg" xmlns:xlink="http://www.w3.org/1999/xlink">
<g id="graph0" class="graph" transform="scale(1 1) rotate(0) translate(4 624)">
<polygon fill="white" stroke="transparent" points="-4,4 -4,-624 516.5,-624 516.5,4 -4,4"/>
<!-- ROOT -->
<g id="node1" class="node">
<title>ROOT</title>
<polygon fill="#0000ff" fill-opacity="0.250980" stroke="black" points="235,-620 0,-620 0,-566 235,-566 235,-620"/>
<text text-anchor="middle" x="117.5" y="-589.3" font-family="Times,serif" font-size="14.00">job_DBdirect_MIS006_Ld_POC</text>
</g>
<!-- V0 -->
<g id="node2" class="node">
<title>V0</title>
<polygon fill="#0000ff" fill-opacity="0.250980" stroke="black" points="160.5,-529 74.5,-529 74.5,-475 160.5,-475 160.5,-529"/>
<text text-anchor="middle" x="117.5" y="-498.3" font-family="Times,serif" font-size="14.00">Job_VIEW</text>
</g>
<!-- ROOT&#45;&gt;V0 -->
<g id="edge1" class="edge">
<title>ROOT&#45;&gt;V0</title>
<path fill="none" stroke="black" d="M117.5,-565.78C117.5,-557.45 117.5,-548.09 117.5,-539.18"/>
<polygon fill="black" stroke="black" points="121,-539.03 117.5,-529.03 114,-539.03 121,-539.03"/>
</g>
<!-- V0A0 -->
<g id="node3" class="node">
<title>V0A0</title>
<polygon fill="#0000ff" fill-opacity="0.250980" stroke="black" points="132.5,-438 78.5,-438 78.5,-384 132.5,-384 132.5,-438"/>
<text text-anchor="middle" x="105.5" y="-407.3" font-family="Times,serif" font-size="14.00">V0A0</text>
</g>
<!-- V0&#45;&gt;V0A0 -->
<g id="edge2" class="edge">
<title>V0&#45;&gt;V0A0</title>
<path fill="none" stroke="black" d="M113.96,-474.78C112.84,-466.45 111.58,-457.09 110.38,-448.18"/>
<polygon fill="black" stroke="black" points="113.82,-447.48 109.01,-438.03 106.88,-448.41 113.82,-447.48"/>
</g>
<!-- V97S0 -->
<g id="node4" class="node">
<title>V97S0</title>
<polygon fill="#0000ff" fill-opacity="0.250980" stroke="black" points="288,-438 151,-438 151,-384 288,-384 288,-438"/>
<text text-anchor="middle" x="219.5" y="-407.3" font-family="Times,serif" font-size="14.00">DS_TGT_MIS006</text>
</g>
<!-- V0&#45;&gt;V97S0 -->
<g id="edge3" class="edge">
<title>V0&#45;&gt;V97S0</title>
<path fill="none" stroke="black" d="M147.55,-474.78C158.34,-465.36 170.65,-454.63 181.99,-444.73"/>
<polygon fill="black" stroke="black" points="184.43,-447.25 189.66,-438.03 179.83,-441.97 184.43,-447.25"/>
</g>
<!-- V0S1P1 -->
<g id="node8" class="node">
<title>V0S1P1</title>
<polygon fill="#0000ff" fill-opacity="0.250980" stroke="black" points="342,-337 97,-337 97,-283 342,-283 342,-337"/>
<text text-anchor="middle" x="219.5" y="-306.3" font-family="Times,serif" font-size="14.00">trx_MIS006_trx_LoadTable_Part</text>
</g>
<!-- V97S0&#45;&gt;V0S1P1 -->
<g id="edge8" class="edge">
<title>V97S0&#45;&gt;V0S1P1</title>
<path fill="none" stroke="black" d="M219.5,-383.99C219.5,-372.82 219.5,-359.58 219.5,-347.46"/>
<polygon fill="black" stroke="black" points="223,-347.18 219.5,-337.18 216,-347.18 223,-347.18"/>
<text text-anchor="middle" x="256" y="-358" font-family="Times,serif" font-size="10.00">trx_LoadTable</text>
</g>
<!-- V0S1 -->
<g id="node5" class="node">
<title>V0S1</title>
<polygon fill="#0000ff" fill-opacity="0.250980" stroke="black" points="270,-246 169,-246 169,-192 270,-192 270,-246"/>
<text text-anchor="middle" x="219.5" y="-215.3" font-family="Times,serif" font-size="14.00">trx_MIS006</text>
</g>
<!-- V0S8P1 -->
<g id="node6" class="node">
<title>V0S8P1</title>
<polygon fill="#0000ff" fill-opacity="0.250980" stroke="black" points="172,-145 5,-145 5,-91 172,-91 172,-145"/>
<text text-anchor="middle" x="88.5" y="-114.3" font-family="Times,serif" font-size="14.00">pk_Dup_pk_Dup_Part</text>
</g>
<!-- V0S1&#45;&gt;V0S8P1 -->
<g id="edge4" class="edge">
<title>V0S1&#45;&gt;V0S8P1</title>
<path fill="none" stroke="black" d="M185.08,-191.99C168.66,-179.58 148.86,-164.61 131.46,-151.47"/>
<polygon fill="black" stroke="black" points="133.23,-148.42 123.14,-145.18 129.01,-154 133.23,-148.42"/>
<text text-anchor="middle" x="178.5" y="-166" font-family="Times,serif" font-size="10.00">pk_Dup</text>
</g>
<!-- V98S1P2 -->
<g id="node7" class="node">
<title>V98S1P2</title>
<polygon fill="#0000ff" fill-opacity="0.250980" stroke="black" points="512.5,-145 190.5,-145 190.5,-91 512.5,-91 512.5,-145"/>
<text text-anchor="middle" x="351.5" y="-114.3" font-family="Times,serif" font-size="14.00">NZ_TGT_STG_MIS006_ln_tgt_MIS006_Part</text>
</g>
<!-- V0S1&#45;&gt;V98S1P2 -->
<g id="edge5" class="edge">
<title>V0S1&#45;&gt;V98S1P2</title>
<path fill="none" stroke="black" d="M254.18,-191.99C270.72,-179.58 290.68,-164.61 308.21,-151.47"/>
<polygon fill="black" stroke="black" points="310.69,-153.98 316.59,-145.18 306.49,-148.38 310.69,-153.98"/>
<text text-anchor="middle" x="326.5" y="-166" font-family="Times,serif" font-size="10.00">ln_tgt_MIS006</text>
</g>
<!-- V0S8 -->
<g id="node9" class="node">
<title>V0S8</title>
<polygon fill="#0000ff" fill-opacity="0.250980" stroke="black" points="123.5,-54 53.5,-54 53.5,0 123.5,0 123.5,-54"/>
<text text-anchor="middle" x="88.5" y="-23.3" font-family="Times,serif" font-size="14.00">pk_Dup</text>
</g>
<!-- V0S8P1&#45;&gt;V0S8 -->
<g id="edge7" class="edge">
<title>V0S8P1&#45;&gt;V0S8</title>
<path fill="none" stroke="black" d="M88.5,-90.78C88.5,-82.45 88.5,-73.09 88.5,-64.18"/>
<polygon fill="black" stroke="black" points="92,-64.03 88.5,-54.03 85,-64.03 92,-64.03"/>
</g>
<!-- V98S1 -->
<g id="node10" class="node">
<title>V98S1</title>
<polygon fill="#0000ff" fill-opacity="0.250980" stroke="black" points="438.5,-54 264.5,-54 264.5,0 438.5,0 438.5,-54"/>
<text text-anchor="middle" x="351.5" y="-23.3" font-family="Times,serif" font-size="14.00">NZ_TGT_STG_MIS006</text>
</g>
<!-- V98S1P2&#45;&gt;V98S1 -->
<g id="edge9" class="edge">
<title>V98S1P2&#45;&gt;V98S1</title>
<path fill="none" stroke="black" d="M351.5,-90.78C351.5,-82.45 351.5,-73.09 351.5,-64.18"/>
<polygon fill="black" stroke="black" points="355,-64.03 351.5,-54.03 348,-64.03 355,-64.03"/>
</g>
<!-- V0S1P1&#45;&gt;V0S1 -->
<g id="edge6" class="edge">
<title>V0S1P1&#45;&gt;V0S1</title>
<path fill="none" stroke="black" d="M219.5,-282.78C219.5,-274.45 219.5,-265.09 219.5,-256.18"/>
<polygon fill="black" stroke="black" points="223,-256.03 219.5,-246.03 216,-256.03 223,-256.03"/>
</g>
</g>
</svg>
