<?xml version="1.0" encoding="UTF-8" standalone="no"?>
<!DOCTYPE svg PUBLIC "-//W3C//DTD SVG 1.1//EN"
 "http://www.w3.org/Graphics/SVG/1.1/DTD/svg11.dtd">
<!-- Generated by graphviz version 2.43.0 (0)
 -->
<!-- Pages: 1 -->
<svg width="333pt" height="1204pt"
 viewBox="0.00 0.00 333.00 1204.00" xmlns="http://www.w3.org/2000/svg" xmlns:xlink="http://www.w3.org/1999/xlink">
<g id="graph0" class="graph" transform="scale(1 1) rotate(0) translate(4 1200)">
<polygon fill="white" stroke="transparent" points="-4,4 -4,-1200 329,-1200 329,4 -4,4"/>
<!-- ROOT -->
<g id="node1" class="node">
<title>ROOT</title>
<polygon fill="#0000ff" fill-opacity="0.250980" stroke="black" points="321,-1196 4,-1196 4,-1142 321,-1142 321,-1196"/>
<text text-anchor="middle" x="162.5" y="-1165.3" font-family="Times,serif" font-size="14.00">job_DBdirect_Mis006_BLDVNN_Extr_POC</text>
</g>
<!-- V0 -->
<g id="node2" class="node">
<title>V0</title>
<polygon fill="#0000ff" fill-opacity="0.250980" stroke="black" points="205.5,-1105 119.5,-1105 119.5,-1051 205.5,-1051 205.5,-1105"/>
<text text-anchor="middle" x="162.5" y="-1074.3" font-family="Times,serif" font-size="14.00">Job_VIEW</text>
</g>
<!-- ROOT&#45;&gt;V0 -->
<g id="edge1" class="edge">
<title>ROOT&#45;&gt;V0</title>
<path fill="none" stroke="black" d="M162.5,-1141.78C162.5,-1133.45 162.5,-1124.09 162.5,-1115.18"/>
<polygon fill="black" stroke="black" points="166,-1115.03 162.5,-1105.03 159,-1115.03 166,-1115.03"/>
</g>
<!-- V19S4 -->
<g id="node3" class="node">
<title>V19S4</title>
<polygon fill="#00ff00" fill-opacity="0.250980" stroke="black" points="238,-1014 87,-1014 87,-960 238,-960 238,-1014"/>
<text text-anchor="middle" x="162.5" y="-983.3" font-family="Times,serif" font-size="14.00">BORM_X_BLDVNN</text>
</g>
<!-- V0&#45;&gt;V19S4 -->
<g id="edge2" class="edge">
<title>V0&#45;&gt;V19S4</title>
<path fill="none" stroke="black" d="M162.5,-1050.78C162.5,-1042.45 162.5,-1033.09 162.5,-1024.18"/>
<polygon fill="black" stroke="black" points="166,-1024.03 162.5,-1014.03 159,-1024.03 166,-1024.03"/>
</g>
<!-- V19S5P1 -->
<g id="node12" class="node">
<title>V19S5P1</title>
<polygon fill="#00ff00" fill-opacity="0.250980" stroke="black" points="264,-913 61,-913 61,-859 264,-859 264,-913"/>
<text text-anchor="middle" x="162.5" y="-882.3" font-family="Times,serif" font-size="14.00">Sort_142_lnk_Source_Part</text>
</g>
<!-- V19S4&#45;&gt;V19S5P1 -->
<g id="edge10" class="edge">
<title>V19S4&#45;&gt;V19S5P1</title>
<path fill="none" stroke="black" d="M162.5,-959.99C162.5,-948.82 162.5,-935.58 162.5,-923.46"/>
<polygon fill="black" stroke="black" points="166,-923.18 162.5,-913.18 159,-923.18 166,-923.18"/>
<text text-anchor="middle" x="191" y="-934" font-family="Times,serif" font-size="10.00">lnk_Source</text>
</g>
<!-- V19S0 -->
<g id="node4" class="node">
<title>V19S0</title>
<polygon fill="#00ff00" fill-opacity="0.250980" stroke="black" points="232.5,-246 92.5,-246 92.5,-192 232.5,-192 232.5,-246"/>
<text text-anchor="middle" x="162.5" y="-215.3" font-family="Times,serif" font-size="14.00">Transformer_241</text>
</g>
<!-- V19S1P1 -->
<g id="node5" class="node">
<title>V19S1P1</title>
<polygon fill="#00ff00" fill-opacity="0.250980" stroke="black" points="282,-145 43,-145 43,-91 282,-91 282,-145"/>
<text text-anchor="middle" x="162.5" y="-114.3" font-family="Times,serif" font-size="14.00">TGT_BLDVNN_DSLink238_Part</text>
</g>
<!-- V19S0&#45;&gt;V19S1P1 -->
<g id="edge3" class="edge">
<title>V19S0&#45;&gt;V19S1P1</title>
<path fill="none" stroke="black" d="M162.5,-191.99C162.5,-180.82 162.5,-167.58 162.5,-155.46"/>
<polygon fill="black" stroke="black" points="166,-155.18 162.5,-145.18 159,-155.18 166,-155.18"/>
<text text-anchor="middle" x="190.5" y="-166" font-family="Times,serif" font-size="10.00">DSLink238</text>
</g>
<!-- V19S1 -->
<g id="node7" class="node">
<title>V19S1</title>
<polygon fill="#00ff00" fill-opacity="0.250980" stroke="black" points="221,-54 104,-54 104,0 221,0 221,-54"/>
<text text-anchor="middle" x="162.5" y="-23.3" font-family="Times,serif" font-size="14.00">TGT_BLDVNN</text>
</g>
<!-- V19S1P1&#45;&gt;V19S1 -->
<g id="edge5" class="edge">
<title>V19S1P1&#45;&gt;V19S1</title>
<path fill="none" stroke="black" d="M162.5,-90.78C162.5,-82.45 162.5,-73.09 162.5,-64.18"/>
<polygon fill="black" stroke="black" points="166,-64.03 162.5,-54.03 159,-64.03 166,-64.03"/>
</g>
<!-- V19S0P1 -->
<g id="node6" class="node">
<title>V19S0P1</title>
<polygon fill="#00ff00" fill-opacity="0.250980" stroke="black" points="293.5,-337 31.5,-337 31.5,-283 293.5,-283 293.5,-337"/>
<text text-anchor="middle" x="162.5" y="-306.3" font-family="Times,serif" font-size="14.00">Transformer_241_DSLink151_Part</text>
</g>
<!-- V19S0P1&#45;&gt;V19S0 -->
<g id="edge4" class="edge">
<title>V19S0P1&#45;&gt;V19S0</title>
<path fill="none" stroke="black" d="M162.5,-282.78C162.5,-274.45 162.5,-265.09 162.5,-256.18"/>
<polygon fill="black" stroke="black" points="166,-256.03 162.5,-246.03 159,-256.03 166,-256.03"/>
</g>
<!-- V19S2 -->
<g id="node8" class="node">
<title>V19S2</title>
<polygon fill="#00ff00" fill-opacity="0.250980" stroke="black" points="205.5,-630 119.5,-630 119.5,-576 205.5,-576 205.5,-630"/>
<text text-anchor="middle" x="162.5" y="-599.3" font-family="Times,serif" font-size="14.00">Copy_227</text>
</g>
<!-- V19S3P1 -->
<g id="node9" class="node">
<title>V19S3P1</title>
<polygon fill="#00ff00" fill-opacity="0.250980" stroke="black" points="325,-529 0,-529 0,-475 325,-475 325,-529"/>
<text text-anchor="middle" x="162.5" y="-498.3" font-family="Times,serif" font-size="14.00">Copy_of_Transformer_149_DSLink148_Part</text>
</g>
<!-- V19S2&#45;&gt;V19S3P1 -->
<g id="edge6" class="edge">
<title>V19S2&#45;&gt;V19S3P1</title>
<path fill="none" stroke="black" d="M162.5,-575.99C162.5,-564.82 162.5,-551.58 162.5,-539.46"/>
<polygon fill="black" stroke="black" points="166,-539.18 162.5,-529.18 159,-539.18 166,-539.18"/>
<text text-anchor="middle" x="190.5" y="-550" font-family="Times,serif" font-size="10.00">DSLink148</text>
</g>
<!-- V19S3 -->
<g id="node11" class="node">
<title>V19S3</title>
<polygon fill="#00ff00" fill-opacity="0.250980" stroke="black" points="264,-438 61,-438 61,-384 264,-384 264,-438"/>
<text text-anchor="middle" x="162.5" y="-407.3" font-family="Times,serif" font-size="14.00">Copy_of_Transformer_149</text>
</g>
<!-- V19S3P1&#45;&gt;V19S3 -->
<g id="edge9" class="edge">
<title>V19S3P1&#45;&gt;V19S3</title>
<path fill="none" stroke="black" d="M162.5,-474.78C162.5,-466.45 162.5,-457.09 162.5,-448.18"/>
<polygon fill="black" stroke="black" points="166,-448.03 162.5,-438.03 159,-448.03 166,-448.03"/>
</g>
<!-- V19S2P1 -->
<g id="node10" class="node">
<title>V19S2P1</title>
<polygon fill="#00ff00" fill-opacity="0.250980" stroke="black" points="271.5,-721 53.5,-721 53.5,-667 271.5,-667 271.5,-721"/>
<text text-anchor="middle" x="162.5" y="-690.3" font-family="Times,serif" font-size="14.00">Copy_227_DSLink148X_Part</text>
</g>
<!-- V19S2P1&#45;&gt;V19S2 -->
<g id="edge7" class="edge">
<title>V19S2P1&#45;&gt;V19S2</title>
<path fill="none" stroke="black" d="M162.5,-666.78C162.5,-658.45 162.5,-649.09 162.5,-640.18"/>
<polygon fill="black" stroke="black" points="166,-640.03 162.5,-630.03 159,-640.03 166,-640.03"/>
</g>
<!-- V19S3&#45;&gt;V19S0P1 -->
<g id="edge8" class="edge">
<title>V19S3&#45;&gt;V19S0P1</title>
<path fill="none" stroke="black" d="M162.5,-383.99C162.5,-372.82 162.5,-359.58 162.5,-347.46"/>
<polygon fill="black" stroke="black" points="166,-347.18 162.5,-337.18 159,-347.18 166,-347.18"/>
<text text-anchor="middle" x="190.5" y="-358" font-family="Times,serif" font-size="10.00">DSLink151</text>
</g>
<!-- V19S5 -->
<g id="node13" class="node">
<title>V19S5</title>
<polygon fill="#00ff00" fill-opacity="0.250980" stroke="black" points="203,-822 122,-822 122,-768 203,-768 203,-822"/>
<text text-anchor="middle" x="162.5" y="-791.3" font-family="Times,serif" font-size="14.00">Sort_142</text>
</g>
<!-- V19S5P1&#45;&gt;V19S5 -->
<g id="edge12" class="edge">
<title>V19S5P1&#45;&gt;V19S5</title>
<path fill="none" stroke="black" d="M162.5,-858.78C162.5,-850.45 162.5,-841.09 162.5,-832.18"/>
<polygon fill="black" stroke="black" points="166,-832.03 162.5,-822.03 159,-832.03 166,-832.03"/>
</g>
<!-- V19S5&#45;&gt;V19S2P1 -->
<g id="edge11" class="edge">
<title>V19S5&#45;&gt;V19S2P1</title>
<path fill="none" stroke="black" d="M162.5,-767.99C162.5,-756.82 162.5,-743.58 162.5,-731.46"/>
<polygon fill="black" stroke="black" points="166,-731.18 162.5,-721.18 159,-731.18 166,-731.18"/>
<text text-anchor="middle" x="194" y="-742" font-family="Times,serif" font-size="10.00">DSLink148X</text>
</g>
</g>
</svg>
