<?xml version="1.0" encoding="UTF-8" standalone="no"?>
<!DOCTYPE svg PUBLIC "-//W3C//DTD SVG 1.1//EN"
 "http://www.w3.org/Graphics/SVG/1.1/DTD/svg11.dtd">
<!-- Generated by graphviz version 2.43.0 (0)
 -->
<!-- Pages: 1 -->
<svg width="421pt" height="628pt"
 viewBox="0.00 0.00 420.50 628.00" xmlns="http://www.w3.org/2000/svg" xmlns:xlink="http://www.w3.org/1999/xlink">
<g id="graph0" class="graph" transform="scale(1 1) rotate(0) translate(4 624)">
<polygon fill="white" stroke="transparent" points="-4,4 -4,-624 416.5,-624 416.5,4 -4,4"/>
<!-- ROOT -->
<g id="node1" class="node">
<title>ROOT</title>
<polygon fill="#0000ff" fill-opacity="0.250980" stroke="black" points="313,-620 0,-620 0,-566 313,-566 313,-620"/>
<text text-anchor="middle" x="156.5" y="-589.3" font-family="Times,serif" font-size="14.00">job_DBdirect_Mis006_CUSVAA_Extr_POC</text>
</g>
<!-- V0 -->
<g id="node2" class="node">
<title>V0</title>
<polygon fill="#0000ff" fill-opacity="0.250980" stroke="black" points="199.5,-529 113.5,-529 113.5,-475 199.5,-475 199.5,-529"/>
<text text-anchor="middle" x="156.5" y="-498.3" font-family="Times,serif" font-size="14.00">Job_VIEW</text>
</g>
<!-- ROOT&#45;&gt;V0 -->
<g id="edge1" class="edge">
<title>ROOT&#45;&gt;V0</title>
<path fill="none" stroke="black" d="M156.5,-565.78C156.5,-557.45 156.5,-548.09 156.5,-539.18"/>
<polygon fill="black" stroke="black" points="160,-539.03 156.5,-529.03 153,-539.03 160,-539.03"/>
</g>
<!-- V80A0 -->
<g id="node3" class="node">
<title>V80A0</title>
<polygon fill="#0000ff" fill-opacity="0.250980" stroke="black" points="176,-438 113,-438 113,-384 176,-384 176,-438"/>
<text text-anchor="middle" x="144.5" y="-407.3" font-family="Times,serif" font-size="14.00">V80A0</text>
</g>
<!-- V0&#45;&gt;V80A0 -->
<g id="edge2" class="edge">
<title>V0&#45;&gt;V80A0</title>
<path fill="none" stroke="black" d="M152.96,-474.78C151.84,-466.45 150.58,-457.09 149.38,-448.18"/>
<polygon fill="black" stroke="black" points="152.82,-447.48 148.01,-438.03 145.88,-448.41 152.82,-447.48"/>
</g>
<!-- V80S1 -->
<g id="node4" class="node">
<title>V80S1</title>
<polygon fill="#00ff00" fill-opacity="0.250980" stroke="black" points="358.5,-438 194.5,-438 194.5,-384 358.5,-384 358.5,-438"/>
<text text-anchor="middle" x="276.5" y="-407.3" font-family="Times,serif" font-size="14.00">NETZ_SRC_TBL_NM</text>
</g>
<!-- V0&#45;&gt;V80S1 -->
<g id="edge3" class="edge">
<title>V0&#45;&gt;V80S1</title>
<path fill="none" stroke="black" d="M191.85,-474.78C204.79,-465.18 219.58,-454.21 233.14,-444.16"/>
<polygon fill="black" stroke="black" points="235.45,-446.8 241.4,-438.03 231.28,-441.18 235.45,-446.8"/>
</g>
<!-- V81S1P3 -->
<g id="node5" class="node">
<title>V81S1P3</title>
<polygon fill="#00ff00" fill-opacity="0.250980" stroke="black" points="367.5,-337 185.5,-337 185.5,-283 367.5,-283 367.5,-337"/>
<text text-anchor="middle" x="276.5" y="-306.3" font-family="Times,serif" font-size="14.00">Transformer_52_x_Part</text>
</g>
<!-- V80S1&#45;&gt;V81S1P3 -->
<g id="edge4" class="edge">
<title>V80S1&#45;&gt;V81S1P3</title>
<path fill="none" stroke="black" d="M276.5,-383.99C276.5,-372.82 276.5,-359.58 276.5,-347.46"/>
<polygon fill="black" stroke="black" points="280,-347.18 276.5,-337.18 273,-347.18 280,-347.18"/>
<text text-anchor="middle" x="280" y="-358" font-family="Times,serif" font-size="10.00">x</text>
</g>
<!-- V81S1 -->
<g id="node8" class="node">
<title>V81S1</title>
<polygon fill="#00ff00" fill-opacity="0.250980" stroke="black" points="342,-246 211,-246 211,-192 342,-192 342,-246"/>
<text text-anchor="middle" x="276.5" y="-215.3" font-family="Times,serif" font-size="14.00">Transformer_52</text>
</g>
<!-- V81S1P3&#45;&gt;V81S1 -->
<g id="edge7" class="edge">
<title>V81S1P3&#45;&gt;V81S1</title>
<path fill="none" stroke="black" d="M276.5,-282.78C276.5,-274.45 276.5,-265.09 276.5,-256.18"/>
<polygon fill="black" stroke="black" points="280,-256.03 276.5,-246.03 273,-256.03 280,-256.03"/>
</g>
<!-- V81S0 -->
<g id="node6" class="node">
<title>V81S0</title>
<polygon fill="#00ff00" fill-opacity="0.250980" stroke="black" points="333,-54 220,-54 220,0 333,0 333,-54"/>
<text text-anchor="middle" x="276.5" y="-23.3" font-family="Times,serif" font-size="14.00">TGT_CUSVAA</text>
</g>
<!-- V81S0P1 -->
<g id="node7" class="node">
<title>V81S0P1</title>
<polygon fill="#00ff00" fill-opacity="0.250980" stroke="black" points="412.5,-145 140.5,-145 140.5,-91 412.5,-91 412.5,-145"/>
<text text-anchor="middle" x="276.5" y="-114.3" font-family="Times,serif" font-size="14.00">TGT_CUSVAA_Lnk_Cusvaa_Tgt_Part</text>
</g>
<!-- V81S0P1&#45;&gt;V81S0 -->
<g id="edge5" class="edge">
<title>V81S0P1&#45;&gt;V81S0</title>
<path fill="none" stroke="black" d="M276.5,-90.78C276.5,-82.45 276.5,-73.09 276.5,-64.18"/>
<polygon fill="black" stroke="black" points="280,-64.03 276.5,-54.03 273,-64.03 280,-64.03"/>
</g>
<!-- V81S1&#45;&gt;V81S0P1 -->
<g id="edge6" class="edge">
<title>V81S1&#45;&gt;V81S0P1</title>
<path fill="none" stroke="black" d="M276.5,-191.99C276.5,-180.82 276.5,-167.58 276.5,-155.46"/>
<polygon fill="black" stroke="black" points="280,-155.18 276.5,-145.18 273,-155.18 280,-155.18"/>
<text text-anchor="middle" x="319" y="-166" font-family="Times,serif" font-size="10.00">Lnk_Cusvaa_Tgt</text>
</g>
</g>
</svg>
