<?xml version="1.0" encoding="UTF-8" standalone="no"?>
<!DOCTYPE svg PUBLIC "-//W3C//DTD SVG 1.1//EN"
 "http://www.w3.org/Graphics/SVG/1.1/DTD/svg11.dtd">
<!-- Generated by graphviz version 2.43.0 (0)
 -->
<!-- Pages: 1 -->
<svg width="367pt" height="782pt"
 viewBox="0.00 0.00 366.50 782.00" xmlns="http://www.w3.org/2000/svg" xmlns:xlink="http://www.w3.org/1999/xlink">
<g id="graph0" class="graph" transform="scale(1 1) rotate(0) translate(4 778)">
<polygon fill="white" stroke="transparent" points="-4,4 -4,-778 362.5,-778 362.5,4 -4,4"/>
<!-- ROOT -->
<g id="node1" class="node">
<title>ROOT</title>
<polygon fill="#0000ff" fill-opacity="0.250980" stroke="black" points="313,-774 0,-774 0,-720 313,-720 313,-774"/>
<text text-anchor="middle" x="156.5" y="-743.3" font-family="Times,serif" font-size="14.00">job_DBdirect_Mis006_CUSVAA_Extr_POC</text>
</g>
<!-- V0 -->
<g id="node2" class="node">
<title>V0</title>
<polygon fill="#0000ff" fill-opacity="0.250980" stroke="black" points="199.5,-684 113.5,-684 113.5,-630 199.5,-630 199.5,-684"/>
<text text-anchor="middle" x="156.5" y="-653.3" font-family="Times,serif" font-size="14.00">Job_VIEW</text>
</g>
<!-- ROOT&#45;&gt;V0 -->
<g id="edge1" class="edge">
<title>ROOT&#45;&gt;V0</title>
<path fill="none" stroke="black" d="M156.5,-719.6C156.5,-711.61 156.5,-702.69 156.5,-694.18"/>
<polygon fill="black" stroke="black" points="160,-694.08 156.5,-684.08 153,-694.08 160,-694.08"/>
</g>
<!-- V80A0 -->
<g id="node3" class="node">
<title>V80A0</title>
<polygon fill="#0000ff" fill-opacity="0.250980" stroke="black" points="122,-594 59,-594 59,-540 122,-540 122,-594"/>
<text text-anchor="middle" x="90.5" y="-563.3" font-family="Times,serif" font-size="14.00">V80A0</text>
</g>
<!-- V0&#45;&gt;V80A0 -->
<g id="edge2" class="edge">
<title>V0&#45;&gt;V80A0</title>
<path fill="none" stroke="black" d="M136.7,-629.6C130.24,-620.99 122.98,-611.31 116.16,-602.22"/>
<polygon fill="black" stroke="black" points="118.86,-599.98 110.06,-594.08 113.26,-604.18 118.86,-599.98"/>
</g>
<!-- V80S1 -->
<g id="node4" class="node">
<title>V80S1</title>
<polygon fill="#0000ff" fill-opacity="0.250980" stroke="black" points="304.5,-594 140.5,-594 140.5,-540 304.5,-540 304.5,-594"/>
<text text-anchor="middle" x="222.5" y="-563.3" font-family="Times,serif" font-size="14.00">NETZ_SRC_TBL_NM</text>
</g>
<!-- V0&#45;&gt;V80S1 -->
<g id="edge3" class="edge">
<title>V0&#45;&gt;V80S1</title>
<path fill="none" stroke="black" d="M176.3,-629.6C182.76,-620.99 190.02,-611.31 196.84,-602.22"/>
<polygon fill="black" stroke="black" points="199.74,-604.18 202.94,-594.08 194.14,-599.98 199.74,-604.18"/>
</g>
<!-- V80S1P1 -->
<g id="node5" class="node">
<title>V80S1P1</title>
<polygon fill="#0000ff" fill-opacity="0.250980" stroke="black" points="312,-504 133,-504 133,-450 312,-450 312,-504"/>
<text text-anchor="middle" x="222.5" y="-473.3" font-family="Times,serif" font-size="14.00">NETZ_SRC_TBL_NM_x</text>
</g>
<!-- V80S1&#45;&gt;V80S1P1 -->
<g id="edge4" class="edge">
<title>V80S1&#45;&gt;V80S1P1</title>
<path fill="none" stroke="black" d="M222.5,-539.6C222.5,-531.61 222.5,-522.69 222.5,-514.18"/>
<polygon fill="black" stroke="black" points="226,-514.08 222.5,-504.08 219,-514.08 226,-514.08"/>
</g>
<!-- V81S1P3 -->
<g id="node6" class="node">
<title>V81S1P3</title>
<polygon fill="#0000ff" fill-opacity="0.250980" stroke="black" points="313.5,-414 131.5,-414 131.5,-360 313.5,-360 313.5,-414"/>
<text text-anchor="middle" x="222.5" y="-383.3" font-family="Times,serif" font-size="14.00">Transformer_52_x_Part</text>
</g>
<!-- V80S1P1&#45;&gt;V81S1P3 -->
<g id="edge5" class="edge">
<title>V80S1P1&#45;&gt;V81S1P3</title>
<path fill="none" stroke="black" d="M222.5,-449.6C222.5,-441.61 222.5,-432.69 222.5,-424.18"/>
<polygon fill="black" stroke="black" points="226,-424.08 222.5,-414.08 219,-424.08 226,-424.08"/>
</g>
<!-- V81S1 -->
<g id="node9" class="node">
<title>V81S1</title>
<polygon fill="#0000ff" fill-opacity="0.250980" stroke="black" points="288,-324 157,-324 157,-270 288,-270 288,-324"/>
<text text-anchor="middle" x="222.5" y="-293.3" font-family="Times,serif" font-size="14.00">Transformer_52</text>
</g>
<!-- V81S1P3&#45;&gt;V81S1 -->
<g id="edge9" class="edge">
<title>V81S1P3&#45;&gt;V81S1</title>
<path fill="none" stroke="black" d="M222.5,-359.6C222.5,-351.61 222.5,-342.69 222.5,-334.18"/>
<polygon fill="black" stroke="black" points="226,-334.08 222.5,-324.08 219,-334.08 226,-334.08"/>
</g>
<!-- V81S0 -->
<g id="node7" class="node">
<title>V81S0</title>
<polygon fill="#0000ff" fill-opacity="0.250980" stroke="black" points="279,-54 166,-54 166,0 279,0 279,-54"/>
<text text-anchor="middle" x="222.5" y="-23.3" font-family="Times,serif" font-size="14.00">TGT_CUSVAA</text>
</g>
<!-- V81S0P1 -->
<g id="node8" class="node">
<title>V81S0P1</title>
<polygon fill="#0000ff" fill-opacity="0.250980" stroke="black" points="358.5,-144 86.5,-144 86.5,-90 358.5,-90 358.5,-144"/>
<text text-anchor="middle" x="222.5" y="-113.3" font-family="Times,serif" font-size="14.00">TGT_CUSVAA_Lnk_Cusvaa_Tgt_Part</text>
</g>
<!-- V81S0P1&#45;&gt;V81S0 -->
<g id="edge6" class="edge">
<title>V81S0P1&#45;&gt;V81S0</title>
<path fill="none" stroke="black" d="M222.5,-89.6C222.5,-81.61 222.5,-72.69 222.5,-64.18"/>
<polygon fill="black" stroke="black" points="226,-64.08 222.5,-54.08 219,-64.08 226,-64.08"/>
</g>
<!-- V81S1P1 -->
<g id="node10" class="node">
<title>V81S1P1</title>
<polygon fill="#0000ff" fill-opacity="0.250980" stroke="black" points="349,-234 96,-234 96,-180 349,-180 349,-234"/>
<text text-anchor="middle" x="222.5" y="-203.3" font-family="Times,serif" font-size="14.00">Transformer_52_Lnk_Cusvaa_Tgt</text>
</g>
<!-- V81S1&#45;&gt;V81S1P1 -->
<g id="edge7" class="edge">
<title>V81S1&#45;&gt;V81S1P1</title>
<path fill="none" stroke="black" d="M222.5,-269.6C222.5,-261.61 222.5,-252.69 222.5,-244.18"/>
<polygon fill="black" stroke="black" points="226,-244.08 222.5,-234.08 219,-244.08 226,-244.08"/>
</g>
<!-- V81S1P1&#45;&gt;V81S0P1 -->
<g id="edge8" class="edge">
<title>V81S1P1&#45;&gt;V81S0P1</title>
<path fill="none" stroke="black" d="M222.5,-179.6C222.5,-171.61 222.5,-162.69 222.5,-154.18"/>
<polygon fill="black" stroke="black" points="226,-154.08 222.5,-144.08 219,-154.08 226,-154.08"/>
</g>
</g>
</svg>
