<?xml version="1.0" encoding="UTF-8" standalone="no"?>
<!DOCTYPE svg PUBLIC "-//W3C//DTD SVG 1.1//EN"
 "http://www.w3.org/Graphics/SVG/1.1/DTD/svg11.dtd">
<!-- Generated by graphviz version 2.43.0 (0)
 -->
<!-- Pages: 1 -->
<svg width="738pt" height="1972pt"
 viewBox="0.00 0.00 738.00 1972.00" xmlns="http://www.w3.org/2000/svg" xmlns:xlink="http://www.w3.org/1999/xlink">
<g id="graph0" class="graph" transform="scale(1 1) rotate(0) translate(4 1968)">
<polygon fill="white" stroke="transparent" points="-4,4 -4,-1968 734,-1968 734,4 -4,4"/>
<!-- ROOT -->
<g id="node1" class="node">
<title>ROOT</title>
<polygon fill="#0000ff" fill-opacity="0.250980" stroke="black" points="362.5,-1964 78.5,-1964 78.5,-1910 362.5,-1910 362.5,-1964"/>
<text text-anchor="middle" x="220.5" y="-1933.3" font-family="Times,serif" font-size="14.00">Sub_Seq_DbDirect_MIS006_Seq_POC</text>
</g>
<!-- V0 -->
<g id="node2" class="node">
<title>V0</title>
<polygon fill="#0000ff" fill-opacity="0.250980" stroke="black" points="263.5,-1873 177.5,-1873 177.5,-1819 263.5,-1819 263.5,-1873"/>
<text text-anchor="middle" x="220.5" y="-1842.3" font-family="Times,serif" font-size="14.00">Job_VIEW</text>
</g>
<!-- ROOT&#45;&gt;V0 -->
<g id="edge1" class="edge">
<title>ROOT&#45;&gt;V0</title>
<path fill="none" stroke="black" d="M220.5,-1909.78C220.5,-1901.45 220.5,-1892.09 220.5,-1883.18"/>
<polygon fill="black" stroke="black" points="224,-1883.03 220.5,-1873.03 217,-1883.03 224,-1883.03"/>
</g>
<!-- V0A24 -->
<g id="node3" class="node">
<title>V0A24</title>
<polygon fill="#0000ff" fill-opacity="0.250980" stroke="black" points="63,-1782 0,-1782 0,-1728 63,-1728 63,-1782"/>
<text text-anchor="middle" x="31.5" y="-1751.3" font-family="Times,serif" font-size="14.00">V0A24</text>
</g>
<!-- V0&#45;&gt;V0A24 -->
<g id="edge2" class="edge">
<title>V0&#45;&gt;V0A24</title>
<path fill="none" stroke="black" d="M177.22,-1828.74C147.25,-1816.95 106.74,-1799.99 72.5,-1782 72.41,-1781.95 72.31,-1781.9 72.22,-1781.85"/>
<polygon fill="black" stroke="black" points="73.87,-1778.77 63.44,-1776.94 70.46,-1784.88 73.87,-1778.77"/>
</g>
<!-- V0S0 -->
<g id="node4" class="node">
<title>V0S0</title>
<polygon fill="#0000ff" fill-opacity="0.250980" stroke="black" points="359.5,-1782 81.5,-1782 81.5,-1728 359.5,-1728 359.5,-1782"/>
<text text-anchor="middle" x="220.5" y="-1751.3" font-family="Times,serif" font-size="14.00">job_DBdirect_Mis006_BLDVNN_Extr</text>
</g>
<!-- V0&#45;&gt;V0S0 -->
<g id="edge3" class="edge">
<title>V0&#45;&gt;V0S0</title>
<path fill="none" stroke="black" d="M220.5,-1818.78C220.5,-1810.45 220.5,-1801.09 220.5,-1792.18"/>
<polygon fill="black" stroke="black" points="224,-1792.03 220.5,-1782.03 217,-1792.03 224,-1792.03"/>
</g>
<!-- V0S2 -->
<g id="node5" class="node">
<title>V0S2</title>
<polygon fill="#0000ff" fill-opacity="0.250980" stroke="black" points="661,-1782 378,-1782 378,-1728 661,-1728 661,-1782"/>
<text text-anchor="middle" x="519.5" y="-1751.3" font-family="Times,serif" font-size="14.00">job_DBdirect_Mis006_BLDVWW_Extr</text>
</g>
<!-- V0&#45;&gt;V0S2 -->
<g id="edge4" class="edge">
<title>V0&#45;&gt;V0S2</title>
<path fill="none" stroke="black" d="M263.66,-1832.15C304.92,-1819.87 368.58,-1800.92 422.08,-1785"/>
<polygon fill="black" stroke="black" points="423.35,-1788.27 431.94,-1782.06 421.36,-1781.56 423.35,-1788.27"/>
</g>
<!-- V0S3P2 -->
<g id="node12" class="node">
<title>V0S3P2</title>
<polygon fill="#0000ff" fill-opacity="0.250980" stroke="black" points="703,-1681 336,-1681 336,-1627 703,-1627 703,-1681"/>
<text text-anchor="middle" x="519.5" y="-1650.3" font-family="Times,serif" font-size="14.00">job_DBdirect_MIS006_BOIS_Extr_DSLink15_Part</text>
</g>
<!-- V0S2&#45;&gt;V0S3P2 -->
<g id="edge9" class="edge">
<title>V0S2&#45;&gt;V0S3P2</title>
<path fill="none" stroke="black" d="M519.5,-1727.99C519.5,-1716.82 519.5,-1703.58 519.5,-1691.46"/>
<polygon fill="black" stroke="black" points="523,-1691.18 519.5,-1681.18 516,-1691.18 523,-1691.18"/>
<text text-anchor="middle" x="544.5" y="-1702" font-family="Times,serif" font-size="10.00">DSLink15</text>
</g>
<!-- V0S1 -->
<g id="node6" class="node">
<title>V0S1</title>
<polygon fill="#0000ff" fill-opacity="0.250980" stroke="black" points="673.5,-1206 365.5,-1206 365.5,-1152 673.5,-1152 673.5,-1206"/>
<text text-anchor="middle" x="519.5" y="-1175.3" font-family="Times,serif" font-size="14.00">job_DBdirect_Mis006_BLDVTT_ALL_Extr</text>
</g>
<!-- V0S4P1 -->
<g id="node7" class="node">
<title>V0S4P1</title>
<polygon fill="#0000ff" fill-opacity="0.250980" stroke="black" points="708,-1105 331,-1105 331,-1051 708,-1051 708,-1105"/>
<text text-anchor="middle" x="519.5" y="-1074.3" font-family="Times,serif" font-size="14.00">job_DBdirect_MIS006_BORM_Extr_DSLink11_Part</text>
</g>
<!-- V0S1&#45;&gt;V0S4P1 -->
<g id="edge5" class="edge">
<title>V0S1&#45;&gt;V0S4P1</title>
<path fill="none" stroke="black" d="M519.5,-1151.99C519.5,-1140.82 519.5,-1127.58 519.5,-1115.46"/>
<polygon fill="black" stroke="black" points="523,-1115.18 519.5,-1105.18 516,-1115.18 523,-1115.18"/>
<text text-anchor="middle" x="544.5" y="-1126" font-family="Times,serif" font-size="10.00">DSLink11</text>
</g>
<!-- V0S4 -->
<g id="node16" class="node">
<title>V0S4</title>
<polygon fill="#0000ff" fill-opacity="0.250980" stroke="black" points="651,-1014 388,-1014 388,-960 651,-960 651,-1014"/>
<text text-anchor="middle" x="519.5" y="-983.3" font-family="Times,serif" font-size="14.00">job_DBdirect_MIS006_BORM_Extr</text>
</g>
<!-- V0S4P1&#45;&gt;V0S4 -->
<g id="edge14" class="edge">
<title>V0S4P1&#45;&gt;V0S4</title>
<path fill="none" stroke="black" d="M519.5,-1050.78C519.5,-1042.45 519.5,-1033.09 519.5,-1024.18"/>
<polygon fill="black" stroke="black" points="523,-1024.03 519.5,-1014.03 516,-1024.03 523,-1024.03"/>
</g>
<!-- V0S10 -->
<g id="node8" class="node">
<title>V0S10</title>
<polygon fill="#0000ff" fill-opacity="0.250980" stroke="black" points="649.5,-246 389.5,-246 389.5,-192 649.5,-192 649.5,-246"/>
<text text-anchor="middle" x="519.5" y="-215.3" font-family="Times,serif" font-size="14.00">job_DBdirect_Mis006_RRMD_Extr</text>
</g>
<!-- V0S20P1 -->
<g id="node9" class="node">
<title>V0S20P1</title>
<polygon fill="#0000ff" fill-opacity="0.250980" stroke="black" points="705,-145 334,-145 334,-91 705,-91 705,-145"/>
<text text-anchor="middle" x="519.5" y="-114.3" font-family="Times,serif" font-size="14.00">job_DBdirect_Mis006_BDEH_Extr_DSLink22_Part</text>
</g>
<!-- V0S10&#45;&gt;V0S20P1 -->
<g id="edge6" class="edge">
<title>V0S10&#45;&gt;V0S20P1</title>
<path fill="none" stroke="black" d="M519.5,-191.99C519.5,-180.82 519.5,-167.58 519.5,-155.46"/>
<polygon fill="black" stroke="black" points="523,-155.18 519.5,-145.18 516,-155.18 523,-155.18"/>
<text text-anchor="middle" x="544.5" y="-166" font-family="Times,serif" font-size="10.00">DSLink22</text>
</g>
<!-- V0S20 -->
<g id="node13" class="node">
<title>V0S20</title>
<polygon fill="#0000ff" fill-opacity="0.250980" stroke="black" points="648.5,-54 390.5,-54 390.5,0 648.5,0 648.5,-54"/>
<text text-anchor="middle" x="519.5" y="-23.3" font-family="Times,serif" font-size="14.00">job_DBdirect_Mis006_BDEH_Extr</text>
</g>
<!-- V0S20P1&#45;&gt;V0S20 -->
<g id="edge10" class="edge">
<title>V0S20P1&#45;&gt;V0S20</title>
<path fill="none" stroke="black" d="M519.5,-90.78C519.5,-82.45 519.5,-73.09 519.5,-64.18"/>
<polygon fill="black" stroke="black" points="523,-64.03 519.5,-54.03 516,-64.03 523,-64.03"/>
</g>
<!-- V0S10P1 -->
<g id="node10" class="node">
<title>V0S10P1</title>
<polygon fill="#0000ff" fill-opacity="0.250980" stroke="black" points="706.5,-337 332.5,-337 332.5,-283 706.5,-283 706.5,-337"/>
<text text-anchor="middle" x="519.5" y="-306.3" font-family="Times,serif" font-size="14.00">job_DBdirect_Mis006_RRMD_Extr_DSLink18_Part</text>
</g>
<!-- V0S10P1&#45;&gt;V0S10 -->
<g id="edge7" class="edge">
<title>V0S10P1&#45;&gt;V0S10</title>
<path fill="none" stroke="black" d="M519.5,-282.78C519.5,-274.45 519.5,-265.09 519.5,-256.18"/>
<polygon fill="black" stroke="black" points="523,-256.03 519.5,-246.03 516,-256.03 523,-256.03"/>
</g>
<!-- V0S1P2 -->
<g id="node11" class="node">
<title>V0S1P2</title>
<polygon fill="#0000ff" fill-opacity="0.250980" stroke="black" points="730,-1297 309,-1297 309,-1243 730,-1243 730,-1297"/>
<text text-anchor="middle" x="519.5" y="-1266.3" font-family="Times,serif" font-size="14.00">job_DBdirect_Mis006_BLDVTT_ALL_Extr_DSLink14_Part</text>
</g>
<!-- V0S1P2&#45;&gt;V0S1 -->
<g id="edge8" class="edge">
<title>V0S1P2&#45;&gt;V0S1</title>
<path fill="none" stroke="black" d="M519.5,-1242.78C519.5,-1234.45 519.5,-1225.09 519.5,-1216.18"/>
<polygon fill="black" stroke="black" points="523,-1216.03 519.5,-1206.03 516,-1216.03 523,-1216.03"/>
</g>
<!-- V0S3 -->
<g id="node14" class="node">
<title>V0S3</title>
<polygon fill="#0000ff" fill-opacity="0.250980" stroke="black" points="646.5,-1590 392.5,-1590 392.5,-1536 646.5,-1536 646.5,-1590"/>
<text text-anchor="middle" x="519.5" y="-1559.3" font-family="Times,serif" font-size="14.00">job_DBdirect_MIS006_BOIS_Extr</text>
</g>
<!-- V0S3P2&#45;&gt;V0S3 -->
<g id="edge12" class="edge">
<title>V0S3P2&#45;&gt;V0S3</title>
<path fill="none" stroke="black" d="M519.5,-1626.78C519.5,-1618.45 519.5,-1609.09 519.5,-1600.18"/>
<polygon fill="black" stroke="black" points="523,-1600.03 519.5,-1590.03 516,-1600.03 523,-1600.03"/>
</g>
<!-- V0S8P1 -->
<g id="node15" class="node">
<title>V0S8P1</title>
<polygon fill="#0000ff" fill-opacity="0.250980" stroke="black" points="724,-1489 315,-1489 315,-1435 724,-1435 724,-1489"/>
<text text-anchor="middle" x="519.5" y="-1458.3" font-family="Times,serif" font-size="14.00">job_DBdirect_Mis006_PITA_LONP_Extr_DSLink13_Part</text>
</g>
<!-- V0S3&#45;&gt;V0S8P1 -->
<g id="edge11" class="edge">
<title>V0S3&#45;&gt;V0S8P1</title>
<path fill="none" stroke="black" d="M519.5,-1535.99C519.5,-1524.82 519.5,-1511.58 519.5,-1499.46"/>
<polygon fill="black" stroke="black" points="523,-1499.18 519.5,-1489.18 516,-1499.18 523,-1499.18"/>
<text text-anchor="middle" x="544.5" y="-1510" font-family="Times,serif" font-size="10.00">DSLink13</text>
</g>
<!-- V0S8 -->
<g id="node22" class="node">
<title>V0S8</title>
<polygon fill="#0000ff" fill-opacity="0.250980" stroke="black" points="667.5,-1398 371.5,-1398 371.5,-1344 667.5,-1344 667.5,-1398"/>
<text text-anchor="middle" x="519.5" y="-1367.3" font-family="Times,serif" font-size="14.00">job_DBdirect_Mis006_PITA_LONP_Extr</text>
</g>
<!-- V0S8P1&#45;&gt;V0S8 -->
<g id="edge20" class="edge">
<title>V0S8P1&#45;&gt;V0S8</title>
<path fill="none" stroke="black" d="M519.5,-1434.78C519.5,-1426.45 519.5,-1417.09 519.5,-1408.18"/>
<polygon fill="black" stroke="black" points="523,-1408.03 519.5,-1398.03 516,-1408.03 523,-1408.03"/>
</g>
<!-- V0S9P1 -->
<g id="node17" class="node">
<title>V0S9P1</title>
<polygon fill="#0000ff" fill-opacity="0.250980" stroke="black" points="706.5,-913 332.5,-913 332.5,-859 706.5,-859 706.5,-913"/>
<text text-anchor="middle" x="519.5" y="-882.3" font-family="Times,serif" font-size="14.00">job_DBdirect_MIS006_RELM_Extr_DSLink12_Part</text>
</g>
<!-- V0S4&#45;&gt;V0S9P1 -->
<g id="edge13" class="edge">
<title>V0S4&#45;&gt;V0S9P1</title>
<path fill="none" stroke="black" d="M519.5,-959.99C519.5,-948.82 519.5,-935.58 519.5,-923.46"/>
<polygon fill="black" stroke="black" points="523,-923.18 519.5,-913.18 516,-923.18 523,-923.18"/>
<text text-anchor="middle" x="544.5" y="-934" font-family="Times,serif" font-size="10.00">DSLink12</text>
</g>
<!-- V0S9 -->
<g id="node23" class="node">
<title>V0S9</title>
<polygon fill="#0000ff" fill-opacity="0.250980" stroke="black" points="650,-822 389,-822 389,-768 650,-768 650,-822"/>
<text text-anchor="middle" x="519.5" y="-791.3" font-family="Times,serif" font-size="14.00">job_DBdirect_MIS006_RELM_Extr</text>
</g>
<!-- V0S9P1&#45;&gt;V0S9 -->
<g id="edge22" class="edge">
<title>V0S9P1&#45;&gt;V0S9</title>
<path fill="none" stroke="black" d="M519.5,-858.78C519.5,-850.45 519.5,-841.09 519.5,-832.18"/>
<polygon fill="black" stroke="black" points="523,-832.03 519.5,-822.03 516,-832.03 523,-832.03"/>
</g>
<!-- V0S5 -->
<g id="node18" class="node">
<title>V0S5</title>
<polygon fill="#0000ff" fill-opacity="0.250980" stroke="black" points="651,-438 388,-438 388,-384 651,-384 651,-438"/>
<text text-anchor="middle" x="519.5" y="-407.3" font-family="Times,serif" font-size="14.00">job_DBdirect_MIS006_CHPM_Extr</text>
</g>
<!-- V0S5&#45;&gt;V0S10P1 -->
<g id="edge15" class="edge">
<title>V0S5&#45;&gt;V0S10P1</title>
<path fill="none" stroke="black" d="M519.5,-383.99C519.5,-372.82 519.5,-359.58 519.5,-347.46"/>
<polygon fill="black" stroke="black" points="523,-347.18 519.5,-337.18 516,-347.18 523,-347.18"/>
<text text-anchor="middle" x="544.5" y="-358" font-family="Times,serif" font-size="10.00">DSLink18</text>
</g>
<!-- V0S5P1 -->
<g id="node19" class="node">
<title>V0S5P1</title>
<polygon fill="#0000ff" fill-opacity="0.250980" stroke="black" points="708,-529 331,-529 331,-475 708,-475 708,-529"/>
<text text-anchor="middle" x="519.5" y="-498.3" font-family="Times,serif" font-size="14.00">job_DBdirect_MIS006_CHPM_Extr_DSLink17_Part</text>
</g>
<!-- V0S5P1&#45;&gt;V0S5 -->
<g id="edge16" class="edge">
<title>V0S5P1&#45;&gt;V0S5</title>
<path fill="none" stroke="black" d="M519.5,-474.78C519.5,-466.45 519.5,-457.09 519.5,-448.18"/>
<polygon fill="black" stroke="black" points="523,-448.03 519.5,-438.03 516,-448.03 523,-448.03"/>
</g>
<!-- V0S6 -->
<g id="node20" class="node">
<title>V0S6</title>
<polygon fill="#0000ff" fill-opacity="0.250980" stroke="black" points="657,-630 382,-630 382,-576 657,-576 657,-630"/>
<text text-anchor="middle" x="519.5" y="-599.3" font-family="Times,serif" font-size="14.00">job_DBdirect_Mis006_CUSVAA_Extr</text>
</g>
<!-- V0S6&#45;&gt;V0S5P1 -->
<g id="edge17" class="edge">
<title>V0S6&#45;&gt;V0S5P1</title>
<path fill="none" stroke="black" d="M519.5,-575.99C519.5,-564.82 519.5,-551.58 519.5,-539.46"/>
<polygon fill="black" stroke="black" points="523,-539.18 519.5,-529.18 516,-539.18 523,-539.18"/>
<text text-anchor="middle" x="544.5" y="-550" font-family="Times,serif" font-size="10.00">DSLink17</text>
</g>
<!-- V0S6P1 -->
<g id="node21" class="node">
<title>V0S6P1</title>
<polygon fill="#0000ff" fill-opacity="0.250980" stroke="black" points="713.5,-721 325.5,-721 325.5,-667 713.5,-667 713.5,-721"/>
<text text-anchor="middle" x="519.5" y="-690.3" font-family="Times,serif" font-size="14.00">job_DBdirect_Mis006_CUSVAA_Extr_DSLink16_Part</text>
</g>
<!-- V0S6P1&#45;&gt;V0S6 -->
<g id="edge18" class="edge">
<title>V0S6P1&#45;&gt;V0S6</title>
<path fill="none" stroke="black" d="M519.5,-666.78C519.5,-658.45 519.5,-649.09 519.5,-640.18"/>
<polygon fill="black" stroke="black" points="523,-640.03 519.5,-630.03 516,-640.03 523,-640.03"/>
</g>
<!-- V0S8&#45;&gt;V0S1P2 -->
<g id="edge19" class="edge">
<title>V0S8&#45;&gt;V0S1P2</title>
<path fill="none" stroke="black" d="M519.5,-1343.99C519.5,-1332.82 519.5,-1319.58 519.5,-1307.46"/>
<polygon fill="black" stroke="black" points="523,-1307.18 519.5,-1297.18 516,-1307.18 523,-1307.18"/>
<text text-anchor="middle" x="544.5" y="-1318" font-family="Times,serif" font-size="10.00">DSLink14</text>
</g>
<!-- V0S9&#45;&gt;V0S6P1 -->
<g id="edge21" class="edge">
<title>V0S9&#45;&gt;V0S6P1</title>
<path fill="none" stroke="black" d="M519.5,-767.99C519.5,-756.82 519.5,-743.58 519.5,-731.46"/>
<polygon fill="black" stroke="black" points="523,-731.18 519.5,-721.18 516,-731.18 523,-731.18"/>
<text text-anchor="middle" x="544.5" y="-742" font-family="Times,serif" font-size="10.00">DSLink16</text>
</g>
</g>
</svg>
