<?xml version="1.0" encoding="UTF-8" standalone="no"?>
<!DOCTYPE svg PUBLIC "-//W3C//DTD SVG 1.1//EN"
 "http://www.w3.org/Graphics/SVG/1.1/DTD/svg11.dtd">
<!-- Generated by graphviz version 2.43.0 (0)
 -->
<!-- Pages: 1 -->
<svg width="738pt" height="2672pt"
 viewBox="0.00 0.00 738.00 2672.00" xmlns="http://www.w3.org/2000/svg" xmlns:xlink="http://www.w3.org/1999/xlink">
<g id="graph0" class="graph" transform="scale(1 1) rotate(0) translate(4 2668)">
<polygon fill="white" stroke="transparent" points="-4,4 -4,-2668 734,-2668 734,4 -4,4"/>
<!-- ROOT -->
<g id="node1" class="node">
<title>ROOT</title>
<polygon fill="#0000ff" fill-opacity="0.250980" stroke="black" points="362.5,-2664 78.5,-2664 78.5,-2610 362.5,-2610 362.5,-2664"/>
<text text-anchor="middle" x="220.5" y="-2633.3" font-family="Times,serif" font-size="14.00">Sub_Seq_DbDirect_MIS006_Seq_POC</text>
</g>
<!-- V0 -->
<g id="node2" class="node">
<title>V0</title>
<polygon fill="#0000ff" fill-opacity="0.250980" stroke="black" points="263.5,-2574 177.5,-2574 177.5,-2520 263.5,-2520 263.5,-2574"/>
<text text-anchor="middle" x="220.5" y="-2543.3" font-family="Times,serif" font-size="14.00">Job_VIEW</text>
</g>
<!-- ROOT&#45;&gt;V0 -->
<g id="edge1" class="edge">
<title>ROOT&#45;&gt;V0</title>
<path fill="none" stroke="black" d="M220.5,-2609.6C220.5,-2601.61 220.5,-2592.69 220.5,-2584.18"/>
<polygon fill="black" stroke="black" points="224,-2584.08 220.5,-2574.08 217,-2584.08 224,-2584.08"/>
</g>
<!-- V0A24 -->
<g id="node3" class="node">
<title>V0A24</title>
<polygon fill="#0000ff" fill-opacity="0.250980" stroke="black" points="63,-2484 0,-2484 0,-2430 63,-2430 63,-2484"/>
<text text-anchor="middle" x="31.5" y="-2453.3" font-family="Times,serif" font-size="14.00">V0A24</text>
</g>
<!-- V0&#45;&gt;V0A24 -->
<g id="edge2" class="edge">
<title>V0&#45;&gt;V0A24</title>
<path fill="none" stroke="black" d="M177.2,-2530.09C147.22,-2518.53 106.71,-2501.85 72.5,-2484 72.41,-2483.95 72.31,-2483.9 72.22,-2483.85"/>
<polygon fill="black" stroke="black" points="73.87,-2480.76 63.43,-2478.96 70.46,-2486.88 73.87,-2480.76"/>
</g>
<!-- V0S0 -->
<g id="node4" class="node">
<title>V0S0</title>
<polygon fill="#0000ff" fill-opacity="0.250980" stroke="black" points="359.5,-2484 81.5,-2484 81.5,-2430 359.5,-2430 359.5,-2484"/>
<text text-anchor="middle" x="220.5" y="-2453.3" font-family="Times,serif" font-size="14.00">job_DBdirect_Mis006_BLDVNN_Extr</text>
</g>
<!-- V0&#45;&gt;V0S0 -->
<g id="edge3" class="edge">
<title>V0&#45;&gt;V0S0</title>
<path fill="none" stroke="black" d="M220.5,-2519.6C220.5,-2511.61 220.5,-2502.69 220.5,-2494.18"/>
<polygon fill="black" stroke="black" points="224,-2494.08 220.5,-2484.08 217,-2494.08 224,-2494.08"/>
</g>
<!-- V0S2 -->
<g id="node5" class="node">
<title>V0S2</title>
<polygon fill="#0000ff" fill-opacity="0.250980" stroke="black" points="661,-2484 378,-2484 378,-2430 661,-2430 661,-2484"/>
<text text-anchor="middle" x="519.5" y="-2453.3" font-family="Times,serif" font-size="14.00">job_DBdirect_Mis006_BLDVWW_Extr</text>
</g>
<!-- V0&#45;&gt;V0S2 -->
<g id="edge4" class="edge">
<title>V0&#45;&gt;V0S2</title>
<path fill="none" stroke="black" d="M263.66,-2533.3C304.69,-2521.22 367.88,-2502.62 421.19,-2486.93"/>
<polygon fill="black" stroke="black" points="422.41,-2490.22 431.02,-2484.04 420.44,-2483.51 422.41,-2490.22"/>
</g>
<!-- V0S2P1 -->
<g id="node14" class="node">
<title>V0S2P1</title>
<polygon fill="#0000ff" fill-opacity="0.250980" stroke="black" points="699,-2394 340,-2394 340,-2340 699,-2340 699,-2394"/>
<text text-anchor="middle" x="519.5" y="-2363.3" font-family="Times,serif" font-size="14.00">job_DBdirect_Mis006_BLDVWW_Extr_DSLink15</text>
</g>
<!-- V0S2&#45;&gt;V0S2P1 -->
<g id="edge11" class="edge">
<title>V0S2&#45;&gt;V0S2P1</title>
<path fill="none" stroke="black" d="M519.5,-2429.6C519.5,-2421.61 519.5,-2412.69 519.5,-2404.18"/>
<polygon fill="black" stroke="black" points="523,-2404.08 519.5,-2394.08 516,-2404.08 523,-2404.08"/>
</g>
<!-- V0S1 -->
<g id="node6" class="node">
<title>V0S1</title>
<polygon fill="#0000ff" fill-opacity="0.250980" stroke="black" points="673.5,-1674 365.5,-1674 365.5,-1620 673.5,-1620 673.5,-1674"/>
<text text-anchor="middle" x="519.5" y="-1643.3" font-family="Times,serif" font-size="14.00">job_DBdirect_Mis006_BLDVTT_ALL_Extr</text>
</g>
<!-- V0S1P1 -->
<g id="node7" class="node">
<title>V0S1P1</title>
<polygon fill="#0000ff" fill-opacity="0.250980" stroke="black" points="711.5,-1584 327.5,-1584 327.5,-1530 711.5,-1530 711.5,-1584"/>
<text text-anchor="middle" x="519.5" y="-1553.3" font-family="Times,serif" font-size="14.00">job_DBdirect_Mis006_BLDVTT_ALL_Extr_DSLink11</text>
</g>
<!-- V0S1&#45;&gt;V0S1P1 -->
<g id="edge5" class="edge">
<title>V0S1&#45;&gt;V0S1P1</title>
<path fill="none" stroke="black" d="M519.5,-1619.6C519.5,-1611.61 519.5,-1602.69 519.5,-1594.18"/>
<polygon fill="black" stroke="black" points="523,-1594.08 519.5,-1584.08 516,-1594.08 523,-1594.08"/>
</g>
<!-- V0S4P1 -->
<g id="node12" class="node">
<title>V0S4P1</title>
<polygon fill="#0000ff" fill-opacity="0.250980" stroke="black" points="708,-1494 331,-1494 331,-1440 708,-1440 708,-1494"/>
<text text-anchor="middle" x="519.5" y="-1463.3" font-family="Times,serif" font-size="14.00">job_DBdirect_MIS006_BORM_Extr_DSLink11_Part</text>
</g>
<!-- V0S1P1&#45;&gt;V0S4P1 -->
<g id="edge9" class="edge">
<title>V0S1P1&#45;&gt;V0S4P1</title>
<path fill="none" stroke="black" d="M519.5,-1529.6C519.5,-1521.61 519.5,-1512.69 519.5,-1504.18"/>
<polygon fill="black" stroke="black" points="523,-1504.08 519.5,-1494.08 516,-1504.08 523,-1504.08"/>
</g>
<!-- V0S10 -->
<g id="node8" class="node">
<title>V0S10</title>
<polygon fill="#0000ff" fill-opacity="0.250980" stroke="black" points="649.5,-324 389.5,-324 389.5,-270 649.5,-270 649.5,-324"/>
<text text-anchor="middle" x="519.5" y="-293.3" font-family="Times,serif" font-size="14.00">job_DBdirect_Mis006_RRMD_Extr</text>
</g>
<!-- V0S10P3 -->
<g id="node9" class="node">
<title>V0S10P3</title>
<polygon fill="#0000ff" fill-opacity="0.250980" stroke="black" points="688,-234 351,-234 351,-180 688,-180 688,-234"/>
<text text-anchor="middle" x="519.5" y="-203.3" font-family="Times,serif" font-size="14.00">job_DBdirect_Mis006_RRMD_Extr_DSLink22</text>
</g>
<!-- V0S10&#45;&gt;V0S10P3 -->
<g id="edge6" class="edge">
<title>V0S10&#45;&gt;V0S10P3</title>
<path fill="none" stroke="black" d="M519.5,-269.6C519.5,-261.61 519.5,-252.69 519.5,-244.18"/>
<polygon fill="black" stroke="black" points="523,-244.08 519.5,-234.08 516,-244.08 523,-244.08"/>
</g>
<!-- V0S20P1 -->
<g id="node11" class="node">
<title>V0S20P1</title>
<polygon fill="#0000ff" fill-opacity="0.250980" stroke="black" points="705,-144 334,-144 334,-90 705,-90 705,-144"/>
<text text-anchor="middle" x="519.5" y="-113.3" font-family="Times,serif" font-size="14.00">job_DBdirect_Mis006_BDEH_Extr_DSLink22_Part</text>
</g>
<!-- V0S10P3&#45;&gt;V0S20P1 -->
<g id="edge8" class="edge">
<title>V0S10P3&#45;&gt;V0S20P1</title>
<path fill="none" stroke="black" d="M519.5,-179.6C519.5,-171.61 519.5,-162.69 519.5,-154.18"/>
<polygon fill="black" stroke="black" points="523,-154.08 519.5,-144.08 516,-154.08 523,-154.08"/>
</g>
<!-- V0S10P1 -->
<g id="node10" class="node">
<title>V0S10P1</title>
<polygon fill="#0000ff" fill-opacity="0.250980" stroke="black" points="706.5,-414 332.5,-414 332.5,-360 706.5,-360 706.5,-414"/>
<text text-anchor="middle" x="519.5" y="-383.3" font-family="Times,serif" font-size="14.00">job_DBdirect_Mis006_RRMD_Extr_DSLink18_Part</text>
</g>
<!-- V0S10P1&#45;&gt;V0S10 -->
<g id="edge7" class="edge">
<title>V0S10P1&#45;&gt;V0S10</title>
<path fill="none" stroke="black" d="M519.5,-359.6C519.5,-351.61 519.5,-342.69 519.5,-334.18"/>
<polygon fill="black" stroke="black" points="523,-334.08 519.5,-324.08 516,-334.08 523,-334.08"/>
</g>
<!-- V0S20 -->
<g id="node15" class="node">
<title>V0S20</title>
<polygon fill="#0000ff" fill-opacity="0.250980" stroke="black" points="648.5,-54 390.5,-54 390.5,0 648.5,0 648.5,-54"/>
<text text-anchor="middle" x="519.5" y="-23.3" font-family="Times,serif" font-size="14.00">job_DBdirect_Mis006_BDEH_Extr</text>
</g>
<!-- V0S20P1&#45;&gt;V0S20 -->
<g id="edge12" class="edge">
<title>V0S20P1&#45;&gt;V0S20</title>
<path fill="none" stroke="black" d="M519.5,-89.6C519.5,-81.61 519.5,-72.69 519.5,-64.18"/>
<polygon fill="black" stroke="black" points="523,-64.08 519.5,-54.08 516,-64.08 523,-64.08"/>
</g>
<!-- V0S4 -->
<g id="node20" class="node">
<title>V0S4</title>
<polygon fill="#0000ff" fill-opacity="0.250980" stroke="black" points="651,-1404 388,-1404 388,-1350 651,-1350 651,-1404"/>
<text text-anchor="middle" x="519.5" y="-1373.3" font-family="Times,serif" font-size="14.00">job_DBdirect_MIS006_BORM_Extr</text>
</g>
<!-- V0S4P1&#45;&gt;V0S4 -->
<g id="edge18" class="edge">
<title>V0S4P1&#45;&gt;V0S4</title>
<path fill="none" stroke="black" d="M519.5,-1439.6C519.5,-1431.61 519.5,-1422.69 519.5,-1414.18"/>
<polygon fill="black" stroke="black" points="523,-1414.08 519.5,-1404.08 516,-1414.08 523,-1414.08"/>
</g>
<!-- V0S1P2 -->
<g id="node13" class="node">
<title>V0S1P2</title>
<polygon fill="#0000ff" fill-opacity="0.250980" stroke="black" points="730,-1764 309,-1764 309,-1710 730,-1710 730,-1764"/>
<text text-anchor="middle" x="519.5" y="-1733.3" font-family="Times,serif" font-size="14.00">job_DBdirect_Mis006_BLDVTT_ALL_Extr_DSLink14_Part</text>
</g>
<!-- V0S1P2&#45;&gt;V0S1 -->
<g id="edge10" class="edge">
<title>V0S1P2&#45;&gt;V0S1</title>
<path fill="none" stroke="black" d="M519.5,-1709.6C519.5,-1701.61 519.5,-1692.69 519.5,-1684.18"/>
<polygon fill="black" stroke="black" points="523,-1684.08 519.5,-1674.08 516,-1684.08 523,-1684.08"/>
</g>
<!-- V0S3P2 -->
<g id="node16" class="node">
<title>V0S3P2</title>
<polygon fill="#0000ff" fill-opacity="0.250980" stroke="black" points="703,-2304 336,-2304 336,-2250 703,-2250 703,-2304"/>
<text text-anchor="middle" x="519.5" y="-2273.3" font-family="Times,serif" font-size="14.00">job_DBdirect_MIS006_BOIS_Extr_DSLink15_Part</text>
</g>
<!-- V0S2P1&#45;&gt;V0S3P2 -->
<g id="edge13" class="edge">
<title>V0S2P1&#45;&gt;V0S3P2</title>
<path fill="none" stroke="black" d="M519.5,-2339.6C519.5,-2331.61 519.5,-2322.69 519.5,-2314.18"/>
<polygon fill="black" stroke="black" points="523,-2314.08 519.5,-2304.08 516,-2314.08 523,-2314.08"/>
</g>
<!-- V0S3 -->
<g id="node17" class="node">
<title>V0S3</title>
<polygon fill="#0000ff" fill-opacity="0.250980" stroke="black" points="646.5,-2214 392.5,-2214 392.5,-2160 646.5,-2160 646.5,-2214"/>
<text text-anchor="middle" x="519.5" y="-2183.3" font-family="Times,serif" font-size="14.00">job_DBdirect_MIS006_BOIS_Extr</text>
</g>
<!-- V0S3P2&#45;&gt;V0S3 -->
<g id="edge16" class="edge">
<title>V0S3P2&#45;&gt;V0S3</title>
<path fill="none" stroke="black" d="M519.5,-2249.6C519.5,-2241.61 519.5,-2232.69 519.5,-2224.18"/>
<polygon fill="black" stroke="black" points="523,-2224.08 519.5,-2214.08 516,-2224.08 523,-2224.08"/>
</g>
<!-- V0S3P1 -->
<g id="node18" class="node">
<title>V0S3P1</title>
<polygon fill="#0000ff" fill-opacity="0.250980" stroke="black" points="684.5,-2124 354.5,-2124 354.5,-2070 684.5,-2070 684.5,-2124"/>
<text text-anchor="middle" x="519.5" y="-2093.3" font-family="Times,serif" font-size="14.00">job_DBdirect_MIS006_BOIS_Extr_DSLink13</text>
</g>
<!-- V0S3&#45;&gt;V0S3P1 -->
<g id="edge14" class="edge">
<title>V0S3&#45;&gt;V0S3P1</title>
<path fill="none" stroke="black" d="M519.5,-2159.6C519.5,-2151.61 519.5,-2142.69 519.5,-2134.18"/>
<polygon fill="black" stroke="black" points="523,-2134.08 519.5,-2124.08 516,-2134.08 523,-2134.08"/>
</g>
<!-- V0S8P1 -->
<g id="node19" class="node">
<title>V0S8P1</title>
<polygon fill="#0000ff" fill-opacity="0.250980" stroke="black" points="724,-2034 315,-2034 315,-1980 724,-1980 724,-2034"/>
<text text-anchor="middle" x="519.5" y="-2003.3" font-family="Times,serif" font-size="14.00">job_DBdirect_Mis006_PITA_LONP_Extr_DSLink13_Part</text>
</g>
<!-- V0S3P1&#45;&gt;V0S8P1 -->
<g id="edge15" class="edge">
<title>V0S3P1&#45;&gt;V0S8P1</title>
<path fill="none" stroke="black" d="M519.5,-2069.6C519.5,-2061.61 519.5,-2052.69 519.5,-2044.18"/>
<polygon fill="black" stroke="black" points="523,-2044.08 519.5,-2034.08 516,-2044.08 523,-2044.08"/>
</g>
<!-- V0S8 -->
<g id="node29" class="node">
<title>V0S8</title>
<polygon fill="#0000ff" fill-opacity="0.250980" stroke="black" points="667.5,-1944 371.5,-1944 371.5,-1890 667.5,-1890 667.5,-1944"/>
<text text-anchor="middle" x="519.5" y="-1913.3" font-family="Times,serif" font-size="14.00">job_DBdirect_Mis006_PITA_LONP_Extr</text>
</g>
<!-- V0S8P1&#45;&gt;V0S8 -->
<g id="edge27" class="edge">
<title>V0S8P1&#45;&gt;V0S8</title>
<path fill="none" stroke="black" d="M519.5,-1979.6C519.5,-1971.61 519.5,-1962.69 519.5,-1954.18"/>
<polygon fill="black" stroke="black" points="523,-1954.08 519.5,-1944.08 516,-1954.08 523,-1954.08"/>
</g>
<!-- V0S4P2 -->
<g id="node21" class="node">
<title>V0S4P2</title>
<polygon fill="#0000ff" fill-opacity="0.250980" stroke="black" points="689.5,-1314 349.5,-1314 349.5,-1260 689.5,-1260 689.5,-1314"/>
<text text-anchor="middle" x="519.5" y="-1283.3" font-family="Times,serif" font-size="14.00">job_DBdirect_MIS006_BORM_Extr_DSLink12</text>
</g>
<!-- V0S4&#45;&gt;V0S4P2 -->
<g id="edge17" class="edge">
<title>V0S4&#45;&gt;V0S4P2</title>
<path fill="none" stroke="black" d="M519.5,-1349.6C519.5,-1341.61 519.5,-1332.69 519.5,-1324.18"/>
<polygon fill="black" stroke="black" points="523,-1324.08 519.5,-1314.08 516,-1324.08 523,-1324.08"/>
</g>
<!-- V0S9P1 -->
<g id="node22" class="node">
<title>V0S9P1</title>
<polygon fill="#0000ff" fill-opacity="0.250980" stroke="black" points="706.5,-1224 332.5,-1224 332.5,-1170 706.5,-1170 706.5,-1224"/>
<text text-anchor="middle" x="519.5" y="-1193.3" font-family="Times,serif" font-size="14.00">job_DBdirect_MIS006_RELM_Extr_DSLink12_Part</text>
</g>
<!-- V0S4P2&#45;&gt;V0S9P1 -->
<g id="edge19" class="edge">
<title>V0S4P2&#45;&gt;V0S9P1</title>
<path fill="none" stroke="black" d="M519.5,-1259.6C519.5,-1251.61 519.5,-1242.69 519.5,-1234.18"/>
<polygon fill="black" stroke="black" points="523,-1234.08 519.5,-1224.08 516,-1234.08 523,-1234.08"/>
</g>
<!-- V0S9 -->
<g id="node31" class="node">
<title>V0S9</title>
<polygon fill="#0000ff" fill-opacity="0.250980" stroke="black" points="650,-1134 389,-1134 389,-1080 650,-1080 650,-1134"/>
<text text-anchor="middle" x="519.5" y="-1103.3" font-family="Times,serif" font-size="14.00">job_DBdirect_MIS006_RELM_Extr</text>
</g>
<!-- V0S9P1&#45;&gt;V0S9 -->
<g id="edge30" class="edge">
<title>V0S9P1&#45;&gt;V0S9</title>
<path fill="none" stroke="black" d="M519.5,-1169.6C519.5,-1161.61 519.5,-1152.69 519.5,-1144.18"/>
<polygon fill="black" stroke="black" points="523,-1144.08 519.5,-1134.08 516,-1144.08 523,-1144.08"/>
</g>
<!-- V0S5 -->
<g id="node23" class="node">
<title>V0S5</title>
<polygon fill="#0000ff" fill-opacity="0.250980" stroke="black" points="651,-594 388,-594 388,-540 651,-540 651,-594"/>
<text text-anchor="middle" x="519.5" y="-563.3" font-family="Times,serif" font-size="14.00">job_DBdirect_MIS006_CHPM_Extr</text>
</g>
<!-- V0S5P2 -->
<g id="node24" class="node">
<title>V0S5P2</title>
<polygon fill="#0000ff" fill-opacity="0.250980" stroke="black" points="689.5,-504 349.5,-504 349.5,-450 689.5,-450 689.5,-504"/>
<text text-anchor="middle" x="519.5" y="-473.3" font-family="Times,serif" font-size="14.00">job_DBdirect_MIS006_CHPM_Extr_DSLink18</text>
</g>
<!-- V0S5&#45;&gt;V0S5P2 -->
<g id="edge20" class="edge">
<title>V0S5&#45;&gt;V0S5P2</title>
<path fill="none" stroke="black" d="M519.5,-539.6C519.5,-531.61 519.5,-522.69 519.5,-514.18"/>
<polygon fill="black" stroke="black" points="523,-514.08 519.5,-504.08 516,-514.08 523,-514.08"/>
</g>
<!-- V0S5P2&#45;&gt;V0S10P1 -->
<g id="edge22" class="edge">
<title>V0S5P2&#45;&gt;V0S10P1</title>
<path fill="none" stroke="black" d="M519.5,-449.6C519.5,-441.61 519.5,-432.69 519.5,-424.18"/>
<polygon fill="black" stroke="black" points="523,-424.08 519.5,-414.08 516,-424.08 523,-424.08"/>
</g>
<!-- V0S5P1 -->
<g id="node25" class="node">
<title>V0S5P1</title>
<polygon fill="#0000ff" fill-opacity="0.250980" stroke="black" points="708,-684 331,-684 331,-630 708,-630 708,-684"/>
<text text-anchor="middle" x="519.5" y="-653.3" font-family="Times,serif" font-size="14.00">job_DBdirect_MIS006_CHPM_Extr_DSLink17_Part</text>
</g>
<!-- V0S5P1&#45;&gt;V0S5 -->
<g id="edge21" class="edge">
<title>V0S5P1&#45;&gt;V0S5</title>
<path fill="none" stroke="black" d="M519.5,-629.6C519.5,-621.61 519.5,-612.69 519.5,-604.18"/>
<polygon fill="black" stroke="black" points="523,-604.08 519.5,-594.08 516,-604.08 523,-604.08"/>
</g>
<!-- V0S6 -->
<g id="node26" class="node">
<title>V0S6</title>
<polygon fill="#0000ff" fill-opacity="0.250980" stroke="black" points="657,-864 382,-864 382,-810 657,-810 657,-864"/>
<text text-anchor="middle" x="519.5" y="-833.3" font-family="Times,serif" font-size="14.00">job_DBdirect_Mis006_CUSVAA_Extr</text>
</g>
<!-- V0S6P2 -->
<g id="node27" class="node">
<title>V0S6P2</title>
<polygon fill="#0000ff" fill-opacity="0.250980" stroke="black" points="695,-774 344,-774 344,-720 695,-720 695,-774"/>
<text text-anchor="middle" x="519.5" y="-743.3" font-family="Times,serif" font-size="14.00">job_DBdirect_Mis006_CUSVAA_Extr_DSLink17</text>
</g>
<!-- V0S6&#45;&gt;V0S6P2 -->
<g id="edge23" class="edge">
<title>V0S6&#45;&gt;V0S6P2</title>
<path fill="none" stroke="black" d="M519.5,-809.6C519.5,-801.61 519.5,-792.69 519.5,-784.18"/>
<polygon fill="black" stroke="black" points="523,-784.08 519.5,-774.08 516,-784.08 523,-784.08"/>
</g>
<!-- V0S6P2&#45;&gt;V0S5P1 -->
<g id="edge25" class="edge">
<title>V0S6P2&#45;&gt;V0S5P1</title>
<path fill="none" stroke="black" d="M519.5,-719.6C519.5,-711.61 519.5,-702.69 519.5,-694.18"/>
<polygon fill="black" stroke="black" points="523,-694.08 519.5,-684.08 516,-694.08 523,-694.08"/>
</g>
<!-- V0S6P1 -->
<g id="node28" class="node">
<title>V0S6P1</title>
<polygon fill="#0000ff" fill-opacity="0.250980" stroke="black" points="713.5,-954 325.5,-954 325.5,-900 713.5,-900 713.5,-954"/>
<text text-anchor="middle" x="519.5" y="-923.3" font-family="Times,serif" font-size="14.00">job_DBdirect_Mis006_CUSVAA_Extr_DSLink16_Part</text>
</g>
<!-- V0S6P1&#45;&gt;V0S6 -->
<g id="edge24" class="edge">
<title>V0S6P1&#45;&gt;V0S6</title>
<path fill="none" stroke="black" d="M519.5,-899.6C519.5,-891.61 519.5,-882.69 519.5,-874.18"/>
<polygon fill="black" stroke="black" points="523,-874.08 519.5,-864.08 516,-874.08 523,-874.08"/>
</g>
<!-- V0S8P2 -->
<g id="node30" class="node">
<title>V0S8P2</title>
<polygon fill="#0000ff" fill-opacity="0.250980" stroke="black" points="705.5,-1854 333.5,-1854 333.5,-1800 705.5,-1800 705.5,-1854"/>
<text text-anchor="middle" x="519.5" y="-1823.3" font-family="Times,serif" font-size="14.00">job_DBdirect_Mis006_PITA_LONP_Extr_DSLink14</text>
</g>
<!-- V0S8&#45;&gt;V0S8P2 -->
<g id="edge26" class="edge">
<title>V0S8&#45;&gt;V0S8P2</title>
<path fill="none" stroke="black" d="M519.5,-1889.6C519.5,-1881.61 519.5,-1872.69 519.5,-1864.18"/>
<polygon fill="black" stroke="black" points="523,-1864.08 519.5,-1854.08 516,-1864.08 523,-1864.08"/>
</g>
<!-- V0S8P2&#45;&gt;V0S1P2 -->
<g id="edge28" class="edge">
<title>V0S8P2&#45;&gt;V0S1P2</title>
<path fill="none" stroke="black" d="M519.5,-1799.6C519.5,-1791.61 519.5,-1782.69 519.5,-1774.18"/>
<polygon fill="black" stroke="black" points="523,-1774.08 519.5,-1764.08 516,-1774.08 523,-1774.08"/>
</g>
<!-- V0S9P2 -->
<g id="node32" class="node">
<title>V0S9P2</title>
<polygon fill="#0000ff" fill-opacity="0.250980" stroke="black" points="688.5,-1044 350.5,-1044 350.5,-990 688.5,-990 688.5,-1044"/>
<text text-anchor="middle" x="519.5" y="-1013.3" font-family="Times,serif" font-size="14.00">job_DBdirect_MIS006_RELM_Extr_DSLink16</text>
</g>
<!-- V0S9&#45;&gt;V0S9P2 -->
<g id="edge29" class="edge">
<title>V0S9&#45;&gt;V0S9P2</title>
<path fill="none" stroke="black" d="M519.5,-1079.6C519.5,-1071.61 519.5,-1062.69 519.5,-1054.18"/>
<polygon fill="black" stroke="black" points="523,-1054.08 519.5,-1044.08 516,-1054.08 523,-1054.08"/>
</g>
<!-- V0S9P2&#45;&gt;V0S6P1 -->
<g id="edge31" class="edge">
<title>V0S9P2&#45;&gt;V0S6P1</title>
<path fill="none" stroke="black" d="M519.5,-989.6C519.5,-981.61 519.5,-972.69 519.5,-964.18"/>
<polygon fill="black" stroke="black" points="523,-964.08 519.5,-954.08 516,-964.08 523,-964.08"/>
</g>
</g>
</svg>
