<?xml version="1.0" encoding="UTF-8" standalone="no"?>
<!DOCTYPE svg PUBLIC "-//W3C//DTD SVG 1.1//EN"
 "http://www.w3.org/Graphics/SVG/1.1/DTD/svg11.dtd">
<!-- Generated by graphviz version 2.43.0 (0)
 -->
<!-- Pages: 1 -->
<svg width="433pt" height="1065pt"
 viewBox="0.00 0.00 433.00 1065.00" xmlns="http://www.w3.org/2000/svg" xmlns:xlink="http://www.w3.org/1999/xlink">
<g id="graph0" class="graph" transform="scale(1 1) rotate(0) translate(4 1061)">
<polygon fill="white" stroke="transparent" points="-4,4 -4,-1061 429,-1061 429,4 -4,4"/>
<!-- ROOT -->
<g id="node1" class="node">
<title>ROOT</title>
<polygon fill="#0000ff" fill-opacity="0.250980" stroke="black" points="320.5,-1057 18.5,-1057 18.5,-1003 320.5,-1003 320.5,-1057"/>
<text text-anchor="middle" x="169.5" y="-1026.3" font-family="Times,serif" font-size="14.00">job_DBdirect_MIS006_BORM_Extr_POC</text>
</g>
<!-- V0 -->
<g id="node2" class="node">
<title>V0</title>
<polygon fill="#0000ff" fill-opacity="0.250980" stroke="black" points="212.5,-966 126.5,-966 126.5,-912 212.5,-912 212.5,-966"/>
<text text-anchor="middle" x="169.5" y="-935.3" font-family="Times,serif" font-size="14.00">Job_VIEW</text>
</g>
<!-- ROOT&#45;&gt;V0 -->
<g id="edge1" class="edge">
<title>ROOT&#45;&gt;V0</title>
<path fill="none" stroke="black" d="M169.5,-1002.78C169.5,-994.45 169.5,-985.09 169.5,-976.18"/>
<polygon fill="black" stroke="black" points="173,-976.03 169.5,-966.03 166,-976.03 173,-976.03"/>
</g>
<!-- V0A13 -->
<g id="node3" class="node">
<title>V0A13</title>
<polygon fill="#0000ff" fill-opacity="0.250980" stroke="black" points="63,-875 0,-875 0,-821 63,-821 63,-875"/>
<text text-anchor="middle" x="31.5" y="-844.3" font-family="Times,serif" font-size="14.00">V0A13</text>
</g>
<!-- V0&#45;&gt;V0A13 -->
<g id="edge2" class="edge">
<title>V0&#45;&gt;V0A13</title>
<path fill="none" stroke="black" d="M128.94,-911.99C113.21,-901.89 94.89,-890.11 72.01,-875.32"/>
<polygon fill="black" stroke="black" points="73.67,-872.22 63.37,-869.73 69.87,-878.1 73.67,-872.22"/>
</g>
<!-- V43S0 -->
<g id="node4" class="node">
<title>V43S0</title>
<polygon fill="#0000ff" fill-opacity="0.250980" stroke="black" points="258,-875 81,-875 81,-821 258,-821 258,-875"/>
<text text-anchor="middle" x="169.5" y="-844.3" font-family="Times,serif" font-size="14.00">netz_ODS_DTEP_INSP</text>
</g>
<!-- V0&#45;&gt;V43S0 -->
<g id="edge3" class="edge">
<title>V0&#45;&gt;V43S0</title>
<path fill="none" stroke="black" d="M169.5,-911.78C169.5,-903.45 169.5,-894.09 169.5,-885.18"/>
<polygon fill="black" stroke="black" points="173,-885.03 169.5,-875.03 166,-885.03 173,-885.03"/>
</g>
<!-- V46S0 -->
<g id="node5" class="node">
<title>V46S0</title>
<polygon fill="#0000ff" fill-opacity="0.250980" stroke="black" points="425,-875 276,-875 276,-821 425,-821 425,-875"/>
<text text-anchor="middle" x="350.5" y="-844.3" font-family="Times,serif" font-size="14.00">NETZ_SRC_BORM</text>
</g>
<!-- V0&#45;&gt;V46S0 -->
<g id="edge4" class="edge">
<title>V0&#45;&gt;V46S0</title>
<path fill="none" stroke="black" d="M212.85,-916.68C235.49,-905.55 263.58,-891.74 288.47,-879.5"/>
<polygon fill="black" stroke="black" points="290.06,-882.62 297.48,-875.07 286.97,-876.34 290.06,-882.62"/>
</g>
<!-- V0S46P1 -->
<g id="node8" class="node">
<title>V0S46P1</title>
<polygon fill="#0000ff" fill-opacity="0.250980" stroke="black" points="319.5,-774 37.5,-774 37.5,-720 319.5,-720 319.5,-774"/>
<text text-anchor="middle" x="178.5" y="-743.3" font-family="Times,serif" font-size="14.00">Transformer_46_joi_DTEP_INSP_Part</text>
</g>
<!-- V43S0&#45;&gt;V0S46P1 -->
<g id="edge7" class="edge">
<title>V43S0&#45;&gt;V0S46P1</title>
<path fill="none" stroke="black" d="M171.86,-820.99C172.88,-809.82 174.08,-796.58 175.19,-784.46"/>
<polygon fill="black" stroke="black" points="178.7,-784.46 176.12,-774.18 171.73,-783.82 178.7,-784.46"/>
<text text-anchor="middle" x="214" y="-795" font-family="Times,serif" font-size="10.00">joi_DTEP_INSP</text>
</g>
<!-- V46S3P1 -->
<g id="node9" class="node">
<title>V46S3P1</title>
<polygon fill="#0000ff" fill-opacity="0.250980" stroke="black" points="416.5,-702 276.5,-702 276.5,-648 416.5,-648 416.5,-702"/>
<text text-anchor="middle" x="346.5" y="-671.3" font-family="Times,serif" font-size="14.00">Join_40_Left_Part</text>
</g>
<!-- V46S0&#45;&gt;V46S3P1 -->
<g id="edge8" class="edge">
<title>V46S0&#45;&gt;V46S3P1</title>
<path fill="none" stroke="black" d="M349.88,-820.66C349.2,-791.58 348.1,-744.59 347.34,-712.09"/>
<polygon fill="black" stroke="black" points="350.84,-712.01 347.11,-702.09 343.85,-712.17 350.84,-712.01"/>
<text text-anchor="middle" x="360" y="-795" font-family="Times,serif" font-size="10.00">Left</text>
</g>
<!-- V0S46 -->
<g id="node6" class="node">
<title>V0S46</title>
<polygon fill="#0000ff" fill-opacity="0.250980" stroke="black" points="253,-630 122,-630 122,-576 253,-576 253,-630"/>
<text text-anchor="middle" x="187.5" y="-599.3" font-family="Times,serif" font-size="14.00">Transformer_46</text>
</g>
<!-- V46S3P3 -->
<g id="node7" class="node">
<title>V46S3P3</title>
<polygon fill="#0000ff" fill-opacity="0.250980" stroke="black" points="315.5,-529 133.5,-529 133.5,-475 315.5,-475 315.5,-529"/>
<text text-anchor="middle" x="224.5" y="-498.3" font-family="Times,serif" font-size="14.00">Join_40_DSLink48_Part</text>
</g>
<!-- V0S46&#45;&gt;V46S3P3 -->
<g id="edge5" class="edge">
<title>V0S46&#45;&gt;V46S3P3</title>
<path fill="none" stroke="black" d="M197.22,-575.99C201.48,-564.6 206.54,-551.05 211.15,-538.73"/>
<polygon fill="black" stroke="black" points="214.49,-539.77 214.72,-529.18 207.94,-537.32 214.49,-539.77"/>
<text text-anchor="middle" x="232.5" y="-550" font-family="Times,serif" font-size="10.00">DSLink48</text>
</g>
<!-- V46S3 -->
<g id="node14" class="node">
<title>V46S3</title>
<polygon fill="#0000ff" fill-opacity="0.250980" stroke="black" points="318.5,-438 250.5,-438 250.5,-384 318.5,-384 318.5,-438"/>
<text text-anchor="middle" x="284.5" y="-407.3" font-family="Times,serif" font-size="14.00">Join_40</text>
</g>
<!-- V46S3P3&#45;&gt;V46S3 -->
<g id="edge14" class="edge">
<title>V46S3P3&#45;&gt;V46S3</title>
<path fill="none" stroke="black" d="M242.18,-474.78C248.16,-465.91 254.93,-455.86 261.28,-446.45"/>
<polygon fill="black" stroke="black" points="264.26,-448.28 266.95,-438.03 258.46,-444.37 264.26,-448.28"/>
</g>
<!-- V0S46P1&#45;&gt;V0S46 -->
<g id="edge6" class="edge">
<title>V0S46P1&#45;&gt;V0S46</title>
<path fill="none" stroke="black" d="M180.15,-719.96C181.56,-697.68 183.61,-665.37 185.19,-640.51"/>
<polygon fill="black" stroke="black" points="188.69,-640.56 185.83,-630.36 181.7,-640.12 188.69,-640.56"/>
</g>
<!-- V46S3P1&#45;&gt;V46S3 -->
<g id="edge13" class="edge">
<title>V46S3P1&#45;&gt;V46S3</title>
<path fill="none" stroke="black" d="M347.32,-647.73C347.71,-608.84 345.3,-534.19 324.5,-475 321.09,-465.28 315.93,-455.52 310.45,-446.69"/>
<polygon fill="black" stroke="black" points="313.31,-444.66 304.92,-438.2 307.45,-448.48 313.31,-444.66"/>
</g>
<!-- V46S1 -->
<g id="node10" class="node">
<title>V46S1</title>
<polygon fill="#0000ff" fill-opacity="0.250980" stroke="black" points="348,-54 221,-54 221,0 348,0 348,-54"/>
<text text-anchor="middle" x="284.5" y="-23.3" font-family="Times,serif" font-size="14.00">DS_TGT_BORM</text>
</g>
<!-- V46S1P1 -->
<g id="node11" class="node">
<title>V46S1P1</title>
<polygon fill="#0000ff" fill-opacity="0.250980" stroke="black" points="422.5,-145 146.5,-145 146.5,-91 422.5,-91 422.5,-145"/>
<text text-anchor="middle" x="284.5" y="-114.3" font-family="Times,serif" font-size="14.00">DS_TGT_BORM_lnk_BORM_Tgt_Part</text>
</g>
<!-- V46S1P1&#45;&gt;V46S1 -->
<g id="edge9" class="edge">
<title>V46S1P1&#45;&gt;V46S1</title>
<path fill="none" stroke="black" d="M284.5,-90.78C284.5,-82.45 284.5,-73.09 284.5,-64.18"/>
<polygon fill="black" stroke="black" points="288,-64.03 284.5,-54.03 281,-64.03 288,-64.03"/>
</g>
<!-- V46S2 -->
<g id="node12" class="node">
<title>V46S2</title>
<polygon fill="#0000ff" fill-opacity="0.250980" stroke="black" points="348.5,-246 220.5,-246 220.5,-192 348.5,-192 348.5,-246"/>
<text text-anchor="middle" x="284.5" y="-215.3" font-family="Times,serif" font-size="14.00">TRN_CONVERT</text>
</g>
<!-- V46S2&#45;&gt;V46S1P1 -->
<g id="edge10" class="edge">
<title>V46S2&#45;&gt;V46S1P1</title>
<path fill="none" stroke="black" d="M284.5,-191.99C284.5,-180.82 284.5,-167.58 284.5,-155.46"/>
<polygon fill="black" stroke="black" points="288,-155.18 284.5,-145.18 281,-155.18 288,-155.18"/>
<text text-anchor="middle" x="323.5" y="-166" font-family="Times,serif" font-size="10.00">lnk_BORM_Tgt</text>
</g>
<!-- V46S2P1 -->
<g id="node13" class="node">
<title>V46S2P1</title>
<polygon fill="#0000ff" fill-opacity="0.250980" stroke="black" points="409.5,-337 159.5,-337 159.5,-283 409.5,-283 409.5,-337"/>
<text text-anchor="middle" x="284.5" y="-306.3" font-family="Times,serif" font-size="14.00">TRN_CONVERT_lnk_Source_Part</text>
</g>
<!-- V46S2P1&#45;&gt;V46S2 -->
<g id="edge11" class="edge">
<title>V46S2P1&#45;&gt;V46S2</title>
<path fill="none" stroke="black" d="M284.5,-282.78C284.5,-274.45 284.5,-265.09 284.5,-256.18"/>
<polygon fill="black" stroke="black" points="288,-256.03 284.5,-246.03 281,-256.03 288,-256.03"/>
</g>
<!-- V46S3&#45;&gt;V46S2P1 -->
<g id="edge12" class="edge">
<title>V46S3&#45;&gt;V46S2P1</title>
<path fill="none" stroke="black" d="M284.5,-383.99C284.5,-372.82 284.5,-359.58 284.5,-347.46"/>
<polygon fill="black" stroke="black" points="288,-347.18 284.5,-337.18 281,-347.18 288,-347.18"/>
<text text-anchor="middle" x="313" y="-358" font-family="Times,serif" font-size="10.00">lnk_Source</text>
</g>
</g>
</svg>
