<?xml version="1.0" encoding="UTF-8" standalone="no"?>
<!DOCTYPE svg PUBLIC "-//W3C//DTD SVG 1.1//EN"
 "http://www.w3.org/Graphics/SVG/1.1/DTD/svg11.dtd">
<!-- Generated by graphviz version 2.43.0 (0)
 -->
<!-- Pages: 1 -->
<svg width="507pt" height="1322pt"
 viewBox="0.00 0.00 506.50 1322.00" xmlns="http://www.w3.org/2000/svg" xmlns:xlink="http://www.w3.org/1999/xlink">
<g id="graph0" class="graph" transform="scale(1 1) rotate(0) translate(4 1318)">
<polygon fill="white" stroke="transparent" points="-4,4 -4,-1318 502.5,-1318 502.5,4 -4,4"/>
<!-- ROOT -->
<g id="node1" class="node">
<title>ROOT</title>
<polygon fill="#0000ff" fill-opacity="0.250980" stroke="black" points="320.5,-1314 18.5,-1314 18.5,-1260 320.5,-1260 320.5,-1314"/>
<text text-anchor="middle" x="169.5" y="-1283.3" font-family="Times,serif" font-size="14.00">job_DBdirect_MIS006_BORM_Extr_POC</text>
</g>
<!-- V0 -->
<g id="node2" class="node">
<title>V0</title>
<polygon fill="#0000ff" fill-opacity="0.250980" stroke="black" points="212.5,-1224 126.5,-1224 126.5,-1170 212.5,-1170 212.5,-1224"/>
<text text-anchor="middle" x="169.5" y="-1193.3" font-family="Times,serif" font-size="14.00">Job_VIEW</text>
</g>
<!-- ROOT&#45;&gt;V0 -->
<g id="edge1" class="edge">
<title>ROOT&#45;&gt;V0</title>
<path fill="none" stroke="black" d="M169.5,-1259.6C169.5,-1251.61 169.5,-1242.69 169.5,-1234.18"/>
<polygon fill="black" stroke="black" points="173,-1234.08 169.5,-1224.08 166,-1234.08 173,-1234.08"/>
</g>
<!-- V0A13 -->
<g id="node3" class="node">
<title>V0A13</title>
<polygon fill="#0000ff" fill-opacity="0.250980" stroke="black" points="63,-1134 0,-1134 0,-1080 63,-1080 63,-1134"/>
<text text-anchor="middle" x="31.5" y="-1103.3" font-family="Times,serif" font-size="14.00">V0A13</text>
</g>
<!-- V0&#45;&gt;V0A13 -->
<g id="edge2" class="edge">
<title>V0&#45;&gt;V0A13</title>
<path fill="none" stroke="black" d="M127.94,-1169.87C112.39,-1160.05 94.42,-1148.67 71.87,-1134.22"/>
<polygon fill="black" stroke="black" points="73.66,-1131.21 63.35,-1128.76 69.88,-1137.1 73.66,-1131.21"/>
</g>
<!-- V43S0 -->
<g id="node4" class="node">
<title>V43S0</title>
<polygon fill="#0000ff" fill-opacity="0.250980" stroke="black" points="258,-1134 81,-1134 81,-1080 258,-1080 258,-1134"/>
<text text-anchor="middle" x="169.5" y="-1103.3" font-family="Times,serif" font-size="14.00">netz_ODS_DTEP_INSP</text>
</g>
<!-- V0&#45;&gt;V43S0 -->
<g id="edge3" class="edge">
<title>V0&#45;&gt;V43S0</title>
<path fill="none" stroke="black" d="M169.5,-1169.6C169.5,-1161.61 169.5,-1152.69 169.5,-1144.18"/>
<polygon fill="black" stroke="black" points="173,-1144.08 169.5,-1134.08 166,-1144.08 173,-1144.08"/>
</g>
<!-- V46S0 -->
<g id="node5" class="node">
<title>V46S0</title>
<polygon fill="#0000ff" fill-opacity="0.250980" stroke="black" points="462,-1134 313,-1134 313,-1080 462,-1080 462,-1134"/>
<text text-anchor="middle" x="387.5" y="-1103.3" font-family="Times,serif" font-size="14.00">NETZ_SRC_BORM</text>
</g>
<!-- V0&#45;&gt;V46S0 -->
<g id="edge4" class="edge">
<title>V0&#45;&gt;V46S0</title>
<path fill="none" stroke="black" d="M212.57,-1178.61C241.38,-1166.98 280.03,-1151.38 313.67,-1137.8"/>
<polygon fill="black" stroke="black" points="315.06,-1141.02 323.02,-1134.03 312.44,-1134.53 315.06,-1141.02"/>
</g>
<!-- V43S0P1 -->
<g id="node10" class="node">
<title>V43S0P1</title>
<polygon fill="#0000ff" fill-opacity="0.250980" stroke="black" points="296.5,-1044 4.5,-1044 4.5,-990 296.5,-990 296.5,-1044"/>
<text text-anchor="middle" x="150.5" y="-1013.3" font-family="Times,serif" font-size="14.00">netz_ODS_DTEP_INSP_joi_DTEP_INSP</text>
</g>
<!-- V43S0&#45;&gt;V43S0P1 -->
<g id="edge8" class="edge">
<title>V43S0&#45;&gt;V43S0P1</title>
<path fill="none" stroke="black" d="M163.8,-1079.6C162.06,-1071.52 160.11,-1062.49 158.25,-1053.9"/>
<polygon fill="black" stroke="black" points="161.66,-1053.12 156.13,-1044.08 154.82,-1054.59 161.66,-1053.12"/>
</g>
<!-- V46S0P1 -->
<g id="node11" class="node">
<title>V46S0P1</title>
<polygon fill="#0000ff" fill-opacity="0.250980" stroke="black" points="498.5,-1044 314.5,-1044 314.5,-990 498.5,-990 498.5,-1044"/>
<text text-anchor="middle" x="406.5" y="-1013.3" font-family="Times,serif" font-size="14.00">NETZ_SRC_BORM_Left</text>
</g>
<!-- V46S0&#45;&gt;V46S0P1 -->
<g id="edge10" class="edge">
<title>V46S0&#45;&gt;V46S0P1</title>
<path fill="none" stroke="black" d="M393.2,-1079.6C394.94,-1071.52 396.89,-1062.49 398.75,-1053.9"/>
<polygon fill="black" stroke="black" points="402.18,-1054.59 400.87,-1044.08 395.34,-1053.12 402.18,-1054.59"/>
</g>
<!-- V0S46 -->
<g id="node6" class="node">
<title>V0S46</title>
<polygon fill="#0000ff" fill-opacity="0.250980" stroke="black" points="266,-864 135,-864 135,-810 266,-810 266,-864"/>
<text text-anchor="middle" x="200.5" y="-833.3" font-family="Times,serif" font-size="14.00">Transformer_46</text>
</g>
<!-- V0S46P2 -->
<g id="node7" class="node">
<title>V0S46P2</title>
<polygon fill="#0000ff" fill-opacity="0.250980" stroke="black" points="315,-774 108,-774 108,-720 315,-720 315,-774"/>
<text text-anchor="middle" x="211.5" y="-743.3" font-family="Times,serif" font-size="14.00">Transformer_46_DSLink48</text>
</g>
<!-- V0S46&#45;&gt;V0S46P2 -->
<g id="edge5" class="edge">
<title>V0S46&#45;&gt;V0S46P2</title>
<path fill="none" stroke="black" d="M203.8,-809.6C204.8,-801.61 205.91,-792.69 206.98,-784.18"/>
<polygon fill="black" stroke="black" points="210.47,-784.44 208.24,-774.08 203.53,-783.57 210.47,-784.44"/>
</g>
<!-- V46S3P3 -->
<g id="node9" class="node">
<title>V46S3P3</title>
<polygon fill="#0000ff" fill-opacity="0.250980" stroke="black" points="315.5,-684 133.5,-684 133.5,-630 315.5,-630 315.5,-684"/>
<text text-anchor="middle" x="224.5" y="-653.3" font-family="Times,serif" font-size="14.00">Join_40_DSLink48_Part</text>
</g>
<!-- V0S46P2&#45;&gt;V46S3P3 -->
<g id="edge7" class="edge">
<title>V0S46P2&#45;&gt;V46S3P3</title>
<path fill="none" stroke="black" d="M215.4,-719.6C216.58,-711.61 217.9,-702.69 219.16,-694.18"/>
<polygon fill="black" stroke="black" points="222.65,-694.49 220.65,-684.08 215.72,-693.46 222.65,-694.49"/>
</g>
<!-- V0S46P1 -->
<g id="node8" class="node">
<title>V0S46P1</title>
<polygon fill="#0000ff" fill-opacity="0.250980" stroke="black" points="334.5,-954 52.5,-954 52.5,-900 334.5,-900 334.5,-954"/>
<text text-anchor="middle" x="193.5" y="-923.3" font-family="Times,serif" font-size="14.00">Transformer_46_joi_DTEP_INSP_Part</text>
</g>
<!-- V0S46P1&#45;&gt;V0S46 -->
<g id="edge6" class="edge">
<title>V0S46P1&#45;&gt;V0S46</title>
<path fill="none" stroke="black" d="M195.6,-899.6C196.24,-891.61 196.95,-882.69 197.62,-874.18"/>
<polygon fill="black" stroke="black" points="201.12,-874.33 198.43,-864.08 194.14,-873.77 201.12,-874.33"/>
</g>
<!-- V46S3 -->
<g id="node18" class="node">
<title>V46S3</title>
<polygon fill="#0000ff" fill-opacity="0.250980" stroke="black" points="317.5,-594 249.5,-594 249.5,-540 317.5,-540 317.5,-594"/>
<text text-anchor="middle" x="283.5" y="-563.3" font-family="Times,serif" font-size="14.00">Join_40</text>
</g>
<!-- V46S3P3&#45;&gt;V46S3 -->
<g id="edge19" class="edge">
<title>V46S3P3&#45;&gt;V46S3</title>
<path fill="none" stroke="black" d="M242.2,-629.6C247.91,-621.08 254.33,-611.51 260.37,-602.5"/>
<polygon fill="black" stroke="black" points="263.35,-604.34 266.01,-594.08 257.54,-600.44 263.35,-604.34"/>
</g>
<!-- V43S0P1&#45;&gt;V0S46P1 -->
<g id="edge9" class="edge">
<title>V43S0P1&#45;&gt;V0S46P1</title>
<path fill="none" stroke="black" d="M163.4,-989.6C167.43,-981.34 171.95,-972.1 176.23,-963.34"/>
<polygon fill="black" stroke="black" points="179.51,-964.6 180.76,-954.08 173.22,-961.53 179.51,-964.6"/>
</g>
<!-- V46S3P1 -->
<g id="node12" class="node">
<title>V46S3P1</title>
<polygon fill="#0000ff" fill-opacity="0.250980" stroke="black" points="439.5,-864 299.5,-864 299.5,-810 439.5,-810 439.5,-864"/>
<text text-anchor="middle" x="369.5" y="-833.3" font-family="Times,serif" font-size="14.00">Join_40_Left_Part</text>
</g>
<!-- V46S0P1&#45;&gt;V46S3P1 -->
<g id="edge11" class="edge">
<title>V46S0P1&#45;&gt;V46S3P1</title>
<path fill="none" stroke="black" d="M401.04,-989.74C394.68,-959.15 384.14,-908.45 377.02,-874.16"/>
<polygon fill="black" stroke="black" points="380.38,-873.16 374.92,-864.08 373.53,-874.59 380.38,-873.16"/>
</g>
<!-- V46S3P1&#45;&gt;V46S3 -->
<g id="edge17" class="edge">
<title>V46S3P1&#45;&gt;V46S3</title>
<path fill="none" stroke="black" d="M366.89,-809.7C362.23,-769.6 350.42,-691.37 324.5,-630 320.55,-620.64 315.14,-611.17 309.56,-602.55"/>
<polygon fill="black" stroke="black" points="312.45,-600.57 303.96,-594.24 306.65,-604.49 312.45,-600.57"/>
</g>
<!-- V46S1 -->
<g id="node13" class="node">
<title>V46S1</title>
<polygon fill="#0000ff" fill-opacity="0.250980" stroke="black" points="347,-54 220,-54 220,0 347,0 347,-54"/>
<text text-anchor="middle" x="283.5" y="-23.3" font-family="Times,serif" font-size="14.00">DS_TGT_BORM</text>
</g>
<!-- V46S1P1 -->
<g id="node14" class="node">
<title>V46S1P1</title>
<polygon fill="#0000ff" fill-opacity="0.250980" stroke="black" points="421.5,-144 145.5,-144 145.5,-90 421.5,-90 421.5,-144"/>
<text text-anchor="middle" x="283.5" y="-113.3" font-family="Times,serif" font-size="14.00">DS_TGT_BORM_lnk_BORM_Tgt_Part</text>
</g>
<!-- V46S1P1&#45;&gt;V46S1 -->
<g id="edge12" class="edge">
<title>V46S1P1&#45;&gt;V46S1</title>
<path fill="none" stroke="black" d="M283.5,-89.6C283.5,-81.61 283.5,-72.69 283.5,-64.18"/>
<polygon fill="black" stroke="black" points="287,-64.08 283.5,-54.08 280,-64.08 287,-64.08"/>
</g>
<!-- V46S2 -->
<g id="node15" class="node">
<title>V46S2</title>
<polygon fill="#0000ff" fill-opacity="0.250980" stroke="black" points="347.5,-324 219.5,-324 219.5,-270 347.5,-270 347.5,-324"/>
<text text-anchor="middle" x="283.5" y="-293.3" font-family="Times,serif" font-size="14.00">TRN_CONVERT</text>
</g>
<!-- V46S2P2 -->
<g id="node16" class="node">
<title>V46S2P2</title>
<polygon fill="#0000ff" fill-opacity="0.250980" stroke="black" points="404,-234 163,-234 163,-180 404,-180 404,-234"/>
<text text-anchor="middle" x="283.5" y="-203.3" font-family="Times,serif" font-size="14.00">TRN_CONVERT_lnk_BORM_Tgt</text>
</g>
<!-- V46S2&#45;&gt;V46S2P2 -->
<g id="edge13" class="edge">
<title>V46S2&#45;&gt;V46S2P2</title>
<path fill="none" stroke="black" d="M283.5,-269.6C283.5,-261.61 283.5,-252.69 283.5,-244.18"/>
<polygon fill="black" stroke="black" points="287,-244.08 283.5,-234.08 280,-244.08 287,-244.08"/>
</g>
<!-- V46S2P2&#45;&gt;V46S1P1 -->
<g id="edge15" class="edge">
<title>V46S2P2&#45;&gt;V46S1P1</title>
<path fill="none" stroke="black" d="M283.5,-179.6C283.5,-171.61 283.5,-162.69 283.5,-154.18"/>
<polygon fill="black" stroke="black" points="287,-154.08 283.5,-144.08 280,-154.08 287,-154.08"/>
</g>
<!-- V46S2P1 -->
<g id="node17" class="node">
<title>V46S2P1</title>
<polygon fill="#0000ff" fill-opacity="0.250980" stroke="black" points="408.5,-414 158.5,-414 158.5,-360 408.5,-360 408.5,-414"/>
<text text-anchor="middle" x="283.5" y="-383.3" font-family="Times,serif" font-size="14.00">TRN_CONVERT_lnk_Source_Part</text>
</g>
<!-- V46S2P1&#45;&gt;V46S2 -->
<g id="edge14" class="edge">
<title>V46S2P1&#45;&gt;V46S2</title>
<path fill="none" stroke="black" d="M283.5,-359.6C283.5,-351.61 283.5,-342.69 283.5,-334.18"/>
<polygon fill="black" stroke="black" points="287,-334.08 283.5,-324.08 280,-334.08 287,-334.08"/>
</g>
<!-- V46S3P2 -->
<g id="node19" class="node">
<title>V46S3P2</title>
<polygon fill="#0000ff" fill-opacity="0.250980" stroke="black" points="360,-504 207,-504 207,-450 360,-450 360,-504"/>
<text text-anchor="middle" x="283.5" y="-473.3" font-family="Times,serif" font-size="14.00">Join_40_lnk_Source</text>
</g>
<!-- V46S3&#45;&gt;V46S3P2 -->
<g id="edge16" class="edge">
<title>V46S3&#45;&gt;V46S3P2</title>
<path fill="none" stroke="black" d="M283.5,-539.6C283.5,-531.61 283.5,-522.69 283.5,-514.18"/>
<polygon fill="black" stroke="black" points="287,-514.08 283.5,-504.08 280,-514.08 287,-514.08"/>
</g>
<!-- V46S3P2&#45;&gt;V46S2P1 -->
<g id="edge18" class="edge">
<title>V46S3P2&#45;&gt;V46S2P1</title>
<path fill="none" stroke="black" d="M283.5,-449.6C283.5,-441.61 283.5,-432.69 283.5,-424.18"/>
<polygon fill="black" stroke="black" points="287,-424.08 283.5,-414.08 280,-424.08 287,-424.08"/>
</g>
</g>
</svg>
