<?xml version="1.0" encoding="UTF-8" standalone="no"?>
<!DOCTYPE svg PUBLIC "-//W3C//DTD SVG 1.1//EN"
 "http://www.w3.org/Graphics/SVG/1.1/DTD/svg11.dtd">
<!-- Generated by graphviz version 2.43.0 (0)
 -->
<!-- Pages: 1 -->
<svg width="527pt" height="820pt"
 viewBox="0.00 0.00 527.00 820.00" xmlns="http://www.w3.org/2000/svg" xmlns:xlink="http://www.w3.org/1999/xlink">
<g id="graph0" class="graph" transform="scale(1 1) rotate(0) translate(4 816)">
<polygon fill="white" stroke="transparent" points="-4,4 -4,-816 523,-816 523,4 -4,4"/>
<!-- ROOT -->
<g id="node1" class="node">
<title>ROOT</title>
<polygon fill="#0000ff" fill-opacity="0.250980" stroke="black" points="258,-812 45,-812 45,-758 258,-758 258,-812"/>
<text text-anchor="middle" x="151.5" y="-781.3" font-family="Times,serif" font-size="14.00">seq_DBdirect_MIS006_POC</text>
</g>
<!-- V0 -->
<g id="node2" class="node">
<title>V0</title>
<polygon fill="#0000ff" fill-opacity="0.250980" stroke="black" points="194.5,-721 108.5,-721 108.5,-667 194.5,-667 194.5,-721"/>
<text text-anchor="middle" x="151.5" y="-690.3" font-family="Times,serif" font-size="14.00">Job_VIEW</text>
</g>
<!-- ROOT&#45;&gt;V0 -->
<g id="edge1" class="edge">
<title>ROOT&#45;&gt;V0</title>
<path fill="none" stroke="black" d="M151.5,-757.78C151.5,-749.45 151.5,-740.09 151.5,-731.18"/>
<polygon fill="black" stroke="black" points="155,-731.03 151.5,-721.03 148,-731.03 155,-731.03"/>
</g>
<!-- V0A12 -->
<g id="node3" class="node">
<title>V0A12</title>
<polygon fill="#0000ff" fill-opacity="0.250980" stroke="black" points="139,-630 76,-630 76,-576 139,-576 139,-630"/>
<text text-anchor="middle" x="107.5" y="-599.3" font-family="Times,serif" font-size="14.00">V0A12</text>
</g>
<!-- V0&#45;&gt;V0A12 -->
<g id="edge2" class="edge">
<title>V0&#45;&gt;V0A12</title>
<path fill="none" stroke="black" d="M138.54,-666.78C134.24,-658.09 129.39,-648.27 124.82,-639.03"/>
<polygon fill="black" stroke="black" points="127.94,-637.45 120.37,-630.03 121.67,-640.55 127.94,-637.45"/>
</g>
<!-- V0S36 -->
<g id="node4" class="node">
<title>V0S36</title>
<polygon fill="#0000ff" fill-opacity="0.250980" stroke="black" points="362,-630 157,-630 157,-576 362,-576 362,-630"/>
<text text-anchor="middle" x="259.5" y="-599.3" font-family="Times,serif" font-size="14.00">UserVariables_BinaryDate</text>
</g>
<!-- V0&#45;&gt;V0S36 -->
<g id="edge3" class="edge">
<title>V0&#45;&gt;V0S36</title>
<path fill="none" stroke="black" d="M183.32,-666.78C194.85,-657.27 208.02,-646.42 220.13,-636.44"/>
<polygon fill="black" stroke="black" points="222.42,-639.09 227.91,-630.03 217.96,-633.69 222.42,-639.09"/>
</g>
<!-- V0S26P4 -->
<g id="node7" class="node">
<title>V0S26P4</title>
<polygon fill="#0000ff" fill-opacity="0.250980" stroke="black" points="519,-529 0,-529 0,-475 519,-475 519,-529"/>
<text text-anchor="middle" x="259.5" y="-498.3" font-family="Times,serif" font-size="14.00">Sub_Seq_DbDirect_MIS006_Seq_Sub_Seq_DbDirect_MIS006_Seq_Part</text>
</g>
<!-- V0S36&#45;&gt;V0S26P4 -->
<g id="edge8" class="edge">
<title>V0S36&#45;&gt;V0S26P4</title>
<path fill="none" stroke="black" d="M259.5,-575.99C259.5,-564.82 259.5,-551.58 259.5,-539.46"/>
<polygon fill="black" stroke="black" points="263,-539.18 259.5,-529.18 256,-539.18 263,-539.18"/>
<text text-anchor="middle" x="342.5" y="-550" font-family="Times,serif" font-size="10.00">Sub_Seq_DbDirect_MIS006_Seq</text>
</g>
<!-- V0S26 -->
<g id="node5" class="node">
<title>V0S26</title>
<polygon fill="#0000ff" fill-opacity="0.250980" stroke="black" points="382.5,-438 136.5,-438 136.5,-384 382.5,-384 382.5,-438"/>
<text text-anchor="middle" x="259.5" y="-407.3" font-family="Times,serif" font-size="14.00">Sub_Seq_DbDirect_MIS006_Seq</text>
</g>
<!-- V0S29P1 -->
<g id="node6" class="node">
<title>V0S29P1</title>
<polygon fill="#0000ff" fill-opacity="0.250980" stroke="black" points="442,-337 77,-337 77,-283 442,-283 442,-337"/>
<text text-anchor="middle" x="259.5" y="-306.3" font-family="Times,serif" font-size="14.00">job_DBdirect_MIS006_DS_Ld_Dataset_Load_Part</text>
</g>
<!-- V0S26&#45;&gt;V0S29P1 -->
<g id="edge4" class="edge">
<title>V0S26&#45;&gt;V0S29P1</title>
<path fill="none" stroke="black" d="M259.5,-383.99C259.5,-372.82 259.5,-359.58 259.5,-347.46"/>
<polygon fill="black" stroke="black" points="263,-347.18 259.5,-337.18 256,-347.18 263,-347.18"/>
<text text-anchor="middle" x="294.5" y="-358" font-family="Times,serif" font-size="10.00">Dataset_Load</text>
</g>
<!-- V0S29 -->
<g id="node8" class="node">
<title>V0S29</title>
<polygon fill="#0000ff" fill-opacity="0.250980" stroke="black" points="371.5,-246 147.5,-246 147.5,-192 371.5,-192 371.5,-246"/>
<text text-anchor="middle" x="259.5" y="-215.3" font-family="Times,serif" font-size="14.00">job_DBdirect_MIS006_DS_Ld</text>
</g>
<!-- V0S29P1&#45;&gt;V0S29 -->
<g id="edge7" class="edge">
<title>V0S29P1&#45;&gt;V0S29</title>
<path fill="none" stroke="black" d="M259.5,-282.78C259.5,-274.45 259.5,-265.09 259.5,-256.18"/>
<polygon fill="black" stroke="black" points="263,-256.03 259.5,-246.03 256,-256.03 263,-256.03"/>
</g>
<!-- V0S26P4&#45;&gt;V0S26 -->
<g id="edge5" class="edge">
<title>V0S26P4&#45;&gt;V0S26</title>
<path fill="none" stroke="black" d="M259.5,-474.78C259.5,-466.45 259.5,-457.09 259.5,-448.18"/>
<polygon fill="black" stroke="black" points="263,-448.03 259.5,-438.03 256,-448.03 263,-448.03"/>
</g>
<!-- V0S40P1 -->
<g id="node9" class="node">
<title>V0S40P1</title>
<polygon fill="#0000ff" fill-opacity="0.250980" stroke="black" points="432.5,-145 86.5,-145 86.5,-91 432.5,-91 432.5,-145"/>
<text text-anchor="middle" x="259.5" y="-114.3" font-family="Times,serif" font-size="14.00">job_DBdirect_MIS006_Ld_Final_NZ_Load_Part</text>
</g>
<!-- V0S29&#45;&gt;V0S40P1 -->
<g id="edge6" class="edge">
<title>V0S29&#45;&gt;V0S40P1</title>
<path fill="none" stroke="black" d="M259.5,-191.99C259.5,-180.82 259.5,-167.58 259.5,-155.46"/>
<polygon fill="black" stroke="black" points="263,-155.18 259.5,-145.18 256,-155.18 263,-155.18"/>
<text text-anchor="middle" x="298.5" y="-166" font-family="Times,serif" font-size="10.00">Final_NZ_Load</text>
</g>
<!-- V0S40 -->
<g id="node10" class="node">
<title>V0S40</title>
<polygon fill="#0000ff" fill-opacity="0.250980" stroke="black" points="358,-54 161,-54 161,0 358,0 358,-54"/>
<text text-anchor="middle" x="259.5" y="-23.3" font-family="Times,serif" font-size="14.00">job_DBdirect_MIS006_Ld</text>
</g>
<!-- V0S40P1&#45;&gt;V0S40 -->
<g id="edge9" class="edge">
<title>V0S40P1&#45;&gt;V0S40</title>
<path fill="none" stroke="black" d="M259.5,-90.78C259.5,-82.45 259.5,-73.09 259.5,-64.18"/>
<polygon fill="black" stroke="black" points="263,-64.03 259.5,-54.03 256,-64.03 263,-64.03"/>
</g>
</g>
</svg>
