<?xml version="1.0" encoding="UTF-8" standalone="no"?>
<!DOCTYPE svg PUBLIC "-//W3C//DTD SVG 1.1//EN"
 "http://www.w3.org/Graphics/SVG/1.1/DTD/svg11.dtd">
<!-- Generated by graphviz version 2.43.0 (0)
 -->
<!-- Pages: 1 -->
<svg width="527pt" height="1052pt"
 viewBox="0.00 0.00 527.00 1052.00" xmlns="http://www.w3.org/2000/svg" xmlns:xlink="http://www.w3.org/1999/xlink">
<g id="graph0" class="graph" transform="scale(1 1) rotate(0) translate(4 1048)">
<polygon fill="white" stroke="transparent" points="-4,4 -4,-1048 523,-1048 523,4 -4,4"/>
<!-- ROOT -->
<g id="node1" class="node">
<title>ROOT</title>
<polygon fill="#0000ff" fill-opacity="0.250980" stroke="black" points="290,-1044 77,-1044 77,-990 290,-990 290,-1044"/>
<text text-anchor="middle" x="183.5" y="-1013.3" font-family="Times,serif" font-size="14.00">seq_DBdirect_MIS006_POC</text>
</g>
<!-- V0 -->
<g id="node2" class="node">
<title>V0</title>
<polygon fill="#0000ff" fill-opacity="0.250980" stroke="black" points="226.5,-954 140.5,-954 140.5,-900 226.5,-900 226.5,-954"/>
<text text-anchor="middle" x="183.5" y="-923.3" font-family="Times,serif" font-size="14.00">Job_VIEW</text>
</g>
<!-- ROOT&#45;&gt;V0 -->
<g id="edge1" class="edge">
<title>ROOT&#45;&gt;V0</title>
<path fill="none" stroke="black" d="M183.5,-989.6C183.5,-981.61 183.5,-972.69 183.5,-964.18"/>
<polygon fill="black" stroke="black" points="187,-964.08 183.5,-954.08 180,-964.08 187,-964.08"/>
</g>
<!-- V0A12 -->
<g id="node3" class="node">
<title>V0A12</title>
<polygon fill="#0000ff" fill-opacity="0.250980" stroke="black" points="139,-864 76,-864 76,-810 139,-810 139,-864"/>
<text text-anchor="middle" x="107.5" y="-833.3" font-family="Times,serif" font-size="14.00">V0A12</text>
</g>
<!-- V0&#45;&gt;V0A12 -->
<g id="edge2" class="edge">
<title>V0&#45;&gt;V0A12</title>
<path fill="none" stroke="black" d="M160.7,-899.6C153.11,-890.82 144.56,-880.92 136.57,-871.66"/>
<polygon fill="black" stroke="black" points="139.21,-869.36 130.02,-864.08 133.91,-873.94 139.21,-869.36"/>
</g>
<!-- V0S36 -->
<g id="node4" class="node">
<title>V0S36</title>
<polygon fill="#0000ff" fill-opacity="0.250980" stroke="black" points="362,-864 157,-864 157,-810 362,-810 362,-864"/>
<text text-anchor="middle" x="259.5" y="-833.3" font-family="Times,serif" font-size="14.00">UserVariables_BinaryDate</text>
</g>
<!-- V0&#45;&gt;V0S36 -->
<g id="edge3" class="edge">
<title>V0&#45;&gt;V0S36</title>
<path fill="none" stroke="black" d="M206.3,-899.6C213.89,-890.82 222.44,-880.92 230.43,-871.66"/>
<polygon fill="black" stroke="black" points="233.09,-873.94 236.98,-864.08 227.79,-869.36 233.09,-873.94"/>
</g>
<!-- V0S36P1 -->
<g id="node12" class="node">
<title>V0S36P1</title>
<polygon fill="#0000ff" fill-opacity="0.250980" stroke="black" points="480,-774 39,-774 39,-720 480,-720 480,-774"/>
<text text-anchor="middle" x="259.5" y="-743.3" font-family="Times,serif" font-size="14.00">UserVariables_BinaryDate_Sub_Seq_DbDirect_MIS006_Seq</text>
</g>
<!-- V0S36&#45;&gt;V0S36P1 -->
<g id="edge10" class="edge">
<title>V0S36&#45;&gt;V0S36P1</title>
<path fill="none" stroke="black" d="M259.5,-809.6C259.5,-801.61 259.5,-792.69 259.5,-784.18"/>
<polygon fill="black" stroke="black" points="263,-784.08 259.5,-774.08 256,-784.08 263,-784.08"/>
</g>
<!-- V0S26 -->
<g id="node5" class="node">
<title>V0S26</title>
<polygon fill="#0000ff" fill-opacity="0.250980" stroke="black" points="382.5,-594 136.5,-594 136.5,-540 382.5,-540 382.5,-594"/>
<text text-anchor="middle" x="259.5" y="-563.3" font-family="Times,serif" font-size="14.00">Sub_Seq_DbDirect_MIS006_Seq</text>
</g>
<!-- V0S26P1 -->
<g id="node6" class="node">
<title>V0S26P1</title>
<polygon fill="#0000ff" fill-opacity="0.250980" stroke="black" points="434.5,-504 84.5,-504 84.5,-450 434.5,-450 434.5,-504"/>
<text text-anchor="middle" x="259.5" y="-473.3" font-family="Times,serif" font-size="14.00">Sub_Seq_DbDirect_MIS006_Seq_Dataset_Load</text>
</g>
<!-- V0S26&#45;&gt;V0S26P1 -->
<g id="edge4" class="edge">
<title>V0S26&#45;&gt;V0S26P1</title>
<path fill="none" stroke="black" d="M259.5,-539.6C259.5,-531.61 259.5,-522.69 259.5,-514.18"/>
<polygon fill="black" stroke="black" points="263,-514.08 259.5,-504.08 256,-514.08 263,-514.08"/>
</g>
<!-- V0S29P1 -->
<g id="node7" class="node">
<title>V0S29P1</title>
<polygon fill="#0000ff" fill-opacity="0.250980" stroke="black" points="442,-414 77,-414 77,-360 442,-360 442,-414"/>
<text text-anchor="middle" x="259.5" y="-383.3" font-family="Times,serif" font-size="14.00">job_DBdirect_MIS006_DS_Ld_Dataset_Load_Part</text>
</g>
<!-- V0S26P1&#45;&gt;V0S29P1 -->
<g id="edge5" class="edge">
<title>V0S26P1&#45;&gt;V0S29P1</title>
<path fill="none" stroke="black" d="M259.5,-449.6C259.5,-441.61 259.5,-432.69 259.5,-424.18"/>
<polygon fill="black" stroke="black" points="263,-424.08 259.5,-414.08 256,-424.08 263,-424.08"/>
</g>
<!-- V0S29 -->
<g id="node9" class="node">
<title>V0S29</title>
<polygon fill="#0000ff" fill-opacity="0.250980" stroke="black" points="371.5,-324 147.5,-324 147.5,-270 371.5,-270 371.5,-324"/>
<text text-anchor="middle" x="259.5" y="-293.3" font-family="Times,serif" font-size="14.00">job_DBdirect_MIS006_DS_Ld</text>
</g>
<!-- V0S29P1&#45;&gt;V0S29 -->
<g id="edge8" class="edge">
<title>V0S29P1&#45;&gt;V0S29</title>
<path fill="none" stroke="black" d="M259.5,-359.6C259.5,-351.61 259.5,-342.69 259.5,-334.18"/>
<polygon fill="black" stroke="black" points="263,-334.08 259.5,-324.08 256,-334.08 263,-334.08"/>
</g>
<!-- V0S26P4 -->
<g id="node8" class="node">
<title>V0S26P4</title>
<polygon fill="#0000ff" fill-opacity="0.250980" stroke="black" points="519,-684 0,-684 0,-630 519,-630 519,-684"/>
<text text-anchor="middle" x="259.5" y="-653.3" font-family="Times,serif" font-size="14.00">Sub_Seq_DbDirect_MIS006_Seq_Sub_Seq_DbDirect_MIS006_Seq_Part</text>
</g>
<!-- V0S26P4&#45;&gt;V0S26 -->
<g id="edge6" class="edge">
<title>V0S26P4&#45;&gt;V0S26</title>
<path fill="none" stroke="black" d="M259.5,-629.6C259.5,-621.61 259.5,-612.69 259.5,-604.18"/>
<polygon fill="black" stroke="black" points="263,-604.08 259.5,-594.08 256,-604.08 263,-604.08"/>
</g>
<!-- V0S29P2 -->
<g id="node10" class="node">
<title>V0S29P2</title>
<polygon fill="#0000ff" fill-opacity="0.250980" stroke="black" points="428,-234 91,-234 91,-180 428,-180 428,-234"/>
<text text-anchor="middle" x="259.5" y="-203.3" font-family="Times,serif" font-size="14.00">job_DBdirect_MIS006_DS_Ld_Final_NZ_Load</text>
</g>
<!-- V0S29&#45;&gt;V0S29P2 -->
<g id="edge7" class="edge">
<title>V0S29&#45;&gt;V0S29P2</title>
<path fill="none" stroke="black" d="M259.5,-269.6C259.5,-261.61 259.5,-252.69 259.5,-244.18"/>
<polygon fill="black" stroke="black" points="263,-244.08 259.5,-234.08 256,-244.08 263,-244.08"/>
</g>
<!-- V0S40P1 -->
<g id="node11" class="node">
<title>V0S40P1</title>
<polygon fill="#0000ff" fill-opacity="0.250980" stroke="black" points="432.5,-144 86.5,-144 86.5,-90 432.5,-90 432.5,-144"/>
<text text-anchor="middle" x="259.5" y="-113.3" font-family="Times,serif" font-size="14.00">job_DBdirect_MIS006_Ld_Final_NZ_Load_Part</text>
</g>
<!-- V0S29P2&#45;&gt;V0S40P1 -->
<g id="edge9" class="edge">
<title>V0S29P2&#45;&gt;V0S40P1</title>
<path fill="none" stroke="black" d="M259.5,-179.6C259.5,-171.61 259.5,-162.69 259.5,-154.18"/>
<polygon fill="black" stroke="black" points="263,-154.08 259.5,-144.08 256,-154.08 263,-154.08"/>
</g>
<!-- V0S40 -->
<g id="node13" class="node">
<title>V0S40</title>
<polygon fill="#0000ff" fill-opacity="0.250980" stroke="black" points="358,-54 161,-54 161,0 358,0 358,-54"/>
<text text-anchor="middle" x="259.5" y="-23.3" font-family="Times,serif" font-size="14.00">job_DBdirect_MIS006_Ld</text>
</g>
<!-- V0S40P1&#45;&gt;V0S40 -->
<g id="edge12" class="edge">
<title>V0S40P1&#45;&gt;V0S40</title>
<path fill="none" stroke="black" d="M259.5,-89.6C259.5,-81.61 259.5,-72.69 259.5,-64.18"/>
<polygon fill="black" stroke="black" points="263,-64.08 259.5,-54.08 256,-64.08 263,-64.08"/>
</g>
<!-- V0S36P1&#45;&gt;V0S26P4 -->
<g id="edge11" class="edge">
<title>V0S36P1&#45;&gt;V0S26P4</title>
<path fill="none" stroke="black" d="M259.5,-719.6C259.5,-711.61 259.5,-702.69 259.5,-694.18"/>
<polygon fill="black" stroke="black" points="263,-694.08 259.5,-684.08 256,-694.08 263,-694.08"/>
</g>
</g>
</svg>
