<?xml version="1.0" encoding="UTF-8" standalone="no"?>
<!DOCTYPE svg PUBLIC "-//W3C//DTD SVG 1.1//EN"
 "http://www.w3.org/Graphics/SVG/1.1/DTD/svg11.dtd">
<!-- Generated by graphviz version 2.43.0 (0)
 -->
<!-- Pages: 1 -->
<svg width="934pt" height="1052pt"
 viewBox="0.00 0.00 933.50 1052.00" xmlns="http://www.w3.org/2000/svg" xmlns:xlink="http://www.w3.org/1999/xlink">
<g id="graph0" class="graph" transform="scale(1 1) rotate(0) translate(4 1048)">
<polygon fill="white" stroke="transparent" points="-4,4 -4,-1048 929.5,-1048 929.5,4 -4,4"/>
<!-- ROOT -->
<g id="node1" class="node">
<title>ROOT</title>
<polygon fill="#0000ff" fill-opacity="0.250980" stroke="black" points="648,-1044 349,-1044 349,-990 648,-990 648,-1044"/>
<text text-anchor="middle" x="498.5" y="-1013.3" font-family="Times,serif" font-size="14.00">job_DBdirect_MIS006_RELM_Extr_POC</text>
</g>
<!-- V0 -->
<g id="node2" class="node">
<title>V0</title>
<polygon fill="#0000ff" fill-opacity="0.250980" stroke="black" points="541.5,-954 455.5,-954 455.5,-900 541.5,-900 541.5,-954"/>
<text text-anchor="middle" x="498.5" y="-923.3" font-family="Times,serif" font-size="14.00">Job_VIEW</text>
</g>
<!-- ROOT&#45;&gt;V0 -->
<g id="edge1" class="edge">
<title>ROOT&#45;&gt;V0</title>
<path fill="none" stroke="black" d="M498.5,-989.6C498.5,-981.61 498.5,-972.69 498.5,-964.18"/>
<polygon fill="black" stroke="black" points="502,-964.08 498.5,-954.08 495,-964.08 502,-964.08"/>
</g>
<!-- V0A13 -->
<g id="node3" class="node">
<title>V0A13</title>
<polygon fill="#0000ff" fill-opacity="0.250980" stroke="black" points="63,-864 0,-864 0,-810 63,-810 63,-864"/>
<text text-anchor="middle" x="31.5" y="-833.3" font-family="Times,serif" font-size="14.00">V0A13</text>
</g>
<!-- V0&#45;&gt;V0A13 -->
<g id="edge2" class="edge">
<title>V0&#45;&gt;V0A13</title>
<path fill="none" stroke="black" d="M455.48,-925.79C378.5,-924.14 212.87,-914.81 72.78,-863.85"/>
<polygon fill="black" stroke="black" points="73.76,-860.48 63.17,-860.27 71.32,-867.04 73.76,-860.48"/>
</g>
<!-- V0A26 -->
<g id="node4" class="node">
<title>V0A26</title>
<polygon fill="#0000ff" fill-opacity="0.250980" stroke="black" points="144,-864 81,-864 81,-810 144,-810 144,-864"/>
<text text-anchor="middle" x="112.5" y="-833.3" font-family="Times,serif" font-size="14.00">V0A26</text>
</g>
<!-- V0&#45;&gt;V0A26 -->
<g id="edge3" class="edge">
<title>V0&#45;&gt;V0A26</title>
<path fill="none" stroke="black" d="M455.47,-923.78C390.42,-919.25 263.78,-905.88 153.78,-863.91"/>
<polygon fill="black" stroke="black" points="154.79,-860.55 144.21,-860.17 152.25,-867.07 154.79,-860.55"/>
</g>
<!-- V0S3 -->
<g id="node5" class="node">
<title>V0S3</title>
<polygon fill="#0000ff" fill-opacity="0.250980" stroke="black" points="357,-864 162,-864 162,-810 357,-810 357,-864"/>
<text text-anchor="middle" x="259.5" y="-833.3" font-family="Times,serif" font-size="14.00">NETZ_SRC_RELM_DLCD</text>
</g>
<!-- V0&#45;&gt;V0S3 -->
<g id="edge4" class="edge">
<title>V0&#45;&gt;V0S3</title>
<path fill="none" stroke="black" d="M455.5,-910.17C423.41,-898.35 378.62,-881.86 339.96,-867.63"/>
<polygon fill="black" stroke="black" points="340.87,-864.23 330.28,-864.06 338.45,-870.8 340.87,-864.23"/>
</g>
<!-- V1S0 -->
<g id="node6" class="node">
<title>V1S0</title>
<polygon fill="#0000ff" fill-opacity="0.250980" stroke="black" points="621.5,-864 375.5,-864 375.5,-810 621.5,-810 621.5,-864"/>
<text text-anchor="middle" x="498.5" y="-833.3" font-family="Times,serif" font-size="14.00">NETZ_SRC_COLM_CHPM_INSU</text>
</g>
<!-- V0&#45;&gt;V1S0 -->
<g id="edge5" class="edge">
<title>V0&#45;&gt;V1S0</title>
<path fill="none" stroke="black" d="M498.5,-899.6C498.5,-891.61 498.5,-882.69 498.5,-874.18"/>
<polygon fill="black" stroke="black" points="502,-874.08 498.5,-864.08 495,-874.08 502,-874.08"/>
</g>
<!-- V3S0 -->
<g id="node7" class="node">
<title>V3S0</title>
<polygon fill="#0000ff" fill-opacity="0.250980" stroke="black" points="781,-864 640,-864 640,-810 781,-810 781,-864"/>
<text text-anchor="middle" x="710.5" y="-833.3" font-family="Times,serif" font-size="14.00">NETZ_SRC_COLT</text>
</g>
<!-- V0&#45;&gt;V3S0 -->
<g id="edge6" class="edge">
<title>V0&#45;&gt;V3S0</title>
<path fill="none" stroke="black" d="M541.66,-908.09C569.42,-896.56 606.2,-881.3 638.33,-867.96"/>
<polygon fill="black" stroke="black" points="639.81,-871.13 647.7,-864.07 637.12,-864.67 639.81,-871.13"/>
</g>
<!-- V4A0 -->
<g id="node8" class="node">
<title>V4A0</title>
<polygon fill="#0000ff" fill-opacity="0.250980" stroke="black" points="853.5,-864 799.5,-864 799.5,-810 853.5,-810 853.5,-864"/>
<text text-anchor="middle" x="826.5" y="-833.3" font-family="Times,serif" font-size="14.00">V4A0</text>
</g>
<!-- V0&#45;&gt;V4A0 -->
<g id="edge7" class="edge">
<title>V0&#45;&gt;V4A0</title>
<path fill="none" stroke="black" d="M541.8,-922.45C598.43,-916.61 700.08,-901.99 790.07,-863.44"/>
<polygon fill="black" stroke="black" points="791.55,-866.61 799.29,-859.38 788.73,-860.2 791.55,-866.61"/>
</g>
<!-- V5A0 -->
<g id="node9" class="node">
<title>V5A0</title>
<polygon fill="#0000ff" fill-opacity="0.250980" stroke="black" points="925.5,-864 871.5,-864 871.5,-810 925.5,-810 925.5,-864"/>
<text text-anchor="middle" x="898.5" y="-833.3" font-family="Times,serif" font-size="14.00">V5A0</text>
</g>
<!-- V0&#45;&gt;V5A0 -->
<g id="edge8" class="edge">
<title>V0&#45;&gt;V5A0</title>
<path fill="none" stroke="black" d="M541.73,-924.92C609.9,-921.9 745.73,-910.49 861.95,-863.41"/>
<polygon fill="black" stroke="black" points="863.46,-866.57 871.35,-859.5 860.77,-860.11 863.46,-866.57"/>
</g>
<!-- V0S3P1 -->
<g id="node19" class="node">
<title>V0S3P1</title>
<polygon fill="#0000ff" fill-opacity="0.250980" stroke="black" points="335.5,-774 55.5,-774 55.5,-720 335.5,-720 335.5,-774"/>
<text text-anchor="middle" x="195.5" y="-743.3" font-family="Times,serif" font-size="14.00">NETZ_SRC_RELM_DLCD_lnk_Source</text>
</g>
<!-- V0S3&#45;&gt;V0S3P1 -->
<g id="edge17" class="edge">
<title>V0S3&#45;&gt;V0S3P1</title>
<path fill="none" stroke="black" d="M240.3,-809.6C234.04,-800.99 227,-791.31 220.39,-782.22"/>
<polygon fill="black" stroke="black" points="223.18,-780.11 214.47,-774.08 217.52,-784.23 223.18,-780.11"/>
</g>
<!-- V1S0P1 -->
<g id="node20" class="node">
<title>V1S0P1</title>
<polygon fill="#0000ff" fill-opacity="0.250980" stroke="black" points="643.5,-774 353.5,-774 353.5,-720 643.5,-720 643.5,-774"/>
<text text-anchor="middle" x="498.5" y="-743.3" font-family="Times,serif" font-size="14.00">NETZ_SRC_COLM_CHPM_INSU_Colm</text>
</g>
<!-- V1S0&#45;&gt;V1S0P1 -->
<g id="edge19" class="edge">
<title>V1S0&#45;&gt;V1S0P1</title>
<path fill="none" stroke="black" d="M498.5,-809.6C498.5,-801.61 498.5,-792.69 498.5,-784.18"/>
<polygon fill="black" stroke="black" points="502,-784.08 498.5,-774.08 495,-784.08 502,-784.08"/>
</g>
<!-- V3S0P1 -->
<g id="node22" class="node">
<title>V3S0P1</title>
<polygon fill="#0000ff" fill-opacity="0.250980" stroke="black" points="839,-774 662,-774 662,-720 839,-720 839,-774"/>
<text text-anchor="middle" x="750.5" y="-743.3" font-family="Times,serif" font-size="14.00">NETZ_SRC_COLT_Colt</text>
</g>
<!-- V3S0&#45;&gt;V3S0P1 -->
<g id="edge22" class="edge">
<title>V3S0&#45;&gt;V3S0P1</title>
<path fill="none" stroke="black" d="M722.5,-809.6C726.25,-801.34 730.45,-792.1 734.44,-783.34"/>
<polygon fill="black" stroke="black" points="737.69,-784.63 738.64,-774.08 731.32,-781.74 737.69,-784.63"/>
</g>
<!-- V0S18 -->
<g id="node10" class="node">
<title>V0S18</title>
<polygon fill="#0000ff" fill-opacity="0.250980" stroke="black" points="532.5,-594 464.5,-594 464.5,-540 532.5,-540 532.5,-594"/>
<text text-anchor="middle" x="498.5" y="-563.3" font-family="Times,serif" font-size="14.00">Join_18</text>
</g>
<!-- V0S18P4 -->
<g id="node11" class="node">
<title>V0S18P4</title>
<polygon fill="#0000ff" fill-opacity="0.250980" stroke="black" points="571,-504 426,-504 426,-450 571,-450 571,-504"/>
<text text-anchor="middle" x="498.5" y="-473.3" font-family="Times,serif" font-size="14.00">Join_18_DSLink22</text>
</g>
<!-- V0S18&#45;&gt;V0S18P4 -->
<g id="edge9" class="edge">
<title>V0S18&#45;&gt;V0S18P4</title>
<path fill="none" stroke="black" d="M498.5,-539.6C498.5,-531.61 498.5,-522.69 498.5,-514.18"/>
<polygon fill="black" stroke="black" points="502,-514.08 498.5,-504.08 495,-514.08 502,-514.08"/>
</g>
<!-- V0S24P1 -->
<g id="node14" class="node">
<title>V0S24P1</title>
<polygon fill="#0000ff" fill-opacity="0.250980" stroke="black" points="620.5,-414 376.5,-414 376.5,-360 620.5,-360 620.5,-414"/>
<text text-anchor="middle" x="498.5" y="-383.3" font-family="Times,serif" font-size="14.00">Transformer_24_DSLink22_Part</text>
</g>
<!-- V0S18P4&#45;&gt;V0S24P1 -->
<g id="edge12" class="edge">
<title>V0S18P4&#45;&gt;V0S24P1</title>
<path fill="none" stroke="black" d="M498.5,-449.6C498.5,-441.61 498.5,-432.69 498.5,-424.18"/>
<polygon fill="black" stroke="black" points="502,-424.08 498.5,-414.08 495,-424.08 502,-424.08"/>
</g>
<!-- V0S18P1 -->
<g id="node12" class="node">
<title>V0S18P1</title>
<polygon fill="#0000ff" fill-opacity="0.250980" stroke="black" points="348.5,-684 158.5,-684 158.5,-630 348.5,-630 348.5,-684"/>
<text text-anchor="middle" x="253.5" y="-653.3" font-family="Times,serif" font-size="14.00">Join_18_lnk_Source_Part</text>
</g>
<!-- V0S18P1&#45;&gt;V0S18 -->
<g id="edge10" class="edge">
<title>V0S18P1&#45;&gt;V0S18</title>
<path fill="none" stroke="black" d="M326.01,-629.95C367.8,-614.94 418.96,-596.57 454.66,-583.75"/>
<polygon fill="black" stroke="black" points="456.07,-586.96 464.3,-580.28 453.71,-580.37 456.07,-586.96"/>
</g>
<!-- V0S18P3 -->
<g id="node13" class="node">
<title>V0S18P3</title>
<polygon fill="#0000ff" fill-opacity="0.250980" stroke="black" points="573,-684 424,-684 424,-630 573,-630 573,-684"/>
<text text-anchor="middle" x="498.5" y="-653.3" font-family="Times,serif" font-size="14.00">Join_18_Colm_Part</text>
</g>
<!-- V0S18P3&#45;&gt;V0S18 -->
<g id="edge11" class="edge">
<title>V0S18P3&#45;&gt;V0S18</title>
<path fill="none" stroke="black" d="M498.5,-629.6C498.5,-621.61 498.5,-612.69 498.5,-604.18"/>
<polygon fill="black" stroke="black" points="502,-604.08 498.5,-594.08 495,-604.08 502,-604.08"/>
</g>
<!-- V0S24 -->
<g id="node16" class="node">
<title>V0S24</title>
<polygon fill="#0000ff" fill-opacity="0.250980" stroke="black" points="564,-324 433,-324 433,-270 564,-270 564,-324"/>
<text text-anchor="middle" x="498.5" y="-293.3" font-family="Times,serif" font-size="14.00">Transformer_24</text>
</g>
<!-- V0S24P1&#45;&gt;V0S24 -->
<g id="edge15" class="edge">
<title>V0S24P1&#45;&gt;V0S24</title>
<path fill="none" stroke="black" d="M498.5,-359.6C498.5,-351.61 498.5,-342.69 498.5,-334.18"/>
<polygon fill="black" stroke="black" points="502,-334.08 498.5,-324.08 495,-334.08 502,-334.08"/>
</g>
<!-- V0S18P5 -->
<g id="node15" class="node">
<title>V0S18P5</title>
<polygon fill="#0000ff" fill-opacity="0.250980" stroke="black" points="776,-684 635,-684 635,-630 776,-630 776,-684"/>
<text text-anchor="middle" x="705.5" y="-653.3" font-family="Times,serif" font-size="14.00">Join_18_Colt_Part</text>
</g>
<!-- V0S18P5&#45;&gt;V0S18 -->
<g id="edge13" class="edge">
<title>V0S18P5&#45;&gt;V0S18</title>
<path fill="none" stroke="black" d="M644.23,-629.95C611.32,-615.96 571.52,-599.04 541.83,-586.42"/>
<polygon fill="black" stroke="black" points="543.15,-583.18 532.57,-582.49 540.41,-589.62 543.15,-583.18"/>
</g>
<!-- V0S24P2 -->
<g id="node17" class="node">
<title>V0S24P2</title>
<polygon fill="#0000ff" fill-opacity="0.250980" stroke="black" points="619,-234 378,-234 378,-180 619,-180 619,-234"/>
<text text-anchor="middle" x="498.5" y="-203.3" font-family="Times,serif" font-size="14.00">Transformer_24_lnk_RELM_Tgt</text>
</g>
<!-- V0S24&#45;&gt;V0S24P2 -->
<g id="edge14" class="edge">
<title>V0S24&#45;&gt;V0S24P2</title>
<path fill="none" stroke="black" d="M498.5,-269.6C498.5,-261.61 498.5,-252.69 498.5,-244.18"/>
<polygon fill="black" stroke="black" points="502,-244.08 498.5,-234.08 495,-244.08 502,-244.08"/>
</g>
<!-- V2S0P1 -->
<g id="node18" class="node">
<title>V2S0P1</title>
<polygon fill="#0000ff" fill-opacity="0.250980" stroke="black" points="657.5,-144 339.5,-144 339.5,-90 657.5,-90 657.5,-144"/>
<text text-anchor="middle" x="498.5" y="-113.3" font-family="Times,serif" font-size="14.00">DS_TGT_RELM_RELX_lnk_RELM_Tgt_Part</text>
</g>
<!-- V0S24P2&#45;&gt;V2S0P1 -->
<g id="edge16" class="edge">
<title>V0S24P2&#45;&gt;V2S0P1</title>
<path fill="none" stroke="black" d="M498.5,-179.6C498.5,-171.61 498.5,-162.69 498.5,-154.18"/>
<polygon fill="black" stroke="black" points="502,-154.08 498.5,-144.08 495,-154.08 502,-154.08"/>
</g>
<!-- V2S0 -->
<g id="node21" class="node">
<title>V2S0</title>
<polygon fill="#0000ff" fill-opacity="0.250980" stroke="black" points="584,-54 413,-54 413,0 584,0 584,-54"/>
<text text-anchor="middle" x="498.5" y="-23.3" font-family="Times,serif" font-size="14.00">DS_TGT_RELM_RELX</text>
</g>
<!-- V2S0P1&#45;&gt;V2S0 -->
<g id="edge21" class="edge">
<title>V2S0P1&#45;&gt;V2S0</title>
<path fill="none" stroke="black" d="M498.5,-89.6C498.5,-81.61 498.5,-72.69 498.5,-64.18"/>
<polygon fill="black" stroke="black" points="502,-64.08 498.5,-54.08 495,-64.08 502,-64.08"/>
</g>
<!-- V0S3P1&#45;&gt;V0S18P1 -->
<g id="edge18" class="edge">
<title>V0S3P1&#45;&gt;V0S18P1</title>
<path fill="none" stroke="black" d="M212.9,-719.6C218.52,-711.08 224.82,-701.51 230.76,-692.5"/>
<polygon fill="black" stroke="black" points="233.73,-694.36 236.31,-684.08 227.88,-690.5 233.73,-694.36"/>
</g>
<!-- V1S0P1&#45;&gt;V0S18P3 -->
<g id="edge20" class="edge">
<title>V1S0P1&#45;&gt;V0S18P3</title>
<path fill="none" stroke="black" d="M498.5,-719.6C498.5,-711.61 498.5,-702.69 498.5,-694.18"/>
<polygon fill="black" stroke="black" points="502,-694.08 498.5,-684.08 495,-694.08 502,-694.08"/>
</g>
<!-- V3S0P1&#45;&gt;V0S18P5 -->
<g id="edge23" class="edge">
<title>V3S0P1&#45;&gt;V0S18P5</title>
<path fill="none" stroke="black" d="M737,-719.6C732.73,-711.26 727.95,-701.9 723.43,-693.06"/>
<polygon fill="black" stroke="black" points="726.51,-691.39 718.84,-684.08 720.27,-694.58 726.51,-691.39"/>
</g>
</g>
</svg>
