<?xml version="1.0" encoding="UTF-8" standalone="no"?>
<!DOCTYPE svg PUBLIC "-//W3C//DTD SVG 1.1//EN"
 "http://www.w3.org/Graphics/SVG/1.1/DTD/svg11.dtd">
<!-- Generated by graphviz version 2.43.0 (0)
 -->
<!-- Pages: 1 -->
<svg width="934pt" height="820pt"
 viewBox="0.00 0.00 933.50 820.00" xmlns="http://www.w3.org/2000/svg" xmlns:xlink="http://www.w3.org/1999/xlink">
<g id="graph0" class="graph" transform="scale(1 1) rotate(0) translate(4 816)">
<polygon fill="white" stroke="transparent" points="-4,4 -4,-816 929.5,-816 929.5,4 -4,4"/>
<!-- ROOT -->
<g id="node1" class="node">
<title>ROOT</title>
<polygon fill="#0000ff" fill-opacity="0.250980" stroke="black" points="648,-812 349,-812 349,-758 648,-758 648,-812"/>
<text text-anchor="middle" x="498.5" y="-781.3" font-family="Times,serif" font-size="14.00">job_DBdirect_MIS006_RELM_Extr_POC</text>
</g>
<!-- V0 -->
<g id="node2" class="node">
<title>V0</title>
<polygon fill="#0000ff" fill-opacity="0.250980" stroke="black" points="541.5,-721 455.5,-721 455.5,-667 541.5,-667 541.5,-721"/>
<text text-anchor="middle" x="498.5" y="-690.3" font-family="Times,serif" font-size="14.00">Job_VIEW</text>
</g>
<!-- ROOT&#45;&gt;V0 -->
<g id="edge1" class="edge">
<title>ROOT&#45;&gt;V0</title>
<path fill="none" stroke="black" d="M498.5,-757.78C498.5,-749.45 498.5,-740.09 498.5,-731.18"/>
<polygon fill="black" stroke="black" points="502,-731.03 498.5,-721.03 495,-731.03 502,-731.03"/>
</g>
<!-- V0A13 -->
<g id="node3" class="node">
<title>V0A13</title>
<polygon fill="#0000ff" fill-opacity="0.250980" stroke="black" points="63,-630 0,-630 0,-576 63,-576 63,-630"/>
<text text-anchor="middle" x="31.5" y="-599.3" font-family="Times,serif" font-size="14.00">V0A13</text>
</g>
<!-- V0&#45;&gt;V0A13 -->
<g id="edge2" class="edge">
<title>V0&#45;&gt;V0A13</title>
<path fill="none" stroke="black" d="M455.48,-692.66C378.5,-690.79 212.86,-681 72.78,-629.86"/>
<polygon fill="black" stroke="black" points="73.76,-626.49 63.17,-626.27 71.31,-633.04 73.76,-626.49"/>
</g>
<!-- V0A26 -->
<g id="node4" class="node">
<title>V0A26</title>
<polygon fill="#0000ff" fill-opacity="0.250980" stroke="black" points="144,-630 81,-630 81,-576 144,-576 144,-630"/>
<text text-anchor="middle" x="112.5" y="-599.3" font-family="Times,serif" font-size="14.00">V0A26</text>
</g>
<!-- V0&#45;&gt;V0A26 -->
<g id="edge3" class="edge">
<title>V0&#45;&gt;V0A26</title>
<path fill="none" stroke="black" d="M455.47,-690.62C390.42,-685.86 263.77,-672.07 153.78,-629.92"/>
<polygon fill="black" stroke="black" points="154.8,-626.56 144.21,-626.16 152.24,-633.08 154.8,-626.56"/>
</g>
<!-- V0S3 -->
<g id="node5" class="node">
<title>V0S3</title>
<polygon fill="#0000ff" fill-opacity="0.250980" stroke="black" points="357,-630 162,-630 162,-576 357,-576 357,-630"/>
<text text-anchor="middle" x="259.5" y="-599.3" font-family="Times,serif" font-size="14.00">NETZ_SRC_RELM_DLCD</text>
</g>
<!-- V0&#45;&gt;V0S3 -->
<g id="edge4" class="edge">
<title>V0&#45;&gt;V0S3</title>
<path fill="none" stroke="black" d="M455.5,-676.99C423.16,-664.94 377.93,-648.1 339.07,-633.63"/>
<polygon fill="black" stroke="black" points="339.93,-630.22 329.34,-630.01 337.49,-636.78 339.93,-630.22"/>
</g>
<!-- V1S0 -->
<g id="node6" class="node">
<title>V1S0</title>
<polygon fill="#0000ff" fill-opacity="0.250980" stroke="black" points="621.5,-630 375.5,-630 375.5,-576 621.5,-576 621.5,-630"/>
<text text-anchor="middle" x="498.5" y="-599.3" font-family="Times,serif" font-size="14.00">NETZ_SRC_COLM_CHPM_INSU</text>
</g>
<!-- V0&#45;&gt;V1S0 -->
<g id="edge5" class="edge">
<title>V0&#45;&gt;V1S0</title>
<path fill="none" stroke="black" d="M498.5,-666.78C498.5,-658.45 498.5,-649.09 498.5,-640.18"/>
<polygon fill="black" stroke="black" points="502,-640.03 498.5,-630.03 495,-640.03 502,-640.03"/>
</g>
<!-- V3S0 -->
<g id="node7" class="node">
<title>V3S0</title>
<polygon fill="#0000ff" fill-opacity="0.250980" stroke="black" points="781,-630 640,-630 640,-576 781,-576 781,-630"/>
<text text-anchor="middle" x="710.5" y="-599.3" font-family="Times,serif" font-size="14.00">NETZ_SRC_COLT</text>
</g>
<!-- V0&#45;&gt;V3S0 -->
<g id="edge6" class="edge">
<title>V0&#45;&gt;V3S0</title>
<path fill="none" stroke="black" d="M541.66,-674.88C569.64,-663.13 606.78,-647.54 639.1,-633.98"/>
<polygon fill="black" stroke="black" points="640.65,-637.12 648.51,-630.02 637.94,-630.67 640.65,-637.12"/>
</g>
<!-- V4A0 -->
<g id="node8" class="node">
<title>V4A0</title>
<polygon fill="#0000ff" fill-opacity="0.250980" stroke="black" points="853.5,-630 799.5,-630 799.5,-576 853.5,-576 853.5,-630"/>
<text text-anchor="middle" x="826.5" y="-599.3" font-family="Times,serif" font-size="14.00">V4A0</text>
</g>
<!-- V0&#45;&gt;V4A0 -->
<g id="edge7" class="edge">
<title>V0&#45;&gt;V4A0</title>
<path fill="none" stroke="black" d="M541.58,-689.08C599.87,-682.59 706.17,-666.5 789.5,-630 789.81,-629.86 790.12,-629.73 790.43,-629.58"/>
<polygon fill="black" stroke="black" points="792.14,-632.64 799.33,-624.86 788.86,-626.46 792.14,-632.64"/>
</g>
<!-- V5A0 -->
<g id="node9" class="node">
<title>V5A0</title>
<polygon fill="#0000ff" fill-opacity="0.250980" stroke="black" points="925.5,-630 871.5,-630 871.5,-576 925.5,-576 925.5,-630"/>
<text text-anchor="middle" x="898.5" y="-599.3" font-family="Times,serif" font-size="14.00">V5A0</text>
</g>
<!-- V0&#45;&gt;V5A0 -->
<g id="edge8" class="edge">
<title>V0&#45;&gt;V5A0</title>
<path fill="none" stroke="black" d="M541.75,-691.81C609.94,-688.6 745.8,-676.83 861.95,-629.42"/>
<polygon fill="black" stroke="black" points="863.47,-632.58 871.34,-625.49 860.77,-626.12 863.47,-632.58"/>
</g>
<!-- V0S18P1 -->
<g id="node12" class="node">
<title>V0S18P1</title>
<polygon fill="#0000ff" fill-opacity="0.250980" stroke="black" points="392.5,-529 202.5,-529 202.5,-475 392.5,-475 392.5,-529"/>
<text text-anchor="middle" x="297.5" y="-498.3" font-family="Times,serif" font-size="14.00">Join_18_lnk_Source_Part</text>
</g>
<!-- V0S3&#45;&gt;V0S18P1 -->
<g id="edge15" class="edge">
<title>V0S3&#45;&gt;V0S18P1</title>
<path fill="none" stroke="black" d="M269.48,-575.99C273.86,-564.6 279.06,-551.05 283.79,-538.73"/>
<polygon fill="black" stroke="black" points="287.13,-539.77 287.45,-529.18 280.6,-537.26 287.13,-539.77"/>
<text text-anchor="middle" x="309" y="-550" font-family="Times,serif" font-size="10.00">lnk_Source</text>
</g>
<!-- V0S18P3 -->
<g id="node13" class="node">
<title>V0S18P3</title>
<polygon fill="#0000ff" fill-opacity="0.250980" stroke="black" points="573,-529 424,-529 424,-475 573,-475 573,-529"/>
<text text-anchor="middle" x="498.5" y="-498.3" font-family="Times,serif" font-size="14.00">Join_18_Colm_Part</text>
</g>
<!-- V1S0&#45;&gt;V0S18P3 -->
<g id="edge16" class="edge">
<title>V1S0&#45;&gt;V0S18P3</title>
<path fill="none" stroke="black" d="M498.5,-575.99C498.5,-564.82 498.5,-551.58 498.5,-539.46"/>
<polygon fill="black" stroke="black" points="502,-539.18 498.5,-529.18 495,-539.18 502,-539.18"/>
<text text-anchor="middle" x="512" y="-550" font-family="Times,serif" font-size="10.00">Colm</text>
</g>
<!-- V0S18P5 -->
<g id="node14" class="node">
<title>V0S18P5</title>
<polygon fill="#0000ff" fill-opacity="0.250980" stroke="black" points="756,-529 615,-529 615,-475 756,-475 756,-529"/>
<text text-anchor="middle" x="685.5" y="-498.3" font-family="Times,serif" font-size="14.00">Join_18_Colt_Part</text>
</g>
<!-- V3S0&#45;&gt;V0S18P5 -->
<g id="edge18" class="edge">
<title>V3S0&#45;&gt;V0S18P5</title>
<path fill="none" stroke="black" d="M703.93,-575.99C701.08,-564.71 697.7,-551.31 694.61,-539.09"/>
<polygon fill="black" stroke="black" points="697.95,-538.02 692.11,-529.18 691.17,-539.73 697.95,-538.02"/>
<text text-anchor="middle" x="710" y="-550" font-family="Times,serif" font-size="10.00">Colt</text>
</g>
<!-- V0S18 -->
<g id="node10" class="node">
<title>V0S18</title>
<polygon fill="#0000ff" fill-opacity="0.250980" stroke="black" points="532.5,-438 464.5,-438 464.5,-384 532.5,-384 532.5,-438"/>
<text text-anchor="middle" x="498.5" y="-407.3" font-family="Times,serif" font-size="14.00">Join_18</text>
</g>
<!-- V0S24P1 -->
<g id="node11" class="node">
<title>V0S24P1</title>
<polygon fill="#0000ff" fill-opacity="0.250980" stroke="black" points="620.5,-337 376.5,-337 376.5,-283 620.5,-283 620.5,-337"/>
<text text-anchor="middle" x="498.5" y="-306.3" font-family="Times,serif" font-size="14.00">Transformer_24_DSLink22_Part</text>
</g>
<!-- V0S18&#45;&gt;V0S24P1 -->
<g id="edge9" class="edge">
<title>V0S18&#45;&gt;V0S24P1</title>
<path fill="none" stroke="black" d="M498.5,-383.99C498.5,-372.82 498.5,-359.58 498.5,-347.46"/>
<polygon fill="black" stroke="black" points="502,-347.18 498.5,-337.18 495,-347.18 502,-347.18"/>
<text text-anchor="middle" x="523.5" y="-358" font-family="Times,serif" font-size="10.00">DSLink22</text>
</g>
<!-- V0S24 -->
<g id="node15" class="node">
<title>V0S24</title>
<polygon fill="#0000ff" fill-opacity="0.250980" stroke="black" points="564,-246 433,-246 433,-192 564,-192 564,-246"/>
<text text-anchor="middle" x="498.5" y="-215.3" font-family="Times,serif" font-size="14.00">Transformer_24</text>
</g>
<!-- V0S24P1&#45;&gt;V0S24 -->
<g id="edge14" class="edge">
<title>V0S24P1&#45;&gt;V0S24</title>
<path fill="none" stroke="black" d="M498.5,-282.78C498.5,-274.45 498.5,-265.09 498.5,-256.18"/>
<polygon fill="black" stroke="black" points="502,-256.03 498.5,-246.03 495,-256.03 502,-256.03"/>
</g>
<!-- V0S18P1&#45;&gt;V0S18 -->
<g id="edge10" class="edge">
<title>V0S18P1&#45;&gt;V0S18</title>
<path fill="none" stroke="black" d="M356.45,-474.9C387.98,-460.94 426.14,-444.04 454.97,-431.28"/>
<polygon fill="black" stroke="black" points="456.63,-434.37 464.36,-427.12 453.8,-427.97 456.63,-434.37"/>
</g>
<!-- V0S18P3&#45;&gt;V0S18 -->
<g id="edge11" class="edge">
<title>V0S18P3&#45;&gt;V0S18</title>
<path fill="none" stroke="black" d="M498.5,-474.78C498.5,-466.45 498.5,-457.09 498.5,-448.18"/>
<polygon fill="black" stroke="black" points="502,-448.03 498.5,-438.03 495,-448.03 502,-448.03"/>
</g>
<!-- V0S18P5&#45;&gt;V0S18 -->
<g id="edge12" class="edge">
<title>V0S18P5&#45;&gt;V0S18</title>
<path fill="none" stroke="black" d="M630.66,-474.9C602.44,-461.47 568.52,-445.32 542.11,-432.75"/>
<polygon fill="black" stroke="black" points="543.28,-429.43 532.74,-428.3 540.27,-435.75 543.28,-429.43"/>
</g>
<!-- V2S0P1 -->
<g id="node16" class="node">
<title>V2S0P1</title>
<polygon fill="#0000ff" fill-opacity="0.250980" stroke="black" points="657.5,-145 339.5,-145 339.5,-91 657.5,-91 657.5,-145"/>
<text text-anchor="middle" x="498.5" y="-114.3" font-family="Times,serif" font-size="14.00">DS_TGT_RELM_RELX_lnk_RELM_Tgt_Part</text>
</g>
<!-- V0S24&#45;&gt;V2S0P1 -->
<g id="edge13" class="edge">
<title>V0S24&#45;&gt;V2S0P1</title>
<path fill="none" stroke="black" d="M498.5,-191.99C498.5,-180.82 498.5,-167.58 498.5,-155.46"/>
<polygon fill="black" stroke="black" points="502,-155.18 498.5,-145.18 495,-155.18 502,-155.18"/>
<text text-anchor="middle" x="536.5" y="-166" font-family="Times,serif" font-size="10.00">lnk_RELM_Tgt</text>
</g>
<!-- V2S0 -->
<g id="node17" class="node">
<title>V2S0</title>
<polygon fill="#0000ff" fill-opacity="0.250980" stroke="black" points="584,-54 413,-54 413,0 584,0 584,-54"/>
<text text-anchor="middle" x="498.5" y="-23.3" font-family="Times,serif" font-size="14.00">DS_TGT_RELM_RELX</text>
</g>
<!-- V2S0P1&#45;&gt;V2S0 -->
<g id="edge17" class="edge">
<title>V2S0P1&#45;&gt;V2S0</title>
<path fill="none" stroke="black" d="M498.5,-90.78C498.5,-82.45 498.5,-73.09 498.5,-64.18"/>
<polygon fill="black" stroke="black" points="502,-64.03 498.5,-54.03 495,-64.03 502,-64.03"/>
</g>
</g>
</svg>
