<?xml version="1.0" encoding="UTF-8" standalone="no"?>
<!DOCTYPE svg PUBLIC "-//W3C//DTD SVG 1.1//EN"
 "http://www.w3.org/Graphics/SVG/1.1/DTD/svg11.dtd">
<!-- Generated by graphviz version 2.43.0 (0)
 -->
<!-- Pages: 1 -->
<svg width="384pt" height="1052pt"
 viewBox="0.00 0.00 383.50 1052.00" xmlns="http://www.w3.org/2000/svg" xmlns:xlink="http://www.w3.org/1999/xlink">
<g id="graph0" class="graph" transform="scale(1 1) rotate(0) translate(4 1048)">
<polygon fill="white" stroke="transparent" points="-4,4 -4,-1048 379.5,-1048 379.5,4 -4,4"/>
<!-- ROOT -->
<g id="node1" class="node">
<title>ROOT</title>
<polygon fill="#0000ff" fill-opacity="0.250980" stroke="black" points="321,-1044 0,-1044 0,-990 321,-990 321,-1044"/>
<text text-anchor="middle" x="160.5" y="-1013.3" font-family="Times,serif" font-size="14.00">job_DBdirect_Mis006_BLDVWW_Extr_POC</text>
</g>
<!-- V0 -->
<g id="node2" class="node">
<title>V0</title>
<polygon fill="#0000ff" fill-opacity="0.250980" stroke="black" points="203.5,-954 117.5,-954 117.5,-900 203.5,-900 203.5,-954"/>
<text text-anchor="middle" x="160.5" y="-923.3" font-family="Times,serif" font-size="14.00">Job_VIEW</text>
</g>
<!-- ROOT&#45;&gt;V0 -->
<g id="edge1" class="edge">
<title>ROOT&#45;&gt;V0</title>
<path fill="none" stroke="black" d="M160.5,-989.6C160.5,-981.61 160.5,-972.69 160.5,-964.18"/>
<polygon fill="black" stroke="black" points="164,-964.08 160.5,-954.08 157,-964.08 164,-964.08"/>
</g>
<!-- V0A59 -->
<g id="node3" class="node">
<title>V0A59</title>
<polygon fill="#0000ff" fill-opacity="0.250980" stroke="black" points="126,-864 63,-864 63,-810 126,-810 126,-864"/>
<text text-anchor="middle" x="94.5" y="-833.3" font-family="Times,serif" font-size="14.00">V0A59</text>
</g>
<!-- V0&#45;&gt;V0A59 -->
<g id="edge2" class="edge">
<title>V0&#45;&gt;V0A59</title>
<path fill="none" stroke="black" d="M140.7,-899.6C134.24,-890.99 126.98,-881.31 120.16,-872.22"/>
<polygon fill="black" stroke="black" points="122.86,-869.98 114.06,-864.08 117.26,-874.18 122.86,-869.98"/>
</g>
<!-- V2S0 -->
<g id="node4" class="node">
<title>V2S0</title>
<polygon fill="#0000ff" fill-opacity="0.250980" stroke="black" points="308.5,-864 144.5,-864 144.5,-810 308.5,-810 308.5,-864"/>
<text text-anchor="middle" x="226.5" y="-833.3" font-family="Times,serif" font-size="14.00">NETZ_SRC_TBL_NM</text>
</g>
<!-- V0&#45;&gt;V2S0 -->
<g id="edge3" class="edge">
<title>V0&#45;&gt;V2S0</title>
<path fill="none" stroke="black" d="M180.3,-899.6C186.76,-890.99 194.02,-881.31 200.84,-872.22"/>
<polygon fill="black" stroke="black" points="203.74,-874.18 206.94,-864.08 198.14,-869.98 203.74,-874.18"/>
</g>
<!-- V2S0P1 -->
<g id="node13" class="node">
<title>V2S0P1</title>
<polygon fill="#0000ff" fill-opacity="0.250980" stroke="black" points="354,-774 99,-774 99,-720 354,-720 354,-774"/>
<text text-anchor="middle" x="226.5" y="-743.3" font-family="Times,serif" font-size="14.00">NETZ_SRC_TBL_NM_lnk_Source_</text>
</g>
<!-- V2S0&#45;&gt;V2S0P1 -->
<g id="edge11" class="edge">
<title>V2S0&#45;&gt;V2S0P1</title>
<path fill="none" stroke="black" d="M226.5,-809.6C226.5,-801.61 226.5,-792.69 226.5,-784.18"/>
<polygon fill="black" stroke="black" points="230,-784.08 226.5,-774.08 223,-784.08 230,-784.08"/>
</g>
<!-- V0S52 -->
<g id="node5" class="node">
<title>V0S52</title>
<polygon fill="#0000ff" fill-opacity="0.250980" stroke="black" points="292,-324 161,-324 161,-270 292,-270 292,-324"/>
<text text-anchor="middle" x="226.5" y="-293.3" font-family="Times,serif" font-size="14.00">Transformer_52</text>
</g>
<!-- V0S52P2 -->
<g id="node6" class="node">
<title>V0S52P2</title>
<polygon fill="#0000ff" fill-opacity="0.250980" stroke="black" points="361.5,-234 91.5,-234 91.5,-180 361.5,-180 361.5,-234"/>
<text text-anchor="middle" x="226.5" y="-203.3" font-family="Times,serif" font-size="14.00">Transformer_52_Lnk_BLDVWW_Tgt</text>
</g>
<!-- V0S52&#45;&gt;V0S52P2 -->
<g id="edge4" class="edge">
<title>V0S52&#45;&gt;V0S52P2</title>
<path fill="none" stroke="black" d="M226.5,-269.6C226.5,-261.61 226.5,-252.69 226.5,-244.18"/>
<polygon fill="black" stroke="black" points="230,-244.08 226.5,-234.08 223,-244.08 230,-244.08"/>
</g>
<!-- V0S55P1 -->
<g id="node7" class="node">
<title>V0S55P1</title>
<polygon fill="#0000ff" fill-opacity="0.250980" stroke="black" points="375.5,-144 77.5,-144 77.5,-90 375.5,-90 375.5,-144"/>
<text text-anchor="middle" x="226.5" y="-113.3" font-family="Times,serif" font-size="14.00">TGT_BLDVWW_Lnk_BLDVWW_Tgt_Part</text>
</g>
<!-- V0S52P2&#45;&gt;V0S55P1 -->
<g id="edge5" class="edge">
<title>V0S52P2&#45;&gt;V0S55P1</title>
<path fill="none" stroke="black" d="M226.5,-179.6C226.5,-171.61 226.5,-162.69 226.5,-154.18"/>
<polygon fill="black" stroke="black" points="230,-154.08 226.5,-144.08 223,-154.08 230,-154.08"/>
</g>
<!-- V0S55 -->
<g id="node9" class="node">
<title>V0S55</title>
<polygon fill="#0000ff" fill-opacity="0.250980" stroke="black" points="287.5,-54 165.5,-54 165.5,0 287.5,0 287.5,-54"/>
<text text-anchor="middle" x="226.5" y="-23.3" font-family="Times,serif" font-size="14.00">TGT_BLDVWW</text>
</g>
<!-- V0S55P1&#45;&gt;V0S55 -->
<g id="edge7" class="edge">
<title>V0S55P1&#45;&gt;V0S55</title>
<path fill="none" stroke="black" d="M226.5,-89.6C226.5,-81.61 226.5,-72.69 226.5,-64.18"/>
<polygon fill="black" stroke="black" points="230,-64.08 226.5,-54.08 223,-64.08 230,-64.08"/>
</g>
<!-- V0S52P3 -->
<g id="node8" class="node">
<title>V0S52P3</title>
<polygon fill="#0000ff" fill-opacity="0.250980" stroke="black" points="352.5,-414 100.5,-414 100.5,-360 352.5,-360 352.5,-414"/>
<text text-anchor="middle" x="226.5" y="-383.3" font-family="Times,serif" font-size="14.00">Transformer_52_lnk_Source_Part</text>
</g>
<!-- V0S52P3&#45;&gt;V0S52 -->
<g id="edge6" class="edge">
<title>V0S52P3&#45;&gt;V0S52</title>
<path fill="none" stroke="black" d="M226.5,-359.6C226.5,-351.61 226.5,-342.69 226.5,-334.18"/>
<polygon fill="black" stroke="black" points="230,-334.08 226.5,-324.08 223,-334.08 230,-334.08"/>
</g>
<!-- V0S56 -->
<g id="node10" class="node">
<title>V0S56</title>
<polygon fill="#0000ff" fill-opacity="0.250980" stroke="black" points="262.5,-594 190.5,-594 190.5,-540 262.5,-540 262.5,-594"/>
<text text-anchor="middle" x="226.5" y="-563.3" font-family="Times,serif" font-size="14.00">Sort_56</text>
</g>
<!-- V0S56P2 -->
<g id="node11" class="node">
<title>V0S56P2</title>
<polygon fill="#0000ff" fill-opacity="0.250980" stroke="black" points="305,-504 148,-504 148,-450 305,-450 305,-504"/>
<text text-anchor="middle" x="226.5" y="-473.3" font-family="Times,serif" font-size="14.00">Sort_56_lnk_Source</text>
</g>
<!-- V0S56&#45;&gt;V0S56P2 -->
<g id="edge8" class="edge">
<title>V0S56&#45;&gt;V0S56P2</title>
<path fill="none" stroke="black" d="M226.5,-539.6C226.5,-531.61 226.5,-522.69 226.5,-514.18"/>
<polygon fill="black" stroke="black" points="230,-514.08 226.5,-504.08 223,-514.08 230,-514.08"/>
</g>
<!-- V0S56P2&#45;&gt;V0S52P3 -->
<g id="edge10" class="edge">
<title>V0S56P2&#45;&gt;V0S52P3</title>
<path fill="none" stroke="black" d="M226.5,-449.6C226.5,-441.61 226.5,-432.69 226.5,-424.18"/>
<polygon fill="black" stroke="black" points="230,-424.08 226.5,-414.08 223,-424.08 230,-424.08"/>
</g>
<!-- V0S56P1 -->
<g id="node12" class="node">
<title>V0S56P1</title>
<polygon fill="#0000ff" fill-opacity="0.250980" stroke="black" points="326.5,-684 126.5,-684 126.5,-630 326.5,-630 326.5,-684"/>
<text text-anchor="middle" x="226.5" y="-653.3" font-family="Times,serif" font-size="14.00">Sort_56_lnk_Source__Part</text>
</g>
<!-- V0S56P1&#45;&gt;V0S56 -->
<g id="edge9" class="edge">
<title>V0S56P1&#45;&gt;V0S56</title>
<path fill="none" stroke="black" d="M226.5,-629.6C226.5,-621.61 226.5,-612.69 226.5,-604.18"/>
<polygon fill="black" stroke="black" points="230,-604.08 226.5,-594.08 223,-604.08 230,-604.08"/>
</g>
<!-- V2S0P1&#45;&gt;V0S56P1 -->
<g id="edge12" class="edge">
<title>V2S0P1&#45;&gt;V0S56P1</title>
<path fill="none" stroke="black" d="M226.5,-719.6C226.5,-711.61 226.5,-702.69 226.5,-694.18"/>
<polygon fill="black" stroke="black" points="230,-694.08 226.5,-684.08 223,-694.08 230,-694.08"/>
</g>
</g>
</svg>
