<?xml version="1.0" encoding="UTF-8" standalone="no"?>
<!DOCTYPE svg PUBLIC "-//W3C//DTD SVG 1.1//EN"
 "http://www.w3.org/Graphics/SVG/1.1/DTD/svg11.dtd">
<!-- Generated by graphviz version 2.43.0 (0)
 -->
<!-- Pages: 1 -->
<svg width="438pt" height="820pt"
 viewBox="0.00 0.00 437.50 820.00" xmlns="http://www.w3.org/2000/svg" xmlns:xlink="http://www.w3.org/1999/xlink">
<g id="graph0" class="graph" transform="scale(1 1) rotate(0) translate(4 816)">
<polygon fill="white" stroke="transparent" points="-4,4 -4,-816 433.5,-816 433.5,4 -4,4"/>
<!-- ROOT -->
<g id="node1" class="node">
<title>ROOT</title>
<polygon fill="#0000ff" fill-opacity="0.250980" stroke="black" points="321,-812 0,-812 0,-758 321,-758 321,-812"/>
<text text-anchor="middle" x="160.5" y="-781.3" font-family="Times,serif" font-size="14.00">job_DBdirect_Mis006_BLDVWW_Extr_POC</text>
</g>
<!-- V0 -->
<g id="node2" class="node">
<title>V0</title>
<polygon fill="#0000ff" fill-opacity="0.250980" stroke="black" points="203.5,-721 117.5,-721 117.5,-667 203.5,-667 203.5,-721"/>
<text text-anchor="middle" x="160.5" y="-690.3" font-family="Times,serif" font-size="14.00">Job_VIEW</text>
</g>
<!-- ROOT&#45;&gt;V0 -->
<g id="edge1" class="edge">
<title>ROOT&#45;&gt;V0</title>
<path fill="none" stroke="black" d="M160.5,-757.78C160.5,-749.45 160.5,-740.09 160.5,-731.18"/>
<polygon fill="black" stroke="black" points="164,-731.03 160.5,-721.03 157,-731.03 164,-731.03"/>
</g>
<!-- V0A59 -->
<g id="node3" class="node">
<title>V0A59</title>
<polygon fill="#0000ff" fill-opacity="0.250980" stroke="black" points="180,-630 117,-630 117,-576 180,-576 180,-630"/>
<text text-anchor="middle" x="148.5" y="-599.3" font-family="Times,serif" font-size="14.00">V0A59</text>
</g>
<!-- V0&#45;&gt;V0A59 -->
<g id="edge2" class="edge">
<title>V0&#45;&gt;V0A59</title>
<path fill="none" stroke="black" d="M156.96,-666.78C155.84,-658.45 154.58,-649.09 153.38,-640.18"/>
<polygon fill="black" stroke="black" points="156.82,-639.48 152.01,-630.03 149.88,-640.41 156.82,-639.48"/>
</g>
<!-- V2S0 -->
<g id="node4" class="node">
<title>V2S0</title>
<polygon fill="#0000ff" fill-opacity="0.250980" stroke="black" points="362.5,-630 198.5,-630 198.5,-576 362.5,-576 362.5,-630"/>
<text text-anchor="middle" x="280.5" y="-599.3" font-family="Times,serif" font-size="14.00">NETZ_SRC_TBL_NM</text>
</g>
<!-- V0&#45;&gt;V2S0 -->
<g id="edge3" class="edge">
<title>V0&#45;&gt;V2S0</title>
<path fill="none" stroke="black" d="M195.85,-666.78C208.79,-657.18 223.58,-646.21 237.14,-636.16"/>
<polygon fill="black" stroke="black" points="239.45,-638.8 245.4,-630.03 235.28,-633.18 239.45,-638.8"/>
</g>
<!-- V0S56P1 -->
<g id="node10" class="node">
<title>V0S56P1</title>
<polygon fill="#0000ff" fill-opacity="0.250980" stroke="black" points="380.5,-529 180.5,-529 180.5,-475 380.5,-475 380.5,-529"/>
<text text-anchor="middle" x="280.5" y="-498.3" font-family="Times,serif" font-size="14.00">Sort_56_lnk_Source__Part</text>
</g>
<!-- V2S0&#45;&gt;V0S56P1 -->
<g id="edge9" class="edge">
<title>V2S0&#45;&gt;V0S56P1</title>
<path fill="none" stroke="black" d="M280.5,-575.99C280.5,-564.82 280.5,-551.58 280.5,-539.46"/>
<polygon fill="black" stroke="black" points="284,-539.18 280.5,-529.18 277,-539.18 284,-539.18"/>
<text text-anchor="middle" x="311.5" y="-550" font-family="Times,serif" font-size="10.00">lnk_Source_</text>
</g>
<!-- V0S52 -->
<g id="node5" class="node">
<title>V0S52</title>
<polygon fill="#0000ff" fill-opacity="0.250980" stroke="black" points="346,-246 215,-246 215,-192 346,-192 346,-246"/>
<text text-anchor="middle" x="280.5" y="-215.3" font-family="Times,serif" font-size="14.00">Transformer_52</text>
</g>
<!-- V0S55P1 -->
<g id="node6" class="node">
<title>V0S55P1</title>
<polygon fill="#0000ff" fill-opacity="0.250980" stroke="black" points="429.5,-145 131.5,-145 131.5,-91 429.5,-91 429.5,-145"/>
<text text-anchor="middle" x="280.5" y="-114.3" font-family="Times,serif" font-size="14.00">TGT_BLDVWW_Lnk_BLDVWW_Tgt_Part</text>
</g>
<!-- V0S52&#45;&gt;V0S55P1 -->
<g id="edge4" class="edge">
<title>V0S52&#45;&gt;V0S55P1</title>
<path fill="none" stroke="black" d="M280.5,-191.99C280.5,-180.82 280.5,-167.58 280.5,-155.46"/>
<polygon fill="black" stroke="black" points="284,-155.18 280.5,-145.18 277,-155.18 284,-155.18"/>
<text text-anchor="middle" x="329.5" y="-166" font-family="Times,serif" font-size="10.00">Lnk_BLDVWW_Tgt</text>
</g>
<!-- V0S55 -->
<g id="node8" class="node">
<title>V0S55</title>
<polygon fill="#0000ff" fill-opacity="0.250980" stroke="black" points="341.5,-54 219.5,-54 219.5,0 341.5,0 341.5,-54"/>
<text text-anchor="middle" x="280.5" y="-23.3" font-family="Times,serif" font-size="14.00">TGT_BLDVWW</text>
</g>
<!-- V0S55P1&#45;&gt;V0S55 -->
<g id="edge6" class="edge">
<title>V0S55P1&#45;&gt;V0S55</title>
<path fill="none" stroke="black" d="M280.5,-90.78C280.5,-82.45 280.5,-73.09 280.5,-64.18"/>
<polygon fill="black" stroke="black" points="284,-64.03 280.5,-54.03 277,-64.03 284,-64.03"/>
</g>
<!-- V0S52P3 -->
<g id="node7" class="node">
<title>V0S52P3</title>
<polygon fill="#0000ff" fill-opacity="0.250980" stroke="black" points="406.5,-337 154.5,-337 154.5,-283 406.5,-283 406.5,-337"/>
<text text-anchor="middle" x="280.5" y="-306.3" font-family="Times,serif" font-size="14.00">Transformer_52_lnk_Source_Part</text>
</g>
<!-- V0S52P3&#45;&gt;V0S52 -->
<g id="edge5" class="edge">
<title>V0S52P3&#45;&gt;V0S52</title>
<path fill="none" stroke="black" d="M280.5,-282.78C280.5,-274.45 280.5,-265.09 280.5,-256.18"/>
<polygon fill="black" stroke="black" points="284,-256.03 280.5,-246.03 277,-256.03 284,-256.03"/>
</g>
<!-- V0S56 -->
<g id="node9" class="node">
<title>V0S56</title>
<polygon fill="#0000ff" fill-opacity="0.250980" stroke="black" points="316.5,-438 244.5,-438 244.5,-384 316.5,-384 316.5,-438"/>
<text text-anchor="middle" x="280.5" y="-407.3" font-family="Times,serif" font-size="14.00">Sort_56</text>
</g>
<!-- V0S56&#45;&gt;V0S52P3 -->
<g id="edge7" class="edge">
<title>V0S56&#45;&gt;V0S52P3</title>
<path fill="none" stroke="black" d="M280.5,-383.99C280.5,-372.82 280.5,-359.58 280.5,-347.46"/>
<polygon fill="black" stroke="black" points="284,-347.18 280.5,-337.18 277,-347.18 284,-347.18"/>
<text text-anchor="middle" x="309" y="-358" font-family="Times,serif" font-size="10.00">lnk_Source</text>
</g>
<!-- V0S56P1&#45;&gt;V0S56 -->
<g id="edge8" class="edge">
<title>V0S56P1&#45;&gt;V0S56</title>
<path fill="none" stroke="black" d="M280.5,-474.78C280.5,-466.45 280.5,-457.09 280.5,-448.18"/>
<polygon fill="black" stroke="black" points="284,-448.03 280.5,-438.03 277,-448.03 284,-448.03"/>
</g>
</g>
</svg>
