<?xml version="1.0" encoding="UTF-8" standalone="no"?>
<!DOCTYPE svg PUBLIC "-//W3C//DTD SVG 1.1//EN"
 "http://www.w3.org/Graphics/SVG/1.1/DTD/svg11.dtd">
<!-- Generated by graphviz version 2.43.0 (0)
 -->
<!-- Pages: 1 -->
<svg width="397pt" height="782pt"
 viewBox="0.00 0.00 396.50 782.00" xmlns="http://www.w3.org/2000/svg" xmlns:xlink="http://www.w3.org/1999/xlink">
<g id="graph0" class="graph" transform="scale(1 1) rotate(0) translate(4 778)">
<polygon fill="white" stroke="transparent" points="-4,4 -4,-778 392.5,-778 392.5,4 -4,4"/>
<!-- ROOT -->
<g id="node1" class="node">
<title>ROOT</title>
<polygon fill="#0000ff" fill-opacity="0.250980" stroke="black" points="348,-774 0,-774 0,-720 348,-720 348,-774"/>
<text text-anchor="middle" x="174" y="-743.3" font-family="Times,serif" font-size="14.00">job_DBdirect_MIS006_BDEH_LONP_Extr_POC</text>
</g>
<!-- V0 -->
<g id="node2" class="node">
<title>V0</title>
<polygon fill="#0000ff" fill-opacity="0.250980" stroke="black" points="217,-684 131,-684 131,-630 217,-630 217,-684"/>
<text text-anchor="middle" x="174" y="-653.3" font-family="Times,serif" font-size="14.00">Job_VIEW</text>
</g>
<!-- ROOT&#45;&gt;V0 -->
<g id="edge1" class="edge">
<title>ROOT&#45;&gt;V0</title>
<path fill="none" stroke="black" d="M174,-719.6C174,-711.61 174,-702.69 174,-694.18"/>
<polygon fill="black" stroke="black" points="177.5,-694.08 174,-684.08 170.5,-694.08 177.5,-694.08"/>
</g>
<!-- V0A105 -->
<g id="node3" class="node">
<title>V0A105</title>
<polygon fill="#0000ff" fill-opacity="0.250980" stroke="black" points="142,-594 70,-594 70,-540 142,-540 142,-594"/>
<text text-anchor="middle" x="106" y="-563.3" font-family="Times,serif" font-size="14.00">V0A105</text>
</g>
<!-- V0&#45;&gt;V0A105 -->
<g id="edge2" class="edge">
<title>V0&#45;&gt;V0A105</title>
<path fill="none" stroke="black" d="M153.6,-629.6C146.95,-620.99 139.47,-611.31 132.44,-602.22"/>
<polygon fill="black" stroke="black" points="135.04,-599.85 126.15,-594.08 129.5,-604.13 135.04,-599.85"/>
</g>
<!-- V24S3 -->
<g id="node4" class="node">
<title>V24S3</title>
<polygon fill="#0000ff" fill-opacity="0.250980" stroke="black" points="324,-594 160,-594 160,-540 324,-540 324,-594"/>
<text text-anchor="middle" x="242" y="-563.3" font-family="Times,serif" font-size="14.00">NETZ_SRC_TBL_NM</text>
</g>
<!-- V0&#45;&gt;V24S3 -->
<g id="edge3" class="edge">
<title>V0&#45;&gt;V24S3</title>
<path fill="none" stroke="black" d="M194.4,-629.6C201.05,-620.99 208.53,-611.31 215.56,-602.22"/>
<polygon fill="black" stroke="black" points="218.5,-604.13 221.85,-594.08 212.96,-599.85 218.5,-604.13"/>
</g>
<!-- V24S3P1 -->
<g id="node5" class="node">
<title>V24S3P1</title>
<polygon fill="#0000ff" fill-opacity="0.250980" stroke="black" points="366,-504 118,-504 118,-450 366,-450 366,-504"/>
<text text-anchor="middle" x="242" y="-473.3" font-family="Times,serif" font-size="14.00">NETZ_SRC_TBL_NM_lnk_Source</text>
</g>
<!-- V24S3&#45;&gt;V24S3P1 -->
<g id="edge4" class="edge">
<title>V24S3&#45;&gt;V24S3P1</title>
<path fill="none" stroke="black" d="M242,-539.6C242,-531.61 242,-522.69 242,-514.18"/>
<polygon fill="black" stroke="black" points="245.5,-514.08 242,-504.08 238.5,-514.08 245.5,-514.08"/>
</g>
<!-- V24S4P1 -->
<g id="node6" class="node">
<title>V24S4P1</title>
<polygon fill="#0000ff" fill-opacity="0.250980" stroke="black" points="367,-414 117,-414 117,-360 367,-360 367,-414"/>
<text text-anchor="middle" x="242" y="-383.3" font-family="Times,serif" font-size="14.00">TRN_CONVERT_lnk_Source_Part</text>
</g>
<!-- V24S3P1&#45;&gt;V24S4P1 -->
<g id="edge5" class="edge">
<title>V24S3P1&#45;&gt;V24S4P1</title>
<path fill="none" stroke="black" d="M242,-449.6C242,-441.61 242,-432.69 242,-424.18"/>
<polygon fill="black" stroke="black" points="245.5,-424.08 242,-414.08 238.5,-424.08 245.5,-424.08"/>
</g>
<!-- V24S4 -->
<g id="node7" class="node">
<title>V24S4</title>
<polygon fill="#0000ff" fill-opacity="0.250980" stroke="black" points="306,-324 178,-324 178,-270 306,-270 306,-324"/>
<text text-anchor="middle" x="242" y="-293.3" font-family="Times,serif" font-size="14.00">TRN_CONVERT</text>
</g>
<!-- V24S4P1&#45;&gt;V24S4 -->
<g id="edge7" class="edge">
<title>V24S4P1&#45;&gt;V24S4</title>
<path fill="none" stroke="black" d="M242,-359.6C242,-351.61 242,-342.69 242,-334.18"/>
<polygon fill="black" stroke="black" points="245.5,-334.08 242,-324.08 238.5,-334.08 245.5,-334.08"/>
</g>
<!-- V24S4P9 -->
<g id="node8" class="node">
<title>V24S4P9</title>
<polygon fill="#0000ff" fill-opacity="0.250980" stroke="black" points="361.5,-234 122.5,-234 122.5,-180 361.5,-180 361.5,-234"/>
<text text-anchor="middle" x="242" y="-203.3" font-family="Times,serif" font-size="14.00">TRN_CONVERT_lnk_BDEH_Tgt</text>
</g>
<!-- V24S4&#45;&gt;V24S4P9 -->
<g id="edge6" class="edge">
<title>V24S4&#45;&gt;V24S4P9</title>
<path fill="none" stroke="black" d="M242,-269.6C242,-261.61 242,-252.69 242,-244.18"/>
<polygon fill="black" stroke="black" points="245.5,-244.08 242,-234.08 238.5,-244.08 245.5,-244.08"/>
</g>
<!-- V24S7P1 -->
<g id="node9" class="node">
<title>V24S7P1</title>
<polygon fill="#0000ff" fill-opacity="0.250980" stroke="black" points="388.5,-144 95.5,-144 95.5,-90 388.5,-90 388.5,-144"/>
<text text-anchor="middle" x="242" y="-113.3" font-family="Times,serif" font-size="14.00">TGT_BDEH_LONP_lnk_BDEH_Tgt_Part</text>
</g>
<!-- V24S4P9&#45;&gt;V24S7P1 -->
<g id="edge8" class="edge">
<title>V24S4P9&#45;&gt;V24S7P1</title>
<path fill="none" stroke="black" d="M242,-179.6C242,-171.61 242,-162.69 242,-154.18"/>
<polygon fill="black" stroke="black" points="245.5,-154.08 242,-144.08 238.5,-154.08 245.5,-154.08"/>
</g>
<!-- V24S7 -->
<g id="node10" class="node">
<title>V24S7</title>
<polygon fill="#0000ff" fill-opacity="0.250980" stroke="black" points="315,-54 169,-54 169,0 315,0 315,-54"/>
<text text-anchor="middle" x="242" y="-23.3" font-family="Times,serif" font-size="14.00">TGT_BDEH_LONP</text>
</g>
<!-- V24S7P1&#45;&gt;V24S7 -->
<g id="edge9" class="edge">
<title>V24S7P1&#45;&gt;V24S7</title>
<path fill="none" stroke="black" d="M242,-89.6C242,-81.61 242,-72.69 242,-64.18"/>
<polygon fill="black" stroke="black" points="245.5,-64.08 242,-54.08 238.5,-64.08 245.5,-64.08"/>
</g>
</g>
</svg>
