<?xml version="1.0" encoding="UTF-8" standalone="no"?>
<!DOCTYPE svg PUBLIC "-//W3C//DTD SVG 1.1//EN"
 "http://www.w3.org/Graphics/SVG/1.1/DTD/svg11.dtd">
<!-- Generated by graphviz version 2.43.0 (0)
 -->
<!-- Pages: 1 -->
<svg width="425pt" height="628pt"
 viewBox="0.00 0.00 424.50 628.00" xmlns="http://www.w3.org/2000/svg" xmlns:xlink="http://www.w3.org/1999/xlink">
<g id="graph0" class="graph" transform="scale(1 1) rotate(0) translate(4 624)">
<polygon fill="white" stroke="transparent" points="-4,4 -4,-624 420.5,-624 420.5,4 -4,4"/>
<!-- ROOT -->
<g id="node1" class="node">
<title>ROOT</title>
<polygon fill="#0000ff" fill-opacity="0.250980" stroke="black" points="348,-620 0,-620 0,-566 348,-566 348,-620"/>
<text text-anchor="middle" x="174" y="-589.3" font-family="Times,serif" font-size="14.00">job_DBdirect_MIS006_BDEH_LONP_Extr_POC</text>
</g>
<!-- V0 -->
<g id="node2" class="node">
<title>V0</title>
<polygon fill="#0000ff" fill-opacity="0.250980" stroke="black" points="217,-529 131,-529 131,-475 217,-475 217,-529"/>
<text text-anchor="middle" x="174" y="-498.3" font-family="Times,serif" font-size="14.00">Job_VIEW</text>
</g>
<!-- ROOT&#45;&gt;V0 -->
<g id="edge1" class="edge">
<title>ROOT&#45;&gt;V0</title>
<path fill="none" stroke="black" d="M174,-565.78C174,-557.45 174,-548.09 174,-539.18"/>
<polygon fill="black" stroke="black" points="177.5,-539.03 174,-529.03 170.5,-539.03 177.5,-539.03"/>
</g>
<!-- V0A105 -->
<g id="node3" class="node">
<title>V0A105</title>
<polygon fill="#0000ff" fill-opacity="0.250980" stroke="black" points="170,-438 98,-438 98,-384 170,-384 170,-438"/>
<text text-anchor="middle" x="134" y="-407.3" font-family="Times,serif" font-size="14.00">V0A105</text>
</g>
<!-- V0&#45;&gt;V0A105 -->
<g id="edge2" class="edge">
<title>V0&#45;&gt;V0A105</title>
<path fill="none" stroke="black" d="M162.22,-474.78C158.35,-466.18 153.99,-456.47 149.87,-447.31"/>
<polygon fill="black" stroke="black" points="152.99,-445.72 145.7,-438.03 146.61,-448.59 152.99,-445.72"/>
</g>
<!-- V24S3 -->
<g id="node4" class="node">
<title>V24S3</title>
<polygon fill="#0000ff" fill-opacity="0.250980" stroke="black" points="352,-438 188,-438 188,-384 352,-384 352,-438"/>
<text text-anchor="middle" x="270" y="-407.3" font-family="Times,serif" font-size="14.00">NETZ_SRC_TBL_NM</text>
</g>
<!-- V0&#45;&gt;V24S3 -->
<g id="edge3" class="edge">
<title>V0&#45;&gt;V24S3</title>
<path fill="none" stroke="black" d="M202.28,-474.78C212.34,-465.45 223.8,-454.83 234.39,-445.01"/>
<polygon fill="black" stroke="black" points="236.96,-447.4 241.92,-438.03 232.21,-442.27 236.96,-447.4"/>
</g>
<!-- V24S4P1 -->
<g id="node5" class="node">
<title>V24S4P1</title>
<polygon fill="#0000ff" fill-opacity="0.250980" stroke="black" points="395,-337 145,-337 145,-283 395,-283 395,-337"/>
<text text-anchor="middle" x="270" y="-306.3" font-family="Times,serif" font-size="14.00">TRN_CONVERT_lnk_Source_Part</text>
</g>
<!-- V24S3&#45;&gt;V24S4P1 -->
<g id="edge4" class="edge">
<title>V24S3&#45;&gt;V24S4P1</title>
<path fill="none" stroke="black" d="M270,-383.99C270,-372.82 270,-359.58 270,-347.46"/>
<polygon fill="black" stroke="black" points="273.5,-347.18 270,-337.18 266.5,-347.18 273.5,-347.18"/>
<text text-anchor="middle" x="298.5" y="-358" font-family="Times,serif" font-size="10.00">lnk_Source</text>
</g>
<!-- V24S4 -->
<g id="node6" class="node">
<title>V24S4</title>
<polygon fill="#0000ff" fill-opacity="0.250980" stroke="black" points="334,-246 206,-246 206,-192 334,-192 334,-246"/>
<text text-anchor="middle" x="270" y="-215.3" font-family="Times,serif" font-size="14.00">TRN_CONVERT</text>
</g>
<!-- V24S4P1&#45;&gt;V24S4 -->
<g id="edge6" class="edge">
<title>V24S4P1&#45;&gt;V24S4</title>
<path fill="none" stroke="black" d="M270,-282.78C270,-274.45 270,-265.09 270,-256.18"/>
<polygon fill="black" stroke="black" points="273.5,-256.03 270,-246.03 266.5,-256.03 273.5,-256.03"/>
</g>
<!-- V24S7P1 -->
<g id="node7" class="node">
<title>V24S7P1</title>
<polygon fill="#0000ff" fill-opacity="0.250980" stroke="black" points="416.5,-145 123.5,-145 123.5,-91 416.5,-91 416.5,-145"/>
<text text-anchor="middle" x="270" y="-114.3" font-family="Times,serif" font-size="14.00">TGT_BDEH_LONP_lnk_BDEH_Tgt_Part</text>
</g>
<!-- V24S4&#45;&gt;V24S7P1 -->
<g id="edge5" class="edge">
<title>V24S4&#45;&gt;V24S7P1</title>
<path fill="none" stroke="black" d="M270,-191.99C270,-180.82 270,-167.58 270,-155.46"/>
<polygon fill="black" stroke="black" points="273.5,-155.18 270,-145.18 266.5,-155.18 273.5,-155.18"/>
<text text-anchor="middle" x="308" y="-166" font-family="Times,serif" font-size="10.00">lnk_BDEH_Tgt</text>
</g>
<!-- V24S7 -->
<g id="node8" class="node">
<title>V24S7</title>
<polygon fill="#0000ff" fill-opacity="0.250980" stroke="black" points="343,-54 197,-54 197,0 343,0 343,-54"/>
<text text-anchor="middle" x="270" y="-23.3" font-family="Times,serif" font-size="14.00">TGT_BDEH_LONP</text>
</g>
<!-- V24S7P1&#45;&gt;V24S7 -->
<g id="edge7" class="edge">
<title>V24S7P1&#45;&gt;V24S7</title>
<path fill="none" stroke="black" d="M270,-90.78C270,-82.45 270,-73.09 270,-64.18"/>
<polygon fill="black" stroke="black" points="273.5,-64.03 270,-54.03 266.5,-64.03 273.5,-64.03"/>
</g>
</g>
</svg>
