<?xml version="1.0" encoding="UTF-8" standalone="no"?>
<!DOCTYPE svg PUBLIC "-//W3C//DTD SVG 1.1//EN"
 "http://www.w3.org/Graphics/SVG/1.1/DTD/svg11.dtd">
<!-- Generated by graphviz version 2.43.0 (0)
 -->
<!-- Pages: 1 -->
<svg width="395pt" height="782pt"
 viewBox="0.00 0.00 395.00 782.00" xmlns="http://www.w3.org/2000/svg" xmlns:xlink="http://www.w3.org/1999/xlink">
<g id="graph0" class="graph" transform="scale(1 1) rotate(0) translate(4 778)">
<polygon fill="white" stroke="transparent" points="-4,4 -4,-778 391,-778 391,4 -4,4"/>
<!-- ROOT -->
<g id="node1" class="node">
<title>ROOT</title>
<polygon fill="#0000ff" fill-opacity="0.250980" stroke="black" points="346,-774 0,-774 0,-720 346,-720 346,-774"/>
<text text-anchor="middle" x="173" y="-743.3" font-family="Times,serif" font-size="14.00">job_DBdirect_Mis006_BLDVTT_ALL_Extr_POC</text>
</g>
<!-- V0 -->
<g id="node2" class="node">
<title>V0</title>
<polygon fill="#0000ff" fill-opacity="0.250980" stroke="black" points="216,-684 130,-684 130,-630 216,-630 216,-684"/>
<text text-anchor="middle" x="173" y="-653.3" font-family="Times,serif" font-size="14.00">Job_VIEW</text>
</g>
<!-- ROOT&#45;&gt;V0 -->
<g id="edge1" class="edge">
<title>ROOT&#45;&gt;V0</title>
<path fill="none" stroke="black" d="M173,-719.6C173,-711.61 173,-702.69 173,-694.18"/>
<polygon fill="black" stroke="black" points="176.5,-694.08 173,-684.08 169.5,-694.08 176.5,-694.08"/>
</g>
<!-- V0A59 -->
<g id="node3" class="node">
<title>V0A59</title>
<polygon fill="#0000ff" fill-opacity="0.250980" stroke="black" points="138.5,-594 75.5,-594 75.5,-540 138.5,-540 138.5,-594"/>
<text text-anchor="middle" x="107" y="-563.3" font-family="Times,serif" font-size="14.00">V0A59</text>
</g>
<!-- V0&#45;&gt;V0A59 -->
<g id="edge2" class="edge">
<title>V0&#45;&gt;V0A59</title>
<path fill="none" stroke="black" d="M153.2,-629.6C146.74,-620.99 139.48,-611.31 132.66,-602.22"/>
<polygon fill="black" stroke="black" points="135.36,-599.98 126.56,-594.08 129.76,-604.18 135.36,-599.98"/>
</g>
<!-- V2S0 -->
<g id="node4" class="node">
<title>V2S0</title>
<polygon fill="#0000ff" fill-opacity="0.250980" stroke="black" points="321,-594 157,-594 157,-540 321,-540 321,-594"/>
<text text-anchor="middle" x="239" y="-563.3" font-family="Times,serif" font-size="14.00">NETZ_SRC_TBL_NM</text>
</g>
<!-- V0&#45;&gt;V2S0 -->
<g id="edge3" class="edge">
<title>V0&#45;&gt;V2S0</title>
<path fill="none" stroke="black" d="M192.8,-629.6C199.26,-620.99 206.52,-611.31 213.34,-602.22"/>
<polygon fill="black" stroke="black" points="216.24,-604.18 219.44,-594.08 210.64,-599.98 216.24,-604.18"/>
</g>
<!-- V2S0P1 -->
<g id="node10" class="node">
<title>V2S0P1</title>
<polygon fill="#0000ff" fill-opacity="0.250980" stroke="black" points="373.5,-504 104.5,-504 104.5,-450 373.5,-450 373.5,-504"/>
<text text-anchor="middle" x="239" y="-473.3" font-family="Times,serif" font-size="14.00">NETZ_SRC_TBL_NM_ln_All_Dir_Src</text>
</g>
<!-- V2S0&#45;&gt;V2S0P1 -->
<g id="edge8" class="edge">
<title>V2S0&#45;&gt;V2S0P1</title>
<path fill="none" stroke="black" d="M239,-539.6C239,-531.61 239,-522.69 239,-514.18"/>
<polygon fill="black" stroke="black" points="242.5,-514.08 239,-504.08 235.5,-514.08 242.5,-514.08"/>
</g>
<!-- V0S52 -->
<g id="node5" class="node">
<title>V0S52</title>
<polygon fill="#0000ff" fill-opacity="0.250980" stroke="black" points="266,-324 212,-324 212,-270 266,-270 266,-324"/>
<text text-anchor="middle" x="239" y="-293.3" font-family="Times,serif" font-size="14.00">xfm</text>
</g>
<!-- V0S52P2 -->
<g id="node6" class="node">
<title>V0S52P2</title>
<polygon fill="#0000ff" fill-opacity="0.250980" stroke="black" points="329,-234 149,-234 149,-180 329,-180 329,-234"/>
<text text-anchor="middle" x="239" y="-203.3" font-family="Times,serif" font-size="14.00">xfm_ln_ALL_Direct_Tgt</text>
</g>
<!-- V0S52&#45;&gt;V0S52P2 -->
<g id="edge4" class="edge">
<title>V0S52&#45;&gt;V0S52P2</title>
<path fill="none" stroke="black" d="M239,-269.6C239,-261.61 239,-252.69 239,-244.18"/>
<polygon fill="black" stroke="black" points="242.5,-244.08 239,-234.08 235.5,-244.08 242.5,-244.08"/>
</g>
<!-- V0S55P1 -->
<g id="node7" class="node">
<title>V0S55P1</title>
<polygon fill="#0000ff" fill-opacity="0.250980" stroke="black" points="387,-144 91,-144 91,-90 387,-90 387,-144"/>
<text text-anchor="middle" x="239" y="-113.3" font-family="Times,serif" font-size="14.00">TGT_Direct_All_ln_ALL_Direct_Tgt_Part</text>
</g>
<!-- V0S52P2&#45;&gt;V0S55P1 -->
<g id="edge5" class="edge">
<title>V0S52P2&#45;&gt;V0S55P1</title>
<path fill="none" stroke="black" d="M239,-179.6C239,-171.61 239,-162.69 239,-154.18"/>
<polygon fill="black" stroke="black" points="242.5,-154.08 239,-144.08 235.5,-154.08 242.5,-154.08"/>
</g>
<!-- V0S55 -->
<g id="node9" class="node">
<title>V0S55</title>
<polygon fill="#0000ff" fill-opacity="0.250980" stroke="black" points="300,-54 178,-54 178,0 300,0 300,-54"/>
<text text-anchor="middle" x="239" y="-23.3" font-family="Times,serif" font-size="14.00">TGT_Direct_All</text>
</g>
<!-- V0S55P1&#45;&gt;V0S55 -->
<g id="edge7" class="edge">
<title>V0S55P1&#45;&gt;V0S55</title>
<path fill="none" stroke="black" d="M239,-89.6C239,-81.61 239,-72.69 239,-64.18"/>
<polygon fill="black" stroke="black" points="242.5,-64.08 239,-54.08 235.5,-64.08 242.5,-64.08"/>
</g>
<!-- V0S52P4 -->
<g id="node8" class="node">
<title>V0S52P4</title>
<polygon fill="#0000ff" fill-opacity="0.250980" stroke="black" points="332,-414 146,-414 146,-360 332,-360 332,-414"/>
<text text-anchor="middle" x="239" y="-383.3" font-family="Times,serif" font-size="14.00">xfm_ln_All_Dir_Src_Part</text>
</g>
<!-- V0S52P4&#45;&gt;V0S52 -->
<g id="edge6" class="edge">
<title>V0S52P4&#45;&gt;V0S52</title>
<path fill="none" stroke="black" d="M239,-359.6C239,-351.61 239,-342.69 239,-334.18"/>
<polygon fill="black" stroke="black" points="242.5,-334.08 239,-324.08 235.5,-334.08 242.5,-334.08"/>
</g>
<!-- V2S0P1&#45;&gt;V0S52P4 -->
<g id="edge9" class="edge">
<title>V2S0P1&#45;&gt;V0S52P4</title>
<path fill="none" stroke="black" d="M239,-449.6C239,-441.61 239,-432.69 239,-424.18"/>
<polygon fill="black" stroke="black" points="242.5,-424.08 239,-414.08 235.5,-424.08 242.5,-424.08"/>
</g>
</g>
</svg>
