<?xml version="1.0" encoding="UTF-8" standalone="no"?>
<!DOCTYPE svg PUBLIC "-//W3C//DTD SVG 1.1//EN"
 "http://www.w3.org/Graphics/SVG/1.1/DTD/svg11.dtd">
<!-- Generated by graphviz version 2.43.0 (0)
 -->
<!-- Pages: 1 -->
<svg width="449pt" height="628pt"
 viewBox="0.00 0.00 449.00 628.00" xmlns="http://www.w3.org/2000/svg" xmlns:xlink="http://www.w3.org/1999/xlink">
<g id="graph0" class="graph" transform="scale(1 1) rotate(0) translate(4 624)">
<polygon fill="white" stroke="transparent" points="-4,4 -4,-624 445,-624 445,4 -4,4"/>
<!-- ROOT -->
<g id="node1" class="node">
<title>ROOT</title>
<polygon fill="#0000ff" fill-opacity="0.250980" stroke="black" points="346,-620 0,-620 0,-566 346,-566 346,-620"/>
<text text-anchor="middle" x="173" y="-589.3" font-family="Times,serif" font-size="14.00">job_DBdirect_Mis006_BLDVTT_ALL_Extr_POC</text>
</g>
<!-- V0 -->
<g id="node2" class="node">
<title>V0</title>
<polygon fill="#0000ff" fill-opacity="0.250980" stroke="black" points="216,-529 130,-529 130,-475 216,-475 216,-529"/>
<text text-anchor="middle" x="173" y="-498.3" font-family="Times,serif" font-size="14.00">Job_VIEW</text>
</g>
<!-- ROOT&#45;&gt;V0 -->
<g id="edge1" class="edge">
<title>ROOT&#45;&gt;V0</title>
<path fill="none" stroke="black" d="M173,-565.78C173,-557.45 173,-548.09 173,-539.18"/>
<polygon fill="black" stroke="black" points="176.5,-539.03 173,-529.03 169.5,-539.03 176.5,-539.03"/>
</g>
<!-- V0A59 -->
<g id="node3" class="node">
<title>V0A59</title>
<polygon fill="#0000ff" fill-opacity="0.250980" stroke="black" points="192.5,-438 129.5,-438 129.5,-384 192.5,-384 192.5,-438"/>
<text text-anchor="middle" x="161" y="-407.3" font-family="Times,serif" font-size="14.00">V0A59</text>
</g>
<!-- V0&#45;&gt;V0A59 -->
<g id="edge2" class="edge">
<title>V0&#45;&gt;V0A59</title>
<path fill="none" stroke="black" d="M169.46,-474.78C168.34,-466.45 167.08,-457.09 165.88,-448.18"/>
<polygon fill="black" stroke="black" points="169.32,-447.48 164.51,-438.03 162.38,-448.41 169.32,-447.48"/>
</g>
<!-- V2S0 -->
<g id="node4" class="node">
<title>V2S0</title>
<polygon fill="#0000ff" fill-opacity="0.250980" stroke="black" points="375,-438 211,-438 211,-384 375,-384 375,-438"/>
<text text-anchor="middle" x="293" y="-407.3" font-family="Times,serif" font-size="14.00">NETZ_SRC_TBL_NM</text>
</g>
<!-- V0&#45;&gt;V2S0 -->
<g id="edge3" class="edge">
<title>V0&#45;&gt;V2S0</title>
<path fill="none" stroke="black" d="M208.35,-474.78C221.29,-465.18 236.08,-454.21 249.64,-444.16"/>
<polygon fill="black" stroke="black" points="251.95,-446.8 257.9,-438.03 247.78,-441.18 251.95,-446.8"/>
</g>
<!-- V0S52P4 -->
<g id="node7" class="node">
<title>V0S52P4</title>
<polygon fill="#0000ff" fill-opacity="0.250980" stroke="black" points="386,-337 200,-337 200,-283 386,-283 386,-337"/>
<text text-anchor="middle" x="293" y="-306.3" font-family="Times,serif" font-size="14.00">xfm_ln_All_Dir_Src_Part</text>
</g>
<!-- V2S0&#45;&gt;V0S52P4 -->
<g id="edge7" class="edge">
<title>V2S0&#45;&gt;V0S52P4</title>
<path fill="none" stroke="black" d="M293,-383.99C293,-372.82 293,-359.58 293,-347.46"/>
<polygon fill="black" stroke="black" points="296.5,-347.18 293,-337.18 289.5,-347.18 296.5,-347.18"/>
<text text-anchor="middle" x="329" y="-358" font-family="Times,serif" font-size="10.00">ln_All_Dir_Src</text>
</g>
<!-- V0S52 -->
<g id="node5" class="node">
<title>V0S52</title>
<polygon fill="#0000ff" fill-opacity="0.250980" stroke="black" points="320,-246 266,-246 266,-192 320,-192 320,-246"/>
<text text-anchor="middle" x="293" y="-215.3" font-family="Times,serif" font-size="14.00">xfm</text>
</g>
<!-- V0S55P1 -->
<g id="node6" class="node">
<title>V0S55P1</title>
<polygon fill="#0000ff" fill-opacity="0.250980" stroke="black" points="441,-145 145,-145 145,-91 441,-91 441,-145"/>
<text text-anchor="middle" x="293" y="-114.3" font-family="Times,serif" font-size="14.00">TGT_Direct_All_ln_ALL_Direct_Tgt_Part</text>
</g>
<!-- V0S52&#45;&gt;V0S55P1 -->
<g id="edge4" class="edge">
<title>V0S52&#45;&gt;V0S55P1</title>
<path fill="none" stroke="black" d="M293,-191.99C293,-180.82 293,-167.58 293,-155.46"/>
<polygon fill="black" stroke="black" points="296.5,-155.18 293,-145.18 289.5,-155.18 296.5,-155.18"/>
<text text-anchor="middle" x="340.5" y="-166" font-family="Times,serif" font-size="10.00">ln_ALL_Direct_Tgt</text>
</g>
<!-- V0S55 -->
<g id="node8" class="node">
<title>V0S55</title>
<polygon fill="#0000ff" fill-opacity="0.250980" stroke="black" points="354,-54 232,-54 232,0 354,0 354,-54"/>
<text text-anchor="middle" x="293" y="-23.3" font-family="Times,serif" font-size="14.00">TGT_Direct_All</text>
</g>
<!-- V0S55P1&#45;&gt;V0S55 -->
<g id="edge6" class="edge">
<title>V0S55P1&#45;&gt;V0S55</title>
<path fill="none" stroke="black" d="M293,-90.78C293,-82.45 293,-73.09 293,-64.18"/>
<polygon fill="black" stroke="black" points="296.5,-64.03 293,-54.03 289.5,-64.03 296.5,-64.03"/>
</g>
<!-- V0S52P4&#45;&gt;V0S52 -->
<g id="edge5" class="edge">
<title>V0S52P4&#45;&gt;V0S52</title>
<path fill="none" stroke="black" d="M293,-282.78C293,-274.45 293,-265.09 293,-256.18"/>
<polygon fill="black" stroke="black" points="296.5,-256.03 293,-246.03 289.5,-256.03 296.5,-256.03"/>
</g>
</g>
</svg>
