<?xml version="1.0" encoding="UTF-8" standalone="no"?>
<!DOCTYPE svg PUBLIC "-//W3C//DTD SVG 1.1//EN"
 "http://www.w3.org/Graphics/SVG/1.1/DTD/svg11.dtd">
<!-- Generated by graphviz version 2.43.0 (0)
 -->
<!-- Pages: 1 -->
<svg width="612pt" height="1449pt"
 viewBox="0.00 0.00 611.50 1449.00" xmlns="http://www.w3.org/2000/svg" xmlns:xlink="http://www.w3.org/1999/xlink">
<g id="graph0" class="graph" transform="scale(1 1) rotate(0) translate(4 1445)">
<polygon fill="white" stroke="transparent" points="-4,4 -4,-1445 607.5,-1445 607.5,4 -4,4"/>
<!-- ROOT -->
<g id="node1" class="node">
<title>ROOT</title>
<polygon fill="#0000ff" fill-opacity="0.250980" stroke="black" points="369,-1441 35,-1441 35,-1387 369,-1387 369,-1441"/>
<text text-anchor="middle" x="202" y="-1410.3" font-family="Times,serif" font-size="14.00">job_DBdirect_Mis006_PITA_LONP_Extr_POC</text>
</g>
<!-- V0 -->
<g id="node2" class="node">
<title>V0</title>
<polygon fill="#0000ff" fill-opacity="0.250980" stroke="black" points="245,-1350 159,-1350 159,-1296 245,-1296 245,-1350"/>
<text text-anchor="middle" x="202" y="-1319.3" font-family="Times,serif" font-size="14.00">Job_VIEW</text>
</g>
<!-- ROOT&#45;&gt;V0 -->
<g id="edge1" class="edge">
<title>ROOT&#45;&gt;V0</title>
<path fill="none" stroke="black" d="M202,-1386.78C202,-1378.45 202,-1369.09 202,-1360.18"/>
<polygon fill="black" stroke="black" points="205.5,-1360.03 202,-1350.03 198.5,-1360.03 205.5,-1360.03"/>
</g>
<!-- V99A7 -->
<g id="node3" class="node">
<title>V99A7</title>
<polygon fill="#0000ff" fill-opacity="0.250980" stroke="black" points="97.5,-1259 34.5,-1259 34.5,-1205 97.5,-1205 97.5,-1259"/>
<text text-anchor="middle" x="66" y="-1228.3" font-family="Times,serif" font-size="14.00">V99A7</text>
</g>
<!-- V0&#45;&gt;V99A7 -->
<g id="edge2" class="edge">
<title>V0&#45;&gt;V99A7</title>
<path fill="none" stroke="black" d="M161.93,-1295.78C144.29,-1284.23 123.61,-1270.7 105.98,-1259.16"/>
<polygon fill="black" stroke="black" points="107.88,-1256.22 97.6,-1253.68 104.05,-1262.08 107.88,-1256.22"/>
</g>
<!-- V99S3 -->
<g id="node4" class="node">
<title>V99S3</title>
<polygon fill="#0000ff" fill-opacity="0.250980" stroke="black" points="288.5,-1259 115.5,-1259 115.5,-1205 288.5,-1205 288.5,-1259"/>
<text text-anchor="middle" x="202" y="-1228.3" font-family="Times,serif" font-size="14.00">NETZ_SRC_TBL_NM2</text>
</g>
<!-- V0&#45;&gt;V99S3 -->
<g id="edge3" class="edge">
<title>V0&#45;&gt;V99S3</title>
<path fill="none" stroke="black" d="M202,-1295.78C202,-1287.45 202,-1278.09 202,-1269.18"/>
<polygon fill="black" stroke="black" points="205.5,-1269.03 202,-1259.03 198.5,-1269.03 205.5,-1269.03"/>
</g>
<!-- V99S9 -->
<g id="node5" class="node">
<title>V99S9</title>
<polygon fill="#0000ff" fill-opacity="0.250980" stroke="black" points="502,-1259 338,-1259 338,-1205 502,-1205 502,-1259"/>
<text text-anchor="middle" x="420" y="-1228.3" font-family="Times,serif" font-size="14.00">NETZ_SRC_TBL_NM</text>
</g>
<!-- V0&#45;&gt;V99S9 -->
<g id="edge4" class="edge">
<title>V0&#45;&gt;V99S9</title>
<path fill="none" stroke="black" d="M245.07,-1304.42C273.99,-1292.61 312.84,-1276.75 346.57,-1262.98"/>
<polygon fill="black" stroke="black" points="348,-1266.17 355.94,-1259.15 345.36,-1259.69 348,-1266.17"/>
</g>
<!-- V99S0P1 -->
<g id="node11" class="node">
<title>V99S0P1</title>
<polygon fill="#0000ff" fill-opacity="0.250980" stroke="black" points="250,-1158 0,-1158 0,-1104 250,-1104 250,-1158"/>
<text text-anchor="middle" x="125" y="-1127.3" font-family="Times,serif" font-size="14.00">Transformer_84_ln_Nxt_Lst_Part</text>
</g>
<!-- V99S3&#45;&gt;V99S0P1 -->
<g id="edge12" class="edge">
<title>V99S3&#45;&gt;V99S0P1</title>
<path fill="none" stroke="black" d="M181.77,-1204.99C172.56,-1193.15 161.53,-1178.97 151.66,-1166.27"/>
<polygon fill="black" stroke="black" points="154.27,-1163.93 145.36,-1158.18 148.74,-1168.22 154.27,-1163.93"/>
<text text-anchor="middle" x="193.5" y="-1179" font-family="Times,serif" font-size="10.00">ln_Nxt_Lst</text>
</g>
<!-- V99S8P1 -->
<g id="node20" class="node">
<title>V99S8P1</title>
<polygon fill="#0000ff" fill-opacity="0.250980" stroke="black" points="603.5,-1158 268.5,-1158 268.5,-1104 603.5,-1104 603.5,-1158"/>
<text text-anchor="middle" x="436" y="-1127.3" font-family="Times,serif" font-size="14.00">Vertical_Pivot_of_Tier_rates_lnk_Source_Part</text>
</g>
<!-- V99S9&#45;&gt;V99S8P1 -->
<g id="edge20" class="edge">
<title>V99S9&#45;&gt;V99S8P1</title>
<path fill="none" stroke="black" d="M424.2,-1204.99C426.03,-1193.71 428.19,-1180.31 430.17,-1168.09"/>
<polygon fill="black" stroke="black" points="433.63,-1168.61 431.77,-1158.18 426.72,-1167.49 433.63,-1168.61"/>
<text text-anchor="middle" x="457.5" y="-1179" font-family="Times,serif" font-size="10.00">lnk_Source</text>
</g>
<!-- V0S99 -->
<g id="node6" class="node">
<title>V0S99</title>
<polygon fill="#0000ff" fill-opacity="0.250980" stroke="black" points="323.5,-246 246.5,-246 246.5,-192 323.5,-192 323.5,-246"/>
<text text-anchor="middle" x="285" y="-215.3" font-family="Times,serif" font-size="14.00">trx_PITA</text>
</g>
<!-- V99S5P1 -->
<g id="node7" class="node">
<title>V99S5P1</title>
<polygon fill="#0000ff" fill-opacity="0.250980" stroke="black" points="412,-145 158,-145 158,-91 412,-91 412,-145"/>
<text text-anchor="middle" x="285" y="-114.3" font-family="Times,serif" font-size="14.00">DS_TGT_PITA_Lnk_PITA_Tgt_Part</text>
</g>
<!-- V0S99&#45;&gt;V99S5P1 -->
<g id="edge5" class="edge">
<title>V0S99&#45;&gt;V99S5P1</title>
<path fill="none" stroke="black" d="M285,-191.99C285,-180.82 285,-167.58 285,-155.46"/>
<polygon fill="black" stroke="black" points="288.5,-155.18 285,-145.18 281.5,-155.18 288.5,-155.18"/>
<text text-anchor="middle" x="321" y="-166" font-family="Times,serif" font-size="10.00">Lnk_PITA_Tgt</text>
</g>
<!-- V99S5 -->
<g id="node16" class="node">
<title>V99S5</title>
<polygon fill="#0000ff" fill-opacity="0.250980" stroke="black" points="341.5,-54 228.5,-54 228.5,0 341.5,0 341.5,-54"/>
<text text-anchor="middle" x="285" y="-23.3" font-family="Times,serif" font-size="14.00">DS_TGT_PITA</text>
</g>
<!-- V99S5P1&#45;&gt;V99S5 -->
<g id="edge15" class="edge">
<title>V99S5P1&#45;&gt;V99S5</title>
<path fill="none" stroke="black" d="M285,-90.78C285,-82.45 285,-73.09 285,-64.18"/>
<polygon fill="black" stroke="black" points="288.5,-64.03 285,-54.03 281.5,-64.03 288.5,-64.03"/>
</g>
<!-- V0S99P2 -->
<g id="node8" class="node">
<title>V0S99P2</title>
<polygon fill="#0000ff" fill-opacity="0.250980" stroke="black" points="376,-337 194,-337 194,-283 376,-283 376,-337"/>
<text text-anchor="middle" x="285" y="-306.3" font-family="Times,serif" font-size="14.00">trx_PITA_trx_PITA_Part</text>
</g>
<!-- V0S99P2&#45;&gt;V0S99 -->
<g id="edge6" class="edge">
<title>V0S99P2&#45;&gt;V0S99</title>
<path fill="none" stroke="black" d="M285,-282.78C285,-274.45 285,-265.09 285,-256.18"/>
<polygon fill="black" stroke="black" points="288.5,-256.03 285,-246.03 281.5,-256.03 288.5,-256.03"/>
</g>
<!-- V99S0 -->
<g id="node9" class="node">
<title>V99S0</title>
<polygon fill="#0000ff" fill-opacity="0.250980" stroke="black" points="280.5,-1067 149.5,-1067 149.5,-1013 280.5,-1013 280.5,-1067"/>
<text text-anchor="middle" x="215" y="-1036.3" font-family="Times,serif" font-size="14.00">Transformer_84</text>
</g>
<!-- V99S2P2 -->
<g id="node10" class="node">
<title>V99S2P2</title>
<polygon fill="#0000ff" fill-opacity="0.250980" stroke="black" points="331.5,-894 148.5,-894 148.5,-840 331.5,-840 331.5,-894"/>
<text text-anchor="middle" x="240" y="-863.3" font-family="Times,serif" font-size="14.00">joi_PITA_joi_LONP_Part</text>
</g>
<!-- V99S0&#45;&gt;V99S2P2 -->
<g id="edge7" class="edge">
<title>V99S0&#45;&gt;V99S2P2</title>
<path fill="none" stroke="black" d="M218.85,-1012.66C223.1,-983.58 229.97,-936.59 234.72,-904.09"/>
<polygon fill="black" stroke="black" points="238.2,-904.49 236.19,-894.09 231.28,-903.48 238.2,-904.49"/>
<text text-anchor="middle" x="247.5" y="-987" font-family="Times,serif" font-size="10.00">joi_LONP</text>
</g>
<!-- V99S2 -->
<g id="node12" class="node">
<title>V99S2</title>
<polygon fill="#0000ff" fill-opacity="0.250980" stroke="black" points="322,-438 248,-438 248,-384 322,-384 322,-438"/>
<text text-anchor="middle" x="285" y="-407.3" font-family="Times,serif" font-size="14.00">joi_PITA</text>
</g>
<!-- V99S2P2&#45;&gt;V99S2 -->
<g id="edge11" class="edge">
<title>V99S2P2&#45;&gt;V99S2</title>
<path fill="none" stroke="black" d="M251.54,-839.76C261.06,-815.72 273,-778.9 273,-745.5 273,-745.5 273,-745.5 273,-501 273,-483.61 275.28,-464.47 277.85,-448.41"/>
<polygon fill="black" stroke="black" points="281.33,-448.8 279.56,-438.36 274.43,-447.63 281.33,-448.8"/>
</g>
<!-- V99S0P1&#45;&gt;V99S0 -->
<g id="edge8" class="edge">
<title>V99S0P1&#45;&gt;V99S0</title>
<path fill="none" stroke="black" d="M151.52,-1103.78C160.85,-1094.54 171.48,-1084.04 181.33,-1074.3"/>
<polygon fill="black" stroke="black" points="184.02,-1076.55 188.67,-1067.03 179.1,-1071.58 184.02,-1076.55"/>
</g>
<!-- V99S2&#45;&gt;V0S99P2 -->
<g id="edge9" class="edge">
<title>V99S2&#45;&gt;V0S99P2</title>
<path fill="none" stroke="black" d="M285,-383.99C285,-372.82 285,-359.58 285,-347.46"/>
<polygon fill="black" stroke="black" points="288.5,-347.18 285,-337.18 281.5,-347.18 288.5,-347.18"/>
<text text-anchor="middle" x="307" y="-358" font-family="Times,serif" font-size="10.00">trx_PITA</text>
</g>
<!-- V99S2P1 -->
<g id="node13" class="node">
<title>V99S2P1</title>
<polygon fill="#0000ff" fill-opacity="0.250980" stroke="black" points="477,-529 303,-529 303,-475 477,-475 477,-529"/>
<text text-anchor="middle" x="390" y="-498.3" font-family="Times,serif" font-size="14.00">joi_PITA_joi_PITA_Part</text>
</g>
<!-- V99S2P1&#45;&gt;V99S2 -->
<g id="edge10" class="edge">
<title>V99S2P1&#45;&gt;V99S2</title>
<path fill="none" stroke="black" d="M359.06,-474.78C347.96,-465.36 335.29,-454.63 323.61,-444.73"/>
<polygon fill="black" stroke="black" points="325.61,-441.83 315.71,-438.03 321.08,-447.17 325.61,-441.83"/>
</g>
<!-- V99S4 -->
<g id="node14" class="node">
<title>V99S4</title>
<polygon fill="#0000ff" fill-opacity="0.250980" stroke="black" points="434.5,-630 357.5,-630 357.5,-576 434.5,-576 434.5,-630"/>
<text text-anchor="middle" x="396" y="-599.3" font-family="Times,serif" font-size="14.00">Copy_59</text>
</g>
<!-- V99S4&#45;&gt;V99S2P1 -->
<g id="edge13" class="edge">
<title>V99S4&#45;&gt;V99S2P1</title>
<path fill="none" stroke="black" d="M394.42,-575.99C393.75,-564.82 392.94,-551.58 392.21,-539.46"/>
<polygon fill="black" stroke="black" points="395.69,-538.95 391.59,-529.18 388.7,-539.37 395.69,-538.95"/>
<text text-anchor="middle" x="415" y="-550" font-family="Times,serif" font-size="10.00">joi_PITA</text>
</g>
<!-- V99S4P1 -->
<g id="node15" class="node">
<title>V99S4P1</title>
<polygon fill="#0000ff" fill-opacity="0.250980" stroke="black" points="493.5,-721 302.5,-721 302.5,-667 493.5,-667 493.5,-721"/>
<text text-anchor="middle" x="398" y="-690.3" font-family="Times,serif" font-size="14.00">Copy_59_DSLink61_Part</text>
</g>
<!-- V99S4P1&#45;&gt;V99S4 -->
<g id="edge14" class="edge">
<title>V99S4P1&#45;&gt;V99S4</title>
<path fill="none" stroke="black" d="M397.41,-666.78C397.22,-658.45 397.01,-649.09 396.81,-640.18"/>
<polygon fill="black" stroke="black" points="400.31,-639.95 396.59,-630.03 393.31,-640.11 400.31,-639.95"/>
</g>
<!-- V99S6 -->
<g id="node17" class="node">
<title>V99S6</title>
<polygon fill="#0000ff" fill-opacity="0.250980" stroke="black" points="467.5,-822 336.5,-822 336.5,-768 467.5,-768 467.5,-822"/>
<text text-anchor="middle" x="402" y="-791.3" font-family="Times,serif" font-size="14.00">Transformer_50</text>
</g>
<!-- V99S6&#45;&gt;V99S4P1 -->
<g id="edge16" class="edge">
<title>V99S6&#45;&gt;V99S4P1</title>
<path fill="none" stroke="black" d="M400.95,-767.99C400.5,-756.82 399.96,-743.58 399.47,-731.46"/>
<polygon fill="black" stroke="black" points="402.96,-731.03 399.06,-721.18 395.96,-731.31 402.96,-731.03"/>
<text text-anchor="middle" x="426" y="-742" font-family="Times,serif" font-size="10.00">DSLink61</text>
</g>
<!-- V99S6P1 -->
<g id="node18" class="node">
<title>V99S6P1</title>
<polygon fill="#0000ff" fill-opacity="0.250980" stroke="black" points="509.5,-966 330.5,-966 330.5,-912 509.5,-912 509.5,-966"/>
<text text-anchor="middle" x="420" y="-935.3" font-family="Times,serif" font-size="14.00">Transformer_50_i_Part</text>
</g>
<!-- V99S6P1&#45;&gt;V99S6 -->
<g id="edge17" class="edge">
<title>V99S6P1&#45;&gt;V99S6</title>
<path fill="none" stroke="black" d="M416.7,-911.96C413.87,-889.68 409.78,-857.37 406.63,-832.51"/>
<polygon fill="black" stroke="black" points="410.07,-831.84 405.34,-822.36 403.13,-832.72 410.07,-831.84"/>
</g>
<!-- V99S8 -->
<g id="node19" class="node">
<title>V99S8</title>
<polygon fill="#0000ff" fill-opacity="0.250980" stroke="black" points="528,-1067 314,-1067 314,-1013 528,-1013 528,-1067"/>
<text text-anchor="middle" x="421" y="-1036.3" font-family="Times,serif" font-size="14.00">Vertical_Pivot_of_Tier_rates</text>
</g>
<!-- V99S8&#45;&gt;V99S6P1 -->
<g id="edge18" class="edge">
<title>V99S8&#45;&gt;V99S6P1</title>
<path fill="none" stroke="black" d="M420.74,-1012.99C420.62,-1001.82 420.49,-988.58 420.37,-976.46"/>
<polygon fill="black" stroke="black" points="423.87,-976.15 420.26,-966.18 416.87,-976.22 423.87,-976.15"/>
<text text-anchor="middle" x="423" y="-987" font-family="Times,serif" font-size="10.00">i</text>
</g>
<!-- V99S8P1&#45;&gt;V99S8 -->
<g id="edge19" class="edge">
<title>V99S8P1&#45;&gt;V99S8</title>
<path fill="none" stroke="black" d="M431.58,-1103.78C430.18,-1095.45 428.6,-1086.09 427.1,-1077.18"/>
<polygon fill="black" stroke="black" points="430.5,-1076.31 425.39,-1067.03 423.6,-1077.48 430.5,-1076.31"/>
</g>
</g>
</svg>
