<?xml version="1.0" encoding="UTF-8" standalone="no"?>
<!DOCTYPE svg PUBLIC "-//W3C//DTD SVG 1.1//EN"
 "http://www.w3.org/Graphics/SVG/1.1/DTD/svg11.dtd">
<!-- Generated by graphviz version 2.43.0 (0)
 -->
<!-- Pages: 1 -->
<svg width="612pt" height="1862pt"
 viewBox="0.00 0.00 611.50 1862.00" xmlns="http://www.w3.org/2000/svg" xmlns:xlink="http://www.w3.org/1999/xlink">
<g id="graph0" class="graph" transform="scale(1 1) rotate(0) translate(4 1858)">
<polygon fill="white" stroke="transparent" points="-4,4 -4,-1858 607.5,-1858 607.5,4 -4,4"/>
<!-- ROOT -->
<g id="node1" class="node">
<title>ROOT</title>
<polygon fill="#0000ff" fill-opacity="0.250980" stroke="black" points="336,-1854 2,-1854 2,-1800 336,-1800 336,-1854"/>
<text text-anchor="middle" x="169" y="-1823.3" font-family="Times,serif" font-size="14.00">job_DBdirect_Mis006_PITA_LONP_Extr_POC</text>
</g>
<!-- V0 -->
<g id="node2" class="node">
<title>V0</title>
<polygon fill="#0000ff" fill-opacity="0.250980" stroke="black" points="212,-1764 126,-1764 126,-1710 212,-1710 212,-1764"/>
<text text-anchor="middle" x="169" y="-1733.3" font-family="Times,serif" font-size="14.00">Job_VIEW</text>
</g>
<!-- ROOT&#45;&gt;V0 -->
<g id="edge1" class="edge">
<title>ROOT&#45;&gt;V0</title>
<path fill="none" stroke="black" d="M169,-1799.6C169,-1791.61 169,-1782.69 169,-1774.18"/>
<polygon fill="black" stroke="black" points="172.5,-1774.08 169,-1764.08 165.5,-1774.08 172.5,-1774.08"/>
</g>
<!-- V99A7 -->
<g id="node3" class="node">
<title>V99A7</title>
<polygon fill="#0000ff" fill-opacity="0.250980" stroke="black" points="64.5,-1674 1.5,-1674 1.5,-1620 64.5,-1620 64.5,-1674"/>
<text text-anchor="middle" x="33" y="-1643.3" font-family="Times,serif" font-size="14.00">V99A7</text>
</g>
<!-- V0&#45;&gt;V99A7 -->
<g id="edge2" class="edge">
<title>V0&#45;&gt;V99A7</title>
<path fill="none" stroke="black" d="M128.34,-1709.78C113.12,-1699.95 95.51,-1688.58 73.28,-1674.17"/>
<polygon fill="black" stroke="black" points="75.17,-1671.23 64.87,-1668.73 71.36,-1677.1 75.17,-1671.23"/>
</g>
<!-- V99S3 -->
<g id="node4" class="node">
<title>V99S3</title>
<polygon fill="#0000ff" fill-opacity="0.250980" stroke="black" points="255.5,-1674 82.5,-1674 82.5,-1620 255.5,-1620 255.5,-1674"/>
<text text-anchor="middle" x="169" y="-1643.3" font-family="Times,serif" font-size="14.00">NETZ_SRC_TBL_NM2</text>
</g>
<!-- V0&#45;&gt;V99S3 -->
<g id="edge3" class="edge">
<title>V0&#45;&gt;V99S3</title>
<path fill="none" stroke="black" d="M169,-1709.6C169,-1701.61 169,-1692.69 169,-1684.18"/>
<polygon fill="black" stroke="black" points="172.5,-1684.08 169,-1674.08 165.5,-1684.08 172.5,-1684.08"/>
</g>
<!-- V99S9 -->
<g id="node5" class="node">
<title>V99S9</title>
<polygon fill="#0000ff" fill-opacity="0.250980" stroke="black" points="484,-1674 320,-1674 320,-1620 484,-1620 484,-1674"/>
<text text-anchor="middle" x="402" y="-1643.3" font-family="Times,serif" font-size="14.00">NETZ_SRC_TBL_NM</text>
</g>
<!-- V0&#45;&gt;V99S9 -->
<g id="edge4" class="edge">
<title>V0&#45;&gt;V99S9</title>
<path fill="none" stroke="black" d="M212.01,-1719.76C243.03,-1708.04 285.8,-1691.89 322.91,-1677.87"/>
<polygon fill="black" stroke="black" points="324.59,-1680.98 332.71,-1674.17 322.12,-1674.43 324.59,-1680.98"/>
</g>
<!-- V99S3P1 -->
<g id="node17" class="node">
<title>V99S3P1</title>
<polygon fill="#0000ff" fill-opacity="0.250980" stroke="black" points="272.5,-1584 17.5,-1584 17.5,-1530 272.5,-1530 272.5,-1584"/>
<text text-anchor="middle" x="145" y="-1553.3" font-family="Times,serif" font-size="14.00">NETZ_SRC_TBL_NM2_ln_Nxt_Lst</text>
</g>
<!-- V99S3&#45;&gt;V99S3P1 -->
<g id="edge15" class="edge">
<title>V99S3&#45;&gt;V99S3P1</title>
<path fill="none" stroke="black" d="M161.8,-1619.6C159.6,-1611.52 157.13,-1602.49 154.79,-1593.9"/>
<polygon fill="black" stroke="black" points="158.12,-1592.81 152.11,-1584.08 151.37,-1594.65 158.12,-1592.81"/>
</g>
<!-- V99S9P1 -->
<g id="node28" class="node">
<title>V99S9P1</title>
<polygon fill="#0000ff" fill-opacity="0.250980" stroke="black" points="549,-1584 301,-1584 301,-1530 549,-1530 549,-1584"/>
<text text-anchor="middle" x="425" y="-1553.3" font-family="Times,serif" font-size="14.00">NETZ_SRC_TBL_NM_lnk_Source</text>
</g>
<!-- V99S9&#45;&gt;V99S9P1 -->
<g id="edge27" class="edge">
<title>V99S9&#45;&gt;V99S9P1</title>
<path fill="none" stroke="black" d="M408.9,-1619.6C411.01,-1611.52 413.37,-1602.49 415.62,-1593.9"/>
<polygon fill="black" stroke="black" points="419.04,-1594.64 418.18,-1584.08 412.27,-1592.87 419.04,-1594.64"/>
</g>
<!-- V0S99 -->
<g id="node6" class="node">
<title>V0S99</title>
<polygon fill="#0000ff" fill-opacity="0.250980" stroke="black" points="342.5,-324 265.5,-324 265.5,-270 342.5,-270 342.5,-324"/>
<text text-anchor="middle" x="304" y="-293.3" font-family="Times,serif" font-size="14.00">trx_PITA</text>
</g>
<!-- V0S99P1 -->
<g id="node7" class="node">
<title>V0S99P1</title>
<polygon fill="#0000ff" fill-opacity="0.250980" stroke="black" points="394.5,-234 213.5,-234 213.5,-180 394.5,-180 394.5,-234"/>
<text text-anchor="middle" x="304" y="-203.3" font-family="Times,serif" font-size="14.00">trx_PITA_Lnk_PITA_Tgt</text>
</g>
<!-- V0S99&#45;&gt;V0S99P1 -->
<g id="edge5" class="edge">
<title>V0S99&#45;&gt;V0S99P1</title>
<path fill="none" stroke="black" d="M304,-269.6C304,-261.61 304,-252.69 304,-244.18"/>
<polygon fill="black" stroke="black" points="307.5,-244.08 304,-234.08 300.5,-244.08 307.5,-244.08"/>
</g>
<!-- V99S5P1 -->
<g id="node8" class="node">
<title>V99S5P1</title>
<polygon fill="#0000ff" fill-opacity="0.250980" stroke="black" points="431,-144 177,-144 177,-90 431,-90 431,-144"/>
<text text-anchor="middle" x="304" y="-113.3" font-family="Times,serif" font-size="14.00">DS_TGT_PITA_Lnk_PITA_Tgt_Part</text>
</g>
<!-- V0S99P1&#45;&gt;V99S5P1 -->
<g id="edge6" class="edge">
<title>V0S99P1&#45;&gt;V99S5P1</title>
<path fill="none" stroke="black" d="M304,-179.6C304,-171.61 304,-162.69 304,-154.18"/>
<polygon fill="black" stroke="black" points="307.5,-154.08 304,-144.08 300.5,-154.08 307.5,-154.08"/>
</g>
<!-- V99S5 -->
<g id="node21" class="node">
<title>V99S5</title>
<polygon fill="#0000ff" fill-opacity="0.250980" stroke="black" points="360.5,-54 247.5,-54 247.5,0 360.5,0 360.5,-54"/>
<text text-anchor="middle" x="304" y="-23.3" font-family="Times,serif" font-size="14.00">DS_TGT_PITA</text>
</g>
<!-- V99S5P1&#45;&gt;V99S5 -->
<g id="edge20" class="edge">
<title>V99S5P1&#45;&gt;V99S5</title>
<path fill="none" stroke="black" d="M304,-89.6C304,-81.61 304,-72.69 304,-64.18"/>
<polygon fill="black" stroke="black" points="307.5,-64.08 304,-54.08 300.5,-64.08 307.5,-64.08"/>
</g>
<!-- V0S99P2 -->
<g id="node9" class="node">
<title>V0S99P2</title>
<polygon fill="#0000ff" fill-opacity="0.250980" stroke="black" points="395,-414 213,-414 213,-360 395,-360 395,-414"/>
<text text-anchor="middle" x="304" y="-383.3" font-family="Times,serif" font-size="14.00">trx_PITA_trx_PITA_Part</text>
</g>
<!-- V0S99P2&#45;&gt;V0S99 -->
<g id="edge7" class="edge">
<title>V0S99P2&#45;&gt;V0S99</title>
<path fill="none" stroke="black" d="M304,-359.6C304,-351.61 304,-342.69 304,-334.18"/>
<polygon fill="black" stroke="black" points="307.5,-334.08 304,-324.08 300.5,-334.08 307.5,-334.08"/>
</g>
<!-- V99S0 -->
<g id="node10" class="node">
<title>V99S0</title>
<polygon fill="#0000ff" fill-opacity="0.250980" stroke="black" points="210.5,-1404 79.5,-1404 79.5,-1350 210.5,-1350 210.5,-1404"/>
<text text-anchor="middle" x="145" y="-1373.3" font-family="Times,serif" font-size="14.00">Transformer_84</text>
</g>
<!-- V99S0P2 -->
<g id="node11" class="node">
<title>V99S0P2</title>
<polygon fill="#0000ff" fill-opacity="0.250980" stroke="black" points="285.5,-1314 82.5,-1314 82.5,-1260 285.5,-1260 285.5,-1314"/>
<text text-anchor="middle" x="184" y="-1283.3" font-family="Times,serif" font-size="14.00">Transformer_84_joi_LONP</text>
</g>
<!-- V99S0&#45;&gt;V99S0P2 -->
<g id="edge8" class="edge">
<title>V99S0&#45;&gt;V99S0P2</title>
<path fill="none" stroke="black" d="M156.7,-1349.6C160.36,-1341.34 164.46,-1332.1 168.34,-1323.34"/>
<polygon fill="black" stroke="black" points="171.59,-1324.64 172.44,-1314.08 165.19,-1321.81 171.59,-1324.64"/>
</g>
<!-- V99S2P2 -->
<g id="node13" class="node">
<title>V99S2P2</title>
<polygon fill="#0000ff" fill-opacity="0.250980" stroke="black" points="317.5,-1134 134.5,-1134 134.5,-1080 317.5,-1080 317.5,-1134"/>
<text text-anchor="middle" x="226" y="-1103.3" font-family="Times,serif" font-size="14.00">joi_PITA_joi_LONP_Part</text>
</g>
<!-- V99S0P2&#45;&gt;V99S2P2 -->
<g id="edge10" class="edge">
<title>V99S0P2&#45;&gt;V99S2P2</title>
<path fill="none" stroke="black" d="M190.2,-1259.74C197.41,-1229.15 209.38,-1178.45 217.47,-1144.16"/>
<polygon fill="black" stroke="black" points="220.96,-1144.62 219.85,-1134.08 214.14,-1143.01 220.96,-1144.62"/>
</g>
<!-- V99S0P1 -->
<g id="node12" class="node">
<title>V99S0P1</title>
<polygon fill="#0000ff" fill-opacity="0.250980" stroke="black" points="250,-1494 0,-1494 0,-1440 250,-1440 250,-1494"/>
<text text-anchor="middle" x="125" y="-1463.3" font-family="Times,serif" font-size="14.00">Transformer_84_ln_Nxt_Lst_Part</text>
</g>
<!-- V99S0P1&#45;&gt;V99S0 -->
<g id="edge9" class="edge">
<title>V99S0P1&#45;&gt;V99S0</title>
<path fill="none" stroke="black" d="M131,-1439.6C132.84,-1431.52 134.89,-1422.49 136.84,-1413.9"/>
<polygon fill="black" stroke="black" points="140.27,-1414.61 139.07,-1404.08 133.44,-1413.06 140.27,-1414.61"/>
</g>
<!-- V99S2 -->
<g id="node14" class="node">
<title>V99S2</title>
<polygon fill="#0000ff" fill-opacity="0.250980" stroke="black" points="341,-594 267,-594 267,-540 341,-540 341,-594"/>
<text text-anchor="middle" x="304" y="-563.3" font-family="Times,serif" font-size="14.00">joi_PITA</text>
</g>
<!-- V99S2P2&#45;&gt;V99S2 -->
<g id="edge13" class="edge">
<title>V99S2P2&#45;&gt;V99S2</title>
<path fill="none" stroke="black" d="M231.03,-1079.87C237.24,-1045.28 247,-982.3 247,-928 247,-928 247,-928 247,-746 247,-694.54 268.87,-638.53 285.52,-603.35"/>
<polygon fill="black" stroke="black" points="288.84,-604.53 290.06,-594 282.54,-601.47 288.84,-604.53"/>
</g>
<!-- V99S2P3 -->
<g id="node15" class="node">
<title>V99S2P3</title>
<polygon fill="#0000ff" fill-opacity="0.250980" stroke="black" points="374.5,-504 233.5,-504 233.5,-450 374.5,-450 374.5,-504"/>
<text text-anchor="middle" x="304" y="-473.3" font-family="Times,serif" font-size="14.00">joi_PITA_trx_PITA</text>
</g>
<!-- V99S2&#45;&gt;V99S2P3 -->
<g id="edge11" class="edge">
<title>V99S2&#45;&gt;V99S2P3</title>
<path fill="none" stroke="black" d="M304,-539.6C304,-531.61 304,-522.69 304,-514.18"/>
<polygon fill="black" stroke="black" points="307.5,-514.08 304,-504.08 300.5,-514.08 307.5,-514.08"/>
</g>
<!-- V99S2P3&#45;&gt;V0S99P2 -->
<g id="edge14" class="edge">
<title>V99S2P3&#45;&gt;V0S99P2</title>
<path fill="none" stroke="black" d="M304,-449.6C304,-441.61 304,-432.69 304,-424.18"/>
<polygon fill="black" stroke="black" points="307.5,-424.08 304,-414.08 300.5,-424.08 307.5,-424.08"/>
</g>
<!-- V99S2P1 -->
<g id="node16" class="node">
<title>V99S2P1</title>
<polygon fill="#0000ff" fill-opacity="0.250980" stroke="black" points="459,-684 285,-684 285,-630 459,-630 459,-684"/>
<text text-anchor="middle" x="372" y="-653.3" font-family="Times,serif" font-size="14.00">joi_PITA_joi_PITA_Part</text>
</g>
<!-- V99S2P1&#45;&gt;V99S2 -->
<g id="edge12" class="edge">
<title>V99S2P1&#45;&gt;V99S2</title>
<path fill="none" stroke="black" d="M351.6,-629.6C344.95,-620.99 337.47,-611.31 330.44,-602.22"/>
<polygon fill="black" stroke="black" points="333.04,-599.85 324.15,-594.08 327.5,-604.13 333.04,-599.85"/>
</g>
<!-- V99S3P1&#45;&gt;V99S0P1 -->
<g id="edge16" class="edge">
<title>V99S3P1&#45;&gt;V99S0P1</title>
<path fill="none" stroke="black" d="M139,-1529.6C137.16,-1521.52 135.11,-1512.49 133.16,-1503.9"/>
<polygon fill="black" stroke="black" points="136.56,-1503.06 130.93,-1494.08 129.73,-1504.61 136.56,-1503.06"/>
</g>
<!-- V99S4 -->
<g id="node18" class="node">
<title>V99S4</title>
<polygon fill="#0000ff" fill-opacity="0.250980" stroke="black" points="418.5,-864 341.5,-864 341.5,-810 418.5,-810 418.5,-864"/>
<text text-anchor="middle" x="380" y="-833.3" font-family="Times,serif" font-size="14.00">Copy_59</text>
</g>
<!-- V99S4P2 -->
<g id="node19" class="node">
<title>V99S4P2</title>
<polygon fill="#0000ff" fill-opacity="0.250980" stroke="black" points="445.5,-774 304.5,-774 304.5,-720 445.5,-720 445.5,-774"/>
<text text-anchor="middle" x="375" y="-743.3" font-family="Times,serif" font-size="14.00">Copy_59_joi_PITA</text>
</g>
<!-- V99S4&#45;&gt;V99S4P2 -->
<g id="edge17" class="edge">
<title>V99S4&#45;&gt;V99S4P2</title>
<path fill="none" stroke="black" d="M378.5,-809.6C378.05,-801.61 377.54,-792.69 377.06,-784.18"/>
<polygon fill="black" stroke="black" points="380.54,-783.87 376.48,-774.08 373.55,-784.26 380.54,-783.87"/>
</g>
<!-- V99S4P2&#45;&gt;V99S2P1 -->
<g id="edge19" class="edge">
<title>V99S4P2&#45;&gt;V99S2P1</title>
<path fill="none" stroke="black" d="M374.1,-719.6C373.83,-711.61 373.52,-702.69 373.23,-694.18"/>
<polygon fill="black" stroke="black" points="376.73,-693.96 372.89,-684.08 369.73,-694.19 376.73,-693.96"/>
</g>
<!-- V99S4P1 -->
<g id="node20" class="node">
<title>V99S4P1</title>
<polygon fill="#0000ff" fill-opacity="0.250980" stroke="black" points="478.5,-954 287.5,-954 287.5,-900 478.5,-900 478.5,-954"/>
<text text-anchor="middle" x="383" y="-923.3" font-family="Times,serif" font-size="14.00">Copy_59_DSLink61_Part</text>
</g>
<!-- V99S4P1&#45;&gt;V99S4 -->
<g id="edge18" class="edge">
<title>V99S4P1&#45;&gt;V99S4</title>
<path fill="none" stroke="black" d="M382.1,-899.6C381.83,-891.61 381.52,-882.69 381.23,-874.18"/>
<polygon fill="black" stroke="black" points="384.73,-873.96 380.89,-864.08 377.73,-874.19 384.73,-873.96"/>
</g>
<!-- V99S6 -->
<g id="node22" class="node">
<title>V99S6</title>
<polygon fill="#0000ff" fill-opacity="0.250980" stroke="black" points="478.5,-1134 347.5,-1134 347.5,-1080 478.5,-1080 478.5,-1134"/>
<text text-anchor="middle" x="413" y="-1103.3" font-family="Times,serif" font-size="14.00">Transformer_50</text>
</g>
<!-- V99S6P2 -->
<g id="node23" class="node">
<title>V99S6P2</title>
<polygon fill="#0000ff" fill-opacity="0.250980" stroke="black" points="499.5,-1044 292.5,-1044 292.5,-990 499.5,-990 499.5,-1044"/>
<text text-anchor="middle" x="396" y="-1013.3" font-family="Times,serif" font-size="14.00">Transformer_50_DSLink61</text>
</g>
<!-- V99S6&#45;&gt;V99S6P2 -->
<g id="edge21" class="edge">
<title>V99S6&#45;&gt;V99S6P2</title>
<path fill="none" stroke="black" d="M407.9,-1079.6C406.36,-1071.61 404.63,-1062.69 402.99,-1054.18"/>
<polygon fill="black" stroke="black" points="406.37,-1053.24 401.04,-1044.08 399.5,-1054.56 406.37,-1053.24"/>
</g>
<!-- V99S6P2&#45;&gt;V99S4P1 -->
<g id="edge23" class="edge">
<title>V99S6P2&#45;&gt;V99S4P1</title>
<path fill="none" stroke="black" d="M392.1,-989.6C390.92,-981.61 389.6,-972.69 388.34,-964.18"/>
<polygon fill="black" stroke="black" points="391.78,-963.46 386.85,-954.08 384.85,-964.49 391.78,-963.46"/>
</g>
<!-- V99S6P1 -->
<g id="node24" class="node">
<title>V99S6P1</title>
<polygon fill="#0000ff" fill-opacity="0.250980" stroke="black" points="508.5,-1224 329.5,-1224 329.5,-1170 508.5,-1170 508.5,-1224"/>
<text text-anchor="middle" x="419" y="-1193.3" font-family="Times,serif" font-size="14.00">Transformer_50_i_Part</text>
</g>
<!-- V99S6P1&#45;&gt;V99S6 -->
<g id="edge22" class="edge">
<title>V99S6P1&#45;&gt;V99S6</title>
<path fill="none" stroke="black" d="M417.2,-1169.6C416.66,-1161.61 416.05,-1152.69 415.47,-1144.18"/>
<polygon fill="black" stroke="black" points="418.95,-1143.82 414.78,-1134.08 411.97,-1144.3 418.95,-1143.82"/>
</g>
<!-- V99S8 -->
<g id="node25" class="node">
<title>V99S8</title>
<polygon fill="#0000ff" fill-opacity="0.250980" stroke="black" points="538,-1404 324,-1404 324,-1350 538,-1350 538,-1404"/>
<text text-anchor="middle" x="431" y="-1373.3" font-family="Times,serif" font-size="14.00">Vertical_Pivot_of_Tier_rates</text>
</g>
<!-- V99S8P2 -->
<g id="node26" class="node">
<title>V99S8P2</title>
<polygon fill="#0000ff" fill-opacity="0.250980" stroke="black" points="538.5,-1314 313.5,-1314 313.5,-1260 538.5,-1260 538.5,-1314"/>
<text text-anchor="middle" x="426" y="-1283.3" font-family="Times,serif" font-size="14.00">Vertical_Pivot_of_Tier_rates_i</text>
</g>
<!-- V99S8&#45;&gt;V99S8P2 -->
<g id="edge24" class="edge">
<title>V99S8&#45;&gt;V99S8P2</title>
<path fill="none" stroke="black" d="M429.5,-1349.6C429.05,-1341.61 428.54,-1332.69 428.06,-1324.18"/>
<polygon fill="black" stroke="black" points="431.54,-1323.87 427.48,-1314.08 424.55,-1324.26 431.54,-1323.87"/>
</g>
<!-- V99S8P2&#45;&gt;V99S6P1 -->
<g id="edge26" class="edge">
<title>V99S8P2&#45;&gt;V99S6P1</title>
<path fill="none" stroke="black" d="M423.9,-1259.6C423.26,-1251.61 422.55,-1242.69 421.88,-1234.18"/>
<polygon fill="black" stroke="black" points="425.36,-1233.77 421.07,-1224.08 418.38,-1234.33 425.36,-1233.77"/>
</g>
<!-- V99S8P1 -->
<g id="node27" class="node">
<title>V99S8P1</title>
<polygon fill="#0000ff" fill-opacity="0.250980" stroke="black" points="603.5,-1494 268.5,-1494 268.5,-1440 603.5,-1440 603.5,-1494"/>
<text text-anchor="middle" x="436" y="-1463.3" font-family="Times,serif" font-size="14.00">Vertical_Pivot_of_Tier_rates_lnk_Source_Part</text>
</g>
<!-- V99S8P1&#45;&gt;V99S8 -->
<g id="edge25" class="edge">
<title>V99S8P1&#45;&gt;V99S8</title>
<path fill="none" stroke="black" d="M434.5,-1439.6C434.05,-1431.61 433.54,-1422.69 433.06,-1414.18"/>
<polygon fill="black" stroke="black" points="436.54,-1413.87 432.48,-1404.08 429.55,-1414.26 436.54,-1413.87"/>
</g>
<!-- V99S9P1&#45;&gt;V99S8P1 -->
<g id="edge28" class="edge">
<title>V99S9P1&#45;&gt;V99S8P1</title>
<path fill="none" stroke="black" d="M428.3,-1529.6C429.3,-1521.61 430.41,-1512.69 431.48,-1504.18"/>
<polygon fill="black" stroke="black" points="434.97,-1504.44 432.74,-1494.08 428.03,-1503.57 434.97,-1504.44"/>
</g>
</g>
</svg>
